*
*
G04 PADS Layout (Build Number 2004.211.1) generated Gerber (RS-274-X) file*
G04 PC Version=2.1*
*
%IN "BD9E102FJ_104.pcb"*%
*
%MOMM*%
*
%FSLAX35Y35*%
*
*
*
*
G04 PC Standard Apertures*
*
*
G04 Thermal Relief Aperture macro.*
%AMTER*
1,1,$1,0,0*
1,0,$1-$2,0,0*
21,0,$3,$4,0,0,45*
21,0,$3,$4,0,0,135*
%
*
*
G04 Annular Aperture macro.*
%AMANN*
1,1,$1,0,0*
1,0,$2,0,0*
%
*
*
G04 Odd Aperture macro.*
%AMODD*
1,1,$1,0,0*
1,0,$1-0.005,0,0*
%
*
*
G04 PC Custom Aperture Macros*
*
*
*
*
*
*
G04 PC Aperture Table*
*
%ADD019C,0.2*%
%ADD024C,0.254*%
%ADD034C,0.0254*%
*
*
*
*
G04 PC Custom Flashes*
G04 Layer Name BD9E102FJ_104.pcb - flashes*
%LPD*%
*
*
G04 PC Circuitry*
G04 Layer Name BD9E102FJ_104.pcb - circuitry*
%LPD*%
*
G54D19*
G01X10000000Y32600000D02*
X23645390D01*
X10000000D02*
X10254000Y32663500D01*
Y32536500*
X10000000Y32600000*
X38000000D02*
X24354609D01*
X38000000D02*
X37746000Y32536500D01*
Y32663500*
X38000000Y32600000*
X23727272Y32631250D02*
Y32639062D01*
X23727272D02*
X23732954Y32654687D01*
X23732954D02*
X23738636Y32662500D01*
X23750000Y32670312*
X23750000D02*
X23772727D01*
X23772727D02*
X23784090Y32662500D01*
X23784090D02*
X23789772Y32654687D01*
X23789772D02*
X23795454Y32639062D01*
X23795454D02*
Y32623437D01*
X23795454D02*
X23789772Y32607812D01*
X23789772D02*
X23778409Y32584375D01*
X23721590Y32506250*
X23721590D02*
X23801136D01*
X23880681Y32670312D02*
X23863636Y32662500D01*
X23857954Y32646875*
X23857954D02*
Y32631250D01*
X23857954D02*
X23863636Y32615625D01*
X23875000Y32607812*
X23875000D02*
X23897727Y32600000D01*
X23914772Y32592187*
X23914772D02*
X23926136Y32576562D01*
X23926136D02*
X23931818Y32560937D01*
X23931818D02*
Y32537500D01*
X23926136Y32521875*
X23920454Y32514062*
X23920454D02*
X23903409Y32506250D01*
X23880681*
X23880681D02*
X23863636Y32514062D01*
X23863636D02*
X23857954Y32521875D01*
X23857954D02*
X23852272Y32537500D01*
X23852272D02*
Y32560937D01*
X23852272D02*
X23857954Y32576562D01*
X23857954D02*
X23869318Y32592187D01*
X23869318D02*
X23886363Y32600000D01*
X23886363D02*
X23909090Y32607812D01*
X23909090D02*
X23920454Y32615625D01*
X23920454D02*
X23926136Y32631250D01*
Y32646875*
X23920454Y32662500*
X23920454D02*
X23903409Y32670312D01*
X23903409D02*
X23880681D01*
X24017045D02*
X24000000Y32662500D01*
X23988636Y32639062*
X23988636D02*
X23982954Y32600000D01*
X23982954D02*
Y32576562D01*
X23982954D02*
X23988636Y32537500D01*
X24000000Y32514062*
X24000000D02*
X24017045Y32506250D01*
X24017045D02*
X24028409D01*
X24045454Y32514062*
X24045454D02*
X24056818Y32537500D01*
X24062500Y32576562*
X24062500D02*
Y32600000D01*
X24056818Y32639062*
X24056818D02*
X24045454Y32662500D01*
X24045454D02*
X24028409Y32670312D01*
X24028409D02*
X24017045D01*
X24119318Y32521875D02*
X24113636Y32514062D01*
X24113636D02*
X24119318Y32506250D01*
X24125000Y32514062*
X24125000D02*
X24119318Y32521875D01*
X24210227Y32670312D02*
X24193181Y32662500D01*
X24193181D02*
X24181818Y32639062D01*
X24181818D02*
X24176136Y32600000D01*
Y32576562*
X24176136D02*
X24181818Y32537500D01*
X24193181Y32514062*
X24193181D02*
X24210227Y32506250D01*
X24221590*
X24221590D02*
X24238636Y32514062D01*
X24238636D02*
X24250000Y32537500D01*
X24255681Y32576562*
X24255681D02*
Y32600000D01*
X24255681D02*
X24250000Y32639062D01*
X24250000D02*
X24238636Y32662500D01*
X24221590Y32670312*
X24221590D02*
X24210227D01*
X39500000Y10000000D02*
Y20330050D01*
Y10000000D02*
X39436500Y10254000D01*
X39563500*
X39500000Y10000000*
Y31000000D02*
Y20669950D01*
Y31000000D02*
X39563500Y30746000D01*
X39436500*
X39500000Y31000000*
X39252840Y20531250D02*
Y20539062D01*
X39252840D02*
X39258522Y20554687D01*
X39258522D02*
X39264204Y20562500D01*
X39264204D02*
X39275568Y20570312D01*
X39275568D02*
X39298295D01*
X39298295D02*
X39309659Y20562500D01*
X39315340Y20554687*
X39315340D02*
X39321022Y20539062D01*
X39321022D02*
Y20523437D01*
X39321022D02*
X39315340Y20507812D01*
X39315340D02*
X39303977Y20484375D01*
X39247159Y20406250*
X39326704*
X39377840Y20539062D02*
X39389204Y20546875D01*
X39389204D02*
X39406250Y20570312D01*
X39406250D02*
Y20406250D01*
X39491477Y20570312D02*
X39474431Y20562500D01*
X39474431D02*
X39463068Y20539062D01*
X39463068D02*
X39457386Y20500000D01*
Y20476562*
X39457386D02*
X39463068Y20437500D01*
X39474431Y20414062*
X39474431D02*
X39491477Y20406250D01*
X39502840*
X39502840D02*
X39519886Y20414062D01*
X39519886D02*
X39531250Y20437500D01*
X39536931Y20476562*
X39536931D02*
Y20500000D01*
X39536931D02*
X39531250Y20539062D01*
X39531250D02*
X39519886Y20562500D01*
X39502840Y20570312*
X39502840D02*
X39491477D01*
X39593750Y20421875D02*
X39588068Y20414062D01*
X39588068D02*
X39593750Y20406250D01*
X39599431Y20414062*
X39599431D02*
X39593750Y20421875D01*
X39684659Y20570312D02*
X39667613Y20562500D01*
X39667613D02*
X39656250Y20539062D01*
X39656250D02*
X39650568Y20500000D01*
Y20476562*
X39650568D02*
X39656250Y20437500D01*
X39667613Y20414062*
X39667613D02*
X39684659Y20406250D01*
X39696022*
X39696022D02*
X39713068Y20414062D01*
X39713068D02*
X39724431Y20437500D01*
X39724431D02*
X39730113Y20476562D01*
X39730113D02*
Y20500000D01*
X39730113D02*
X39724431Y20539062D01*
X39724431D02*
X39713068Y20562500D01*
X39696022Y20570312*
X39696022D02*
X39684659D01*
X38800000Y10000000D02*
Y13330050D01*
Y10000000D02*
X38736500Y10254000D01*
X38863500*
X38800000Y10000000*
Y17000000D02*
Y13669950D01*
Y17000000D02*
X38863500Y16746000D01*
X38736500*
X38800000Y17000000*
X38666477Y13570312D02*
X38609659Y13406250D01*
X38586931Y13570312D02*
X38666477D01*
X38751704D02*
X38734659Y13562500D01*
X38723295Y13539062*
X38723295D02*
X38717613Y13500000D01*
X38717613D02*
Y13476562D01*
X38717613D02*
X38723295Y13437500D01*
X38723295D02*
X38734659Y13414062D01*
X38734659D02*
X38751704Y13406250D01*
X38751704D02*
X38763068D01*
X38780113Y13414062*
X38780113D02*
X38791477Y13437500D01*
X38797159Y13476562*
X38797159D02*
Y13500000D01*
X38791477Y13539062*
X38791477D02*
X38780113Y13562500D01*
X38780113D02*
X38763068Y13570312D01*
X38763068D02*
X38751704D01*
X38853977Y13421875D02*
X38848295Y13414062D01*
X38848295D02*
X38853977Y13406250D01*
X38859659Y13414062*
X38859659D02*
X38853977Y13421875D01*
X38944886Y13570312D02*
X38927840Y13562500D01*
X38927840D02*
X38916477Y13539062D01*
X38916477D02*
X38910795Y13500000D01*
X38910795D02*
Y13476562D01*
X38910795D02*
X38916477Y13437500D01*
X38927840Y13414062*
X38927840D02*
X38944886Y13406250D01*
X38956250*
X38973295Y13414062*
X38973295D02*
X38984659Y13437500D01*
X38990340Y13476562*
X38990340D02*
Y13500000D01*
X38990340D02*
X38984659Y13539062D01*
X38984659D02*
X38973295Y13562500D01*
X38973295D02*
X38956250Y13570312D01*
X38956250D02*
X38944886D01*
X38800000Y17000000D02*
Y20330050D01*
Y17000000D02*
X38736500Y17254000D01*
X38863500*
X38800000Y17000000*
Y24000000D02*
Y20669950D01*
Y24000000D02*
X38863500Y23746000D01*
X38736500*
X38800000Y24000000*
X38666477Y20570312D02*
X38609659Y20406250D01*
X38586931Y20570312D02*
X38666477D01*
X38751704D02*
X38734659Y20562500D01*
X38723295Y20539062*
X38723295D02*
X38717613Y20500000D01*
X38717613D02*
Y20476562D01*
X38717613D02*
X38723295Y20437500D01*
X38723295D02*
X38734659Y20414062D01*
X38734659D02*
X38751704Y20406250D01*
X38751704D02*
X38763068D01*
X38780113Y20414062*
X38780113D02*
X38791477Y20437500D01*
X38797159Y20476562*
X38797159D02*
Y20500000D01*
X38791477Y20539062*
X38791477D02*
X38780113Y20562500D01*
X38780113D02*
X38763068Y20570312D01*
X38763068D02*
X38751704D01*
X38853977Y20421875D02*
X38848295Y20414062D01*
X38848295D02*
X38853977Y20406250D01*
X38859659Y20414062*
X38859659D02*
X38853977Y20421875D01*
X38944886Y20570312D02*
X38927840Y20562500D01*
X38927840D02*
X38916477Y20539062D01*
X38916477D02*
X38910795Y20500000D01*
X38910795D02*
Y20476562D01*
X38910795D02*
X38916477Y20437500D01*
X38927840Y20414062*
X38927840D02*
X38944886Y20406250D01*
X38956250*
X38973295Y20414062*
X38973295D02*
X38984659Y20437500D01*
X38990340Y20476562*
X38990340D02*
Y20500000D01*
X38990340D02*
X38984659Y20539062D01*
X38984659D02*
X38973295Y20562500D01*
X38973295D02*
X38956250Y20570312D01*
X38956250D02*
X38944886D01*
X10000000Y32000000D02*
X13210731D01*
X10000000D02*
X10254000Y32063500D01*
Y31936500*
X10000000Y32000000*
X17000000D02*
X13789268D01*
X17000000D02*
X16746000Y31936500D01*
Y32063500*
X17000000Y32000000*
X13366477Y32070312D02*
X13309659Y31906250D01*
X13286931Y32070312D02*
X13366477D01*
X13451704D02*
X13434659Y32062500D01*
X13423295Y32039062*
X13423295D02*
X13417613Y32000000D01*
X13417613D02*
Y31976562D01*
X13417613D02*
X13423295Y31937500D01*
X13423295D02*
X13434659Y31914062D01*
X13434659D02*
X13451704Y31906250D01*
X13451704D02*
X13463068D01*
X13480113Y31914062*
X13480113D02*
X13491477Y31937500D01*
X13497159Y31976562*
X13497159D02*
Y32000000D01*
X13491477Y32039062*
X13491477D02*
X13480113Y32062500D01*
X13480113D02*
X13463068Y32070312D01*
X13463068D02*
X13451704D01*
X13553977Y31921875D02*
X13548295Y31914062D01*
X13548295D02*
X13553977Y31906250D01*
X13559659Y31914062*
X13559659D02*
X13553977Y31921875D01*
X13644886Y32070312D02*
X13627840Y32062500D01*
X13627840D02*
X13616477Y32039062D01*
X13616477D02*
X13610795Y32000000D01*
X13610795D02*
Y31976562D01*
X13610795D02*
X13616477Y31937500D01*
X13627840Y31914062*
X13627840D02*
X13644886Y31906250D01*
X13656250*
X13673295Y31914062*
X13673295D02*
X13684659Y31937500D01*
X13690340Y31976562*
X13690340D02*
Y32000000D01*
X13690340D02*
X13684659Y32039062D01*
X13684659D02*
X13673295Y32062500D01*
X13673295D02*
X13656250Y32070312D01*
X13656250D02*
X13644886D01*
X24000000Y32000000D02*
X20789268D01*
X24000000D02*
X23746000Y31936500D01*
Y32063500*
X24000000Y32000000*
X17000000D02*
X20210731D01*
X17000000D02*
X17254000Y32063500D01*
Y31936500*
X17000000Y32000000*
X20366477Y32070312D02*
X20309659Y31906250D01*
X20286931Y32070312D02*
X20366477D01*
X20451704D02*
X20434659Y32062500D01*
X20423295Y32039062*
X20423295D02*
X20417613Y32000000D01*
X20417613D02*
Y31976562D01*
X20417613D02*
X20423295Y31937500D01*
X20423295D02*
X20434659Y31914062D01*
X20434659D02*
X20451704Y31906250D01*
X20451704D02*
X20463068D01*
X20480113Y31914062*
X20480113D02*
X20491477Y31937500D01*
X20497159Y31976562*
X20497159D02*
Y32000000D01*
X20491477Y32039062*
X20491477D02*
X20480113Y32062500D01*
X20480113D02*
X20463068Y32070312D01*
X20463068D02*
X20451704D01*
X20553977Y31921875D02*
X20548295Y31914062D01*
X20548295D02*
X20553977Y31906250D01*
X20559659Y31914062*
X20559659D02*
X20553977Y31921875D01*
X20644886Y32070312D02*
X20627840Y32062500D01*
X20627840D02*
X20616477Y32039062D01*
X20616477D02*
X20610795Y32000000D01*
X20610795D02*
Y31976562D01*
X20610795D02*
X20616477Y31937500D01*
X20627840Y31914062*
X20627840D02*
X20644886Y31906250D01*
X20656250*
X20673295Y31914062*
X20673295D02*
X20684659Y31937500D01*
X20690340Y31976562*
X20690340D02*
Y32000000D01*
X20690340D02*
X20684659Y32039062D01*
X20684659D02*
X20673295Y32062500D01*
X20673295D02*
X20656250Y32070312D01*
X20656250D02*
X20644886D01*
X31000000Y32000000D02*
X27789268D01*
X31000000D02*
X30746000Y31936500D01*
Y32063500*
X31000000Y32000000*
X24000000D02*
X27210731D01*
X24000000D02*
X24254000Y32063500D01*
Y31936500*
X24000000Y32000000*
X27366477Y32070312D02*
X27309659Y31906250D01*
X27286931Y32070312D02*
X27366477D01*
X27451704D02*
X27434659Y32062500D01*
X27423295Y32039062*
X27423295D02*
X27417613Y32000000D01*
X27417613D02*
Y31976562D01*
X27417613D02*
X27423295Y31937500D01*
X27423295D02*
X27434659Y31914062D01*
X27434659D02*
X27451704Y31906250D01*
X27451704D02*
X27463068D01*
X27480113Y31914062*
X27480113D02*
X27491477Y31937500D01*
X27497159Y31976562*
X27497159D02*
Y32000000D01*
X27491477Y32039062*
X27491477D02*
X27480113Y32062500D01*
X27480113D02*
X27463068Y32070312D01*
X27463068D02*
X27451704D01*
X27553977Y31921875D02*
X27548295Y31914062D01*
X27548295D02*
X27553977Y31906250D01*
X27559659Y31914062*
X27559659D02*
X27553977Y31921875D01*
X27644886Y32070312D02*
X27627840Y32062500D01*
X27627840D02*
X27616477Y32039062D01*
X27616477D02*
X27610795Y32000000D01*
X27610795D02*
Y31976562D01*
X27610795D02*
X27616477Y31937500D01*
X27627840Y31914062*
X27627840D02*
X27644886Y31906250D01*
X27656250*
X27673295Y31914062*
X27673295D02*
X27684659Y31937500D01*
X27690340Y31976562*
X27690340D02*
Y32000000D01*
X27690340D02*
X27684659Y32039062D01*
X27684659D02*
X27673295Y32062500D01*
X27673295D02*
X27656250Y32070312D01*
X27656250D02*
X27644886D01*
X8999999Y31600000D02*
G75*
G03X8999999I-199999D01*
G01X8550000D02*
X9050000D01*
X8800000Y31850000D02*
Y31350000D01*
X39799999Y8400000D02*
G03X39799999I-199999D01*
G01X39350000D02*
X39850000D01*
X39600000Y8650000D02*
Y8150000D01*
X40399999Y8400000D02*
G03X40399999I-199999D01*
G01X39950000D02*
X40450000D01*
X40200000Y8650000D02*
Y8150000D01*
X17000000Y10000000D02*
X17224506Y9865296D01*
X17134703Y9775493*
X17134703D02*
X17000000Y10000000D01*
X18476236Y9170106D02*
X18521691Y9006043D01*
X18567145Y9170106D02*
X18521691Y9006043D01*
X18618282Y9076356D02*
X18720554D01*
X18856918Y9131043D02*
X18851236Y9146668D01*
X18851236D02*
X18839873Y9162293D01*
X18839873D02*
X18828509Y9170106D01*
X18828509D02*
X18805782D01*
X18794418Y9162293*
X18794418D02*
X18783054Y9146668D01*
X18783054D02*
X18777373Y9131043D01*
X18777373D02*
X18771691Y9107606D01*
Y9068543*
X18771691D02*
X18777373Y9045106D01*
X18783054Y9029481*
X18783054D02*
X18794418Y9013856D01*
X18794418D02*
X18805782Y9006043D01*
X18805782D02*
X18828509D01*
X18828509D02*
X18839873Y9013856D01*
X18851236Y9029481*
X18851236D02*
X18856918Y9045106D01*
X18908054Y9170106D02*
Y9052918D01*
X18908054D02*
X18913736Y9029481D01*
X18913736D02*
X18925100Y9013856D01*
X18942145Y9006043*
X18942145D02*
X18953509D01*
X18953509D02*
X18970554Y9013856D01*
X18970554D02*
X18981918Y9029481D01*
X18981918D02*
X18987600Y9052918D01*
X18987600D02*
Y9170106D01*
X19078509D02*
Y9006043D01*
X19038736Y9170106D02*
X19118282D01*
X24000000Y10000000D02*
X24224506Y9865296D01*
X24134703Y9775493*
X24134703D02*
X24000000Y10000000D01*
X25381389Y9019122D02*
X25426844Y8855060D01*
X25472298Y9019122D02*
X25426844Y8855060D01*
X25523435Y8925372D02*
X25625707D01*
X25762071Y8980060D02*
X25756389Y8995685D01*
X25756389D02*
X25745026Y9011310D01*
X25733662Y9019122*
X25733662D02*
X25710935D01*
X25710935D02*
X25699571Y9011310D01*
X25699571D02*
X25688207Y8995685D01*
X25688207D02*
X25682526Y8980060D01*
X25676844Y8956622*
X25676844D02*
Y8917560D01*
X25682526Y8894122*
X25682526D02*
X25688207Y8878497D01*
X25688207D02*
X25699571Y8862872D01*
X25699571D02*
X25710935Y8855060D01*
X25733662*
X25733662D02*
X25745026Y8862872D01*
X25745026D02*
X25756389Y8878497D01*
X25756389D02*
X25762071Y8894122D01*
X25813207Y9019122D02*
Y8901935D01*
X25813207D02*
X25818889Y8878497D01*
X25818889D02*
X25830253Y8862872D01*
X25830253D02*
X25847298Y8855060D01*
X25847298D02*
X25858662D01*
X25858662D02*
X25875707Y8862872D01*
X25875707D02*
X25887071Y8878497D01*
X25887071D02*
X25892753Y8901935D01*
Y9019122*
X25983662D02*
Y8855060D01*
X25943889Y9019122D02*
X26023435D01*
X31000000Y10000000D02*
X31224506Y9865296D01*
X31134703Y9775493*
X31134703D02*
X31000000Y10000000D01*
X32381389Y9019122D02*
X32426844Y8855060D01*
X32472298Y9019122D02*
X32426844Y8855060D01*
X32523435Y8925372D02*
X32625707D01*
X32762071Y8980060D02*
X32756389Y8995685D01*
X32756389D02*
X32745026Y9011310D01*
X32733662Y9019122*
X32733662D02*
X32710935D01*
X32710935D02*
X32699571Y9011310D01*
X32699571D02*
X32688207Y8995685D01*
X32688207D02*
X32682526Y8980060D01*
X32676844Y8956622*
X32676844D02*
Y8917560D01*
X32682526Y8894122*
X32682526D02*
X32688207Y8878497D01*
X32688207D02*
X32699571Y8862872D01*
X32699571D02*
X32710935Y8855060D01*
X32733662*
X32733662D02*
X32745026Y8862872D01*
X32745026D02*
X32756389Y8878497D01*
X32756389D02*
X32762071Y8894122D01*
X32813207Y9019122D02*
Y8901935D01*
X32813207D02*
X32818889Y8878497D01*
X32818889D02*
X32830253Y8862872D01*
X32830253D02*
X32847298Y8855060D01*
X32847298D02*
X32858662D01*
X32858662D02*
X32875707Y8862872D01*
X32875707D02*
X32887071Y8878497D01*
X32887071D02*
X32892753Y8901935D01*
Y9019122*
X32983662D02*
Y8855060D01*
X32943889Y9019122D02*
X33023435D01*
X10000000Y24000000D02*
X9746000Y23936500D01*
Y24063500*
X10000000Y24000000*
X7459027Y24070312D02*
X7504481Y23906250D01*
X7549936Y24070312D02*
X7504481Y23906250D01*
X7601072Y23976562D02*
X7703345D01*
X7839709Y24031250D02*
X7834027Y24046875D01*
X7822663Y24062500*
X7822663D02*
X7811300Y24070312D01*
X7811300D02*
X7788572D01*
X7788572D02*
X7777209Y24062500D01*
X7765845Y24046875*
X7765845D02*
X7760163Y24031250D01*
X7760163D02*
X7754481Y24007812D01*
X7754481D02*
Y23968750D01*
X7754481D02*
X7760163Y23945312D01*
X7760163D02*
X7765845Y23929687D01*
X7765845D02*
X7777209Y23914062D01*
X7777209D02*
X7788572Y23906250D01*
X7788572D02*
X7811300D01*
X7822663Y23914062*
X7822663D02*
X7834027Y23929687D01*
X7834027D02*
X7839709Y23945312D01*
X7890845Y24070312D02*
Y23953125D01*
X7890845D02*
X7896527Y23929687D01*
X7896527D02*
X7907890Y23914062D01*
X7907890D02*
X7924936Y23906250D01*
X7936300*
X7953345Y23914062*
X7953345D02*
X7964709Y23929687D01*
X7964709D02*
X7970390Y23953125D01*
X7970390D02*
Y24070312D01*
X8061300D02*
Y23906250D01*
X8021527Y24070312D02*
X8101072D01*
X10000000Y17000000D02*
X9746000Y16936500D01*
Y17063500*
X10000000Y17000000*
X8259027Y17070312D02*
X8304481Y16906250D01*
X8349936Y17070312D02*
X8304481Y16906250D01*
X8401072Y16976562D02*
X8503345D01*
X8639709Y17031250D02*
X8634027Y17046875D01*
X8622663Y17062500*
X8622663D02*
X8611300Y17070312D01*
X8611300D02*
X8588572D01*
X8588572D02*
X8577209Y17062500D01*
X8565845Y17046875*
X8565845D02*
X8560163Y17031250D01*
X8560163D02*
X8554481Y17007812D01*
X8554481D02*
Y16968750D01*
X8554481D02*
X8560163Y16945312D01*
X8560163D02*
X8565845Y16929687D01*
X8565845D02*
X8577209Y16914062D01*
X8577209D02*
X8588572Y16906250D01*
X8588572D02*
X8611300D01*
X8622663Y16914062*
X8622663D02*
X8634027Y16929687D01*
X8634027D02*
X8639709Y16945312D01*
X8690845Y17070312D02*
Y16953125D01*
X8690845D02*
X8696527Y16929687D01*
X8696527D02*
X8707890Y16914062D01*
X8707890D02*
X8724936Y16906250D01*
X8736300*
X8753345Y16914062*
X8753345D02*
X8764709Y16929687D01*
X8764709D02*
X8770390Y16953125D01*
X8770390D02*
Y17070312D01*
X8861300D02*
Y16906250D01*
X8821527Y17070312D02*
X8901072D01*
G54D24*
X10000000Y10000000D02*
X38000000D01*
Y31000000*
X10000000*
Y10000000*
X38000000Y24000000D02*
X10000000D01*
Y17000000D02*
X38000000D01*
X17000000Y31000000D02*
Y10000000D01*
X24000000D02*
Y31000000D01*
X31000000D02*
Y10000000D01*
X10000000Y31127000D02*
Y32727000D01*
X38000000Y31127000D02*
Y32727000D01*
X38127000Y10000000D02*
X39627000D01*
X38127000Y31000000D02*
X39627000D01*
X38127000Y10000000D02*
X38927000D01*
X38127000Y17000000D02*
X38927000D01*
X38127000D02*
X38927000D01*
X38127000Y24000000D02*
X38927000D01*
X10000000Y31127000D02*
Y32127000D01*
X17000000Y31127000D02*
Y32127000D01*
X24000000Y31127000D02*
Y32127000D01*
X17000000Y31127000D02*
Y32127000D01*
X31000000Y31127000D02*
Y32127000D01*
X24000000Y31127000D02*
Y32127000D01*
X17000000Y10000000D02*
X17806225Y9193774D01*
X17806225D02*
X17906419Y9099793D01*
X17906419D02*
X18400036D01*
X24000000Y10000000D02*
X25051189Y8948810D01*
X25051189D02*
X25305189D01*
X31000000Y10000000D02*
X32051189Y8948810D01*
X32051189D02*
X32305189D01*
X10000000Y24000000D02*
X8200000D01*
X10000000Y17000000D02*
X9000000D01*
G54D34*
X38000000Y10000000D02*
X38000066D01*
X38000000Y31000000D02*
X38000066D01*
X38000000Y10000000D02*
X38000066D01*
X38000000Y17000000D02*
X38000066D01*
X38000000D02*
X38000066D01*
X38000000Y24000000D02*
X38000066D01*
X10000000Y31000000D02*
X10000066D01*
X17000000D02*
X17000066D01*
X24000000D02*
X24000066D01*
X17000000D02*
X17000066D01*
X31000000D02*
X31000066D01*
X24000000D02*
X24000066D01*
G74*
X0Y0D02*
M02*
