*
*
G04 PADS Layout (Build Number 2004.211.1) generated Gerber (RS-274-X) file*
G04 PC Version=2.1*
*
%IN "BD9E102FJ_104.pcb"*%
*
%MOMM*%
*
%FSLAX35Y35*%
*
*
*
*
G04 PC Standard Apertures*
*
*
G04 Thermal Relief Aperture macro.*
%AMTER*
1,1,$1,0,0*
1,0,$1-$2,0,0*
21,0,$3,$4,0,0,45*
21,0,$3,$4,0,0,135*
%
*
*
G04 Annular Aperture macro.*
%AMANN*
1,1,$1,0,0*
1,0,$2,0,0*
%
*
*
G04 Odd Aperture macro.*
%AMODD*
1,1,$1,0,0*
1,0,$1-0.005,0,0*
%
*
*
G04 PC Custom Aperture Macros*
*
*
*
*
*
*
G04 PC Aperture Table*
*
%ADD011R,0.9X0.7*%
%ADD012R,1.7X1.2*%
%ADD013R,2.6X1.4*%
%ADD014C,1.8*%
%ADD016C,1.6*%
%ADD017C,3.3*%
%ADD018C,0.15*%
%ADD019C,0.2*%
%ADD020C,0.6*%
%ADD021C,0.1*%
%ADD035R,0.75X1.2*%
%ADD036R,0.7X0.9*%
%ADD037C,1.5*%
%ADD038C,1*%
%ADD039R,3.5X2.35*%
*
*
*
*
G04 PC Custom Flashes*
G04 Layer Name BD9E102FJ_104.pcb - flashes*
%LPD*%
*
*
G04 PC Circuitry*
G04 Layer Name BD9E102FJ_104.pcb - circuitry*
%LPD*%
*
G54D11*
G01X13000000Y13080000D03*
Y13220000D03*
X14350000Y13670000D03*
Y13530000D03*
Y13230000D03*
Y13370000D03*
X14150000Y13530000D03*
Y13670000D03*
G54D12*
X13900000Y14525000D03*
Y14275000D03*
X14500000Y14525000D03*
Y14275000D03*
X14200000Y14525000D03*
Y14275000D03*
G54D13*
X12700000Y13070000D03*
Y13330000D03*
X11900000Y13070000D03*
Y13330000D03*
X12300000Y13070000D03*
Y13330000D03*
G54D14*
X13100000Y12350000D03*
Y12100000D03*
Y11850000D03*
G54D16*
X11400000Y12927000D03*
Y12673000D03*
X15500000Y14573000D03*
Y14827000D03*
X11900000Y12800000D03*
Y13650000D03*
X14900000Y14600000D03*
Y14200000D03*
X13500000Y12100000D03*
X13000000Y13900000D03*
X11400000Y13673000D03*
Y13927000D03*
X15500000Y13573000D03*
Y13827000D03*
G54D17*
X10500000Y10500000D03*
X16500000D03*
X10500000Y16500000D03*
X16500000D03*
G54D18*
X13280000Y11850000D02*
X13158336Y11908336D01*
X13197500Y11850000*
X13158336Y11791663*
X13158336D02*
X13280000Y11850000D01*
X13163932Y11800000D02*
X13175722D01*
X13174003Y11815000D02*
X13207005D01*
X13184073Y11830000D02*
X13238288D01*
X13194143Y11845000D02*
X13269572D01*
X13190786Y11860000D02*
X13259144D01*
X13180716Y11875000D02*
X13227861D01*
X13170646Y11890000D02*
X13196577D01*
X13160576Y11905000D02*
X13165294D01*
X13165000Y11794858D02*
Y11801589D01*
Y11898410D02*
Y11905141D01*
X13180000Y11802051D02*
Y11823932D01*
Y11876067D02*
Y11897948D01*
X13195000Y11809243D02*
Y11846276D01*
Y11853723D02*
Y11890756D01*
X13210000Y11816435D02*
Y11883564D01*
X13225000Y11823628D02*
Y11876371D01*
X13240000Y11830820D02*
Y11869179D01*
X13255000Y11838012D02*
Y11861987D01*
X13270000Y11845205D02*
Y11854794D01*
X13280000Y12100000D02*
X13158336Y12158336D01*
X13197500Y12100000*
X13158336Y12041663*
X13158336D02*
X13280000Y12100000D01*
X13167289Y12055000D02*
X13186150D01*
X13177359Y12070000D02*
X13217433D01*
X13187429Y12085000D02*
X13248716D01*
X13197500Y12100000D02*
X13280000D01*
X13187429Y12115000D02*
X13248716D01*
X13177359Y12130000D02*
X13217433D01*
X13167289Y12145000D02*
X13186150D01*
X13165000Y12044858D02*
Y12051589D01*
Y12148410D02*
Y12155141D01*
X13180000Y12052051D02*
Y12073932D01*
Y12126067D02*
Y12147948D01*
X13195000Y12059243D02*
Y12096276D01*
Y12103723D02*
Y12140756D01*
X13210000Y12066435D02*
Y12133564D01*
X13225000Y12073628D02*
Y12126371D01*
X13240000Y12080820D02*
Y12119179D01*
X13255000Y12088012D02*
Y12111987D01*
X13270000Y12095205D02*
Y12104794D01*
X13340000Y12100000D02*
X13448734Y12048734D01*
X13448734D02*
X13412500Y12100000D01*
X13448734Y12151265*
X13448734D02*
X13340000Y12100000D01*
X13435446Y12055000D02*
X13444306D01*
X13403630Y12070000D02*
X13433704D01*
X13371815Y12085000D02*
X13423102D01*
X13340000Y12100000D02*
X13412500D01*
X13371815Y12115000D02*
X13423102D01*
X13403630Y12130000D02*
X13433704D01*
X13435445Y12145000D02*
X13444306D01*
X13345000Y12097642D02*
Y12102357D01*
X13360000Y12090570D02*
Y12109429D01*
X13375000Y12083498D02*
Y12116501D01*
X13390000Y12076426D02*
Y12123573D01*
X13405000Y12069354D02*
Y12130645D01*
X13420000Y12062282D02*
Y12089388D01*
Y12110611D02*
Y12137717D01*
X13435000Y12055210D02*
Y12068166D01*
Y12131833D02*
Y12144789D01*
X11400000Y12833000D02*
X11348734Y12724265D01*
X11348734D02*
X11400000Y12760500D01*
X11451265Y12724265*
X11400000Y12833000*
X11351438Y12730000D02*
X11356848D01*
X11443151D02*
X11448561D01*
X11358510Y12745000D02*
X11378070D01*
X11421929D02*
X11441489D01*
X11365582Y12760000D02*
X11399292D01*
X11400707D02*
X11434417D01*
X11372654Y12775000D02*
X11427345D01*
X11379726Y12790000D02*
X11420273D01*
X11386798Y12805000D02*
X11413201D01*
X11393870Y12820000D02*
X11406129D01*
X11350000Y12725159D02*
Y12726948D01*
X11365000Y12735761D02*
Y12758764D01*
X11380000Y12746363D02*
Y12790579D01*
X11395000Y12756966D02*
Y12822395D01*
X11410000Y12753431D02*
Y12811789D01*
X11425000Y12742829D02*
Y12779974D01*
X11440000Y12732227D02*
Y12748159D01*
X11400000Y12767000D02*
X11451265Y12875734D01*
X11451265D02*
X11400000Y12839500D01*
X11348734Y12875734*
X11348734D02*
X11400000Y12767000D01*
X11396228Y12775000D02*
X11403771D01*
X11389156Y12790000D02*
X11410843D01*
X11382084Y12805000D02*
X11417915D01*
X11375012Y12820000D02*
X11424988D01*
X11367940Y12835000D02*
X11432060D01*
X11360867Y12850000D02*
X11385144D01*
X11414855D02*
X11439132D01*
X11353795Y12865000D02*
X11363922D01*
X11436077D02*
X11446204D01*
X11350000Y12873051D02*
Y12874840D01*
X11365000Y12841235D02*
Y12864238D01*
X11380000Y12809420D02*
Y12853636D01*
X11395000Y12777605D02*
Y12843034D01*
X11410000Y12788210D02*
Y12846568D01*
X11425000Y12820025D02*
Y12857170D01*
X11440000Y12851840D02*
Y12867772D01*
X11900000Y12960000D02*
X11848734Y12851265D01*
X11848734D02*
X11900000Y12887500D01*
X11951265Y12851265*
X11900000Y12960000*
X11855210Y12865000D02*
X11868166D01*
X11931833D02*
X11944789D01*
X11862282Y12880000D02*
X11889388D01*
X11910611D02*
X11937717D01*
X11869354Y12895000D02*
X11930645D01*
X11876426Y12910000D02*
X11923573D01*
X11883498Y12925000D02*
X11916501D01*
X11890570Y12940000D02*
X11909429D01*
X11897642Y12955000D02*
X11902357D01*
X11860000Y12859227D02*
Y12875159D01*
X11875000Y12869829D02*
Y12906974D01*
X11890000Y12880431D02*
Y12938789D01*
X11905000Y12883966D02*
Y12949394D01*
X11920000Y12873363D02*
Y12917579D01*
X11935000Y12862761D02*
Y12885764D01*
X11950000Y12852159D02*
Y12853949D01*
X11900000Y13490000D02*
X11951265Y13598734D01*
X11951265D02*
X11900000Y13562500D01*
X11848734Y13598734*
X11848734D02*
X11900000Y13490000D01*
X11897642Y13495000D02*
X11902357D01*
X11890570Y13510000D02*
X11909429D01*
X11883498Y13525000D02*
X11916501D01*
X11876426Y13540000D02*
X11923573D01*
X11869354Y13555000D02*
X11930645D01*
X11862282Y13570000D02*
X11889388D01*
X11910611D02*
X11937717D01*
X11855210Y13585000D02*
X11868166D01*
X11931833D02*
X11944789D01*
X11860000Y13574841D02*
Y13590772D01*
X11875000Y13543025D02*
Y13580170D01*
X11890000Y13511210D02*
Y13569568D01*
X11905000Y13500605D02*
Y13566034D01*
X11920000Y13532420D02*
Y13576636D01*
X11935000Y13564235D02*
Y13587238D01*
X11950000Y13596051D02*
Y13597840D01*
X12500000Y13440000D02*
X12515910Y13484090D01*
X12500000Y13462500*
X12484090Y13484090*
X12500000Y13440000*
X12496391Y13450000D02*
X12503608D01*
X12490978Y13465000D02*
X12498157D01*
X12501842D02*
X12509021D01*
X12485566Y13480000D02*
X12487104D01*
X12512896D02*
X12514434D01*
X12490000Y13467712D02*
Y13476070D01*
X12505000Y13453856D02*
Y13469285D01*
X13180000Y13220000D02*
X13135910Y13235910D01*
X13157500Y13220000*
X13135910Y13204090*
X13180000Y13220000*
X13143929Y13210000D02*
X13152287D01*
X13150714Y13225000D02*
X13166144D01*
X13150000Y13209174D02*
Y13214473D01*
Y13225526D02*
Y13230825D01*
X13165000Y13214587D02*
Y13225412D01*
X13180000Y13220000D02*
X13180000D01*
X13000000Y13570000D02*
X13015910Y13614090D01*
X13000000Y13592500*
X12984090Y13614090*
X13000000Y13570000*
X13000000*
X12994587Y13585000D02*
X13005412D01*
X12989174Y13600000D02*
X12994473D01*
X13005526D02*
X13010825D01*
X12985000Y13611568D02*
Y13612855D01*
X13000000Y13570000D02*
Y13592500D01*
X13015000Y13611568D02*
Y13612855D01*
X13500000Y12254503D02*
X13448734Y12151265D01*
X13448734D02*
X13500000Y12187500D01*
X13551265Y12151265*
X13500000Y12254503*
X13453072Y12160000D02*
X13461092D01*
X13538907D02*
X13546927D01*
X13460520Y12175000D02*
X13482314D01*
X13517685D02*
X13539479D01*
X13467969Y12190000D02*
X13532030D01*
X13475418Y12205000D02*
X13524581D01*
X13482866Y12220000D02*
X13517133D01*
X13490315Y12235000D02*
X13509684D01*
X13497763Y12250000D02*
X13502236D01*
X13450000Y12152159D02*
Y12153813D01*
X13465000Y12162761D02*
Y12184020D01*
X13480000Y12173363D02*
Y12214227D01*
X13495000Y12183966D02*
Y12244434D01*
X13510000Y12180431D02*
Y12234365D01*
X13525000Y12169829D02*
Y12204158D01*
X13540000Y12159227D02*
Y12173951D01*
X12160000Y13500000D02*
X12115910Y13515910D01*
X12137500Y13500000*
X12115910Y13484090*
X12160000Y13500000*
X12130715Y13495000D02*
X12146143D01*
X12123929Y13510000D02*
X12132287D01*
X12130000Y13489174D02*
Y13494473D01*
Y13505526D02*
Y13510825D01*
X12145000Y13494587D02*
Y13505412D01*
X12160000Y13500000D02*
X12160000D01*
X12240000D02*
X12284090Y13484090D01*
X12262500Y13500000*
X12284090Y13515910*
X12240000Y13500000*
X12253856Y13495000D02*
X12269285D01*
X12267712Y13510000D02*
X12276070D01*
X12250000Y13496391D02*
Y13503608D01*
X12265000Y13490978D02*
Y13498157D01*
Y13501842D02*
Y13509021D01*
X12280000Y13485566D02*
Y13487104D01*
Y13512896D02*
Y13514434D01*
X12100000Y13560000D02*
X12084090Y13515910D01*
X12100000Y13537500*
X12115910Y13515910*
X12100000Y13560000*
X12087370Y13525000D02*
X12090788D01*
X12109211D02*
X12112629D01*
X12092783Y13540000D02*
X12107217D01*
X12098195Y13555000D02*
X12101804D01*
X12085000Y13517144D02*
Y13518431D01*
X12100000Y13537500D02*
Y13560000D01*
X12115000Y13517144D02*
Y13518431D01*
X12100000Y13550000D02*
X12115910Y13594090D01*
X12100000Y13572500*
X12084090Y13594090*
X12100000Y13550000*
X12098195Y13555000D02*
X12101804D01*
X12092783Y13570000D02*
X12107217D01*
X12087370Y13585000D02*
X12090788D01*
X12109211D02*
X12112629D01*
X12085000Y13591568D02*
Y13592855D01*
X12100000Y13550000D02*
Y13572500D01*
X12115000Y13591568D02*
Y13592855D01*
X12160000Y13610000D02*
X12115910Y13625910D01*
X12137500Y13610000*
X12115910Y13594090*
X12160000Y13610000*
X12123929Y13600000D02*
X12132287D01*
X12130714Y13615000D02*
X12146144D01*
X12130000Y13599174D02*
Y13604473D01*
Y13615526D02*
Y13620825D01*
X12145000Y13604587D02*
Y13615412D01*
X12160000Y13610000D02*
X12160000D01*
X12240000D02*
X12284090Y13594090D01*
X12262500Y13610000*
X12284090Y13625910*
X12240000Y13610000*
X12267712Y13600000D02*
X12276070D01*
X12253856Y13615000D02*
X12269285D01*
X12250000Y13606391D02*
Y13613608D01*
X12265000Y13600978D02*
Y13608157D01*
Y13611842D02*
Y13619021D01*
X12280000Y13595566D02*
Y13597104D01*
Y13622896D02*
Y13624434D01*
X12360000Y13500000D02*
X12315910Y13515910D01*
X12337500Y13500000*
X12315910Y13484090*
X12360000Y13500000*
X12330715Y13495000D02*
X12346143D01*
X12323929Y13510000D02*
X12332287D01*
X12325000Y13487370D02*
Y13490788D01*
Y13509211D02*
Y13512629D01*
X12340000Y13492783D02*
Y13507217D01*
X12355000Y13498195D02*
Y13501804D01*
X12440000Y13500000D02*
X12484090Y13484090D01*
X12462500Y13500000*
X12484090Y13515910*
X12440000Y13500000*
X12453856Y13495000D02*
X12469285D01*
X12467712Y13510000D02*
X12476070D01*
X12445000Y13498195D02*
Y13501804D01*
X12460000Y13492783D02*
Y13507217D01*
X12475000Y13487370D02*
Y13490788D01*
Y13509211D02*
Y13512629D01*
X12360000Y13610000D02*
X12315910Y13625910D01*
X12337500Y13610000*
X12315910Y13594090*
X12360000Y13610000*
X12323929Y13600000D02*
X12332287D01*
X12330714Y13615000D02*
X12346144D01*
X12325000Y13597370D02*
Y13600788D01*
Y13619211D02*
Y13622629D01*
X12340000Y13602783D02*
Y13617217D01*
X12355000Y13608195D02*
Y13611804D01*
X12440000Y13610000D02*
X12484090Y13594090D01*
X12462500Y13610000*
X12484090Y13625910*
X12440000Y13610000*
X12467712Y13600000D02*
X12476070D01*
X12453856Y13615000D02*
X12469285D01*
X12445000Y13608195D02*
Y13611804D01*
X12460000Y13602783D02*
Y13617217D01*
X12475000Y13597370D02*
Y13600788D01*
Y13619211D02*
Y13622629D01*
X12700000Y13550000D02*
X12684090Y13505910D01*
X12700000Y13527500*
X12715910Y13505910*
X12700000Y13550000*
X12685566Y13510000D02*
X12687104D01*
X12712896D02*
X12714434D01*
X12690978Y13525000D02*
X12698157D01*
X12701842D02*
X12709021D01*
X12696391Y13540000D02*
X12703608D01*
X12685000Y13507144D02*
Y13508431D01*
X12700000Y13527500D02*
Y13550000D01*
X12715000Y13507144D02*
Y13508431D01*
X12700000Y13550000D02*
X12715910Y13594090D01*
X12700000Y13572500*
X12684090Y13594090*
X12700000Y13550000*
X12698195Y13555000D02*
X12701804D01*
X12692783Y13570000D02*
X12707217D01*
X12687370Y13585000D02*
X12690788D01*
X12709211D02*
X12712629D01*
X12685000Y13591568D02*
Y13592855D01*
X12700000Y13550000D02*
Y13572500D01*
X12715000Y13591568D02*
Y13592855D01*
X12559925Y13497003D02*
X12516684Y13515095D01*
X12516684D02*
X12537453Y13498127D01*
X12515095Y13483315*
X12515095D02*
X12559925Y13497003D01*
X12532732Y13495000D02*
X12553362D01*
X12522921Y13510000D02*
X12528863D01*
X12520000Y13484813D02*
Y13486564D01*
Y13512386D02*
Y13513708D01*
X12535000Y13489393D02*
Y13496502D01*
Y13500131D02*
Y13507432D01*
X12550000Y13493973D02*
Y13501156D01*
X12640074Y13492996D02*
X12683315Y13474904D01*
X12683315D02*
X12662546Y13491872D01*
X12662546D02*
X12684904Y13506684D01*
X12684904D02*
X12640074Y13492996D01*
X12671136Y13480000D02*
X12677078D01*
X12646637Y13495000D02*
X12667267D01*
X12655000Y13486751D02*
Y13497553D01*
X12670000Y13480475D02*
Y13485783D01*
Y13496810D02*
Y13502133D01*
X12500000Y13560000D02*
X12484090Y13515910D01*
X12500000Y13537500*
X12515910Y13515910*
X12500000Y13560000*
X12487370Y13525000D02*
X12490788D01*
X12509211D02*
X12512629D01*
X12492783Y13540000D02*
X12507217D01*
X12498195Y13555000D02*
X12501804D01*
X12490000Y13523929D02*
Y13532287D01*
X12505000Y13530715D02*
Y13546143D01*
X12500000Y13550000D02*
X12515910Y13594090D01*
X12500000Y13572500*
X12484090Y13594090*
X12500000Y13550000*
X12498195Y13555000D02*
X12501804D01*
X12492783Y13570000D02*
X12507217D01*
X12487370Y13585000D02*
X12490788D01*
X12509211D02*
X12512629D01*
X12490000Y13577712D02*
Y13586070D01*
X12505000Y13563856D02*
Y13579285D01*
X12500000Y13560000D02*
X12484090Y13515910D01*
X12500000Y13537500*
X12515910Y13515910*
X12500000Y13560000*
X12487370Y13525000D02*
X12490788D01*
X12509211D02*
X12512629D01*
X12492783Y13540000D02*
X12507217D01*
X12498195Y13555000D02*
X12501804D01*
X12490000Y13523929D02*
Y13532287D01*
X12505000Y13530715D02*
Y13546143D01*
X12560000Y13610000D02*
X12515910Y13625910D01*
X12537500Y13610000*
X12515910Y13594090*
X12560000Y13610000*
X12523929Y13600000D02*
X12532287D01*
X12530714Y13615000D02*
X12546144D01*
X12520000Y13595566D02*
Y13597104D01*
Y13622896D02*
Y13624434D01*
X12535000Y13600978D02*
Y13608157D01*
Y13611842D02*
Y13619021D01*
X12550000Y13606391D02*
Y13613608D01*
X12640000Y13610000D02*
X12684090Y13594090D01*
X12662500Y13610000*
X12684090Y13625910*
X12640000Y13610000*
X12667712Y13600000D02*
X12676070D01*
X12653856Y13615000D02*
X12669285D01*
X12640000Y13610000D02*
X12640000D01*
X12655000Y13604587D02*
Y13615412D01*
X12670000Y13599174D02*
Y13604473D01*
Y13615526D02*
Y13620825D01*
X13180000Y13490000D02*
X13164090Y13445910D01*
X13180000Y13467500*
X13195910Y13445910*
X13180000Y13490000*
X13165566Y13450000D02*
X13167104D01*
X13192896D02*
X13194434D01*
X13170978Y13465000D02*
X13178157D01*
X13181842D02*
X13189021D01*
X13176391Y13480000D02*
X13183608D01*
X13165000Y13447144D02*
Y13448431D01*
X13180000Y13467500D02*
Y13490000D01*
X13195000Y13447144D02*
Y13448431D01*
X13180000Y13510000D02*
X13195910Y13554090D01*
X13180000Y13532500*
X13164090Y13554090*
X13180000Y13510000*
X13180000*
X13174587Y13525000D02*
X13185412D01*
X13169174Y13540000D02*
X13174473D01*
X13185526D02*
X13190825D01*
X13165000Y13551568D02*
Y13552855D01*
X13180000Y13510000D02*
Y13532500D01*
X13195000Y13551568D02*
Y13552855D01*
X13240000Y13570000D02*
X13195910Y13585910D01*
X13217500Y13570000*
X13195910Y13554090*
X13240000Y13570000*
X13197144Y13555000D02*
X13198431D01*
X13217500Y13570000D02*
X13240000D01*
X13197144Y13585000D02*
X13198431D01*
X13210000Y13559174D02*
Y13564473D01*
Y13575526D02*
Y13580825D01*
X13225000Y13564587D02*
Y13575412D01*
X13240000Y13570000D02*
X13240000D01*
X13280000D02*
X13324090Y13554090D01*
X13302500Y13570000*
X13324090Y13585910*
X13280000Y13570000*
X13321568Y13555000D02*
X13322855D01*
X13280000Y13570000D02*
X13302500D01*
X13321568Y13585000D02*
X13322855D01*
X13285000Y13568195D02*
Y13571804D01*
X13300000Y13562783D02*
Y13577217D01*
X13315000Y13557370D02*
Y13560788D01*
Y13579211D02*
Y13582629D01*
X13400000Y13570000D02*
X13355910Y13585910D01*
X13377500Y13570000*
X13355910Y13554090*
X13400000Y13570000*
X13357144Y13555000D02*
X13358431D01*
X13377500Y13570000D02*
X13400000D01*
X13357144Y13585000D02*
X13358431D01*
X13360000Y13555566D02*
Y13557104D01*
Y13582896D02*
Y13584434D01*
X13375000Y13560978D02*
Y13568157D01*
Y13571842D02*
Y13579021D01*
X13390000Y13566391D02*
Y13573608D01*
X13420000Y13570000D02*
X13464090Y13554090D01*
X13442500Y13570000*
X13464090Y13585910*
X13420000Y13570000*
X13461568Y13555000D02*
X13462855D01*
X13420000Y13570000D02*
X13442500D01*
X13461568Y13585000D02*
X13462855D01*
X13420000Y13570000D02*
X13420000D01*
X13435000Y13564587D02*
Y13575412D01*
X13450000Y13559174D02*
Y13564473D01*
Y13575526D02*
Y13580825D01*
X15500000Y13733000D02*
X15448734Y13624265D01*
X15448734D02*
X15500000Y13660500D01*
X15551265Y13624265*
X15500000Y13733000*
X15451438Y13630000D02*
X15456848D01*
X15543151D02*
X15548561D01*
X15458510Y13645000D02*
X15478070D01*
X15521929D02*
X15541489D01*
X15465582Y13660000D02*
X15499292D01*
X15500707D02*
X15534417D01*
X15472654Y13675000D02*
X15527345D01*
X15479726Y13690000D02*
X15520273D01*
X15486798Y13705000D02*
X15513201D01*
X15493870Y13720000D02*
X15506129D01*
X15460000Y13632227D02*
Y13648159D01*
X15475000Y13642829D02*
Y13679974D01*
X15490000Y13653431D02*
Y13711789D01*
X15505000Y13656966D02*
Y13722394D01*
X15520000Y13646363D02*
Y13690579D01*
X15535000Y13635761D02*
Y13658764D01*
X15550000Y13625159D02*
Y13626949D01*
X15500000Y13667000D02*
X15551265Y13775734D01*
X15551265D02*
X15500000Y13739500D01*
X15448734Y13775734*
X15448734D02*
X15500000Y13667000D01*
X15496228Y13675000D02*
X15503771D01*
X15489156Y13690000D02*
X15510843D01*
X15482084Y13705000D02*
X15517915D01*
X15475012Y13720000D02*
X15524988D01*
X15467940Y13735000D02*
X15532060D01*
X15460867Y13750000D02*
X15485144D01*
X15514855D02*
X15539132D01*
X15453795Y13765000D02*
X15463922D01*
X15536077D02*
X15546204D01*
X15460000Y13751841D02*
Y13767772D01*
X15475000Y13720025D02*
Y13757170D01*
X15490000Y13688210D02*
Y13746568D01*
X15505000Y13677605D02*
Y13743034D01*
X15520000Y13709420D02*
Y13753636D01*
X15535000Y13741235D02*
Y13764238D01*
X15550000Y13773051D02*
Y13774840D01*
X11400000Y13833000D02*
X11348734Y13724265D01*
X11348734D02*
X11400000Y13760500D01*
X11451265Y13724265*
X11400000Y13833000*
X11353795Y13735000D02*
X11363922D01*
X11436077D02*
X11446204D01*
X11360868Y13750000D02*
X11385144D01*
X11414855D02*
X11439132D01*
X11367940Y13765000D02*
X11432060D01*
X11375012Y13780000D02*
X11424988D01*
X11382084Y13795000D02*
X11417915D01*
X11389156Y13810000D02*
X11410843D01*
X11396228Y13825000D02*
X11403771D01*
X11350000Y13725159D02*
Y13726948D01*
X11365000Y13735761D02*
Y13758764D01*
X11380000Y13746363D02*
Y13790579D01*
X11395000Y13756966D02*
Y13822395D01*
X11410000Y13753431D02*
Y13811789D01*
X11425000Y13742829D02*
Y13779974D01*
X11440000Y13732227D02*
Y13748159D01*
X11400000Y13767000D02*
X11451265Y13875734D01*
X11451265D02*
X11400000Y13839500D01*
X11348734Y13875734*
X11348734D02*
X11400000Y13767000D01*
X11393870Y13780000D02*
X11406129D01*
X11386798Y13795000D02*
X11413201D01*
X11379726Y13810000D02*
X11420273D01*
X11372654Y13825000D02*
X11427345D01*
X11365582Y13840000D02*
X11399292D01*
X11400707D02*
X11434417D01*
X11358510Y13855000D02*
X11378070D01*
X11421929D02*
X11441489D01*
X11351438Y13870000D02*
X11356848D01*
X11443151D02*
X11448561D01*
X11350000Y13873051D02*
Y13874840D01*
X11365000Y13841235D02*
Y13864238D01*
X11380000Y13809420D02*
Y13853636D01*
X11395000Y13777605D02*
Y13843034D01*
X11410000Y13788210D02*
Y13846568D01*
X11425000Y13820025D02*
Y13857170D01*
X11440000Y13851840D02*
Y13867772D01*
X11560000Y13673000D02*
X11451265Y13724265D01*
X11487500Y13673000*
X11451265Y13621734*
X11451265D02*
X11560000Y13673000D01*
X11457107Y13630000D02*
X11468796D01*
X11467709Y13645000D02*
X11500611D01*
X11478311Y13660000D02*
X11532426D01*
X11486086Y13675000D02*
X11555758D01*
X11475484Y13690000D02*
X11523942D01*
X11464882Y13705000D02*
X11492127D01*
X11454280Y13720000D02*
X11460312D01*
X11455000Y13623495D02*
Y13627018D01*
Y13718981D02*
Y13722504D01*
X11470000Y13630567D02*
Y13648240D01*
Y13697759D02*
Y13715432D01*
X11485000Y13637639D02*
Y13669463D01*
Y13676537D02*
Y13708360D01*
X11500000Y13644711D02*
Y13701288D01*
X11515000Y13651783D02*
Y13694216D01*
X11530000Y13658855D02*
Y13687144D01*
X11545000Y13665928D02*
Y13680072D01*
X11560000Y13673000D02*
X11560000D01*
X11740000Y13650000D02*
X11848734Y13598734D01*
X11848734D02*
X11812500Y13650000D01*
X11848734Y13701265*
X11848734D02*
X11740000Y13650000D01*
X11846051Y13600000D02*
X11847840D01*
X11814235Y13615000D02*
X11837238D01*
X11782420Y13630000D02*
X11826636D01*
X11750605Y13645000D02*
X11816034D01*
X11761210Y13660000D02*
X11819568D01*
X11793025Y13675000D02*
X11830170D01*
X11824840Y13690000D02*
X11840772D01*
X11740000Y13650000D02*
X11740000D01*
X11755000Y13642927D02*
Y13657072D01*
X11770000Y13635855D02*
Y13664144D01*
X11785000Y13628783D02*
Y13671216D01*
X11800000Y13621711D02*
Y13678288D01*
X11815000Y13614639D02*
Y13646462D01*
Y13653537D02*
Y13685360D01*
X11830000Y13607567D02*
Y13625240D01*
Y13674759D02*
Y13692432D01*
X11845000Y13600495D02*
Y13604018D01*
Y13695981D02*
Y13699504D01*
X12056893Y13618621D02*
X11960323Y13690215D01*
X11960323D02*
X11985800Y13632839D01*
X11985800D02*
X11940215Y13589676D01*
X11940215D02*
X12056893Y13618621D01*
X11951118Y13600000D02*
X11981830D01*
X11966960Y13615000D02*
X12042294D01*
X11982801Y13630000D02*
X12041545D01*
X11980401Y13645000D02*
X12021312D01*
X11973740Y13660000D02*
X12001080D01*
X11967080Y13675000D02*
X11980847D01*
X11960419Y13690000D02*
X11960614D01*
X11950000Y13592103D02*
Y13598940D01*
X11965000Y13595824D02*
Y13613144D01*
Y13679684D02*
Y13686748D01*
X11980000Y13599546D02*
Y13627347D01*
Y13645903D02*
Y13675628D01*
X11995000Y13603267D02*
Y13664507D01*
X12010000Y13606988D02*
Y13653386D01*
X12025000Y13610709D02*
Y13642266D01*
X12040000Y13614430D02*
Y13631145D01*
X12055000Y13618151D02*
Y13620024D01*
X12041165Y13621767D02*
X12081278Y13597519D01*
X12081278D02*
X12063228Y13617354D01*
X12087519Y13628721*
X12041165Y13621767*
X12077175Y13600000D02*
X12079021D01*
X12052360Y13615000D02*
X12065370D01*
X12055000Y13613404D02*
Y13623842D01*
X12070000Y13604337D02*
Y13609913D01*
Y13620523D02*
Y13626092D01*
X12085000Y13627542D02*
Y13628343D01*
X12770000Y13870000D02*
X12754090Y13825910D01*
X12770000Y13847500*
X12785910Y13825910*
X12770000Y13870000*
X12759174Y13840000D02*
X12764473D01*
X12775526D02*
X12780825D01*
X12764587Y13855000D02*
X12775412D01*
X12770000Y13870000D02*
X12770000D01*
X12760000Y13833929D02*
Y13842287D01*
X12775000Y13840715D02*
Y13856143D01*
X13122500Y13570000D02*
X13164090Y13554090D01*
X13142500Y13570000*
X13164090Y13585910*
X13122500Y13570000*
X13161711Y13555000D02*
X13162855D01*
X13122500Y13570000D02*
X13142500D01*
X13161711Y13585000D02*
X13162855D01*
X13135000Y13565218D02*
Y13574781D01*
X13150000Y13559480D02*
Y13564473D01*
Y13575526D02*
Y13580519D01*
X13460000Y13820000D02*
X13475910Y13864090D01*
X13460000Y13842500*
X13444090Y13864090*
X13460000Y13820000*
X13458195Y13825000D02*
X13461804D01*
X13452783Y13840000D02*
X13467217D01*
X13447370Y13855000D02*
X13450788D01*
X13469211D02*
X13472629D01*
X13450000Y13847712D02*
Y13856070D01*
X13465000Y13833856D02*
Y13849285D01*
X13840000Y14000000D02*
X13884090Y13984090D01*
X13862500Y14000000*
X13884090Y14015910*
X13840000Y14000000*
X13867712Y13990000D02*
X13876070D01*
X13853856Y14005000D02*
X13869285D01*
X13840000Y14000000D02*
X13840000D01*
X13855000Y13994587D02*
Y14005412D01*
X13870000Y13989174D02*
Y13994473D01*
Y14005526D02*
Y14010825D01*
X14177573Y13837573D02*
X14220000Y13857500D01*
X14193483Y13853483*
X14193483D02*
X14197500Y13880000D01*
X14177573Y13837573*
X14178713Y13840000D02*
X14182739D01*
X14185758Y13855000D02*
X14193713D01*
X14203495D02*
X14214677D01*
X14192803Y13870000D02*
X14195985D01*
X14185000Y13841061D02*
Y13853385D01*
X14200000Y13848106D02*
Y13854470D01*
X14215000Y13855151D02*
Y13856742D01*
X14150000Y13700000D02*
X14180052Y13769948D01*
X14150000Y13742500*
X14119948Y13769948*
X14150000Y13700000*
X14147851Y13705000D02*
X14152148D01*
X14141407Y13720000D02*
X14158592D01*
X14134962Y13735000D02*
X14165037D01*
X14128518Y13750000D02*
X14141788D01*
X14158211D02*
X14171481D01*
X14122074Y13765000D02*
X14125365D01*
X14174634D02*
X14177926D01*
X14125000Y13758189D02*
Y13765333D01*
X14140000Y13723275D02*
Y13751633D01*
X14155000Y13711637D02*
Y13747066D01*
X14170000Y13746551D02*
Y13760767D01*
X14350000Y13692500D02*
X14364835Y13723083D01*
X14364835D02*
X14350000Y13702500D01*
X14335164Y13723083*
X14335164D02*
X14350000Y13692500D01*
X14343936Y13705000D02*
X14348198D01*
X14351801D02*
X14356063D01*
X14336660Y13720000D02*
X14337387D01*
X14362612D02*
X14363339D01*
X14350000Y13692500D02*
Y13702500D01*
X13000000Y14060000D02*
X12948734Y13951265D01*
X12948734D02*
X13000000Y13987500D01*
X13051265Y13951265*
X13000000Y14060000*
X12952853Y13960000D02*
X12961092D01*
X13038907D02*
X13047147D01*
X12959925Y13975000D02*
X12982314D01*
X13017685D02*
X13040075D01*
X12966997Y13990000D02*
X13033003D01*
X12974069Y14005000D02*
X13025930D01*
X12981141Y14020000D02*
X13018858D01*
X12988213Y14035000D02*
X13011786D01*
X12995285Y14050000D02*
X13004714D01*
X12955000Y13955693D02*
Y13964554D01*
X12970000Y13966295D02*
Y13996369D01*
X12985000Y13976897D02*
Y14028184D01*
X13000000Y13987500D02*
Y14060000D01*
X13015000Y13976897D02*
Y14028184D01*
X13030000Y13966295D02*
Y13996369D01*
X13045000Y13955693D02*
Y13964554D01*
X13960000Y14000000D02*
X13915910Y14015910D01*
X13937500Y14000000*
X13915910Y13984090*
X13960000Y14000000*
X13923929Y13990000D02*
X13932287D01*
X13930714Y14005000D02*
X13946144D01*
X13930000Y13989174D02*
Y13994473D01*
Y14005526D02*
Y14010825D01*
X13945000Y13994587D02*
Y14005412D01*
X13960000Y14000000D02*
X13960000D01*
X14000000D02*
X14044090Y13984090D01*
X14022500Y14000000*
X14044090Y14015910*
X14000000Y14000000*
X14027712Y13990000D02*
X14036070D01*
X14013856Y14005000D02*
X14029285D01*
X14005000Y13998195D02*
Y14001804D01*
X14020000Y13992783D02*
Y14007217D01*
X14035000Y13987370D02*
Y13990788D01*
Y14009211D02*
Y14012629D01*
X13900000Y14060000D02*
X13884090Y14015910D01*
X13900000Y14037500*
X13915910Y14015910*
X13900000Y14060000*
X13885566Y14020000D02*
X13887104D01*
X13912896D02*
X13914434D01*
X13890978Y14035000D02*
X13898157D01*
X13901842D02*
X13909021D01*
X13896391Y14050000D02*
X13903608D01*
X13885000Y14017144D02*
Y14018431D01*
X13900000Y14037500D02*
Y14060000D01*
X13915000Y14017144D02*
Y14018431D01*
X13900000Y14080000D02*
X13915910Y14124090D01*
X13900000Y14102500*
X13884090Y14124090*
X13900000Y14080000*
X13900000*
X13894587Y14095000D02*
X13905412D01*
X13889174Y14110000D02*
X13894473D01*
X13905526D02*
X13910825D01*
X13885000Y14121568D02*
Y14122855D01*
X13900000Y14080000D02*
Y14102500D01*
X13915000Y14121568D02*
Y14122855D01*
X14120000Y14000000D02*
X14075910Y14015910D01*
X14097500Y14000000*
X14075910Y13984090*
X14120000Y14000000*
X14083929Y13990000D02*
X14092287D01*
X14090714Y14005000D02*
X14106144D01*
X14080000Y13985566D02*
Y13987104D01*
Y14012896D02*
Y14014434D01*
X14095000Y13990978D02*
Y13998157D01*
Y14001842D02*
Y14009021D01*
X14110000Y13996391D02*
Y14003608D01*
X14140000Y14000000D02*
X14184090Y13984090D01*
X14162500Y14000000*
X14184090Y14015910*
X14140000Y14000000*
X14167712Y13990000D02*
X14176070D01*
X14153856Y14005000D02*
X14169285D01*
X14140000Y14000000D02*
X14140000D01*
X14155000Y13994587D02*
Y14005412D01*
X14170000Y13989174D02*
Y13994473D01*
Y14005526D02*
Y14010825D01*
X14260000Y14000000D02*
X14215910Y14015910D01*
X14237500Y14000000*
X14215910Y13984090*
X14260000Y14000000*
X14223929Y13990000D02*
X14232287D01*
X14230714Y14005000D02*
X14246144D01*
X14230000Y13989174D02*
Y13994473D01*
Y14005526D02*
Y14010825D01*
X14245000Y13994587D02*
Y14005412D01*
X14260000Y14000000D02*
X14260000D01*
X14290000D02*
X14334090Y13984090D01*
X14312500Y14000000*
X14334090Y14015910*
X14290000Y14000000*
X14317712Y13990000D02*
X14326070D01*
X14303856Y14005000D02*
X14319285D01*
X14290000Y14000000D02*
X14290000D01*
X14305000Y13994587D02*
Y14005412D01*
X14320000Y13989174D02*
Y13994473D01*
Y14005526D02*
Y14010825D01*
X14350000Y14060000D02*
X14334090Y14015910D01*
X14350000Y14037500*
X14365910Y14015910*
X14350000Y14060000*
X14335566Y14020000D02*
X14337104D01*
X14362896D02*
X14364434D01*
X14340978Y14035000D02*
X14348157D01*
X14351842D02*
X14359021D01*
X14346391Y14050000D02*
X14353608D01*
X14335000Y14017144D02*
Y14018431D01*
X14350000Y14037500D02*
Y14060000D01*
X14365000Y14017144D02*
Y14018431D01*
X14350000Y14080000D02*
X14365910Y14124090D01*
X14350000Y14102500*
X14334090Y14124090*
X14350000Y14080000*
X14350000*
X14344587Y14095000D02*
X14355412D01*
X14339174Y14110000D02*
X14344473D01*
X14355526D02*
X14360825D01*
X14335000Y14121568D02*
Y14122855D01*
X14350000Y14080000D02*
Y14102500D01*
X14365000Y14121568D02*
Y14122855D01*
X14410000Y14000000D02*
X14365910Y14015910D01*
X14387500Y14000000*
X14365910Y13984090*
X14410000Y14000000*
X14373929Y13990000D02*
X14382287D01*
X14380714Y14005000D02*
X14396144D01*
X14380000Y13989174D02*
Y13994473D01*
Y14005526D02*
Y14010825D01*
X14395000Y13994587D02*
Y14005412D01*
X14410000Y14000000D02*
X14410000D01*
X14440000D02*
X14484090Y13984090D01*
X14462500Y14000000*
X14484090Y14015910*
X14440000Y14000000*
X14467712Y13990000D02*
X14476070D01*
X14453856Y14005000D02*
X14469285D01*
X14440000Y14000000D02*
X14440000D01*
X14455000Y13994587D02*
Y14005412D01*
X14470000Y13989174D02*
Y13994473D01*
Y14005526D02*
Y14010825D01*
X14500000Y14060000D02*
X14484090Y14015910D01*
X14500000Y14037500*
X14515910Y14015910*
X14500000Y14060000*
X14485566Y14020000D02*
X14487104D01*
X14512896D02*
X14514434D01*
X14490978Y14035000D02*
X14498157D01*
X14501842D02*
X14509021D01*
X14496391Y14050000D02*
X14503608D01*
X14485000Y14017144D02*
Y14018431D01*
X14500000Y14037500D02*
Y14060000D01*
X14515000Y14017144D02*
Y14018431D01*
X14500000Y14080000D02*
X14515910Y14124090D01*
X14500000Y14102500*
X14484090Y14124090*
X14500000Y14080000*
X14500000*
X14494587Y14095000D02*
X14505412D01*
X14489174Y14110000D02*
X14494473D01*
X14505526D02*
X14510825D01*
X14485000Y14121568D02*
Y14122855D01*
X14500000Y14080000D02*
Y14102500D01*
X14515000Y14121568D02*
Y14122855D01*
X13960000Y14140000D02*
X13915910Y14155910D01*
X13937500Y14140000*
X13915910Y14124090*
X13960000Y14140000*
X13917144Y14125000D02*
X13918431D01*
X13937500Y14140000D02*
X13960000D01*
X13917144Y14155000D02*
X13918431D01*
X13930000Y14129174D02*
Y14134473D01*
Y14145526D02*
Y14150825D01*
X13945000Y14134587D02*
Y14145412D01*
X13960000Y14140000D02*
X13960000D01*
X13990000D02*
X14034090Y14124090D01*
X14012500Y14140000*
X14034090Y14155910*
X13990000Y14140000*
X14031568Y14125000D02*
X14032855D01*
X13990000Y14140000D02*
X14012500D01*
X14031568Y14155000D02*
X14032855D01*
X13990000Y14140000D02*
X13990000D01*
X14005000Y14134587D02*
Y14145412D01*
X14020000Y14129174D02*
Y14134473D01*
Y14145526D02*
Y14150825D01*
X14200000Y14200000D02*
X14184090Y14155910D01*
X14200000Y14177500*
X14215910Y14155910*
X14200000Y14200000*
X14189174Y14170000D02*
X14194473D01*
X14205526D02*
X14210825D01*
X14194587Y14185000D02*
X14205412D01*
X14200000Y14200000D02*
X14200000D01*
X14185000Y14157144D02*
Y14158431D01*
X14200000Y14177500D02*
Y14200000D01*
X14215000Y14157144D02*
Y14158431D01*
X14110000Y14140000D02*
X14065910Y14155910D01*
X14087500Y14140000*
X14065910Y14124090*
X14110000Y14140000*
X14067144Y14125000D02*
X14068431D01*
X14087500Y14140000D02*
X14110000D01*
X14067144Y14155000D02*
X14068431D01*
X14080000Y14129174D02*
Y14134473D01*
Y14145526D02*
Y14150825D01*
X14095000Y14134587D02*
Y14145412D01*
X14110000Y14140000D02*
X14110000D01*
X14140000D02*
X14184090Y14124090D01*
X14162500Y14140000*
X14184090Y14155910*
X14140000Y14140000*
X14181568Y14125000D02*
X14182855D01*
X14140000Y14140000D02*
X14162500D01*
X14181568Y14155000D02*
X14182855D01*
X14140000Y14140000D02*
X14140000D01*
X14155000Y14134587D02*
Y14145412D01*
X14170000Y14129174D02*
Y14134473D01*
Y14145526D02*
Y14150825D01*
X14200000Y14200000D02*
X14184090Y14155910D01*
X14200000Y14177500*
X14215910Y14155910*
X14200000Y14200000*
X14189174Y14170000D02*
X14194473D01*
X14205526D02*
X14210825D01*
X14194587Y14185000D02*
X14205412D01*
X14200000Y14200000D02*
X14200000D01*
X14185000Y14157144D02*
Y14158431D01*
X14200000Y14177500D02*
Y14200000D01*
X14215000Y14157144D02*
Y14158431D01*
X14200000Y14080000D02*
X14215910Y14124090D01*
X14200000Y14102500*
X14184090Y14124090*
X14200000Y14080000*
X14200000*
X14194587Y14095000D02*
X14205412D01*
X14189174Y14110000D02*
X14194473D01*
X14205526D02*
X14210825D01*
X14185000Y14121568D02*
Y14122855D01*
X14200000Y14080000D02*
Y14102500D01*
X14215000Y14121568D02*
Y14122855D01*
X14200000Y14060000D02*
X14184090Y14015910D01*
X14200000Y14037500*
X14215910Y14015910*
X14200000Y14060000*
X14185566Y14020000D02*
X14187104D01*
X14212896D02*
X14214434D01*
X14190978Y14035000D02*
X14198157D01*
X14201842D02*
X14209021D01*
X14196391Y14050000D02*
X14203608D01*
X14185000Y14017144D02*
Y14018431D01*
X14200000Y14037500D02*
Y14060000D01*
X14215000Y14017144D02*
Y14018431D01*
X14350000Y14200000D02*
X14334090Y14155910D01*
X14350000Y14177500*
X14365910Y14155910*
X14350000Y14200000*
X14339174Y14170000D02*
X14344473D01*
X14355526D02*
X14360825D01*
X14344587Y14185000D02*
X14355412D01*
X14350000Y14200000D02*
X14350000D01*
X14335000Y14157144D02*
Y14158431D01*
X14350000Y14177500D02*
Y14200000D01*
X14365000Y14157144D02*
Y14158431D01*
X14350000Y14200000D02*
X14334090Y14155910D01*
X14350000Y14177500*
X14365910Y14155910*
X14350000Y14200000*
X14339174Y14170000D02*
X14344473D01*
X14355526D02*
X14360825D01*
X14344587Y14185000D02*
X14355412D01*
X14350000Y14200000D02*
X14350000D01*
X14335000Y14157144D02*
Y14158431D01*
X14350000Y14177500D02*
Y14200000D01*
X14365000Y14157144D02*
Y14158431D01*
X14500000Y14200000D02*
X14484090Y14155910D01*
X14500000Y14177500*
X14515910Y14155910*
X14500000Y14200000*
X14489174Y14170000D02*
X14494473D01*
X14505526D02*
X14510825D01*
X14494587Y14185000D02*
X14505412D01*
X14500000Y14200000D02*
X14500000D01*
X14485000Y14157144D02*
Y14158431D01*
X14500000Y14177500D02*
Y14200000D01*
X14515000Y14157144D02*
Y14158431D01*
X14740000Y14200000D02*
X14848734Y14148734D01*
X14848734D02*
X14812500Y14200000D01*
X14848734Y14251265*
X14848734D02*
X14740000Y14200000D01*
X14835446Y14155000D02*
X14844306D01*
X14803630Y14170000D02*
X14833704D01*
X14771815Y14185000D02*
X14823102D01*
X14740000Y14200000D02*
X14812500D01*
X14771815Y14215000D02*
X14823102D01*
X14803630Y14230000D02*
X14833704D01*
X14835445Y14245000D02*
X14844306D01*
X14740000Y14200000D02*
X14740000D01*
X14755000Y14192927D02*
Y14207072D01*
X14770000Y14185855D02*
Y14214144D01*
X14785000Y14178783D02*
Y14221216D01*
X14800000Y14171711D02*
Y14228288D01*
X14815000Y14164639D02*
Y14196462D01*
Y14203537D02*
Y14235360D01*
X14830000Y14157567D02*
Y14175240D01*
Y14224759D02*
Y14242432D01*
X14845000Y14150495D02*
Y14154018D01*
Y14245981D02*
Y14249504D01*
X15386863Y13940137D02*
X15427500Y13827000D01*
X15438128Y13888871*
X15438128D02*
X15500000Y13899500D01*
X15386863Y13940137*
X15422830Y13840000D02*
X15429733D01*
X15417442Y13855000D02*
X15432309D01*
X15412055Y13870000D02*
X15434886D01*
X15406667Y13885000D02*
X15437463D01*
X15401279Y13900000D02*
X15498608D01*
X15395891Y13915000D02*
X15456847D01*
X15390504Y13930000D02*
X15415085D01*
X15400000Y13903562D02*
Y13935418D01*
X15415000Y13861801D02*
Y13930030D01*
X15430000Y13841553D02*
Y13924642D01*
X15445000Y13890052D02*
Y13919255D01*
X15460000Y13892629D02*
Y13913867D01*
X15475000Y13895205D02*
Y13908479D01*
X15490000Y13897782D02*
Y13903091D01*
X14742426Y14572426D02*
X14700000Y14552500D01*
X14726516Y14556516*
X14726516D02*
X14722500Y14530000D01*
X14742426Y14572426*
X14724772Y14545000D02*
X14729545D01*
X14715968Y14560000D02*
X14736590D01*
X14710000Y14554014D02*
Y14557196D01*
X14725000Y14535322D02*
Y14546504D01*
Y14556286D02*
Y14564241D01*
X14740000Y14567260D02*
Y14571286D01*
X14792500Y14600000D02*
X14837511Y14563237D01*
X14837511D02*
X14812500Y14600000D01*
X14837511Y14636762*
X14837511D02*
X14792500Y14600000D01*
X14823109Y14575000D02*
X14829509D01*
X14804743Y14590000D02*
X14819303D01*
X14798622Y14605000D02*
X14815901D01*
X14816987Y14620000D02*
X14826107D01*
X14835353Y14635000D02*
X14836312D01*
X14800000Y14593874D02*
Y14606125D01*
X14815000Y14581623D02*
Y14596325D01*
Y14603674D02*
Y14618376D01*
X14830000Y14569372D02*
Y14574278D01*
Y14625721D02*
Y14630627D01*
X15060000Y14600000D02*
X14951265Y14651265D01*
X14987500Y14600000*
X14951265Y14548734*
X14951265D02*
X15060000Y14600000D01*
X14959227Y14560000D02*
X14975159D01*
X14969829Y14575000D02*
X15006974D01*
X14980432Y14590000D02*
X15038789D01*
X14983965Y14605000D02*
X15049395D01*
X14973363Y14620000D02*
X15017579D01*
X14962761Y14635000D02*
X14985764D01*
X14952159Y14650000D02*
X14953949D01*
X14965000Y14555210D02*
Y14568166D01*
Y14631833D02*
Y14644789D01*
X14980000Y14562282D02*
Y14589388D01*
Y14610611D02*
Y14637717D01*
X14995000Y14569354D02*
Y14630645D01*
X15010000Y14576426D02*
Y14623573D01*
X15025000Y14583498D02*
Y14616501D01*
X15040000Y14590570D02*
Y14609429D01*
X15055000Y14597642D02*
Y14602357D01*
X15340000Y14573000D02*
X15448734Y14521734D01*
X15448734D02*
X15412500Y14573000D01*
X15448734Y14624265*
X15448734D02*
X15340000Y14573000D01*
X15431204Y14530000D02*
X15442892D01*
X15399388Y14545000D02*
X15432290D01*
X15367573Y14560000D02*
X15421688D01*
X15344242Y14575000D02*
X15413913D01*
X15376057Y14590000D02*
X15424515D01*
X15407872Y14605000D02*
X15435117D01*
X15439688Y14620000D02*
X15445720D01*
X15340000Y14573000D02*
X15340000D01*
X15355000Y14565927D02*
Y14580072D01*
X15370000Y14558855D02*
Y14587144D01*
X15385000Y14551783D02*
Y14594216D01*
X15400000Y14544711D02*
Y14601288D01*
X15415000Y14537639D02*
Y14569462D01*
Y14576537D02*
Y14608360D01*
X15430000Y14530567D02*
Y14548240D01*
Y14597759D02*
Y14615432D01*
X15445000Y14523495D02*
Y14527018D01*
Y14618981D02*
Y14622504D01*
X15500000Y14733000D02*
X15448734Y14624265D01*
X15448734D02*
X15500000Y14660500D01*
X15551265Y14624265*
X15500000Y14733000*
X15453795Y14635000D02*
X15463922D01*
X15536077D02*
X15546204D01*
X15460868Y14650000D02*
X15485144D01*
X15514855D02*
X15539132D01*
X15467940Y14665000D02*
X15532060D01*
X15475012Y14680000D02*
X15524988D01*
X15482084Y14695000D02*
X15517915D01*
X15489156Y14710000D02*
X15510843D01*
X15496228Y14725000D02*
X15503771D01*
X15460000Y14632227D02*
Y14648159D01*
X15475000Y14642829D02*
Y14679974D01*
X15490000Y14653431D02*
Y14711789D01*
X15505000Y14656966D02*
Y14722394D01*
X15520000Y14646363D02*
Y14690579D01*
X15535000Y14635761D02*
Y14658764D01*
X15550000Y14625159D02*
Y14626949D01*
X15500000Y14667000D02*
X15551265Y14775734D01*
X15551265D02*
X15500000Y14739500D01*
X15448734Y14775734*
X15448734D02*
X15500000Y14667000D01*
X15493870Y14680000D02*
X15506129D01*
X15486798Y14695000D02*
X15513201D01*
X15479726Y14710000D02*
X15520273D01*
X15472654Y14725000D02*
X15527345D01*
X15465582Y14740000D02*
X15499292D01*
X15500707D02*
X15534417D01*
X15458510Y14755000D02*
X15478070D01*
X15521929D02*
X15541489D01*
X15451438Y14770000D02*
X15456848D01*
X15543151D02*
X15548561D01*
X15460000Y14751841D02*
Y14767772D01*
X15475000Y14720025D02*
Y14757170D01*
X15490000Y14688210D02*
Y14746568D01*
X15505000Y14677605D02*
Y14743034D01*
X15520000Y14709420D02*
Y14753636D01*
X15535000Y14741235D02*
Y14764238D01*
X15550000Y14773051D02*
Y14774840D01*
X13100000Y11850000D02*
X13480000D01*
X13650000Y12020000*
X13100000Y12100000D02*
X13500000D01*
X13100000Y12350000D02*
X13200000D01*
X13330000Y12480000*
Y13003738*
X11400000Y12673000D02*
Y12927000D01*
X11900000Y12800000D02*
Y13070000D01*
X11400000Y12927000D02*
X11507000D01*
X11650000Y13070000*
X11900000*
X12300000*
X12700000*
X12710000Y13080000*
X13000000*
Y13100000*
X13096261Y13003738*
X13096261D02*
X13330000D01*
X13330000D02*
Y13213500D01*
X13336500Y13220000*
X13590000Y12950000D02*
Y13219500D01*
X13590500Y13220000*
X13590000Y12950000D02*
X13970000D01*
Y13380000*
X13590000Y12950000D02*
Y12770000D01*
X13650000Y12710000*
Y12020000*
X12300000Y13330000D02*
X11900000D01*
Y13650000*
X12300000Y13330000D02*
X12500000D01*
X12700000*
X12500000D02*
Y13500000D01*
X12700000Y13330000D02*
X12860000D01*
X12970000Y13220000*
X13000000*
X13120000D02*
X13209500D01*
X13000000D02*
Y13630000D01*
X13490500Y13167500D02*
X13463500Y13120250D01*
X13436500Y13167500*
X13477000D02*
X13463500Y13120250D01*
Y13167500*
Y13120250D02*
X13450000Y13167500D01*
X13463500Y13220000D02*
Y12313503D01*
X13500000Y12277003*
Y12100000*
X14383750Y13397500D02*
X14350000Y13431250D01*
X14316250Y13397500*
X14370250D02*
X14350000Y13431250D01*
X14356750Y13397500*
X14343250D02*
X14350000Y13431250D01*
X14329750Y13397500*
X14316250Y13502500D02*
X14350000Y13468750D01*
X14383750Y13502500*
X14329750D02*
X14350000Y13468750D01*
X14343250Y13502500*
X14356750D02*
X14350000Y13468750D01*
X14370250Y13502500*
X14350000Y13370000D02*
Y13530000D01*
X12300000Y13500000D02*
X12100000D01*
Y13610000*
X12300000*
Y13500000D02*
X12500000D01*
X12300000Y13610000D02*
X12500000D01*
X12700000D02*
Y13490000D01*
X12500000Y13500000*
Y13610000D02*
Y13500000D01*
Y13630000*
Y13610000D02*
X12700000D01*
X13180000Y13430000D02*
Y13570000D01*
X13340000*
X13480000*
X13997500Y13546250D02*
X14031250Y13580000D01*
X13997500Y13613750*
Y13559750D02*
X14031250Y13580000D01*
X13997500Y13573250*
Y13586750D02*
X14031250Y13580000D01*
X13997500Y13600250*
X14112500Y13554750D02*
X14093750Y13530000D01*
X14112500Y13505250*
Y13542375D02*
X14093750Y13530000D01*
X14112500*
X14093750D02*
X14112500Y13517625D01*
X13970000Y13580000D02*
X14040375D01*
X14090375Y13530000*
X14150000*
X13854750Y13617500D02*
X13830000Y13651250D01*
X13805250Y13617500*
X13842375D02*
X13830000Y13651250D01*
Y13617500*
Y13651250D02*
X13817625Y13617500D01*
X13805250Y13742500D02*
X13830000Y13708750D01*
X13854750Y13742500*
X13817625D02*
X13830000Y13708750D01*
Y13742500*
Y13708750D02*
X13842375Y13742500D01*
X13830000Y13580000D02*
Y13780000D01*
X13805250Y13417500D02*
X13830000Y13451250D01*
X13854750Y13417500*
X13817625D02*
X13830000Y13451250D01*
Y13417500*
Y13451250D02*
X13842375Y13417500D01*
X13854750Y13542500D02*
X13830000Y13508750D01*
X13805250Y13542500*
X13842375D02*
X13830000Y13508750D01*
Y13542500*
Y13508750D02*
X13817625Y13542500D01*
X13830000Y13380000D02*
Y13580000D01*
X13970000Y13380000D02*
X14120000Y13230000D01*
X14350000*
X14179198Y13430882D02*
X14150000Y13499874D01*
X14150000D02*
X14120801Y13430882D01*
X14165291Y13439653D02*
X14150000Y13499874D01*
X14150000D02*
X14154880Y13442218D01*
X14145119D02*
X14150000Y13499874D01*
X14150000D02*
X14134708Y13439653D01*
X14183750Y13502500D02*
X14150000Y13468750D01*
X14116250Y13502500*
X14170250D02*
X14150000Y13468750D01*
X14156750Y13502500*
X14143250D02*
X14150000Y13468750D01*
X14129750Y13502500*
X14150000Y13400000D02*
Y13530000D01*
X14183750Y13557500D02*
X14150000Y13591250D01*
X14116250Y13557500*
X14170250D02*
X14150000Y13591250D01*
X14156750Y13557500*
X14143250D02*
X14150000Y13591250D01*
X14129750Y13557500*
X14183750Y13642500D02*
X14150000Y13608750D01*
X14116250Y13642500*
X14170250D02*
X14150000Y13608750D01*
X14156750Y13642500*
X14143250D02*
X14150000Y13608750D01*
X14129750Y13642500*
X14150000Y13530000D02*
Y13670000D01*
X15500000Y13573000D02*
Y13827000D01*
X11400000Y13927000D02*
Y13673000D01*
X11640000*
X11663000Y13650000*
X11900000*
X12100000Y13610000*
X12770000Y13810000D02*
Y13900000D01*
X13000000Y13630000D02*
X13040000D01*
X13100000Y13570000*
X13180000*
X13209500Y13780000D02*
Y14100000D01*
X13300000Y14190500*
Y14195000*
X13460000Y13880000D02*
Y13793500D01*
X13463500Y13780000*
X13336500D02*
Y13573500D01*
X13340000Y13570000*
X13336500Y13780000D02*
Y13870000D01*
X13466500Y14000000*
X13900000*
X13620500Y13732750D02*
X13667750Y13780000D01*
X13620500Y13827250*
Y13746250D02*
X13667750Y13780000D01*
X13620500Y13759750*
Y13773250D02*
X13667750Y13780000D01*
X13620500Y13786750*
Y13800250D02*
X13667750Y13780000D01*
X13620500Y13813750*
X13802500D02*
X13768750Y13780000D01*
X13802500Y13746250*
Y13800250D02*
X13768750Y13780000D01*
X13802500Y13786750*
Y13773250D02*
X13768750Y13780000D01*
X13802500Y13759750*
X13590500Y13780000D02*
X13830000D01*
X13945250Y13742500D02*
X13970000Y13708750D01*
X13994750Y13742500*
X13957625D02*
X13970000Y13708750D01*
Y13742500*
Y13708750D02*
X13982375Y13742500D01*
X13994750Y13617500D02*
X13970000Y13651250D01*
X13945250Y13617500*
X13982375D02*
X13970000Y13651250D01*
Y13617500*
Y13651250D02*
X13957625Y13617500D01*
X13970000Y13780000D02*
Y13580000D01*
X14150000Y13800000D02*
Y13810000D01*
X14220000Y13880000*
X14150000Y13670000D02*
Y13800000D01*
X14350000Y13670000D02*
Y13740000D01*
X12605250Y13937500D02*
X12630000Y13971250D01*
X12654750Y13937500*
X12617625D02*
X12630000Y13971250D01*
Y13937500*
Y13971250D02*
X12642375Y13937500D01*
X12654750Y14062500D02*
X12630000Y14028750D01*
X12605250Y14062500*
X12642375D02*
X12630000Y14028750D01*
Y14062500*
Y14028750D02*
X12617625Y14062500D01*
X12630000Y13900000D02*
Y14100000D01*
X12770000D02*
X13000000D01*
Y13900000*
X13010163Y13910163*
X13010163D02*
X13079663D01*
X13079663D02*
X13209500Y13780327D01*
Y13780000*
X14060000Y14000000D02*
X13900000D01*
Y14140000*
X14060000Y14000000D02*
X14200000D01*
X14350000*
Y14140000D02*
Y14000000D01*
X14500000*
Y14140000*
X13900000D02*
X14050000D01*
X13900000Y14275000D02*
X14200000D01*
Y14140000*
X14050000D02*
X14200000D01*
Y14275000*
Y14140000D02*
Y14000000D01*
Y14275000D02*
X14350000D01*
Y14140000*
Y14275000*
X14500000*
Y14140000D02*
Y14282500D01*
X14617500*
X14700000Y14200000*
X14900000*
X14500000Y14275000D02*
Y14282500D01*
X14900000Y14200000D02*
X14910000Y14210000D01*
X15117000*
X15500000Y13827000*
X13900000Y14525000D02*
X14200000D01*
X14500000*
X14578000*
X14580000Y14527000*
X14700000*
Y14530000*
X14770000Y14600000*
X14900000*
X15113000*
X15140000Y14573000*
X15500000*
Y14827000*
X13300000Y14805000D02*
X13770000D01*
X13900000Y14675000*
Y14525000*
G54D19*
X8999999Y31600000D02*
G75*
G03X8999999I-199999D01*
G01X8550000D02*
X9050000D01*
X8800000Y31850000D02*
Y31350000D01*
X39799999Y8400000D02*
G03X39799999I-199999D01*
G01X39350000D02*
X39850000D01*
X39600000Y8650000D02*
Y8150000D01*
X40399999Y8400000D02*
G03X40399999I-199999D01*
G01X39950000D02*
X40450000D01*
X40200000Y8650000D02*
Y8150000D01*
G54D20*
X13120000Y13220000D03*
X12100000Y13500000D03*
Y13610000D03*
X12300000Y13500000D03*
Y13610000D03*
X12700000Y13490000D03*
Y13610000D03*
X12500000Y13500000D03*
Y13610000D03*
X13180000Y13430000D03*
Y13570000D03*
X13340000Y13430000D03*
X13480000D03*
Y13570000D03*
X13340000D03*
X12770000Y13810000D03*
X13000000Y13630000D03*
X13460000Y13880000D03*
X14220000D03*
X14350000Y13740000D03*
X13900000Y14000000D03*
X14060000D03*
X14200000D03*
X14350000D03*
X14500000D03*
X13900000Y14140000D03*
X14050000D03*
X14200000D03*
X14350000D03*
X14500000D03*
X14700000Y14530000D03*
G54D21*
X13195000Y13805000D02*
X13235000D01*
Y14052071*
X13380000Y14197071*
Y14405000*
X13015000*
Y14177928*
X13015000D02*
X12972071Y14135000D01*
X12745000*
Y14102071*
X12782071Y14065000*
X12872071*
X12913750Y14023321*
Y13882071*
X13066446Y13729375*
X13195000*
Y13805000*
X13085000Y11925000D02*
X13492071D01*
X13610000Y12042928*
X13610000D02*
Y12337071D01*
X13527500Y12419571*
Y13067928*
X13527500D02*
X13561250Y13101678D01*
X13561250D02*
Y13255000D01*
X13727928*
X13727928D02*
X13745000Y13237928D01*
X13745000D02*
Y13027928D01*
X13745000D02*
X13777928Y12995000D01*
X13777928D02*
X14027928D01*
X14027928D02*
X14195000Y12827928D01*
X14195000D02*
Y12024571D01*
X13941678Y11771250*
X13941678D02*
X13085000D01*
Y11925000*
X13365000Y13765000D02*
Y13472071D01*
X13257928Y13365000*
X13257928D02*
X11342071D01*
X11265000Y13442071*
Y14337928*
X11265000D02*
X11502071Y14575000D01*
X12277928*
X12277928D02*
X12555000Y14297928D01*
X12555000D02*
Y13797928D01*
X12555000D02*
X12621678Y13731250D01*
X12621678D02*
X12977928D01*
X12977928D02*
X13046053Y13663125D01*
X13046053D02*
X13252071D01*
X13310937Y13721991*
X13310937D02*
Y13765000D01*
X13310937D02*
X13365000D01*
X13105000Y13402071D02*
X13162071Y13345000D01*
X13697928*
X13697928D02*
X13725000Y13372071D01*
Y13527928*
X13725000D02*
X13572928Y13680000D01*
X13572928D02*
X13387928D01*
X13387928D02*
X13350428Y13717500D01*
X13350428D02*
X13302071D01*
X13210821Y13626250*
X13105000*
Y13402071*
X15815000Y14582071D02*
X15682928Y14450000D01*
X15682928D02*
X13792071D01*
X13514571Y14727500*
X12825000*
Y15197928*
X12825000D02*
X13372071Y15745000D01*
X15327928*
X15327928D02*
X15815000Y15257928D01*
X15815000D02*
Y14582071D01*
X13305000Y13585000D02*
Y14037928D01*
X13305000D02*
X13602071Y14335000D01*
X13832071*
X13837071Y14340000*
X15657928*
X15657928D02*
X15815000Y14182928D01*
X15815000D02*
Y11082071D01*
X15784178Y11051250*
X15784178D02*
X14325821D01*
X14293125Y11083946*
Y12547928*
X14293125D02*
X14674062Y12928866D01*
X14674062D02*
Y13913008D01*
X14674062D02*
X14642071Y13945000D01*
X13427928*
X13427928D02*
X13365000Y13882071D01*
Y13585000*
X13305000*
X13565000Y13255000D02*
X13852071D01*
X13960000Y13362928*
X13960000D02*
X13987928Y13335000D01*
X13987928D02*
X14057928D01*
X14057928D02*
X14117928Y13275000D01*
X14117928D02*
X14392071D01*
X14425000Y13307928*
X14425000D02*
Y13784571D01*
X14261250Y13948321*
Y14035000*
X14565000*
Y13942071*
X14535000Y13912071*
Y12962071*
X14012928Y12440000*
X14012928D02*
X13565000D01*
Y13255000*
X11265000Y12142071D02*
X11452071Y11955000D01*
X12217928*
X12217928D02*
X12982928Y12720000D01*
X12982928D02*
X13232071D01*
X13287500Y12664571*
Y12507928*
X13287500D02*
X13146250Y12366678D01*
X13146250D02*
Y12305000D01*
X13257928*
X13257928D02*
X13365000Y12412071D01*
Y13225000*
X13305000*
Y13137928*
X13305000D02*
X13282071Y13115000D01*
X13057928*
X13057928D02*
X13037500Y13135428D01*
X13037500D02*
Y13135000D01*
X11342071*
X11265000Y13057928*
X11265000D02*
Y12142071D01*
X13315000Y13345000D02*
X13097928D01*
X13097928D02*
X13045000Y13292071D01*
Y13195000*
X12962071*
X12952071Y13205000*
X11352071*
X11265000Y13292071*
Y13535000*
X13315000*
Y13345000*
X13015000Y14404341D02*
X13380000D01*
X13015000Y14395341D02*
X13380000D01*
X13015000Y14386341D02*
X13380000D01*
X13015000Y14377341D02*
X13380000D01*
X13015000Y14368341D02*
X13380000D01*
X13015000Y14359341D02*
X13380000D01*
X13015000Y14350341D02*
X13380000D01*
X13015000Y14341341D02*
X13380000D01*
X13015000Y14332341D02*
X13380000D01*
X13015000Y14323341D02*
X13380000D01*
X13015000Y14314341D02*
X13380000D01*
X13015000Y14305341D02*
X13380000D01*
X13015000Y14296341D02*
X13380000D01*
X13015000Y14287341D02*
X13380000D01*
X13015000Y14278341D02*
X13380000D01*
X13015000Y14269341D02*
X13380000D01*
X13015000Y14260341D02*
X13380000D01*
X13015000Y14251341D02*
X13380000D01*
X13015000Y14242341D02*
X13380000D01*
X13015000Y14233341D02*
X13380000D01*
X13015000Y14224341D02*
X13380000D01*
X13015000Y14215341D02*
X13380000D01*
X13015000Y14206341D02*
X13380000D01*
X13015000Y14197341D02*
X13380000D01*
X13015000Y14188341D02*
X13371270D01*
X13015000Y14179341D02*
X13362270D01*
X13007412Y14170341D02*
X13353270D01*
X12998412Y14161341D02*
X13344270D01*
X12989412Y14152341D02*
X13335270D01*
X12980412Y14143341D02*
X13326270D01*
X12745000Y14134341D02*
X13317270D01*
X12745000Y14125341D02*
X13308270D01*
X12745000Y14116341D02*
X13299270D01*
X12745000Y14107341D02*
X13290270D01*
X12748729Y14098341D02*
X13281270D01*
X12757729Y14089341D02*
X13272270D01*
X12766729Y14080341D02*
X13263270D01*
X12775729Y14071341D02*
X13254270D01*
X12874729Y14062341D02*
X13245270D01*
X12883729Y14053341D02*
X13236270D01*
X12892729Y14044341D02*
X13235000D01*
X12901729Y14035341D02*
X13235000D01*
X12910729Y14026341D02*
X13235000D01*
X12913750Y14017341D02*
X13235000D01*
X12913750Y14008341D02*
X13235000D01*
X12913750Y13999341D02*
X13235000D01*
X12913750Y13990341D02*
X13235000D01*
X12913750Y13981341D02*
X13235000D01*
X12913750Y13972341D02*
X13235000D01*
X12913750Y13963341D02*
X13235000D01*
X12913750Y13954341D02*
X13235000D01*
X12913750Y13945341D02*
X13235000D01*
X12913750Y13936341D02*
X13235000D01*
X12913750Y13927341D02*
X13235000D01*
X12913750Y13918341D02*
X13235000D01*
X12913750Y13909341D02*
X13235000D01*
X12913750Y13900341D02*
X13235000D01*
X12913750Y13891341D02*
X13235000D01*
X12913750Y13882341D02*
X13235000D01*
X12922479Y13873341D02*
X13235000D01*
X12931479Y13864341D02*
X13235000D01*
X12940479Y13855341D02*
X13235000D01*
X12949479Y13846341D02*
X13235000D01*
X12958479Y13837341D02*
X13235000D01*
X12967479Y13828341D02*
X13235000D01*
X12976479Y13819341D02*
X13235000D01*
X12985479Y13810341D02*
X13235000D01*
X12994479Y13801341D02*
X13195000D01*
X13003479Y13792341D02*
X13195000D01*
X13012479Y13783341D02*
X13195000D01*
X13021479Y13774341D02*
X13195000D01*
X13030479Y13765341D02*
X13195000D01*
X13039479Y13756341D02*
X13195000D01*
X13048479Y13747341D02*
X13195000D01*
X13057479Y13738341D02*
X13195000D01*
X13527500Y12824216D02*
X14195000D01*
X13527500Y12815216D02*
X14195000D01*
X13527500Y12806216D02*
X14195000D01*
X13527500Y12797216D02*
X14195000D01*
X13527500Y12788216D02*
X14195000D01*
X13527500Y12779216D02*
X14195000D01*
X13527500Y12770216D02*
X14195000D01*
X13527500Y12761216D02*
X14195000D01*
X13527500Y12752216D02*
X14195000D01*
X13527500Y12743216D02*
X14195000D01*
X13527500Y12734216D02*
X14195000D01*
X13527500Y12725216D02*
X14195000D01*
X13527500Y12716216D02*
X14195000D01*
X13527500Y12707216D02*
X14195000D01*
X13527500Y12698216D02*
X14195000D01*
X13527500Y12689216D02*
X14195000D01*
X13527500Y12680216D02*
X14195000D01*
X13527500Y12671216D02*
X14195000D01*
X13527500Y12662216D02*
X14195000D01*
X13527500Y12653216D02*
X14195000D01*
X13527500Y12644216D02*
X14195000D01*
X13527500Y12635216D02*
X14195000D01*
X13527500Y12626216D02*
X14195000D01*
X13527500Y12617216D02*
X14195000D01*
X13527500Y12608216D02*
X14195000D01*
X13527500Y12599216D02*
X14195000D01*
X13527500Y12590216D02*
X14195000D01*
X13527500Y12581216D02*
X14195000D01*
X13527500Y12572216D02*
X14195000D01*
X13527500Y12563216D02*
X14195000D01*
X13527500Y12554216D02*
X14195000D01*
X13527500Y12545216D02*
X14195000D01*
X13527500Y12536216D02*
X14195000D01*
X13527500Y12527216D02*
X14195000D01*
X13527500Y12518216D02*
X14195000D01*
X13527500Y12509216D02*
X14195000D01*
X13527500Y12500216D02*
X14195000D01*
X13527500Y12491216D02*
X14195000D01*
X13527500Y12482216D02*
X14195000D01*
X13527500Y12473216D02*
X14195000D01*
X13527500Y12464216D02*
X14195000D01*
X13527500Y12455216D02*
X14195000D01*
X13527500Y12446216D02*
X14195000D01*
X13527500Y12437216D02*
X14195000D01*
X13527500Y12428216D02*
X14195000D01*
X13527854Y12419216D02*
X14195000D01*
X13536854Y12410216D02*
X14195000D01*
X13545854Y12401216D02*
X14195000D01*
X13554854Y12392216D02*
X14195000D01*
X13563854Y12383216D02*
X14195000D01*
X13572854Y12374216D02*
X14195000D01*
X13581854Y12365216D02*
X14195000D01*
X13590854Y12356216D02*
X14195000D01*
X13599854Y12347216D02*
X14195000D01*
X13608854Y12338216D02*
X14195000D01*
X13610000Y12329216D02*
X14195000D01*
X13610000Y12320216D02*
X14195000D01*
X13610000Y12311216D02*
X14195000D01*
X13610000Y12302216D02*
X14195000D01*
X13610000Y12293216D02*
X14195000D01*
X13610000Y12284216D02*
X14195000D01*
X13610000Y12275216D02*
X14195000D01*
X13610000Y12266216D02*
X14195000D01*
X13610000Y12257216D02*
X14195000D01*
X13610000Y12248216D02*
X14195000D01*
X13610000Y12239216D02*
X14195000D01*
X13610000Y12230216D02*
X14195000D01*
X13610000Y12221216D02*
X14195000D01*
X13610000Y12212216D02*
X14195000D01*
X13610000Y12203216D02*
X14195000D01*
X13610000Y12194216D02*
X14195000D01*
X13610000Y12185216D02*
X14195000D01*
X13610000Y12176216D02*
X14195000D01*
X13610000Y12167216D02*
X14195000D01*
X13610000Y12158216D02*
X14195000D01*
X13610000Y12149216D02*
X14195000D01*
X13610000Y12140216D02*
X14195000D01*
X13610000Y12131216D02*
X14195000D01*
X13610000Y12122216D02*
X14195000D01*
X13610000Y12113216D02*
X14195000D01*
X13610000Y12104216D02*
X14195000D01*
X13610000Y12095216D02*
X14195000D01*
X13610000Y12086216D02*
X14195000D01*
X13610000Y12077216D02*
X14195000D01*
X13610000Y12068216D02*
X14195000D01*
X13610000Y12059216D02*
X14195000D01*
X13610000Y12050216D02*
X14195000D01*
X13608287Y12041216D02*
X14195000D01*
X13599287Y12032216D02*
X14195000D01*
X13590287Y12023216D02*
X14193645D01*
X13527500Y12833216D02*
X14189712D01*
X13581287Y12014216D02*
X14184645D01*
X13527500Y12842216D02*
X14180712D01*
X13572287Y12005216D02*
X14175645D01*
X13527500Y12851216D02*
X14171712D01*
X13563287Y11996216D02*
X14166645D01*
X13527500Y12860216D02*
X14162712D01*
X13554287Y11987216D02*
X14157645D01*
X13527500Y12869216D02*
X14153712D01*
X13545287Y11978216D02*
X14148645D01*
X13527500Y12878216D02*
X14144712D01*
X13536287Y11969216D02*
X14139645D01*
X13527500Y12887216D02*
X14135712D01*
X13527287Y11960216D02*
X14130645D01*
X13527500Y12896216D02*
X14126712D01*
X13518287Y11951216D02*
X14121645D01*
X13527500Y12905216D02*
X14117712D01*
X13509287Y11942216D02*
X14112645D01*
X13527500Y12914216D02*
X14108712D01*
X13500287Y11933216D02*
X14103645D01*
X13527500Y12923216D02*
X14099712D01*
X13085000Y11924216D02*
X14094645D01*
X13527500Y12932216D02*
X14090712D01*
X13085000Y11915216D02*
X14085645D01*
X13527500Y12941216D02*
X14081712D01*
X13085000Y11906216D02*
X14076645D01*
X13527500Y12950216D02*
X14072712D01*
X13085000Y11897216D02*
X14067645D01*
X13527500Y12959216D02*
X14063712D01*
X13085000Y11888216D02*
X14058645D01*
X13527500Y12968216D02*
X14054712D01*
X13085000Y11879216D02*
X14049645D01*
X13527500Y12977216D02*
X14045712D01*
X13085000Y11870216D02*
X14040645D01*
X13527500Y12986216D02*
X14036712D01*
X13085000Y11861216D02*
X14031645D01*
X13085000Y11852216D02*
X14022645D01*
X13085000Y11843216D02*
X14013645D01*
X13085000Y11834216D02*
X14004645D01*
X13085000Y11825216D02*
X13995645D01*
X13085000Y11816216D02*
X13986645D01*
X13085000Y11807216D02*
X13977645D01*
X13085000Y11798216D02*
X13968645D01*
X13085000Y11789216D02*
X13959645D01*
X13085000Y11780216D02*
X13950645D01*
X13527500Y12995216D02*
X13777712D01*
X13527500Y13004216D02*
X13768712D01*
X13527500Y13013216D02*
X13759712D01*
X13527500Y13022216D02*
X13750712D01*
X13561250Y13229216D02*
X13745000D01*
X13561250Y13220216D02*
X13745000D01*
X13561250Y13211216D02*
X13745000D01*
X13561250Y13202216D02*
X13745000D01*
X13561250Y13193216D02*
X13745000D01*
X13561250Y13184216D02*
X13745000D01*
X13561250Y13175216D02*
X13745000D01*
X13561250Y13166216D02*
X13745000D01*
X13561250Y13157216D02*
X13745000D01*
X13561250Y13148216D02*
X13745000D01*
X13561250Y13139216D02*
X13745000D01*
X13561250Y13130216D02*
X13745000D01*
X13561250Y13121216D02*
X13745000D01*
X13561250Y13112216D02*
X13745000D01*
X13561250Y13103216D02*
X13745000D01*
X13553787Y13094216D02*
X13745000D01*
X13544787Y13085216D02*
X13745000D01*
X13535787Y13076216D02*
X13745000D01*
X13527500Y13067216D02*
X13745000D01*
X13527500Y13058216D02*
X13745000D01*
X13527500Y13049216D02*
X13745000D01*
X13527500Y13040216D02*
X13745000D01*
X13527500Y13031216D02*
X13745000D01*
X13561250Y13238216D02*
X13744712D01*
X13561250Y13247216D02*
X13735712D01*
X13310937Y13760966D02*
X13365000D01*
X13310937Y13751966D02*
X13365000D01*
X13310937Y13742966D02*
X13365000D01*
X13310937Y13733966D02*
X13365000D01*
X13310937Y13724966D02*
X13365000D01*
X13304912Y13715966D02*
X13365000D01*
X13295912Y13706966D02*
X13365000D01*
X13286912Y13697966D02*
X13365000D01*
X13277912Y13688966D02*
X13365000D01*
X13268912Y13679966D02*
X13365000D01*
X13259912Y13670966D02*
X13365000D01*
X11265000Y13661966D02*
X13365000D01*
X11265000Y13652966D02*
X13365000D01*
X11265000Y13643966D02*
X13365000D01*
X11265000Y13634966D02*
X13365000D01*
X11265000Y13625966D02*
X13365000D01*
X11265000Y13616966D02*
X13365000D01*
X11265000Y13607966D02*
X13365000D01*
X11265000Y13598966D02*
X13365000D01*
X11265000Y13589966D02*
X13365000D01*
X11265000Y13580966D02*
X13365000D01*
X11265000Y13571966D02*
X13365000D01*
X11265000Y13562966D02*
X13365000D01*
X11265000Y13553966D02*
X13365000D01*
X11265000Y13544966D02*
X13365000D01*
X11265000Y13535966D02*
X13365000D01*
X11265000Y13526966D02*
X13365000D01*
X11265000Y13517966D02*
X13365000D01*
X11265000Y13508966D02*
X13365000D01*
X11265000Y13499966D02*
X13365000D01*
X11265000Y13490966D02*
X13365000D01*
X11265000Y13481966D02*
X13365000D01*
X11265000Y13472966D02*
X13365000D01*
X11265000Y13463966D02*
X13356895D01*
X11265000Y13454966D02*
X13347895D01*
X11265000Y13445966D02*
X13338895D01*
X11270104Y13436966D02*
X13329895D01*
X11279104Y13427966D02*
X13320895D01*
X11288104Y13418966D02*
X13311895D01*
X11297104Y13409966D02*
X13302895D01*
X11306104Y13400966D02*
X13293895D01*
X11315104Y13391966D02*
X13284895D01*
X11324104Y13382966D02*
X13275895D01*
X11333104Y13373966D02*
X13266895D01*
X11265000Y13670966D02*
X13038212D01*
X11265000Y13679966D02*
X13029212D01*
X11265000Y13688966D02*
X13020212D01*
X11265000Y13697966D02*
X13011212D01*
X11265000Y13706966D02*
X13002212D01*
X11265000Y13715966D02*
X12993212D01*
X11265000Y13724966D02*
X12984212D01*
X11265000Y13733966D02*
X12618962D01*
X11265000Y13742966D02*
X12609962D01*
X11265000Y13751966D02*
X12600962D01*
X11265000Y13760966D02*
X12591962D01*
X11265000Y13769966D02*
X12582962D01*
X11265000Y13778966D02*
X12573962D01*
X11265000Y13787966D02*
X12564962D01*
X11265000Y13796966D02*
X12555962D01*
X11265000Y14291966D02*
X12555000D01*
X11265000Y14282966D02*
X12555000D01*
X11265000Y14273966D02*
X12555000D01*
X11265000Y14264966D02*
X12555000D01*
X11265000Y14255966D02*
X12555000D01*
X11265000Y14246966D02*
X12555000D01*
X11265000Y14237966D02*
X12555000D01*
X11265000Y14228966D02*
X12555000D01*
X11265000Y14219966D02*
X12555000D01*
X11265000Y14210966D02*
X12555000D01*
X11265000Y14201966D02*
X12555000D01*
X11265000Y14192966D02*
X12555000D01*
X11265000Y14183966D02*
X12555000D01*
X11265000Y14174966D02*
X12555000D01*
X11265000Y14165966D02*
X12555000D01*
X11265000Y14156966D02*
X12555000D01*
X11265000Y14147966D02*
X12555000D01*
X11265000Y14138966D02*
X12555000D01*
X11265000Y14129966D02*
X12555000D01*
X11265000Y14120966D02*
X12555000D01*
X11265000Y14111966D02*
X12555000D01*
X11265000Y14102966D02*
X12555000D01*
X11265000Y14093966D02*
X12555000D01*
X11265000Y14084966D02*
X12555000D01*
X11265000Y14075966D02*
X12555000D01*
X11265000Y14066966D02*
X12555000D01*
X11265000Y14057966D02*
X12555000D01*
X11265000Y14048966D02*
X12555000D01*
X11265000Y14039966D02*
X12555000D01*
X11265000Y14030966D02*
X12555000D01*
X11265000Y14021966D02*
X12555000D01*
X11265000Y14012966D02*
X12555000D01*
X11265000Y14003966D02*
X12555000D01*
X11265000Y13994966D02*
X12555000D01*
X11265000Y13985966D02*
X12555000D01*
X11265000Y13976966D02*
X12555000D01*
X11265000Y13967966D02*
X12555000D01*
X11265000Y13958966D02*
X12555000D01*
X11265000Y13949966D02*
X12555000D01*
X11265000Y13940966D02*
X12555000D01*
X11265000Y13931966D02*
X12555000D01*
X11265000Y13922966D02*
X12555000D01*
X11265000Y13913966D02*
X12555000D01*
X11265000Y13904966D02*
X12555000D01*
X11265000Y13895966D02*
X12555000D01*
X11265000Y13886966D02*
X12555000D01*
X11265000Y13877966D02*
X12555000D01*
X11265000Y13868966D02*
X12555000D01*
X11265000Y13859966D02*
X12555000D01*
X11265000Y13850966D02*
X12555000D01*
X11265000Y13841966D02*
X12555000D01*
X11265000Y13832966D02*
X12555000D01*
X11265000Y13823966D02*
X12555000D01*
X11265000Y13814966D02*
X12555000D01*
X11265000Y13805966D02*
X12555000D01*
X11265000Y14300966D02*
X12551962D01*
X11265000Y14309966D02*
X12542962D01*
X11265000Y14318966D02*
X12533962D01*
X11265000Y14327966D02*
X12524962D01*
X11265000Y14336966D02*
X12515962D01*
X11273037Y14345966D02*
X12506962D01*
X11282037Y14354966D02*
X12497962D01*
X11291037Y14363966D02*
X12488962D01*
X11300037Y14372966D02*
X12479962D01*
X11309037Y14381966D02*
X12470962D01*
X11318037Y14390966D02*
X12461962D01*
X11327037Y14399966D02*
X12452962D01*
X11336037Y14408966D02*
X12443962D01*
X11345037Y14417966D02*
X12434962D01*
X11354037Y14426966D02*
X12425962D01*
X11363037Y14435966D02*
X12416962D01*
X11372037Y14444966D02*
X12407962D01*
X11381037Y14453966D02*
X12398962D01*
X11390037Y14462966D02*
X12389962D01*
X11399037Y14471966D02*
X12380962D01*
X11408037Y14480966D02*
X12371962D01*
X11417037Y14489966D02*
X12362962D01*
X11426037Y14498966D02*
X12353962D01*
X11435037Y14507966D02*
X12344962D01*
X11444037Y14516966D02*
X12335962D01*
X11453037Y14525966D02*
X12326962D01*
X11462037Y14534966D02*
X12317962D01*
X11471037Y14543966D02*
X12308962D01*
X11480037Y14552966D02*
X12299962D01*
X11489037Y14561966D02*
X12290962D01*
X11498037Y14570966D02*
X12281962D01*
X13105000Y13524966D02*
X13725000D01*
X13105000Y13515966D02*
X13725000D01*
X13105000Y13506966D02*
X13725000D01*
X13105000Y13497966D02*
X13725000D01*
X13105000Y13488966D02*
X13725000D01*
X13105000Y13479966D02*
X13725000D01*
X13105000Y13470966D02*
X13725000D01*
X13105000Y13461966D02*
X13725000D01*
X13105000Y13452966D02*
X13725000D01*
X13105000Y13443966D02*
X13725000D01*
X13105000Y13434966D02*
X13725000D01*
X13105000Y13425966D02*
X13725000D01*
X13105000Y13416966D02*
X13725000D01*
X13105000Y13407966D02*
X13725000D01*
X13108104Y13398966D02*
X13725000D01*
X13117104Y13389966D02*
X13725000D01*
X13126104Y13380966D02*
X13725000D01*
X13135104Y13371966D02*
X13724895D01*
X13105000Y13533966D02*
X13718962D01*
X13144104Y13362966D02*
X13715895D01*
X13105000Y13542966D02*
X13709962D01*
X13153104Y13353966D02*
X13706895D01*
X13105000Y13551966D02*
X13700962D01*
X13105000Y13560966D02*
X13691962D01*
X13105000Y13569966D02*
X13682962D01*
X13105000Y13578966D02*
X13673962D01*
X13105000Y13587966D02*
X13664962D01*
X13105000Y13596966D02*
X13655962D01*
X13105000Y13605966D02*
X13646962D01*
X13105000Y13614966D02*
X13637962D01*
X13105000Y13623966D02*
X13628962D01*
X13217537Y13632966D02*
X13619962D01*
X13226537Y13641966D02*
X13610962D01*
X13235537Y13650966D02*
X13601962D01*
X13244537Y13659966D02*
X13592962D01*
X13253537Y13668966D02*
X13583962D01*
X13262537Y13677966D02*
X13574962D01*
X13271537Y13686966D02*
X13380962D01*
X13280537Y13695966D02*
X13371962D01*
X13289537Y13704966D02*
X13362962D01*
X13298537Y13713966D02*
X13353962D01*
X12878037Y15250966D02*
X15815000D01*
X12869037Y15241966D02*
X15815000D01*
X12860037Y15232966D02*
X15815000D01*
X12851037Y15223966D02*
X15815000D01*
X12842037Y15214966D02*
X15815000D01*
X12833037Y15205966D02*
X15815000D01*
X12825000Y15196966D02*
X15815000D01*
X12825000Y15187966D02*
X15815000D01*
X12825000Y15178966D02*
X15815000D01*
X12825000Y15169966D02*
X15815000D01*
X12825000Y15160966D02*
X15815000D01*
X12825000Y15151966D02*
X15815000D01*
X12825000Y15142966D02*
X15815000D01*
X12825000Y15133966D02*
X15815000D01*
X12825000Y15124966D02*
X15815000D01*
X12825000Y15115966D02*
X15815000D01*
X12825000Y15106966D02*
X15815000D01*
X12825000Y15097966D02*
X15815000D01*
X12825000Y15088966D02*
X15815000D01*
X12825000Y15079966D02*
X15815000D01*
X12825000Y15070966D02*
X15815000D01*
X12825000Y15061966D02*
X15815000D01*
X12825000Y15052966D02*
X15815000D01*
X12825000Y15043966D02*
X15815000D01*
X12825000Y15034966D02*
X15815000D01*
X12825000Y15025966D02*
X15815000D01*
X12825000Y15016966D02*
X15815000D01*
X12825000Y15007966D02*
X15815000D01*
X12825000Y14998966D02*
X15815000D01*
X12825000Y14989966D02*
X15815000D01*
X12825000Y14980966D02*
X15815000D01*
X12825000Y14971966D02*
X15815000D01*
X12825000Y14962966D02*
X15815000D01*
X12825000Y14953966D02*
X15815000D01*
X12825000Y14944966D02*
X15815000D01*
X12825000Y14935966D02*
X15815000D01*
X12825000Y14926966D02*
X15815000D01*
X12825000Y14917966D02*
X15815000D01*
X12825000Y14908966D02*
X15815000D01*
X12825000Y14899966D02*
X15815000D01*
X12825000Y14890966D02*
X15815000D01*
X12825000Y14881966D02*
X15815000D01*
X12825000Y14872966D02*
X15815000D01*
X12825000Y14863966D02*
X15815000D01*
X12825000Y14854966D02*
X15815000D01*
X12825000Y14845966D02*
X15815000D01*
X12825000Y14836966D02*
X15815000D01*
X12825000Y14827966D02*
X15815000D01*
X12825000Y14818966D02*
X15815000D01*
X12825000Y14809966D02*
X15815000D01*
X12825000Y14800966D02*
X15815000D01*
X12825000Y14791966D02*
X15815000D01*
X12825000Y14782966D02*
X15815000D01*
X12825000Y14773966D02*
X15815000D01*
X12825000Y14764966D02*
X15815000D01*
X12825000Y14755966D02*
X15815000D01*
X12825000Y14746966D02*
X15815000D01*
X12825000Y14737966D02*
X15815000D01*
X12825000Y14728966D02*
X15815000D01*
X13522104Y14719966D02*
X15815000D01*
X13531104Y14710966D02*
X15815000D01*
X13540104Y14701966D02*
X15815000D01*
X13549104Y14692966D02*
X15815000D01*
X13558104Y14683966D02*
X15815000D01*
X13567104Y14674966D02*
X15815000D01*
X13576104Y14665966D02*
X15815000D01*
X13585104Y14656966D02*
X15815000D01*
X13594104Y14647966D02*
X15815000D01*
X13603104Y14638966D02*
X15815000D01*
X13612104Y14629966D02*
X15815000D01*
X13621104Y14620966D02*
X15815000D01*
X13630104Y14611966D02*
X15815000D01*
X13639104Y14602966D02*
X15815000D01*
X13648104Y14593966D02*
X15815000D01*
X13657104Y14584966D02*
X15815000D01*
X12887037Y15259966D02*
X15812962D01*
X13666104Y14575966D02*
X15808895D01*
X12896037Y15268966D02*
X15803962D01*
X13675104Y14566966D02*
X15799895D01*
X12905037Y15277966D02*
X15794962D01*
X13684104Y14557966D02*
X15790895D01*
X12914037Y15286966D02*
X15785962D01*
X13693104Y14548966D02*
X15781895D01*
X12923037Y15295966D02*
X15776962D01*
X13702104Y14539966D02*
X15772895D01*
X12932037Y15304966D02*
X15767962D01*
X13711104Y14530966D02*
X15763895D01*
X12941037Y15313966D02*
X15758962D01*
X13720104Y14521966D02*
X15754895D01*
X12950037Y15322966D02*
X15749962D01*
X13729104Y14512966D02*
X15745895D01*
X12959037Y15331966D02*
X15740962D01*
X13738104Y14503966D02*
X15736895D01*
X12968037Y15340966D02*
X15731962D01*
X13747104Y14494966D02*
X15727895D01*
X12977037Y15349966D02*
X15722962D01*
X13756104Y14485966D02*
X15718895D01*
X12986037Y15358966D02*
X15713962D01*
X13765104Y14476966D02*
X15709895D01*
X12995037Y15367966D02*
X15704962D01*
X13774104Y14467966D02*
X15700895D01*
X13004037Y15376966D02*
X15695962D01*
X13783104Y14458966D02*
X15691895D01*
X13013037Y15385966D02*
X15686962D01*
X13022037Y15394966D02*
X15677962D01*
X13031037Y15403966D02*
X15668962D01*
X13040037Y15412966D02*
X15659962D01*
X13049037Y15421966D02*
X15650962D01*
X13058037Y15430966D02*
X15641962D01*
X13067037Y15439966D02*
X15632962D01*
X13076037Y15448966D02*
X15623962D01*
X13085037Y15457966D02*
X15614962D01*
X13094037Y15466966D02*
X15605962D01*
X13103037Y15475966D02*
X15596962D01*
X13112037Y15484966D02*
X15587962D01*
X13121037Y15493966D02*
X15578962D01*
X13130037Y15502966D02*
X15569962D01*
X13139037Y15511966D02*
X15560962D01*
X13148037Y15520966D02*
X15551962D01*
X13157037Y15529966D02*
X15542962D01*
X13166037Y15538966D02*
X15533962D01*
X13175037Y15547966D02*
X15524962D01*
X13184037Y15556966D02*
X15515962D01*
X13193037Y15565966D02*
X15506962D01*
X13202037Y15574966D02*
X15497962D01*
X13211037Y15583966D02*
X15488962D01*
X13220037Y15592966D02*
X15479962D01*
X13229037Y15601966D02*
X15470962D01*
X13238037Y15610966D02*
X15461962D01*
X13247037Y15619966D02*
X15452962D01*
X13256037Y15628966D02*
X15443962D01*
X13265037Y15637966D02*
X15434962D01*
X13274037Y15646966D02*
X15425962D01*
X13283037Y15655966D02*
X15416962D01*
X13292037Y15664966D02*
X15407962D01*
X13301037Y15673966D02*
X15398962D01*
X13310037Y15682966D02*
X15389962D01*
X13319037Y15691966D02*
X15380962D01*
X13328037Y15700966D02*
X15371962D01*
X13337037Y15709966D02*
X15362962D01*
X13346037Y15718966D02*
X15353962D01*
X13355037Y15727966D02*
X15344962D01*
X13364037Y15736966D02*
X15335962D01*
X13441287Y14174216D02*
X15815000D01*
X13432287Y14165216D02*
X15815000D01*
X13423287Y14156216D02*
X15815000D01*
X13414287Y14147216D02*
X15815000D01*
X13405287Y14138216D02*
X15815000D01*
X13396287Y14129216D02*
X15815000D01*
X13387287Y14120216D02*
X15815000D01*
X13378287Y14111216D02*
X15815000D01*
X13369287Y14102216D02*
X15815000D01*
X13360287Y14093216D02*
X15815000D01*
X13351287Y14084216D02*
X15815000D01*
X13342287Y14075216D02*
X15815000D01*
X13333287Y14066216D02*
X15815000D01*
X13324287Y14057216D02*
X15815000D01*
X13315287Y14048216D02*
X15815000D01*
X13306287Y14039216D02*
X15815000D01*
X13305000Y14030216D02*
X15815000D01*
X13305000Y14021216D02*
X15815000D01*
X13305000Y14012216D02*
X15815000D01*
X13305000Y14003216D02*
X15815000D01*
X13305000Y13994216D02*
X15815000D01*
X13305000Y13985216D02*
X15815000D01*
X13305000Y13976216D02*
X15815000D01*
X13305000Y13967216D02*
X15815000D01*
X13305000Y13958216D02*
X15815000D01*
X13305000Y13949216D02*
X15815000D01*
X14646854Y13940216D02*
X15815000D01*
X14655854Y13931216D02*
X15815000D01*
X14664854Y13922216D02*
X15815000D01*
X14673854Y13913216D02*
X15815000D01*
X14674062Y13904216D02*
X15815000D01*
X14674062Y13895216D02*
X15815000D01*
X14674062Y13886216D02*
X15815000D01*
X14674062Y13877216D02*
X15815000D01*
X14674062Y13868216D02*
X15815000D01*
X14674062Y13859216D02*
X15815000D01*
X14674062Y13850216D02*
X15815000D01*
X14674062Y13841216D02*
X15815000D01*
X14674062Y13832216D02*
X15815000D01*
X14674062Y13823216D02*
X15815000D01*
X14674062Y13814216D02*
X15815000D01*
X14674062Y13805216D02*
X15815000D01*
X14674062Y13796216D02*
X15815000D01*
X14674062Y13787216D02*
X15815000D01*
X14674062Y13778216D02*
X15815000D01*
X14674062Y13769216D02*
X15815000D01*
X14674062Y13760216D02*
X15815000D01*
X14674062Y13751216D02*
X15815000D01*
X14674062Y13742216D02*
X15815000D01*
X14674062Y13733216D02*
X15815000D01*
X14674062Y13724216D02*
X15815000D01*
X14674062Y13715216D02*
X15815000D01*
X14674062Y13706216D02*
X15815000D01*
X14674062Y13697216D02*
X15815000D01*
X14674062Y13688216D02*
X15815000D01*
X14674062Y13679216D02*
X15815000D01*
X14674062Y13670216D02*
X15815000D01*
X14674062Y13661216D02*
X15815000D01*
X14674062Y13652216D02*
X15815000D01*
X14674062Y13643216D02*
X15815000D01*
X14674062Y13634216D02*
X15815000D01*
X14674062Y13625216D02*
X15815000D01*
X14674062Y13616216D02*
X15815000D01*
X14674062Y13607216D02*
X15815000D01*
X14674062Y13598216D02*
X15815000D01*
X14674062Y13589216D02*
X15815000D01*
X14674062Y13580216D02*
X15815000D01*
X14674062Y13571216D02*
X15815000D01*
X14674062Y13562216D02*
X15815000D01*
X14674062Y13553216D02*
X15815000D01*
X14674062Y13544216D02*
X15815000D01*
X14674062Y13535216D02*
X15815000D01*
X14674062Y13526216D02*
X15815000D01*
X14674062Y13517216D02*
X15815000D01*
X14674062Y13508216D02*
X15815000D01*
X14674062Y13499216D02*
X15815000D01*
X14674062Y13490216D02*
X15815000D01*
X14674062Y13481216D02*
X15815000D01*
X14674062Y13472216D02*
X15815000D01*
X14674062Y13463216D02*
X15815000D01*
X14674062Y13454216D02*
X15815000D01*
X14674062Y13445216D02*
X15815000D01*
X14674062Y13436216D02*
X15815000D01*
X14674062Y13427216D02*
X15815000D01*
X14674062Y13418216D02*
X15815000D01*
X14674062Y13409216D02*
X15815000D01*
X14674062Y13400216D02*
X15815000D01*
X14674062Y13391216D02*
X15815000D01*
X14674062Y13382216D02*
X15815000D01*
X14674062Y13373216D02*
X15815000D01*
X14674062Y13364216D02*
X15815000D01*
X14674062Y13355216D02*
X15815000D01*
X14674062Y13346216D02*
X15815000D01*
X14674062Y13337216D02*
X15815000D01*
X14674062Y13328216D02*
X15815000D01*
X14674062Y13319216D02*
X15815000D01*
X14674062Y13310216D02*
X15815000D01*
X14674062Y13301216D02*
X15815000D01*
X14674062Y13292216D02*
X15815000D01*
X14674062Y13283216D02*
X15815000D01*
X14674062Y13274216D02*
X15815000D01*
X14674062Y13265216D02*
X15815000D01*
X14674062Y13256216D02*
X15815000D01*
X14674062Y13247216D02*
X15815000D01*
X14674062Y13238216D02*
X15815000D01*
X14674062Y13229216D02*
X15815000D01*
X14674062Y13220216D02*
X15815000D01*
X14674062Y13211216D02*
X15815000D01*
X14674062Y13202216D02*
X15815000D01*
X14674062Y13193216D02*
X15815000D01*
X14674062Y13184216D02*
X15815000D01*
X14674062Y13175216D02*
X15815000D01*
X14674062Y13166216D02*
X15815000D01*
X14674062Y13157216D02*
X15815000D01*
X14674062Y13148216D02*
X15815000D01*
X14674062Y13139216D02*
X15815000D01*
X14674062Y13130216D02*
X15815000D01*
X14674062Y13121216D02*
X15815000D01*
X14674062Y13112216D02*
X15815000D01*
X14674062Y13103216D02*
X15815000D01*
X14674062Y13094216D02*
X15815000D01*
X14674062Y13085216D02*
X15815000D01*
X14674062Y13076216D02*
X15815000D01*
X14674062Y13067216D02*
X15815000D01*
X14674062Y13058216D02*
X15815000D01*
X14674062Y13049216D02*
X15815000D01*
X14674062Y13040216D02*
X15815000D01*
X14674062Y13031216D02*
X15815000D01*
X14674062Y13022216D02*
X15815000D01*
X14674062Y13013216D02*
X15815000D01*
X14674062Y13004216D02*
X15815000D01*
X14674062Y12995216D02*
X15815000D01*
X14674062Y12986216D02*
X15815000D01*
X14674062Y12977216D02*
X15815000D01*
X14674062Y12968216D02*
X15815000D01*
X14674062Y12959216D02*
X15815000D01*
X14674062Y12950216D02*
X15815000D01*
X14674062Y12941216D02*
X15815000D01*
X14674062Y12932216D02*
X15815000D01*
X14668412Y12923216D02*
X15815000D01*
X14659412Y12914216D02*
X15815000D01*
X14650412Y12905216D02*
X15815000D01*
X14641412Y12896216D02*
X15815000D01*
X14632412Y12887216D02*
X15815000D01*
X14623412Y12878216D02*
X15815000D01*
X14614412Y12869216D02*
X15815000D01*
X14605412Y12860216D02*
X15815000D01*
X14596412Y12851216D02*
X15815000D01*
X14587412Y12842216D02*
X15815000D01*
X14578412Y12833216D02*
X15815000D01*
X14569412Y12824216D02*
X15815000D01*
X14560412Y12815216D02*
X15815000D01*
X14551412Y12806216D02*
X15815000D01*
X14542412Y12797216D02*
X15815000D01*
X14533412Y12788216D02*
X15815000D01*
X14524412Y12779216D02*
X15815000D01*
X14515412Y12770216D02*
X15815000D01*
X14506412Y12761216D02*
X15815000D01*
X14497412Y12752216D02*
X15815000D01*
X14488412Y12743216D02*
X15815000D01*
X14479412Y12734216D02*
X15815000D01*
X14470412Y12725216D02*
X15815000D01*
X14461412Y12716216D02*
X15815000D01*
X14452412Y12707216D02*
X15815000D01*
X14443412Y12698216D02*
X15815000D01*
X14434412Y12689216D02*
X15815000D01*
X14425412Y12680216D02*
X15815000D01*
X14416412Y12671216D02*
X15815000D01*
X14407412Y12662216D02*
X15815000D01*
X14398412Y12653216D02*
X15815000D01*
X14389412Y12644216D02*
X15815000D01*
X14380412Y12635216D02*
X15815000D01*
X14371412Y12626216D02*
X15815000D01*
X14362412Y12617216D02*
X15815000D01*
X14353412Y12608216D02*
X15815000D01*
X14344412Y12599216D02*
X15815000D01*
X14335412Y12590216D02*
X15815000D01*
X14326412Y12581216D02*
X15815000D01*
X14317412Y12572216D02*
X15815000D01*
X14308412Y12563216D02*
X15815000D01*
X14299412Y12554216D02*
X15815000D01*
X14293125Y12545216D02*
X15815000D01*
X14293125Y12536216D02*
X15815000D01*
X14293125Y12527216D02*
X15815000D01*
X14293125Y12518216D02*
X15815000D01*
X14293125Y12509216D02*
X15815000D01*
X14293125Y12500216D02*
X15815000D01*
X14293125Y12491216D02*
X15815000D01*
X14293125Y12482216D02*
X15815000D01*
X14293125Y12473216D02*
X15815000D01*
X14293125Y12464216D02*
X15815000D01*
X14293125Y12455216D02*
X15815000D01*
X14293125Y12446216D02*
X15815000D01*
X14293125Y12437216D02*
X15815000D01*
X14293125Y12428216D02*
X15815000D01*
X14293125Y12419216D02*
X15815000D01*
X14293125Y12410216D02*
X15815000D01*
X14293125Y12401216D02*
X15815000D01*
X14293125Y12392216D02*
X15815000D01*
X14293125Y12383216D02*
X15815000D01*
X14293125Y12374216D02*
X15815000D01*
X14293125Y12365216D02*
X15815000D01*
X14293125Y12356216D02*
X15815000D01*
X14293125Y12347216D02*
X15815000D01*
X14293125Y12338216D02*
X15815000D01*
X14293125Y12329216D02*
X15815000D01*
X14293125Y12320216D02*
X15815000D01*
X14293125Y12311216D02*
X15815000D01*
X14293125Y12302216D02*
X15815000D01*
X14293125Y12293216D02*
X15815000D01*
X14293125Y12284216D02*
X15815000D01*
X14293125Y12275216D02*
X15815000D01*
X14293125Y12266216D02*
X15815000D01*
X14293125Y12257216D02*
X15815000D01*
X14293125Y12248216D02*
X15815000D01*
X14293125Y12239216D02*
X15815000D01*
X14293125Y12230216D02*
X15815000D01*
X14293125Y12221216D02*
X15815000D01*
X14293125Y12212216D02*
X15815000D01*
X14293125Y12203216D02*
X15815000D01*
X14293125Y12194216D02*
X15815000D01*
X14293125Y12185216D02*
X15815000D01*
X14293125Y12176216D02*
X15815000D01*
X14293125Y12167216D02*
X15815000D01*
X14293125Y12158216D02*
X15815000D01*
X14293125Y12149216D02*
X15815000D01*
X14293125Y12140216D02*
X15815000D01*
X14293125Y12131216D02*
X15815000D01*
X14293125Y12122216D02*
X15815000D01*
X14293125Y12113216D02*
X15815000D01*
X14293125Y12104216D02*
X15815000D01*
X14293125Y12095216D02*
X15815000D01*
X14293125Y12086216D02*
X15815000D01*
X14293125Y12077216D02*
X15815000D01*
X14293125Y12068216D02*
X15815000D01*
X14293125Y12059216D02*
X15815000D01*
X14293125Y12050216D02*
X15815000D01*
X14293125Y12041216D02*
X15815000D01*
X14293125Y12032216D02*
X15815000D01*
X14293125Y12023216D02*
X15815000D01*
X14293125Y12014216D02*
X15815000D01*
X14293125Y12005216D02*
X15815000D01*
X14293125Y11996216D02*
X15815000D01*
X14293125Y11987216D02*
X15815000D01*
X14293125Y11978216D02*
X15815000D01*
X14293125Y11969216D02*
X15815000D01*
X14293125Y11960216D02*
X15815000D01*
X14293125Y11951216D02*
X15815000D01*
X14293125Y11942216D02*
X15815000D01*
X14293125Y11933216D02*
X15815000D01*
X14293125Y11924216D02*
X15815000D01*
X14293125Y11915216D02*
X15815000D01*
X14293125Y11906216D02*
X15815000D01*
X14293125Y11897216D02*
X15815000D01*
X14293125Y11888216D02*
X15815000D01*
X14293125Y11879216D02*
X15815000D01*
X14293125Y11870216D02*
X15815000D01*
X14293125Y11861216D02*
X15815000D01*
X14293125Y11852216D02*
X15815000D01*
X14293125Y11843216D02*
X15815000D01*
X14293125Y11834216D02*
X15815000D01*
X14293125Y11825216D02*
X15815000D01*
X14293125Y11816216D02*
X15815000D01*
X14293125Y11807216D02*
X15815000D01*
X14293125Y11798216D02*
X15815000D01*
X14293125Y11789216D02*
X15815000D01*
X14293125Y11780216D02*
X15815000D01*
X14293125Y11771216D02*
X15815000D01*
X14293125Y11762216D02*
X15815000D01*
X14293125Y11753216D02*
X15815000D01*
X14293125Y11744216D02*
X15815000D01*
X14293125Y11735216D02*
X15815000D01*
X14293125Y11726216D02*
X15815000D01*
X14293125Y11717216D02*
X15815000D01*
X14293125Y11708216D02*
X15815000D01*
X14293125Y11699216D02*
X15815000D01*
X14293125Y11690216D02*
X15815000D01*
X14293125Y11681216D02*
X15815000D01*
X14293125Y11672216D02*
X15815000D01*
X14293125Y11663216D02*
X15815000D01*
X14293125Y11654216D02*
X15815000D01*
X14293125Y11645216D02*
X15815000D01*
X14293125Y11636216D02*
X15815000D01*
X14293125Y11627216D02*
X15815000D01*
X14293125Y11618216D02*
X15815000D01*
X14293125Y11609216D02*
X15815000D01*
X14293125Y11600216D02*
X15815000D01*
X14293125Y11591216D02*
X15815000D01*
X14293125Y11582216D02*
X15815000D01*
X14293125Y11573216D02*
X15815000D01*
X14293125Y11564216D02*
X15815000D01*
X14293125Y11555216D02*
X15815000D01*
X14293125Y11546216D02*
X15815000D01*
X14293125Y11537216D02*
X15815000D01*
X14293125Y11528216D02*
X15815000D01*
X14293125Y11519216D02*
X15815000D01*
X14293125Y11510216D02*
X15815000D01*
X14293125Y11501216D02*
X15815000D01*
X14293125Y11492216D02*
X15815000D01*
X14293125Y11483216D02*
X15815000D01*
X14293125Y11474216D02*
X15815000D01*
X14293125Y11465216D02*
X15815000D01*
X14293125Y11456216D02*
X15815000D01*
X14293125Y11447216D02*
X15815000D01*
X14293125Y11438216D02*
X15815000D01*
X14293125Y11429216D02*
X15815000D01*
X14293125Y11420216D02*
X15815000D01*
X14293125Y11411216D02*
X15815000D01*
X14293125Y11402216D02*
X15815000D01*
X14293125Y11393216D02*
X15815000D01*
X14293125Y11384216D02*
X15815000D01*
X14293125Y11375216D02*
X15815000D01*
X14293125Y11366216D02*
X15815000D01*
X14293125Y11357216D02*
X15815000D01*
X14293125Y11348216D02*
X15815000D01*
X14293125Y11339216D02*
X15815000D01*
X14293125Y11330216D02*
X15815000D01*
X14293125Y11321216D02*
X15815000D01*
X14293125Y11312216D02*
X15815000D01*
X14293125Y11303216D02*
X15815000D01*
X14293125Y11294216D02*
X15815000D01*
X14293125Y11285216D02*
X15815000D01*
X14293125Y11276216D02*
X15815000D01*
X14293125Y11267216D02*
X15815000D01*
X14293125Y11258216D02*
X15815000D01*
X14293125Y11249216D02*
X15815000D01*
X14293125Y11240216D02*
X15815000D01*
X14293125Y11231216D02*
X15815000D01*
X14293125Y11222216D02*
X15815000D01*
X14293125Y11213216D02*
X15815000D01*
X14293125Y11204216D02*
X15815000D01*
X14293125Y11195216D02*
X15815000D01*
X14293125Y11186216D02*
X15815000D01*
X14293125Y11177216D02*
X15815000D01*
X14293125Y11168216D02*
X15815000D01*
X14293125Y11159216D02*
X15815000D01*
X14293125Y11150216D02*
X15815000D01*
X14293125Y11141216D02*
X15815000D01*
X14293125Y11132216D02*
X15815000D01*
X14293125Y11123216D02*
X15815000D01*
X14293125Y11114216D02*
X15815000D01*
X14293125Y11105216D02*
X15815000D01*
X14293125Y11096216D02*
X15815000D01*
X14293125Y11087216D02*
X15815000D01*
X13450287Y14183216D02*
X15814712D01*
X14298854Y11078216D02*
X15811145D01*
X13459287Y14192216D02*
X15805712D01*
X14307854Y11069216D02*
X15802145D01*
X13468287Y14201216D02*
X15796712D01*
X14316854Y11060216D02*
X15793145D01*
X13477287Y14210216D02*
X15787712D01*
X13486287Y14219216D02*
X15778712D01*
X13495287Y14228216D02*
X15769712D01*
X13504287Y14237216D02*
X15760712D01*
X13513287Y14246216D02*
X15751712D01*
X13522287Y14255216D02*
X15742712D01*
X13531287Y14264216D02*
X15733712D01*
X13540287Y14273216D02*
X15724712D01*
X13549287Y14282216D02*
X15715712D01*
X13558287Y14291216D02*
X15706712D01*
X13567287Y14300216D02*
X15697712D01*
X13576287Y14309216D02*
X15688712D01*
X13585287Y14318216D02*
X15679712D01*
X13594287Y14327216D02*
X15670712D01*
X13833287Y14336216D02*
X15661712D01*
X13305000Y13940216D02*
X13423145D01*
X13305000Y13931216D02*
X13414145D01*
X13305000Y13922216D02*
X13405145D01*
X13305000Y13913216D02*
X13396145D01*
X13305000Y13904216D02*
X13387145D01*
X13305000Y13895216D02*
X13378145D01*
X13305000Y13886216D02*
X13369145D01*
X13305000Y13877216D02*
X13365000D01*
X13305000Y13868216D02*
X13365000D01*
X13305000Y13859216D02*
X13365000D01*
X13305000Y13850216D02*
X13365000D01*
X13305000Y13841216D02*
X13365000D01*
X13305000Y13832216D02*
X13365000D01*
X13305000Y13823216D02*
X13365000D01*
X13305000Y13814216D02*
X13365000D01*
X13305000Y13805216D02*
X13365000D01*
X13305000Y13796216D02*
X13365000D01*
X13305000Y13787216D02*
X13365000D01*
X13305000Y13778216D02*
X13365000D01*
X13305000Y13769216D02*
X13365000D01*
X13305000Y13760216D02*
X13365000D01*
X13305000Y13751216D02*
X13365000D01*
X13305000Y13742216D02*
X13365000D01*
X13305000Y13733216D02*
X13365000D01*
X13305000Y13724216D02*
X13365000D01*
X13305000Y13715216D02*
X13365000D01*
X13305000Y13706216D02*
X13365000D01*
X13305000Y13697216D02*
X13365000D01*
X13305000Y13688216D02*
X13365000D01*
X13305000Y13679216D02*
X13365000D01*
X13305000Y13670216D02*
X13365000D01*
X13305000Y13661216D02*
X13365000D01*
X13305000Y13652216D02*
X13365000D01*
X13305000Y13643216D02*
X13365000D01*
X13305000Y13634216D02*
X13365000D01*
X13305000Y13625216D02*
X13365000D01*
X13305000Y13616216D02*
X13365000D01*
X13305000Y13607216D02*
X13365000D01*
X13305000Y13598216D02*
X13365000D01*
X13305000Y13589216D02*
X13365000D01*
X14261250Y14032966D02*
X14565000D01*
X14261250Y14023966D02*
X14565000D01*
X14261250Y14014966D02*
X14565000D01*
X14261250Y14005966D02*
X14565000D01*
X14261250Y13996966D02*
X14565000D01*
X14261250Y13987966D02*
X14565000D01*
X14261250Y13978966D02*
X14565000D01*
X14261250Y13969966D02*
X14565000D01*
X14261250Y13960966D02*
X14565000D01*
X14261250Y13951966D02*
X14565000D01*
X14266604Y13942966D02*
X14565000D01*
X14275604Y13933966D02*
X14556895D01*
X14284604Y13924966D02*
X14547895D01*
X14293604Y13915966D02*
X14538895D01*
X14302604Y13906966D02*
X14535000D01*
X14311604Y13897966D02*
X14535000D01*
X14320604Y13888966D02*
X14535000D01*
X14329604Y13879966D02*
X14535000D01*
X14338604Y13870966D02*
X14535000D01*
X14347604Y13861966D02*
X14535000D01*
X14356604Y13852966D02*
X14535000D01*
X14365604Y13843966D02*
X14535000D01*
X14374604Y13834966D02*
X14535000D01*
X14383604Y13825966D02*
X14535000D01*
X14392604Y13816966D02*
X14535000D01*
X14401604Y13807966D02*
X14535000D01*
X14410604Y13798966D02*
X14535000D01*
X14419604Y13789966D02*
X14535000D01*
X14425000Y13780966D02*
X14535000D01*
X14425000Y13771966D02*
X14535000D01*
X14425000Y13762966D02*
X14535000D01*
X14425000Y13753966D02*
X14535000D01*
X14425000Y13744966D02*
X14535000D01*
X14425000Y13735966D02*
X14535000D01*
X14425000Y13726966D02*
X14535000D01*
X14425000Y13717966D02*
X14535000D01*
X14425000Y13708966D02*
X14535000D01*
X14425000Y13699966D02*
X14535000D01*
X14425000Y13690966D02*
X14535000D01*
X14425000Y13681966D02*
X14535000D01*
X14425000Y13672966D02*
X14535000D01*
X14425000Y13663966D02*
X14535000D01*
X14425000Y13654966D02*
X14535000D01*
X14425000Y13645966D02*
X14535000D01*
X14425000Y13636966D02*
X14535000D01*
X14425000Y13627966D02*
X14535000D01*
X14425000Y13618966D02*
X14535000D01*
X14425000Y13609966D02*
X14535000D01*
X14425000Y13600966D02*
X14535000D01*
X14425000Y13591966D02*
X14535000D01*
X14425000Y13582966D02*
X14535000D01*
X14425000Y13573966D02*
X14535000D01*
X14425000Y13564966D02*
X14535000D01*
X14425000Y13555966D02*
X14535000D01*
X14425000Y13546966D02*
X14535000D01*
X14425000Y13537966D02*
X14535000D01*
X14425000Y13528966D02*
X14535000D01*
X14425000Y13519966D02*
X14535000D01*
X14425000Y13510966D02*
X14535000D01*
X14425000Y13501966D02*
X14535000D01*
X14425000Y13492966D02*
X14535000D01*
X14425000Y13483966D02*
X14535000D01*
X14425000Y13474966D02*
X14535000D01*
X14425000Y13465966D02*
X14535000D01*
X14425000Y13456966D02*
X14535000D01*
X14425000Y13447966D02*
X14535000D01*
X14425000Y13438966D02*
X14535000D01*
X14425000Y13429966D02*
X14535000D01*
X14425000Y13420966D02*
X14535000D01*
X14425000Y13411966D02*
X14535000D01*
X14425000Y13402966D02*
X14535000D01*
X14425000Y13393966D02*
X14535000D01*
X14425000Y13384966D02*
X14535000D01*
X14425000Y13375966D02*
X14535000D01*
X14425000Y13366966D02*
X14535000D01*
X14425000Y13357966D02*
X14535000D01*
X14425000Y13348966D02*
X14535000D01*
X14425000Y13339966D02*
X14535000D01*
X14425000Y13330966D02*
X14535000D01*
X14425000Y13321966D02*
X14535000D01*
X14425000Y13312966D02*
X14535000D01*
X14421037Y13303966D02*
X14535000D01*
X14412037Y13294966D02*
X14535000D01*
X14403037Y13285966D02*
X14535000D01*
X14394037Y13276966D02*
X14535000D01*
X13865037Y13267966D02*
X14535000D01*
X13856037Y13258966D02*
X14535000D01*
X13565000Y13249966D02*
X14535000D01*
X13565000Y13240966D02*
X14535000D01*
X13565000Y13231966D02*
X14535000D01*
X13565000Y13222966D02*
X14535000D01*
X13565000Y13213966D02*
X14535000D01*
X13565000Y13204966D02*
X14535000D01*
X13565000Y13195966D02*
X14535000D01*
X13565000Y13186966D02*
X14535000D01*
X13565000Y13177966D02*
X14535000D01*
X13565000Y13168966D02*
X14535000D01*
X13565000Y13159966D02*
X14535000D01*
X13565000Y13150966D02*
X14535000D01*
X13565000Y13141966D02*
X14535000D01*
X13565000Y13132966D02*
X14535000D01*
X13565000Y13123966D02*
X14535000D01*
X13565000Y13114966D02*
X14535000D01*
X13565000Y13105966D02*
X14535000D01*
X13565000Y13096966D02*
X14535000D01*
X13565000Y13087966D02*
X14535000D01*
X13565000Y13078966D02*
X14535000D01*
X13565000Y13069966D02*
X14535000D01*
X13565000Y13060966D02*
X14535000D01*
X13565000Y13051966D02*
X14535000D01*
X13565000Y13042966D02*
X14535000D01*
X13565000Y13033966D02*
X14535000D01*
X13565000Y13024966D02*
X14535000D01*
X13565000Y13015966D02*
X14535000D01*
X13565000Y13006966D02*
X14535000D01*
X13565000Y12997966D02*
X14535000D01*
X13565000Y12988966D02*
X14535000D01*
X13565000Y12979966D02*
X14535000D01*
X13565000Y12970966D02*
X14535000D01*
X13565000Y12961966D02*
X14534895D01*
X13565000Y12952966D02*
X14525895D01*
X13565000Y12943966D02*
X14516895D01*
X13565000Y12934966D02*
X14507895D01*
X13565000Y12925966D02*
X14498895D01*
X13565000Y12916966D02*
X14489895D01*
X13565000Y12907966D02*
X14480895D01*
X13565000Y12898966D02*
X14471895D01*
X13565000Y12889966D02*
X14462895D01*
X13565000Y12880966D02*
X14453895D01*
X13565000Y12871966D02*
X14444895D01*
X13565000Y12862966D02*
X14435895D01*
X13565000Y12853966D02*
X14426895D01*
X13565000Y12844966D02*
X14417895D01*
X13565000Y12835966D02*
X14408895D01*
X13565000Y12826966D02*
X14399895D01*
X13565000Y12817966D02*
X14390895D01*
X13565000Y12808966D02*
X14381895D01*
X13565000Y12799966D02*
X14372895D01*
X13565000Y12790966D02*
X14363895D01*
X13565000Y12781966D02*
X14354895D01*
X13565000Y12772966D02*
X14345895D01*
X13565000Y12763966D02*
X14336895D01*
X13565000Y12754966D02*
X14327895D01*
X13565000Y12745966D02*
X14318895D01*
X13565000Y12736966D02*
X14309895D01*
X13565000Y12727966D02*
X14300895D01*
X13565000Y12718966D02*
X14291895D01*
X13565000Y12709966D02*
X14282895D01*
X13565000Y12700966D02*
X14273895D01*
X13565000Y12691966D02*
X14264895D01*
X13565000Y12682966D02*
X14255895D01*
X13565000Y12673966D02*
X14246895D01*
X13565000Y12664966D02*
X14237895D01*
X13565000Y12655966D02*
X14228895D01*
X13565000Y12646966D02*
X14219895D01*
X13565000Y12637966D02*
X14210895D01*
X13565000Y12628966D02*
X14201895D01*
X13565000Y12619966D02*
X14192895D01*
X13565000Y12610966D02*
X14183895D01*
X13565000Y12601966D02*
X14174895D01*
X13565000Y12592966D02*
X14165895D01*
X13565000Y12583966D02*
X14156895D01*
X13565000Y12574966D02*
X14147895D01*
X13565000Y12565966D02*
X14138895D01*
X13565000Y12556966D02*
X14129895D01*
X13565000Y12547966D02*
X14120895D01*
X13874037Y13276966D02*
X14115962D01*
X13565000Y12538966D02*
X14111895D01*
X13883037Y13285966D02*
X14106962D01*
X13565000Y12529966D02*
X14102895D01*
X13892037Y13294966D02*
X14097962D01*
X13565000Y12520966D02*
X14093895D01*
X13901037Y13303966D02*
X14088962D01*
X13565000Y12511966D02*
X14084895D01*
X13910037Y13312966D02*
X14079962D01*
X13565000Y12502966D02*
X14075895D01*
X13919037Y13321966D02*
X14070962D01*
X13565000Y12493966D02*
X14066895D01*
X13928037Y13330966D02*
X14061962D01*
X13565000Y12484966D02*
X14057895D01*
X13565000Y12475966D02*
X14048895D01*
X13565000Y12466966D02*
X14039895D01*
X13565000Y12457966D02*
X14030895D01*
X13565000Y12448966D02*
X14021895D01*
X13937037Y13339966D02*
X13982962D01*
X13946037Y13348966D02*
X13973962D01*
X13955037Y13357966D02*
X13964962D01*
X13305000Y13223966D02*
X13365000D01*
X13305000Y13214966D02*
X13365000D01*
X13305000Y13205966D02*
X13365000D01*
X13305000Y13196966D02*
X13365000D01*
X13305000Y13187966D02*
X13365000D01*
X13305000Y13178966D02*
X13365000D01*
X13305000Y13169966D02*
X13365000D01*
X13305000Y13160966D02*
X13365000D01*
X13305000Y13151966D02*
X13365000D01*
X13305000Y13142966D02*
X13365000D01*
X13301037Y13133966D02*
X13365000D01*
X13292037Y13124966D02*
X13365000D01*
X13283037Y13115966D02*
X13365000D01*
X11314037Y13106966D02*
X13365000D01*
X11305037Y13097966D02*
X13365000D01*
X11296037Y13088966D02*
X13365000D01*
X11287037Y13079966D02*
X13365000D01*
X11278037Y13070966D02*
X13365000D01*
X11269037Y13061966D02*
X13365000D01*
X11265000Y13052966D02*
X13365000D01*
X11265000Y13043966D02*
X13365000D01*
X11265000Y13034966D02*
X13365000D01*
X11265000Y13025966D02*
X13365000D01*
X11265000Y13016966D02*
X13365000D01*
X11265000Y13007966D02*
X13365000D01*
X11265000Y12998966D02*
X13365000D01*
X11265000Y12989966D02*
X13365000D01*
X11265000Y12980966D02*
X13365000D01*
X11265000Y12971966D02*
X13365000D01*
X11265000Y12962966D02*
X13365000D01*
X11265000Y12953966D02*
X13365000D01*
X11265000Y12944966D02*
X13365000D01*
X11265000Y12935966D02*
X13365000D01*
X11265000Y12926966D02*
X13365000D01*
X11265000Y12917966D02*
X13365000D01*
X11265000Y12908966D02*
X13365000D01*
X11265000Y12899966D02*
X13365000D01*
X11265000Y12890966D02*
X13365000D01*
X11265000Y12881966D02*
X13365000D01*
X11265000Y12872966D02*
X13365000D01*
X11265000Y12863966D02*
X13365000D01*
X11265000Y12854966D02*
X13365000D01*
X11265000Y12845966D02*
X13365000D01*
X11265000Y12836966D02*
X13365000D01*
X11265000Y12827966D02*
X13365000D01*
X11265000Y12818966D02*
X13365000D01*
X11265000Y12809966D02*
X13365000D01*
X11265000Y12800966D02*
X13365000D01*
X11265000Y12791966D02*
X13365000D01*
X11265000Y12782966D02*
X13365000D01*
X11265000Y12773966D02*
X13365000D01*
X11265000Y12764966D02*
X13365000D01*
X11265000Y12755966D02*
X13365000D01*
X11265000Y12746966D02*
X13365000D01*
X11265000Y12737966D02*
X13365000D01*
X11265000Y12728966D02*
X13365000D01*
X13232104Y12719966D02*
X13365000D01*
X13241104Y12710966D02*
X13365000D01*
X13250104Y12701966D02*
X13365000D01*
X13259104Y12692966D02*
X13365000D01*
X13268104Y12683966D02*
X13365000D01*
X13277104Y12674966D02*
X13365000D01*
X13286104Y12665966D02*
X13365000D01*
X13287500Y12656966D02*
X13365000D01*
X13287500Y12647966D02*
X13365000D01*
X13287500Y12638966D02*
X13365000D01*
X13287500Y12629966D02*
X13365000D01*
X13287500Y12620966D02*
X13365000D01*
X13287500Y12611966D02*
X13365000D01*
X13287500Y12602966D02*
X13365000D01*
X13287500Y12593966D02*
X13365000D01*
X13287500Y12584966D02*
X13365000D01*
X13287500Y12575966D02*
X13365000D01*
X13287500Y12566966D02*
X13365000D01*
X13287500Y12557966D02*
X13365000D01*
X13287500Y12548966D02*
X13365000D01*
X13287500Y12539966D02*
X13365000D01*
X13287500Y12530966D02*
X13365000D01*
X13287500Y12521966D02*
X13365000D01*
X13287500Y12512966D02*
X13365000D01*
X13283537Y12503966D02*
X13365000D01*
X13274537Y12494966D02*
X13365000D01*
X13265537Y12485966D02*
X13365000D01*
X13256537Y12476966D02*
X13365000D01*
X13247537Y12467966D02*
X13365000D01*
X13238537Y12458966D02*
X13365000D01*
X13229537Y12449966D02*
X13365000D01*
X13220537Y12440966D02*
X13365000D01*
X13211537Y12431966D02*
X13365000D01*
X13202537Y12422966D02*
X13365000D01*
X13193537Y12413966D02*
X13365000D01*
X13184537Y12404966D02*
X13357895D01*
X13175537Y12395966D02*
X13348895D01*
X13166537Y12386966D02*
X13339895D01*
X13157537Y12377966D02*
X13330895D01*
X13148537Y12368966D02*
X13321895D01*
X13146250Y12359966D02*
X13312895D01*
X13146250Y12350966D02*
X13303895D01*
X13146250Y12341966D02*
X13294895D01*
X13146250Y12332966D02*
X13285895D01*
X13146250Y12323966D02*
X13276895D01*
X13146250Y12314966D02*
X13267895D01*
X13146250Y12305966D02*
X13258895D01*
X11323037Y13115966D02*
X13056962D01*
X11332037Y13124966D02*
X13047962D01*
X11341037Y13133966D02*
X13038962D01*
X11265000Y12719966D02*
X12982895D01*
X11265000Y12710966D02*
X12973895D01*
X11265000Y12701966D02*
X12964895D01*
X11265000Y12692966D02*
X12955895D01*
X11265000Y12683966D02*
X12946895D01*
X11265000Y12674966D02*
X12937895D01*
X11265000Y12665966D02*
X12928895D01*
X11265000Y12656966D02*
X12919895D01*
X11265000Y12647966D02*
X12910895D01*
X11265000Y12638966D02*
X12901895D01*
X11265000Y12629966D02*
X12892895D01*
X11265000Y12620966D02*
X12883895D01*
X11265000Y12611966D02*
X12874895D01*
X11265000Y12602966D02*
X12865895D01*
X11265000Y12593966D02*
X12856895D01*
X11265000Y12584966D02*
X12847895D01*
X11265000Y12575966D02*
X12838895D01*
X11265000Y12566966D02*
X12829895D01*
X11265000Y12557966D02*
X12820895D01*
X11265000Y12548966D02*
X12811895D01*
X11265000Y12539966D02*
X12802895D01*
X11265000Y12530966D02*
X12793895D01*
X11265000Y12521966D02*
X12784895D01*
X11265000Y12512966D02*
X12775895D01*
X11265000Y12503966D02*
X12766895D01*
X11265000Y12494966D02*
X12757895D01*
X11265000Y12485966D02*
X12748895D01*
X11265000Y12476966D02*
X12739895D01*
X11265000Y12467966D02*
X12730895D01*
X11265000Y12458966D02*
X12721895D01*
X11265000Y12449966D02*
X12712895D01*
X11265000Y12440966D02*
X12703895D01*
X11265000Y12431966D02*
X12694895D01*
X11265000Y12422966D02*
X12685895D01*
X11265000Y12413966D02*
X12676895D01*
X11265000Y12404966D02*
X12667895D01*
X11265000Y12395966D02*
X12658895D01*
X11265000Y12386966D02*
X12649895D01*
X11265000Y12377966D02*
X12640895D01*
X11265000Y12368966D02*
X12631895D01*
X11265000Y12359966D02*
X12622895D01*
X11265000Y12350966D02*
X12613895D01*
X11265000Y12341966D02*
X12604895D01*
X11265000Y12332966D02*
X12595895D01*
X11265000Y12323966D02*
X12586895D01*
X11265000Y12314966D02*
X12577895D01*
X11265000Y12305966D02*
X12568895D01*
X11265000Y12296966D02*
X12559895D01*
X11265000Y12287966D02*
X12550895D01*
X11265000Y12278966D02*
X12541895D01*
X11265000Y12269966D02*
X12532895D01*
X11265000Y12260966D02*
X12523895D01*
X11265000Y12251966D02*
X12514895D01*
X11265000Y12242966D02*
X12505895D01*
X11265000Y12233966D02*
X12496895D01*
X11265000Y12224966D02*
X12487895D01*
X11265000Y12215966D02*
X12478895D01*
X11265000Y12206966D02*
X12469895D01*
X11265000Y12197966D02*
X12460895D01*
X11265000Y12188966D02*
X12451895D01*
X11265000Y12179966D02*
X12442895D01*
X11265000Y12170966D02*
X12433895D01*
X11265000Y12161966D02*
X12424895D01*
X11265000Y12152966D02*
X12415895D01*
X11265000Y12143966D02*
X12406895D01*
X11272104Y12134966D02*
X12397895D01*
X11281104Y12125966D02*
X12388895D01*
X11290104Y12116966D02*
X12379895D01*
X11299104Y12107966D02*
X12370895D01*
X11308104Y12098966D02*
X12361895D01*
X11317104Y12089966D02*
X12352895D01*
X11326104Y12080966D02*
X12343895D01*
X11335104Y12071966D02*
X12334895D01*
X11344104Y12062966D02*
X12325895D01*
X11353104Y12053966D02*
X12316895D01*
X11362104Y12044966D02*
X12307895D01*
X11371104Y12035966D02*
X12298895D01*
X11380104Y12026966D02*
X12289895D01*
X11389104Y12017966D02*
X12280895D01*
X11398104Y12008966D02*
X12271895D01*
X11407104Y11999966D02*
X12262895D01*
X11416104Y11990966D02*
X12253895D01*
X11425104Y11981966D02*
X12244895D01*
X11434104Y11972966D02*
X12235895D01*
X11443104Y11963966D02*
X12226895D01*
X11265000Y13527966D02*
X13315000D01*
X11265000Y13518966D02*
X13315000D01*
X11265000Y13509966D02*
X13315000D01*
X11265000Y13500966D02*
X13315000D01*
X11265000Y13491966D02*
X13315000D01*
X11265000Y13482966D02*
X13315000D01*
X11265000Y13473966D02*
X13315000D01*
X11265000Y13464966D02*
X13315000D01*
X11265000Y13455966D02*
X13315000D01*
X11265000Y13446966D02*
X13315000D01*
X11265000Y13437966D02*
X13315000D01*
X11265000Y13428966D02*
X13315000D01*
X11265000Y13419966D02*
X13315000D01*
X11265000Y13410966D02*
X13315000D01*
X11265000Y13401966D02*
X13315000D01*
X11265000Y13392966D02*
X13315000D01*
X11265000Y13383966D02*
X13315000D01*
X11265000Y13374966D02*
X13315000D01*
X11265000Y13365966D02*
X13315000D01*
X11265000Y13356966D02*
X13315000D01*
X11265000Y13347966D02*
X13315000D01*
X11265000Y13338966D02*
X13091895D01*
X11265000Y13329966D02*
X13082895D01*
X11265000Y13320966D02*
X13073895D01*
X11265000Y13311966D02*
X13064895D01*
X11265000Y13302966D02*
X13055895D01*
X11265000Y13293966D02*
X13046895D01*
X11272104Y13284966D02*
X13045000D01*
X11281104Y13275966D02*
X13045000D01*
X11290104Y13266966D02*
X13045000D01*
X11299104Y13257966D02*
X13045000D01*
X11308104Y13248966D02*
X13045000D01*
X11317104Y13239966D02*
X13045000D01*
X11326104Y13230966D02*
X13045000D01*
X11335104Y13221966D02*
X13045000D01*
X11344104Y13212966D02*
X13045000D01*
X12953104Y13203966D02*
X13045000D01*
G54D35*
X13209500Y13220000D03*
X13336500D03*
X13463500D03*
X13590500D03*
Y13780000D03*
X13463500D03*
X13336500D03*
X13209500D03*
G54D36*
X12630000Y14100000D03*
X12770000D03*
X13970000Y13780000D03*
X13830000D03*
X13970000Y13380000D03*
X13830000D03*
Y13580000D03*
X13970000D03*
X12770000Y13900000D03*
X12630000D03*
G54D37*
X10573000Y15024000D03*
X10827000D03*
X10573000Y14770000D03*
X10827000D03*
X10573000Y14516000D03*
X10827000D03*
X10573000Y14262000D03*
X10827000D03*
X10573000Y14008000D03*
X10827000D03*
X10573000Y13754000D03*
X10827000D03*
X10573000Y13500000D03*
X10827000D03*
X10573000Y13246000D03*
X10827000D03*
X10573000Y12992000D03*
X10827000D03*
X10573000Y12738000D03*
X10827000D03*
X10573000Y12484000D03*
X10827000D03*
X10573000Y12230000D03*
X10827000D03*
X10573000Y11976000D03*
X10827000D03*
X15024000Y16427000D03*
Y16173000D03*
X14770000Y16427000D03*
Y16173000D03*
X14516000Y16427000D03*
Y16173000D03*
X14262000Y16427000D03*
Y16173000D03*
X14008000Y16427000D03*
Y16173000D03*
X13754000Y16427000D03*
Y16173000D03*
X13500000Y16427000D03*
Y16173000D03*
X13246000Y16427000D03*
Y16173000D03*
X12992000Y16427000D03*
Y16173000D03*
X12738000Y16427000D03*
Y16173000D03*
X12484000Y16427000D03*
Y16173000D03*
X12230000Y16427000D03*
Y16173000D03*
X11976000Y16427000D03*
Y16173000D03*
X15024000Y10827000D03*
Y10573000D03*
X14770000Y10827000D03*
Y10573000D03*
X14516000Y10827000D03*
Y10573000D03*
X14262000Y10827000D03*
Y10573000D03*
X14008000Y10827000D03*
Y10573000D03*
X13754000Y10827000D03*
Y10573000D03*
X13500000Y10827000D03*
Y10573000D03*
X13246000Y10827000D03*
Y10573000D03*
X12992000Y10827000D03*
Y10573000D03*
X12738000Y10827000D03*
Y10573000D03*
X12484000Y10827000D03*
Y10573000D03*
X12230000Y10827000D03*
Y10573000D03*
X11976000Y10827000D03*
Y10573000D03*
X16173000Y15024000D03*
X16427000D03*
X16173000Y14770000D03*
X16427000D03*
X16173000Y14516000D03*
X16427000D03*
X16173000Y14262000D03*
X16427000D03*
X16173000Y14008000D03*
X16427000D03*
X16173000Y13754000D03*
X16427000D03*
X16173000Y13500000D03*
X16427000D03*
X16173000Y13246000D03*
X16427000D03*
X16173000Y12992000D03*
X16427000D03*
X16173000Y12738000D03*
X16427000D03*
X16173000Y12484000D03*
X16427000D03*
X16173000Y12230000D03*
X16427000D03*
X16173000Y11976000D03*
X16427000D03*
G54D38*
X14150000Y13800000D03*
Y13400000D03*
G54D39*
X13200000Y14297500D03*
Y14902500D03*
G74*
X0Y0D02*
M02*
