*
*
G04 PADS Layout (Build Number 2004.211.1) generated Gerber (RS-274-X) file*
G04 PC Version=2.1*
*
%IN "BD9E102FJ_104.pcb"*%
*
%MOMM*%
*
%FSLAX35Y35*%
*
*
*
*
G04 PC Standard Apertures*
*
*
G04 Thermal Relief Aperture macro.*
%AMTER*
1,1,$1,0,0*
1,0,$1-$2,0,0*
21,0,$3,$4,0,0,45*
21,0,$3,$4,0,0,135*
%
*
*
G04 Annular Aperture macro.*
%AMANN*
1,1,$1,0,0*
1,0,$2,0,0*
%
*
*
G04 Odd Aperture macro.*
%AMODD*
1,1,$1,0,0*
1,0,$1-0.005,0,0*
%
*
*
G04 PC Custom Aperture Macros*
*
*
*
*
*
*
G04 PC Aperture Table*
*
%ADD014C,1.8*%
%ADD017C,3.3*%
%ADD018C,0.15*%
%ADD019C,0.2*%
%ADD020C,0.6*%
%ADD021C,0.1*%
%ADD022C,2*%
%ADD037C,1.5*%
%ADD040C,0.25*%
*
*
*
*
G04 PC Custom Flashes*
G04 Layer Name BD9E102FJ_104.pcb - flashes*
%LPD*%
*
*
G04 PC Circuitry*
G04 Layer Name BD9E102FJ_104.pcb - circuitry*
%LPD*%
*
G54D14*
G01X13100000Y12350000D03*
Y12100000D03*
Y11850000D03*
X11400000Y12927000D03*
Y12673000D03*
X15500000Y14573000D03*
Y14827000D03*
X11400000Y13673000D03*
Y13927000D03*
X15500000Y13573000D03*
Y13827000D03*
G54D17*
X10500000Y10500000D03*
X16500000D03*
X10500000Y16500000D03*
X16500000D03*
G54D18*
X13120000Y13280000D02*
X13104090Y13235910D01*
X13120000Y13257500*
X13135910Y13235910*
X13120000Y13280000*
X13105566Y13240000D02*
X13107104D01*
X13132896D02*
X13134434D01*
X13110978Y13255000D02*
X13118157D01*
X13121842D02*
X13129021D01*
X13116391Y13270000D02*
X13123608D01*
X13105000Y13237144D02*
Y13238431D01*
X13120000Y13257500D02*
Y13280000D01*
X13135000Y13237144D02*
Y13238431D01*
X12770000Y13750000D02*
X12785910Y13794090D01*
X12770000Y13772500*
X12754090Y13794090*
X12770000Y13750000*
X12770000*
X12764587Y13765000D02*
X12775412D01*
X12759174Y13780000D02*
X12764473D01*
X12775526D02*
X12780825D01*
X12760000Y13777712D02*
Y13786070D01*
X12775000Y13763856D02*
Y13779285D01*
X14280000Y13880000D02*
X14235910Y13895910D01*
X14257500Y13880000*
X14235910Y13864090*
X14280000Y13880000*
X14243929Y13870000D02*
X14252287D01*
X14250714Y13885000D02*
X14266144D01*
X14245000Y13867370D02*
Y13870788D01*
Y13889211D02*
Y13892629D01*
X14260000Y13872783D02*
Y13887217D01*
X14275000Y13878195D02*
Y13881804D01*
X14700000Y14470000D02*
X14715910Y14514090D01*
X14700000Y14492500*
X14684090Y14514090*
X14700000Y14470000*
X14700000*
X14694587Y14485000D02*
X14705412D01*
X14689174Y14500000D02*
X14694473D01*
X14705526D02*
X14710825D01*
X14695000Y14483856D02*
Y14499285D01*
X14710000Y14497712D02*
Y14506070D01*
X14290000Y13740000D02*
X14334090Y13724090D01*
X14312500Y13740000*
X14334090Y13755910*
X14290000Y13740000*
X14303856Y13735000D02*
X14319285D01*
X14317712Y13750000D02*
X14326070D01*
X14290000Y13740000D02*
X14290000D01*
X14305000Y13734587D02*
Y13745412D01*
X14320000Y13729174D02*
Y13734473D01*
Y13745526D02*
Y13750825D01*
X13502426Y13837573D02*
X13482500Y13880000D01*
X13486516Y13853483*
X13486516D02*
X13460000Y13857500D01*
X13502426Y13837573*
X13497260Y13840000D02*
X13501286D01*
X13465323Y13855000D02*
X13476505D01*
X13486286D02*
X13494241D01*
X13484014Y13870000D02*
X13487196D01*
X13465000Y13855151D02*
Y13856742D01*
X13480000Y13848106D02*
Y13854470D01*
X13495000Y13841061D02*
Y13853385D01*
X13120000Y13220000D02*
Y13350000D01*
X12770000Y13700000*
Y13810000*
X13190000Y13430000D02*
X13180000D01*
X14220000Y13880000D02*
X14600000D01*
X14700000Y13980000*
Y14530000*
X14350000Y13740000D02*
X13600000D01*
X13460000Y13880000*
G54D19*
X8999999Y31600000D02*
G75*
G03X8999999I-199999D01*
G01X8550000D02*
X9050000D01*
X8800000Y31850000D02*
Y31350000D01*
X39799999Y8400000D02*
G03X39799999I-199999D01*
G01X39350000D02*
X39850000D01*
X39600000Y8650000D02*
Y8150000D01*
X40399999Y8400000D02*
G03X40399999I-199999D01*
G01X39950000D02*
X40450000D01*
X40200000Y8650000D02*
Y8150000D01*
G54D20*
X13120000Y13220000D03*
X12100000Y13500000D03*
Y13610000D03*
X12300000Y13500000D03*
Y13610000D03*
X12700000Y13490000D03*
Y13610000D03*
X12500000Y13500000D03*
Y13610000D03*
X13180000Y13430000D03*
Y13570000D03*
X13340000Y13430000D03*
X13480000D03*
Y13570000D03*
X13340000D03*
X12770000Y13810000D03*
X13000000Y13630000D03*
X13460000Y13880000D03*
X14220000D03*
X14350000Y13740000D03*
X13900000Y14000000D03*
X14060000D03*
X14200000D03*
X14350000D03*
X14500000D03*
X13900000Y14140000D03*
X14050000D03*
X14200000D03*
X14350000D03*
X14500000D03*
X14700000Y14530000D03*
G54D21*
X16527000Y11976000D02*
G03X16527000I-100000D01*
G01Y12230000D02*
G03X16527000I-100000D01*
G01Y12484000D02*
G03X16527000I-100000D01*
G01Y12738000D02*
G03X16527000I-100000D01*
G01Y12992000D02*
G03X16527000I-100000D01*
G01Y13246000D02*
G03X16527000I-100000D01*
G01Y13500000D02*
G03X16527000I-100000D01*
G01Y13754000D02*
G03X16527000I-100000D01*
G01Y14008000D02*
G03X16527000I-100000D01*
G01Y14262000D02*
G03X16527000I-100000D01*
G01Y14516000D02*
G03X16527000I-100000D01*
G01Y14770000D02*
G03X16527000I-100000D01*
G01Y15024000D02*
G03X16527000I-100000D01*
G01X16273000Y11976000D02*
G03X16273000I-100000D01*
G01Y12230000D02*
G03X16273000I-100000D01*
G01Y12484000D02*
G03X16273000I-100000D01*
G01Y12738000D02*
G03X16273000I-100000D01*
G01Y12992000D02*
G03X16273000I-100000D01*
G01Y13246000D02*
G03X16273000I-100000D01*
G01Y13500000D02*
G03X16273000I-100000D01*
G01Y13754000D02*
G03X16273000I-100000D01*
G01Y14008000D02*
G03X16273000I-100000D01*
G01Y14262000D02*
G03X16273000I-100000D01*
G01Y14516000D02*
G03X16273000I-100000D01*
G01Y14770000D02*
G03X16273000I-100000D01*
G01Y15024000D02*
G03X16273000I-100000D01*
G01X15615000Y13573000D02*
G03X15615000I-115000D01*
G01Y13827000D02*
G03X15615000I-115000D01*
G01Y14573000D02*
G03X15615000I-115000D01*
G01Y14827000D02*
G03X15615000I-115000D01*
G01X15124000Y10573000D02*
G03X15124000I-100000D01*
G01Y10827000D02*
G03X15124000I-100000D01*
G01X14870000Y10573000D02*
G03X14870000I-100000D01*
G01Y10827000D02*
G03X14870000I-100000D01*
G01X15025000Y14200000D02*
G03X15025000I-125000D01*
G01Y14600000D02*
G03X15025000I-125000D01*
G01X15124000Y16173000D02*
G03X15124000I-100000D01*
G01Y16427000D02*
G03X15124000I-100000D01*
G01X14616000Y10573000D02*
G03X14616000I-100000D01*
G01Y10827000D02*
G03X14616000I-100000D01*
G01X14362000Y10573000D02*
G03X14362000I-100000D01*
G01Y10827000D02*
G03X14362000I-100000D01*
G01X14108000Y10573000D02*
G03X14108000I-100000D01*
G01Y10827000D02*
G03X14108000I-100000D01*
G01X13854000Y10573000D02*
G03X13854000I-100000D01*
G01Y10827000D02*
G03X13854000I-100000D01*
G01X13600000Y10573000D02*
G03X13600000I-100000D01*
G01Y10827000D02*
G03X13600000I-100000D01*
G01X13625000Y12100000D02*
G03X13625000I-125000D01*
G01X13535000Y13430000D02*
G03X13535000I-55000D01*
G01Y13570000D02*
G03X13535000I-55000D01*
G01X14870000Y16173000D02*
G03X14870000I-100000D01*
G01Y16427000D02*
G03X14870000I-100000D01*
G01X14555000Y14000000D02*
G03X14555000I-55000D01*
G01Y14140000D02*
G03X14555000I-55000D01*
G01X14616000Y16173000D02*
G03X14616000I-100000D01*
G01Y16427000D02*
G03X14616000I-100000D01*
G01X14405000Y14000000D02*
G03X14405000I-55000D01*
G01Y14140000D02*
G03X14405000I-55000D01*
G01X14255000Y14000000D02*
G03X14255000I-55000D01*
G01Y14140000D02*
G03X14255000I-55000D01*
G01X14362000Y16173000D02*
G03X14362000I-100000D01*
G01Y16427000D02*
G03X14362000I-100000D01*
G01X14115000Y14000000D02*
G03X14115000I-55000D01*
G01X14105000Y14140000D02*
G03X14105000I-55000D01*
G01X13955000Y14000000D02*
G03X13955000I-55000D01*
G01Y14140000D02*
G03X13955000I-55000D01*
G01X14108000Y16173000D02*
G03X14108000I-100000D01*
G01Y16427000D02*
G03X14108000I-100000D01*
G01X13854000Y16173000D02*
G03X13854000I-100000D01*
G01Y16427000D02*
G03X13854000I-100000D01*
G01X13600000Y16173000D02*
G03X13600000I-100000D01*
G01Y16427000D02*
G03X13600000I-100000D01*
G01X13346000Y10573000D02*
G03X13346000I-100000D01*
G01Y10827000D02*
G03X13346000I-100000D01*
G01X13395000Y13430000D02*
G03X13395000I-55000D01*
G01Y13570000D02*
G03X13395000I-55000D01*
G01X13092000Y10573000D02*
G03X13092000I-100000D01*
G01Y10827000D02*
G03X13092000I-100000D01*
G01X13215000Y11850000D02*
G03X13215000I-115000D01*
G01Y12100000D02*
G03X13215000I-115000D01*
G01Y12350000D02*
G03X13215000I-115000D01*
G01X13235000Y13430000D02*
G03X13235000I-55000D01*
G01Y13570000D02*
G03X13235000I-55000D01*
G01X13346000Y16173000D02*
G03X13346000I-100000D01*
G01Y16427000D02*
G03X13346000I-100000D01*
G01X13055000Y13630000D02*
G03X13055000I-55000D01*
G01X13125000Y13900000D02*
G03X13125000I-125000D01*
G01X13092000Y16173000D02*
G03X13092000I-100000D01*
G01Y16427000D02*
G03X13092000I-100000D01*
G01X12838000Y16173000D02*
G03X12838000I-100000D01*
G01Y16427000D02*
G03X12838000I-100000D01*
G01X12584000Y10573000D02*
G03X12584000I-100000D01*
G01Y10827000D02*
G03X12584000I-100000D01*
G01Y16173000D02*
G03X12584000I-100000D01*
G01Y16427000D02*
G03X12584000I-100000D01*
G01X12330000Y10573000D02*
G03X12330000I-100000D01*
G01Y10827000D02*
G03X12330000I-100000D01*
G01X12076000Y10573000D02*
G03X12076000I-100000D01*
G01Y10827000D02*
G03X12076000I-100000D01*
G01X12330000Y16173000D02*
G03X12330000I-100000D01*
G01Y16427000D02*
G03X12330000I-100000D01*
G01X12025000Y12800000D02*
G03X12025000I-125000D01*
G01Y13650000D02*
G03X12025000I-125000D01*
G01X12076000Y16173000D02*
G03X12076000I-100000D01*
G01Y16427000D02*
G03X12076000I-100000D01*
G01X11515000Y12673000D02*
G03X11515000I-115000D01*
G01Y12927000D02*
G03X11515000I-115000D01*
G01Y13673000D02*
G03X11515000I-115000D01*
G01Y13927000D02*
G03X11515000I-115000D01*
G01X10927000Y11976000D02*
G03X10927000I-100000D01*
G01Y12230000D02*
G03X10927000I-100000D01*
G01Y12484000D02*
G03X10927000I-100000D01*
G01Y12738000D02*
G03X10927000I-100000D01*
G01Y12992000D02*
G03X10927000I-100000D01*
G01Y13246000D02*
G03X10927000I-100000D01*
G01Y13500000D02*
G03X10927000I-100000D01*
G01Y13754000D02*
G03X10927000I-100000D01*
G01Y14008000D02*
G03X10927000I-100000D01*
G01Y14262000D02*
G03X10927000I-100000D01*
G01Y14516000D02*
G03X10927000I-100000D01*
G01Y14770000D02*
G03X10927000I-100000D01*
G01Y15024000D02*
G03X10927000I-100000D01*
G01X10673000Y11976000D02*
G03X10673000I-100000D01*
G01Y12230000D02*
G03X10673000I-100000D01*
G01Y12484000D02*
G03X10673000I-100000D01*
G01Y12738000D02*
G03X10673000I-100000D01*
G01Y12992000D02*
G03X10673000I-100000D01*
G01Y13246000D02*
G03X10673000I-100000D01*
G01Y13500000D02*
G03X10673000I-100000D01*
G01Y13754000D02*
G03X10673000I-100000D01*
G01Y14008000D02*
G03X10673000I-100000D01*
G01Y14262000D02*
G03X10673000I-100000D01*
G01Y14516000D02*
G03X10673000I-100000D01*
G01Y14770000D02*
G03X10673000I-100000D01*
G01Y15024000D02*
G03X10673000I-100000D01*
G01X12838000Y10573000D02*
G03X12838000I-100000D01*
G01Y10827000D02*
G03X12838000I-100000D01*
G01X16695000Y10868951D02*
Y16131048D01*
G03X16687710Y16135493I-5000J0*
G01X16135493Y16687710D02*
G03X16687710Y16135493I364507J-187710D01*
G01X16135493Y16687710D02*
G03X16131048Y16694999I-4444J2290D01*
G01Y16695000D02*
X10868951D01*
X10868951D02*
G03X10864506Y16687710I0J-5000D01*
G01X10312289Y16135493D02*
G03X10864506Y16687710I187711J364507D01*
G01X10312289Y16135493D02*
G03X10305000Y16131048I-2289J-4444D01*
G01Y10868951*
X10305000D02*
G03X10312289Y10864506I5000J0D01*
G01X10864506Y10312289D02*
G03X10312289Y10864506I-364506J187711D01*
G01X10864506Y10312289D02*
G03X10868951Y10305000I4445J-2289D01*
G01X10868951D02*
X16131048D01*
G03X16135493Y10312289I0J5000*
G01X16687710Y10864506D02*
G03X16135493Y10312289I-187710J-364506D01*
G01X16687710Y10864506D02*
G03X16694999Y10868951I2290J4445D01*
G01X16527000Y11976000D02*
G03X16527000I-100000D01*
G01Y12230000D02*
G03X16527000I-100000D01*
G01Y12484000D02*
G03X16527000I-100000D01*
G01Y12738000D02*
G03X16527000I-100000D01*
G01Y12992000D02*
G03X16527000I-100000D01*
G01Y13246000D02*
G03X16527000I-100000D01*
G01Y13500000D02*
G03X16527000I-100000D01*
G01Y13754000D02*
G03X16527000I-100000D01*
G01Y14008000D02*
G03X16527000I-100000D01*
G01Y14262000D02*
G03X16527000I-100000D01*
G01Y14516000D02*
G03X16527000I-100000D01*
G01Y14770000D02*
G03X16527000I-100000D01*
G01Y15024000D02*
G03X16527000I-100000D01*
G01X16273000Y11976000D02*
G03X16273000I-100000D01*
G01Y12230000D02*
G03X16273000I-100000D01*
G01Y12484000D02*
G03X16273000I-100000D01*
G01Y12738000D02*
G03X16273000I-100000D01*
G01Y12992000D02*
G03X16273000I-100000D01*
G01Y13246000D02*
G03X16273000I-100000D01*
G01Y13500000D02*
G03X16273000I-100000D01*
G01Y13754000D02*
G03X16273000I-100000D01*
G01Y14008000D02*
G03X16273000I-100000D01*
G01Y14262000D02*
G03X16273000I-100000D01*
G01Y14516000D02*
G03X16273000I-100000D01*
G01Y14770000D02*
G03X16273000I-100000D01*
G01Y15024000D02*
G03X16273000I-100000D01*
G01X15615000Y13573000D02*
G03X15615000I-115000D01*
G01Y13827000D02*
G03X15615000I-115000D01*
G01Y14573000D02*
G03X15615000I-115000D01*
G01Y14827000D02*
G03X15615000I-115000D01*
G01X15124000Y10573000D02*
G03X15124000I-100000D01*
G01Y10827000D02*
G03X15124000I-100000D01*
G01X14870000Y10573000D02*
G03X14870000I-100000D01*
G01Y10827000D02*
G03X14870000I-100000D01*
G01X15025000Y14200000D02*
G03X15025000I-125000D01*
G01Y14600000D02*
G03X15025000I-125000D01*
G01X15124000Y16173000D02*
G03X15124000I-100000D01*
G01Y16427000D02*
G03X15124000I-100000D01*
G01X14616000Y10573000D02*
G03X14616000I-100000D01*
G01Y10827000D02*
G03X14616000I-100000D01*
G01X14362000Y10573000D02*
G03X14362000I-100000D01*
G01Y10827000D02*
G03X14362000I-100000D01*
G01X14108000Y10573000D02*
G03X14108000I-100000D01*
G01Y10827000D02*
G03X14108000I-100000D01*
G01X13854000Y10573000D02*
G03X13854000I-100000D01*
G01Y10827000D02*
G03X13854000I-100000D01*
G01X13600000Y10573000D02*
G03X13600000I-100000D01*
G01Y10827000D02*
G03X13600000I-100000D01*
G01X13625000Y12100000D02*
G03X13625000I-125000D01*
G01X13535000Y13430000D02*
G03X13535000I-55000D01*
G01Y13570000D02*
G03X13535000I-55000D01*
G01X14318319Y13695040D02*
G03Y13784959I31681J44960D01*
G01Y13695040D02*
G03X14317136Y13695656I-2879J-4087D01*
G01X14285138Y13707202*
X14285138D02*
G03X14283441Y13707499I-1696J-4702D01*
G01X14283441D02*
X13600000D01*
X13577018Y13717018D02*
G03X13600000Y13707499I22982J22982D01*
G01X13577018Y13717018D02*
X13484082Y13809954D01*
X13484082D02*
G03X13482672Y13810944I-3534J-3535D01*
G01X13482672D02*
X13451882Y13825405D01*
X13451882D02*
G03X13450610Y13825806I-2125J-4524D01*
G01X13514193Y13889390D02*
G03X13450610Y13825806I-54193J-9390D01*
G01X13514193Y13889390D02*
G03X13514593Y13888118I4926J853D01*
G01X13514593D02*
X13529055Y13857326D01*
X13529055D02*
G03X13530046Y13855916I4526J2126D01*
G01X13530045D02*
X13611997Y13773965D01*
X13611997D02*
G03X13615533Y13772500I3536J3535D01*
G01X13615533D02*
X14283440D01*
X14283440D02*
G03X14285138Y13772797I0J5000D01*
G01X14317136Y13784344*
X14317136D02*
G03X14318319Y13784960I-1696J4703D01*
G01X14744960Y14498319D02*
G03X14655040I-44960J31681D01*
G01X14744960D02*
G03X14744344Y14497136I4087J-2879D01*
G01X14744344D02*
X14732797Y14465138D01*
X14732797D02*
G03X14732500Y14463440I4703J-1697D01*
G01X14732500D02*
Y13980000D01*
X14722981Y13957018D02*
G03X14732500Y13980000I-22981J22982D01*
G01X14722981Y13957018D02*
X14622981Y13857018D01*
X14600000Y13847499D02*
G03X14622981Y13857018I0J32501D01*
G01X14600000Y13847499D02*
X14286559D01*
X14286559D02*
G03X14284861Y13847202I0J-4999D01*
G01X14284861D02*
X14252863Y13835656D01*
X14252863D02*
G03X14251680Y13835040I1697J-4703D01*
G01Y13924960D02*
G03Y13835040I-31680J-44960D01*
G01Y13924960D02*
G03X14252863Y13924344I2880J4087D01*
G01X14284862Y13912797*
X14284862D02*
G03X14286559Y13912500I1697J4703D01*
G01X14286559D02*
X14584466D01*
X14584466D02*
G03X14588002Y13913965I0J5000D01*
G01X14666035Y13991997*
X14666034D02*
G03X14667499Y13995533I-3534J3536D01*
G01X14667499D02*
Y14463441D01*
X14667499D02*
G03X14667202Y14465138I-4999J0D01*
G01X14667202D02*
X14655656Y14497136D01*
G03X14655040Y14498319I-4703J-1696*
G01X14870000Y16173000D02*
G03X14870000I-100000D01*
G01Y16427000D02*
G03X14870000I-100000D01*
G01X14555000Y14000000D02*
G03X14555000I-55000D01*
G01Y14140000D02*
G03X14555000I-55000D01*
G01X14616000Y16173000D02*
G03X14616000I-100000D01*
G01Y16427000D02*
G03X14616000I-100000D01*
G01X14405000Y14000000D02*
G03X14405000I-55000D01*
G01Y14140000D02*
G03X14405000I-55000D01*
G01X14255000Y14000000D02*
G03X14255000I-55000D01*
G01Y14140000D02*
G03X14255000I-55000D01*
G01X14362000Y16173000D02*
G03X14362000I-100000D01*
G01Y16427000D02*
G03X14362000I-100000D01*
G01X14115000Y14000000D02*
G03X14115000I-55000D01*
G01X14105000Y14140000D02*
G03X14105000I-55000D01*
G01X13955000Y14000000D02*
G03X13955000I-55000D01*
G01Y14140000D02*
G03X13955000I-55000D01*
G01X14108000Y16173000D02*
G03X14108000I-100000D01*
G01Y16427000D02*
G03X14108000I-100000D01*
G01X13854000Y16173000D02*
G03X13854000I-100000D01*
G01Y16427000D02*
G03X13854000I-100000D01*
G01X13600000Y16173000D02*
G03X13600000I-100000D01*
G01Y16427000D02*
G03X13600000I-100000D01*
G01X13346000Y10573000D02*
G03X13346000I-100000D01*
G01Y10827000D02*
G03X13346000I-100000D01*
G01X13395000Y13430000D02*
G03X13395000I-55000D01*
G01Y13570000D02*
G03X13395000I-55000D01*
G01X13092000Y10573000D02*
G03X13092000I-100000D01*
G01Y10827000D02*
G03X13092000I-100000D01*
G01X13215000Y11850000D02*
G03X13215000I-115000D01*
G01Y12100000D02*
G03X13215000I-115000D01*
G01Y12350000D02*
G03X13215000I-115000D01*
G01X13075040Y13251680D02*
G03X13164960I44960J-31680D01*
G01X13075040D02*
G03X13075656Y13252863I-4087J2880D01*
G01X13075656D02*
X13087202Y13284861D01*
X13087202D02*
G03X13087499Y13286559I-4702J1698D01*
G01X13087499D02*
Y13334466D01*
X13087499D02*
G03X13086035Y13338002I-4999J0D01*
G01X12747018Y13677018*
X12737499Y13700000D02*
G03X12747018Y13677018I32501J0D01*
G01X12737499Y13700000D02*
Y13743441D01*
X12737499D02*
G03X12737202Y13745138I-4999J0D01*
G01X12737202D02*
X12725656Y13777136D01*
G03X12725040Y13778319I-4703J-1696*
G01X12814960D02*
G03X12725040I-44960J31681D01*
G01X12814960D02*
G03X12814344Y13777136I4087J-2879D01*
G01X12814344D02*
X12802797Y13745138D01*
X12802797D02*
G03X12802500Y13743440I4703J-1697D01*
G01X12802500D02*
Y13715533D01*
X12802500D02*
G03X12803965Y13711997I5000J0D01*
G01X12803965D02*
X13142981Y13372981D01*
X13152500Y13350000D02*
G03X13142981Y13372981I-32500J0D01*
G01X13152500Y13350000D02*
Y13286559D01*
X13152500D02*
G03X13152797Y13284862I5000J0D01*
G01X13164344Y13252863*
G03X13164960Y13251680I4703J1697*
G01X13235000Y13430000D02*
G03X13235000I-55000D01*
G01Y13570000D02*
G03X13235000I-55000D01*
G01X13346000Y16173000D02*
G03X13346000I-100000D01*
G01Y16427000D02*
G03X13346000I-100000D01*
G01X13055000Y13630000D02*
G03X13055000I-55000D01*
G01X13125000Y13900000D02*
G03X13125000I-125000D01*
G01X13092000Y16173000D02*
G03X13092000I-100000D01*
G01Y16427000D02*
G03X13092000I-100000D01*
G01X12838000Y16173000D02*
G03X12838000I-100000D01*
G01Y16427000D02*
G03X12838000I-100000D01*
G01X12584000Y10573000D02*
G03X12584000I-100000D01*
G01Y10827000D02*
G03X12584000I-100000D01*
G01X12521982Y13559583D02*
G03X12478017I-21982J50417D01*
G01X12521982D02*
G03Y13550416I1998J-4583D01*
G01X12478017D02*
G03X12521982I21983J-50416D01*
G01X12478017D02*
G03Y13559583I-1997J4584D01*
G01X12584000Y16173000D02*
G03X12584000I-100000D01*
G01Y16427000D02*
G03X12584000I-100000D01*
G01X12330000Y10573000D02*
G03X12330000I-100000D01*
G01Y10827000D02*
G03X12330000I-100000D01*
G01X12321982Y13559583D02*
G03X12278017I-21982J50417D01*
G01X12321982D02*
G03Y13550416I1998J-4583D01*
G01X12278017D02*
G03X12321982I21983J-50416D01*
G01X12278017D02*
G03Y13559583I-1997J4584D01*
G01X12076000Y10573000D02*
G03X12076000I-100000D01*
G01Y10827000D02*
G03X12076000I-100000D01*
G01X12121982Y13559583D02*
G03X12078017I-21982J50417D01*
G01X12121982D02*
G03Y13550416I1998J-4583D01*
G01X12078017D02*
G03X12121982I21983J-50416D01*
G01X12078017D02*
G03Y13559583I-1997J4584D01*
G01X12330000Y16173000D02*
G03X12330000I-100000D01*
G01Y16427000D02*
G03X12330000I-100000D01*
G01X12025000Y12800000D02*
G03X12025000I-125000D01*
G01Y13650000D02*
G03X12025000I-125000D01*
G01X12076000Y16173000D02*
G03X12076000I-100000D01*
G01Y16427000D02*
G03X12076000I-100000D01*
G01X11515000Y12673000D02*
G03X11515000I-115000D01*
G01Y12927000D02*
G03X11515000I-115000D01*
G01Y13673000D02*
G03X11515000I-115000D01*
G01Y13927000D02*
G03X11515000I-115000D01*
G01X10927000Y11976000D02*
G03X10927000I-100000D01*
G01Y12230000D02*
G03X10927000I-100000D01*
G01Y12484000D02*
G03X10927000I-100000D01*
G01Y12738000D02*
G03X10927000I-100000D01*
G01Y12992000D02*
G03X10927000I-100000D01*
G01Y13246000D02*
G03X10927000I-100000D01*
G01Y13500000D02*
G03X10927000I-100000D01*
G01Y13754000D02*
G03X10927000I-100000D01*
G01Y14008000D02*
G03X10927000I-100000D01*
G01Y14262000D02*
G03X10927000I-100000D01*
G01Y14516000D02*
G03X10927000I-100000D01*
G01Y14770000D02*
G03X10927000I-100000D01*
G01Y15024000D02*
G03X10927000I-100000D01*
G01X10673000Y11976000D02*
G03X10673000I-100000D01*
G01Y12230000D02*
G03X10673000I-100000D01*
G01Y12484000D02*
G03X10673000I-100000D01*
G01Y12738000D02*
G03X10673000I-100000D01*
G01Y12992000D02*
G03X10673000I-100000D01*
G01Y13246000D02*
G03X10673000I-100000D01*
G01Y13500000D02*
G03X10673000I-100000D01*
G01Y13754000D02*
G03X10673000I-100000D01*
G01Y14008000D02*
G03X10673000I-100000D01*
G01Y14262000D02*
G03X10673000I-100000D01*
G01Y14516000D02*
G03X10673000I-100000D01*
G01Y14770000D02*
G03X10673000I-100000D01*
G01Y15024000D02*
G03X10673000I-100000D01*
G01X12838000Y10573000D02*
G03X12838000I-100000D01*
G01Y10827000D02*
G03X12838000I-100000D01*
G01X12699768Y13545000D02*
G03X12700231I232J-55000D01*
G01X12699768D02*
G03X12699999Y13545006I-21J5000D01*
G01X12700000D02*
G03X12700231Y13545000I253J4994D01*
G01Y13555000D02*
G03X12699768I-231J55000D01*
G01X12700232Y13554999D02*
G03X12700000Y13554993I21J-4999D01*
G01X12699999D02*
G03X12699768Y13554999I-252J-4993D01*
G01X16672312Y16127966D02*
X16695000D01*
X16651373Y16118966D02*
X16695000D01*
X16626390Y16109966D02*
X16695000D01*
X16594195Y16100966D02*
X16695000D01*
X16540115Y16091966D02*
X16695000D01*
X15067521Y16082966D02*
X16695000D01*
X15037874Y16073966D02*
X16695000D01*
X10305000Y16064966D02*
X16695000D01*
X10305000Y16055966D02*
X16695000D01*
X10305000Y16046966D02*
X16695000D01*
X10305000Y16037966D02*
X16695000D01*
X10305000Y16028966D02*
X16695000D01*
X10305000Y16019966D02*
X16695000D01*
X10305000Y16010966D02*
X16695000D01*
X10305000Y16001966D02*
X16695000D01*
X10305000Y15992966D02*
X16695000D01*
X10305000Y15983966D02*
X16695000D01*
X10305000Y15974966D02*
X16695000D01*
X10305000Y15965966D02*
X16695000D01*
X10305000Y15956966D02*
X16695000D01*
X10305000Y15947966D02*
X16695000D01*
X10305000Y15938966D02*
X16695000D01*
X10305000Y15929966D02*
X16695000D01*
X10305000Y15920966D02*
X16695000D01*
X10305000Y15911966D02*
X16695000D01*
X10305000Y15902966D02*
X16695000D01*
X10305000Y15893966D02*
X16695000D01*
X10305000Y15884966D02*
X16695000D01*
X10305000Y15875966D02*
X16695000D01*
X10305000Y15866966D02*
X16695000D01*
X10305000Y15857966D02*
X16695000D01*
X10305000Y15848966D02*
X16695000D01*
X10305000Y15839966D02*
X16695000D01*
X10305000Y15830966D02*
X16695000D01*
X10305000Y15821966D02*
X16695000D01*
X10305000Y15812966D02*
X16695000D01*
X10305000Y15803966D02*
X16695000D01*
X10305000Y15794966D02*
X16695000D01*
X10305000Y15785966D02*
X16695000D01*
X10305000Y15776966D02*
X16695000D01*
X10305000Y15767966D02*
X16695000D01*
X10305000Y15758966D02*
X16695000D01*
X10305000Y15749966D02*
X16695000D01*
X10305000Y15740966D02*
X16695000D01*
X10305000Y15731966D02*
X16695000D01*
X10305000Y15722966D02*
X16695000D01*
X10305000Y15713966D02*
X16695000D01*
X10305000Y15704966D02*
X16695000D01*
X10305000Y15695966D02*
X16695000D01*
X10305000Y15686966D02*
X16695000D01*
X10305000Y15677966D02*
X16695000D01*
X10305000Y15668966D02*
X16695000D01*
X10305000Y15659966D02*
X16695000D01*
X10305000Y15650966D02*
X16695000D01*
X10305000Y15641966D02*
X16695000D01*
X10305000Y15632966D02*
X16695000D01*
X10305000Y15623966D02*
X16695000D01*
X10305000Y15614966D02*
X16695000D01*
X10305000Y15605966D02*
X16695000D01*
X10305000Y15596966D02*
X16695000D01*
X10305000Y15587966D02*
X16695000D01*
X10305000Y15578966D02*
X16695000D01*
X10305000Y15569966D02*
X16695000D01*
X10305000Y15560966D02*
X16695000D01*
X10305000Y15551966D02*
X16695000D01*
X10305000Y15542966D02*
X16695000D01*
X10305000Y15533966D02*
X16695000D01*
X10305000Y15524966D02*
X16695000D01*
X10305000Y15515966D02*
X16695000D01*
X10305000Y15506966D02*
X16695000D01*
X10305000Y15497966D02*
X16695000D01*
X10305000Y15488966D02*
X16695000D01*
X10305000Y15479966D02*
X16695000D01*
X10305000Y15470966D02*
X16695000D01*
X10305000Y15461966D02*
X16695000D01*
X10305000Y15452966D02*
X16695000D01*
X10305000Y15443966D02*
X16695000D01*
X10305000Y15434966D02*
X16695000D01*
X10305000Y15425966D02*
X16695000D01*
X10305000Y15416966D02*
X16695000D01*
X10305000Y15407966D02*
X16695000D01*
X10305000Y15398966D02*
X16695000D01*
X10305000Y15389966D02*
X16695000D01*
X10305000Y15380966D02*
X16695000D01*
X10305000Y15371966D02*
X16695000D01*
X10305000Y15362966D02*
X16695000D01*
X10305000Y15353966D02*
X16695000D01*
X10305000Y15344966D02*
X16695000D01*
X10305000Y15335966D02*
X16695000D01*
X10305000Y15326966D02*
X16695000D01*
X10305000Y15317966D02*
X16695000D01*
X10305000Y15308966D02*
X16695000D01*
X10305000Y15299966D02*
X16695000D01*
X10305000Y15290966D02*
X16695000D01*
X10305000Y15281966D02*
X16695000D01*
X10305000Y15272966D02*
X16695000D01*
X10305000Y15263966D02*
X16695000D01*
X10305000Y15254966D02*
X16695000D01*
X10305000Y15245966D02*
X16695000D01*
X10305000Y15236966D02*
X16695000D01*
X10305000Y15227966D02*
X16695000D01*
X10305000Y15218966D02*
X16695000D01*
X10305000Y15209966D02*
X16695000D01*
X10305000Y15200966D02*
X16695000D01*
X10305000Y15191966D02*
X16695000D01*
X10305000Y15182966D02*
X16695000D01*
X10305000Y15173966D02*
X16695000D01*
X10305000Y15164966D02*
X16695000D01*
X10305000Y15155966D02*
X16695000D01*
X10305000Y15146966D02*
X16695000D01*
X10305000Y15137966D02*
X16695000D01*
X10305000Y15128966D02*
X16695000D01*
X16455115Y15119966D02*
X16695000D01*
X16476365Y15110966D02*
X16695000D01*
X16489620Y15101966D02*
X16695000D01*
X16499413Y15092966D02*
X16695000D01*
X16507025Y15083966D02*
X16695000D01*
X16513037Y15074966D02*
X16695000D01*
X16517768Y15065966D02*
X16695000D01*
X16521410Y15056966D02*
X16695000D01*
X16524086Y15047966D02*
X16695000D01*
X16525874Y15038966D02*
X16695000D01*
X16526822Y15029966D02*
X16695000D01*
X16526954Y15020966D02*
X16695000D01*
X16526273Y15011966D02*
X16695000D01*
X16524763Y15002966D02*
X16695000D01*
X16522384Y14993966D02*
X16695000D01*
X16519067Y14984966D02*
X16695000D01*
X16514709Y14975966D02*
X16695000D01*
X16509142Y14966966D02*
X16695000D01*
X16502098Y14957966D02*
X16695000D01*
X16493106Y14948966D02*
X16695000D01*
X16481208Y14939966D02*
X16695000D01*
X16463672Y14930966D02*
X16695000D01*
X15564857Y14921966D02*
X16695000D01*
X15576386Y14912966D02*
X16695000D01*
X15585447Y14903966D02*
X16695000D01*
X15592766Y14894966D02*
X16695000D01*
X15598732Y14885966D02*
X16695000D01*
X15603578Y14876966D02*
X16695000D01*
X16447065Y14867966D02*
X16695000D01*
X16472662Y14858966D02*
X16695000D01*
X16487045Y14849966D02*
X16695000D01*
X16497454Y14840966D02*
X16695000D01*
X16505487Y14831966D02*
X16695000D01*
X16511821Y14822966D02*
X16695000D01*
X16516816Y14813966D02*
X16695000D01*
X16520688Y14804966D02*
X16695000D01*
X16523570Y14795966D02*
X16695000D01*
X16525550Y14786966D02*
X16695000D01*
X16526682Y14777966D02*
X16695000D01*
X16526995Y14768966D02*
X16695000D01*
X16526495Y14759966D02*
X16695000D01*
X16525172Y14750966D02*
X16695000D01*
X16522990Y14741966D02*
X16695000D01*
X16519890Y14732966D02*
X16695000D01*
X16515775Y14723966D02*
X16695000D01*
X16510495Y14714966D02*
X16695000D01*
X16503810Y14705966D02*
X16695000D01*
X16495309Y14696966D02*
X16695000D01*
X16484189Y14687966D02*
X16695000D01*
X16468388Y14678966D02*
X16695000D01*
X15561827Y14669966D02*
X16695000D01*
X15574074Y14660966D02*
X16695000D01*
X15583602Y14651966D02*
X16695000D01*
X15591267Y14642966D02*
X16695000D01*
X15597509Y14633966D02*
X16695000D01*
X15602589Y14624966D02*
X16695000D01*
X16429602Y14615966D02*
X16695000D01*
X16468535Y14606966D02*
X16695000D01*
X16484285Y14597966D02*
X16695000D01*
X16495381Y14588966D02*
X16695000D01*
X16503865Y14579966D02*
X16695000D01*
X16510539Y14570966D02*
X16695000D01*
X16515809Y14561966D02*
X16695000D01*
X16519917Y14552966D02*
X16695000D01*
X16523010Y14543966D02*
X16695000D01*
X16525185Y14534966D02*
X16695000D01*
X16526502Y14525966D02*
X16695000D01*
X16526995Y14516966D02*
X16695000D01*
X16526677Y14507966D02*
X16695000D01*
X16525539Y14498966D02*
X16695000D01*
X16523552Y14489966D02*
X16695000D01*
X16520663Y14480966D02*
X16695000D01*
X16516784Y14471966D02*
X16695000D01*
X16511779Y14462966D02*
X16695000D01*
X16505434Y14453966D02*
X16695000D01*
X16497387Y14444966D02*
X16695000D01*
X16486956Y14435966D02*
X16695000D01*
X16472532Y14426966D02*
X16695000D01*
X16446737Y14417966D02*
X16695000D01*
X14732500Y14408966D02*
X16695000D01*
X14732500Y14399966D02*
X16695000D01*
X14732500Y14390966D02*
X16695000D01*
X14732500Y14381966D02*
X16695000D01*
X14732500Y14372966D02*
X16695000D01*
X14732500Y14363966D02*
X16695000D01*
X16463841Y14354966D02*
X16695000D01*
X16481311Y14345966D02*
X16695000D01*
X16493182Y14336966D02*
X16695000D01*
X16502156Y14327966D02*
X16695000D01*
X16509188Y14318966D02*
X16695000D01*
X16514745Y14309966D02*
X16695000D01*
X16519096Y14300966D02*
X16695000D01*
X16522404Y14291966D02*
X16695000D01*
X16524777Y14282966D02*
X16695000D01*
X16526281Y14273966D02*
X16695000D01*
X16526956Y14264966D02*
X16695000D01*
X16526818Y14255966D02*
X16695000D01*
X16525864Y14246966D02*
X16695000D01*
X16524069Y14237966D02*
X16695000D01*
X16521387Y14228966D02*
X16695000D01*
X16517737Y14219966D02*
X16695000D01*
X16512998Y14210966D02*
X16695000D01*
X16506975Y14201966D02*
X16695000D01*
X16499349Y14192966D02*
X16695000D01*
X16489537Y14183966D02*
X16695000D01*
X16476247Y14174966D02*
X16695000D01*
X16454887Y14165966D02*
X16695000D01*
X15017359Y14156966D02*
X16695000D01*
X15013655Y14147966D02*
X16695000D01*
X15009087Y14138966D02*
X16695000D01*
X15003539Y14129966D02*
X16695000D01*
X14996844Y14120966D02*
X16695000D01*
X14988742Y14111966D02*
X16695000D01*
X16458327Y14102966D02*
X16695000D01*
X16478086Y14093966D02*
X16695000D01*
X16490845Y14084966D02*
X16695000D01*
X16500352Y14075966D02*
X16695000D01*
X16507765Y14066966D02*
X16695000D01*
X16513622Y14057966D02*
X16695000D01*
X16518224Y14048966D02*
X16695000D01*
X16521753Y14039966D02*
X16695000D01*
X16524327Y14030966D02*
X16695000D01*
X16526020Y14021966D02*
X16695000D01*
X16526877Y14012966D02*
X16695000D01*
X16526919Y14003966D02*
X16695000D01*
X16526147Y13994966D02*
X16695000D01*
X16524543Y13985966D02*
X16695000D01*
X16522063Y13976966D02*
X16695000D01*
X16518637Y13967966D02*
X16695000D01*
X16514154Y13958966D02*
X16695000D01*
X16508438Y13949966D02*
X16695000D01*
X16501206Y13940966D02*
X16695000D01*
X16491954Y13931966D02*
X16695000D01*
X16479625Y13922966D02*
X16695000D01*
X16461027Y13913966D02*
X16695000D01*
X15584535Y13904966D02*
X16695000D01*
X15592025Y13895966D02*
X16695000D01*
X15598128Y13886966D02*
X16695000D01*
X15603089Y13877966D02*
X16695000D01*
X15607069Y13868966D02*
X16695000D01*
X15610174Y13859966D02*
X16695000D01*
X16451445Y13850966D02*
X16695000D01*
X16474560Y13841966D02*
X16695000D01*
X16488354Y13832966D02*
X16695000D01*
X16498447Y13823966D02*
X16695000D01*
X16506266Y13814966D02*
X16695000D01*
X16512437Y13805966D02*
X16695000D01*
X16517299Y13796966D02*
X16695000D01*
X16521055Y13787966D02*
X16695000D01*
X16523833Y13778966D02*
X16695000D01*
X16525717Y13769966D02*
X16695000D01*
X16526757Y13760966D02*
X16695000D01*
X16526979Y13751966D02*
X16695000D01*
X16526390Y13742966D02*
X16695000D01*
X16524973Y13733966D02*
X16695000D01*
X16522693Y13724966D02*
X16695000D01*
X16519485Y13715966D02*
X16695000D01*
X16515249Y13706966D02*
X16695000D01*
X16509827Y13697966D02*
X16695000D01*
X16502965Y13688966D02*
X16695000D01*
X16494224Y13679966D02*
X16695000D01*
X16482727Y13670966D02*
X16695000D01*
X16466114Y13661966D02*
X16695000D01*
X15582646Y13652966D02*
X16695000D01*
X15590492Y13643966D02*
X16695000D01*
X15596877Y13634966D02*
X16695000D01*
X15602076Y13625966D02*
X16695000D01*
X15606264Y13616966D02*
X16695000D01*
X15609555Y13607966D02*
X16695000D01*
X16441342Y13598966D02*
X16695000D01*
X16470659Y13589966D02*
X16695000D01*
X16485689Y13580966D02*
X16695000D01*
X16496432Y13571966D02*
X16695000D01*
X16504687Y13562966D02*
X16695000D01*
X16511188Y13553966D02*
X16695000D01*
X16516320Y13544966D02*
X16695000D01*
X16520308Y13535966D02*
X16695000D01*
X16523295Y13526966D02*
X16695000D01*
X16525373Y13517966D02*
X16695000D01*
X16526597Y13508966D02*
X16695000D01*
X16527000Y13499966D02*
X16695000D01*
X16526591Y13490966D02*
X16695000D01*
X16525361Y13481966D02*
X16695000D01*
X16523277Y13472966D02*
X16695000D01*
X16520282Y13463966D02*
X16695000D01*
X16516286Y13454966D02*
X16695000D01*
X16511145Y13445966D02*
X16695000D01*
X16504633Y13436966D02*
X16695000D01*
X16496363Y13427966D02*
X16695000D01*
X16485597Y13418966D02*
X16695000D01*
X16470521Y13409966D02*
X16695000D01*
X16440874Y13400966D02*
X16695000D01*
X13519730Y13391966D02*
X16695000D01*
X13508511Y13382966D02*
X16695000D01*
X13141996Y13373966D02*
X16695000D01*
X13148849Y13364966D02*
X16695000D01*
X13151948Y13355966D02*
X16695000D01*
X13152500Y13346966D02*
X16695000D01*
X16466271Y13337966D02*
X16695000D01*
X16482826Y13328966D02*
X16695000D01*
X16494298Y13319966D02*
X16695000D01*
X16503022Y13310966D02*
X16695000D01*
X16509872Y13301966D02*
X16695000D01*
X16515285Y13292966D02*
X16695000D01*
X16519512Y13283966D02*
X16695000D01*
X16522713Y13274966D02*
X16695000D01*
X16524986Y13265966D02*
X16695000D01*
X16526397Y13256966D02*
X16695000D01*
X16526981Y13247966D02*
X16695000D01*
X16526752Y13238966D02*
X16695000D01*
X16525706Y13229966D02*
X16695000D01*
X16523816Y13220966D02*
X16695000D01*
X16521031Y13211966D02*
X16695000D01*
X16517267Y13202966D02*
X16695000D01*
X16512396Y13193966D02*
X16695000D01*
X16506215Y13184966D02*
X16695000D01*
X16498382Y13175966D02*
X16695000D01*
X16488268Y13166966D02*
X16695000D01*
X16474436Y13157966D02*
X16695000D01*
X16451179Y13148966D02*
X16695000D01*
X10305000Y13139966D02*
X16695000D01*
X10305000Y13130966D02*
X16695000D01*
X10305000Y13121966D02*
X16695000D01*
X10305000Y13112966D02*
X16695000D01*
X10305000Y13103966D02*
X16695000D01*
X10305000Y13094966D02*
X16695000D01*
X16461210Y13085966D02*
X16695000D01*
X16479733Y13076966D02*
X16695000D01*
X16492032Y13067966D02*
X16695000D01*
X16501266Y13058966D02*
X16695000D01*
X16508486Y13049966D02*
X16695000D01*
X16514191Y13040966D02*
X16695000D01*
X16518666Y13031966D02*
X16695000D01*
X16522085Y13022966D02*
X16695000D01*
X16524558Y13013966D02*
X16695000D01*
X16526156Y13004966D02*
X16695000D01*
X16526921Y12995966D02*
X16695000D01*
X16526873Y12986966D02*
X16695000D01*
X16526011Y12977966D02*
X16695000D01*
X16524311Y12968966D02*
X16695000D01*
X16521731Y12959966D02*
X16695000D01*
X16518194Y12950966D02*
X16695000D01*
X16513583Y12941966D02*
X16695000D01*
X16507716Y12932966D02*
X16695000D01*
X16500291Y12923966D02*
X16695000D01*
X16490765Y12914966D02*
X16695000D01*
X16477974Y12905966D02*
X16695000D01*
X16458125Y12896966D02*
X16695000D01*
X11988808Y12887966D02*
X16695000D01*
X11996898Y12878966D02*
X16695000D01*
X12003584Y12869966D02*
X16695000D01*
X12009124Y12860966D02*
X16695000D01*
X12013686Y12851966D02*
X16695000D01*
X12017384Y12842966D02*
X16695000D01*
X16455115Y12833966D02*
X16695000D01*
X16476365Y12824966D02*
X16695000D01*
X16489620Y12815966D02*
X16695000D01*
X16499413Y12806966D02*
X16695000D01*
X16507025Y12797966D02*
X16695000D01*
X16513037Y12788966D02*
X16695000D01*
X16517768Y12779966D02*
X16695000D01*
X16521410Y12770966D02*
X16695000D01*
X16524086Y12761966D02*
X16695000D01*
X16525874Y12752966D02*
X16695000D01*
X16526822Y12743966D02*
X16695000D01*
X16526954Y12734966D02*
X16695000D01*
X16526273Y12725966D02*
X16695000D01*
X16524763Y12716966D02*
X16695000D01*
X16522384Y12707966D02*
X16695000D01*
X16519067Y12698966D02*
X16695000D01*
X16514709Y12689966D02*
X16695000D01*
X16509142Y12680966D02*
X16695000D01*
X16502098Y12671966D02*
X16695000D01*
X16493106Y12662966D02*
X16695000D01*
X16481208Y12653966D02*
X16695000D01*
X16463672Y12644966D02*
X16695000D01*
X11508874Y12635966D02*
X16695000D01*
X11505385Y12626966D02*
X16695000D01*
X11500977Y12617966D02*
X16695000D01*
X11495524Y12608966D02*
X16695000D01*
X11488832Y12599966D02*
X16695000D01*
X11480595Y12590966D02*
X16695000D01*
X16447065Y12581966D02*
X16695000D01*
X16472662Y12572966D02*
X16695000D01*
X16487045Y12563966D02*
X16695000D01*
X16497454Y12554966D02*
X16695000D01*
X16505487Y12545966D02*
X16695000D01*
X16511821Y12536966D02*
X16695000D01*
X16516816Y12527966D02*
X16695000D01*
X16520688Y12518966D02*
X16695000D01*
X16523570Y12509966D02*
X16695000D01*
X16525550Y12500966D02*
X16695000D01*
X16526682Y12491966D02*
X16695000D01*
X16526995Y12482966D02*
X16695000D01*
X16526495Y12473966D02*
X16695000D01*
X16525172Y12464966D02*
X16695000D01*
X16522990Y12455966D02*
X16695000D01*
X16519890Y12446966D02*
X16695000D01*
X16515775Y12437966D02*
X16695000D01*
X16510495Y12428966D02*
X16695000D01*
X16503810Y12419966D02*
X16695000D01*
X16495309Y12410966D02*
X16695000D01*
X16484189Y12401966D02*
X16695000D01*
X16468388Y12392966D02*
X16695000D01*
X13209869Y12383966D02*
X16695000D01*
X13212257Y12374966D02*
X16695000D01*
X13213886Y12365966D02*
X16695000D01*
X13214789Y12356966D02*
X16695000D01*
X13214982Y12347966D02*
X16695000D01*
X13214470Y12338966D02*
X16695000D01*
X16429602Y12329966D02*
X16695000D01*
X16468535Y12320966D02*
X16695000D01*
X16484285Y12311966D02*
X16695000D01*
X16495381Y12302966D02*
X16695000D01*
X16503865Y12293966D02*
X16695000D01*
X16510539Y12284966D02*
X16695000D01*
X16515809Y12275966D02*
X16695000D01*
X16519917Y12266966D02*
X16695000D01*
X16523010Y12257966D02*
X16695000D01*
X16525185Y12248966D02*
X16695000D01*
X16526502Y12239966D02*
X16695000D01*
X16526995Y12230966D02*
X16695000D01*
X16526677Y12221966D02*
X16695000D01*
X16525539Y12212966D02*
X16695000D01*
X16523552Y12203966D02*
X16695000D01*
X16520663Y12194966D02*
X16695000D01*
X16516784Y12185966D02*
X16695000D01*
X16511779Y12176966D02*
X16695000D01*
X16505434Y12167966D02*
X16695000D01*
X16497387Y12158966D02*
X16695000D01*
X16486956Y12149966D02*
X16695000D01*
X16472532Y12140966D02*
X16695000D01*
X16446737Y12131966D02*
X16695000D01*
X13622872Y12122966D02*
X16695000D01*
X13624217Y12113966D02*
X16695000D01*
X13624901Y12104966D02*
X16695000D01*
X13624935Y12095966D02*
X16695000D01*
X13624319Y12086966D02*
X16695000D01*
X13623043Y12077966D02*
X16695000D01*
X16463841Y12068966D02*
X16695000D01*
X16481311Y12059966D02*
X16695000D01*
X16493182Y12050966D02*
X16695000D01*
X16502156Y12041966D02*
X16695000D01*
X16509188Y12032966D02*
X16695000D01*
X16514745Y12023966D02*
X16695000D01*
X16519096Y12014966D02*
X16695000D01*
X16522404Y12005966D02*
X16695000D01*
X16524777Y11996966D02*
X16695000D01*
X16526281Y11987966D02*
X16695000D01*
X16526956Y11978966D02*
X16695000D01*
X16526818Y11969966D02*
X16695000D01*
X16525864Y11960966D02*
X16695000D01*
X16524069Y11951966D02*
X16695000D01*
X16521387Y11942966D02*
X16695000D01*
X16517737Y11933966D02*
X16695000D01*
X16512998Y11924966D02*
X16695000D01*
X16506975Y11915966D02*
X16695000D01*
X16499349Y11906966D02*
X16695000D01*
X16489537Y11897966D02*
X16695000D01*
X16476247Y11888966D02*
X16695000D01*
X16454887Y11879966D02*
X16695000D01*
X13213073Y11870966D02*
X16695000D01*
X13214376Y11861966D02*
X16695000D01*
X13214962Y11852966D02*
X16695000D01*
X13214842Y11843966D02*
X16695000D01*
X13214013Y11834966D02*
X16695000D01*
X13212461Y11825966D02*
X16695000D01*
X13210154Y11816966D02*
X16695000D01*
X13207043Y11807966D02*
X16695000D01*
X13203056Y11798966D02*
X16695000D01*
X13198087Y11789966D02*
X16695000D01*
X13191975Y11780966D02*
X16695000D01*
X13184474Y11771966D02*
X16695000D01*
X13175168Y11762966D02*
X16695000D01*
X13163267Y11753966D02*
X16695000D01*
X13146830Y11744966D02*
X16695000D01*
X13114883Y11735966D02*
X16695000D01*
X10305000Y11726966D02*
X16695000D01*
X10305000Y11717966D02*
X16695000D01*
X10305000Y11708966D02*
X16695000D01*
X10305000Y11699966D02*
X16695000D01*
X10305000Y11690966D02*
X16695000D01*
X10305000Y11681966D02*
X16695000D01*
X10305000Y11672966D02*
X16695000D01*
X10305000Y11663966D02*
X16695000D01*
X10305000Y11654966D02*
X16695000D01*
X10305000Y11645966D02*
X16695000D01*
X10305000Y11636966D02*
X16695000D01*
X10305000Y11627966D02*
X16695000D01*
X10305000Y11618966D02*
X16695000D01*
X10305000Y11609966D02*
X16695000D01*
X10305000Y11600966D02*
X16695000D01*
X10305000Y11591966D02*
X16695000D01*
X10305000Y11582966D02*
X16695000D01*
X10305000Y11573966D02*
X16695000D01*
X10305000Y11564966D02*
X16695000D01*
X10305000Y11555966D02*
X16695000D01*
X10305000Y11546966D02*
X16695000D01*
X10305000Y11537966D02*
X16695000D01*
X10305000Y11528966D02*
X16695000D01*
X10305000Y11519966D02*
X16695000D01*
X10305000Y11510966D02*
X16695000D01*
X10305000Y11501966D02*
X16695000D01*
X10305000Y11492966D02*
X16695000D01*
X10305000Y11483966D02*
X16695000D01*
X10305000Y11474966D02*
X16695000D01*
X10305000Y11465966D02*
X16695000D01*
X10305000Y11456966D02*
X16695000D01*
X10305000Y11447966D02*
X16695000D01*
X10305000Y11438966D02*
X16695000D01*
X10305000Y11429966D02*
X16695000D01*
X10305000Y11420966D02*
X16695000D01*
X10305000Y11411966D02*
X16695000D01*
X10305000Y11402966D02*
X16695000D01*
X10305000Y11393966D02*
X16695000D01*
X10305000Y11384966D02*
X16695000D01*
X10305000Y11375966D02*
X16695000D01*
X10305000Y11366966D02*
X16695000D01*
X10305000Y11357966D02*
X16695000D01*
X10305000Y11348966D02*
X16695000D01*
X10305000Y11339966D02*
X16695000D01*
X10305000Y11330966D02*
X16695000D01*
X10305000Y11321966D02*
X16695000D01*
X10305000Y11312966D02*
X16695000D01*
X10305000Y11303966D02*
X16695000D01*
X10305000Y11294966D02*
X16695000D01*
X10305000Y11285966D02*
X16695000D01*
X10305000Y11276966D02*
X16695000D01*
X10305000Y11267966D02*
X16695000D01*
X10305000Y11258966D02*
X16695000D01*
X10305000Y11249966D02*
X16695000D01*
X10305000Y11240966D02*
X16695000D01*
X10305000Y11231966D02*
X16695000D01*
X10305000Y11222966D02*
X16695000D01*
X10305000Y11213966D02*
X16695000D01*
X10305000Y11204966D02*
X16695000D01*
X10305000Y11195966D02*
X16695000D01*
X10305000Y11186966D02*
X16695000D01*
X10305000Y11177966D02*
X16695000D01*
X10305000Y11168966D02*
X16695000D01*
X10305000Y11159966D02*
X16695000D01*
X10305000Y11150966D02*
X16695000D01*
X10305000Y11141966D02*
X16695000D01*
X10305000Y11132966D02*
X16695000D01*
X10305000Y11123966D02*
X16695000D01*
X10305000Y11114966D02*
X16695000D01*
X10305000Y11105966D02*
X16695000D01*
X10305000Y11096966D02*
X16695000D01*
X10305000Y11087966D02*
X16695000D01*
X10305000Y11078966D02*
X16695000D01*
X10305000Y11069966D02*
X16695000D01*
X10305000Y11060966D02*
X16695000D01*
X10305000Y11051966D02*
X16695000D01*
X10305000Y11042966D02*
X16695000D01*
X10305000Y11033966D02*
X16695000D01*
X10305000Y11024966D02*
X16695000D01*
X10305000Y11015966D02*
X16695000D01*
X10305000Y11006966D02*
X16695000D01*
X10305000Y10997966D02*
X16695000D01*
X10305000Y10988966D02*
X16695000D01*
X10305000Y10979966D02*
X16695000D01*
X10305000Y10970966D02*
X16695000D01*
X10305000Y10961966D02*
X16695000D01*
X10305000Y10952966D02*
X16695000D01*
X10305000Y10943966D02*
X16695000D01*
X10305000Y10934966D02*
X16695000D01*
X15038342Y10925966D02*
X16695000D01*
X15067659Y10916966D02*
X16695000D01*
X16540787Y10907966D02*
X16695000D01*
X16594477Y10898966D02*
X16695000D01*
X16626595Y10889966D02*
X16695000D01*
X16651541Y10880966D02*
X16695000D01*
X16672456Y10871966D02*
X16695000D01*
X15082597Y16091966D02*
X16459884D01*
X15082689Y10907966D02*
X16459212D01*
X16175602Y14615966D02*
X16424397D01*
X16175602Y12329966D02*
X16424397D01*
X16186874Y13400966D02*
X16413125D01*
X16187342Y13598966D02*
X16412657D01*
X16192737Y14417966D02*
X16407262D01*
X16192737Y12131966D02*
X16407262D01*
X16193065Y14867966D02*
X16406934D01*
X16193065Y12581966D02*
X16406934D01*
X15093363Y16100966D02*
X16405804D01*
X15093432Y10898966D02*
X16405522D01*
X16197179Y13148966D02*
X16402820D01*
X16197445Y13850966D02*
X16402554D01*
X16200887Y14165966D02*
X16399112D01*
X16200887Y11879966D02*
X16399112D01*
X16201115Y15119966D02*
X16398884D01*
X16201115Y12833966D02*
X16398884D01*
X16204125Y12896966D02*
X16395874D01*
X16204327Y14102966D02*
X16395672D01*
X16207027Y13913966D02*
X16392973D01*
X16207210Y13085966D02*
X16392789D01*
X16209672Y14930966D02*
X16390327D01*
X16209672Y12644966D02*
X16390327D01*
X16209841Y14354966D02*
X16390158D01*
X16209841Y12068966D02*
X16390158D01*
X16212114Y13661966D02*
X16387885D01*
X16212271Y13337966D02*
X16387728D01*
X16214388Y14678966D02*
X16385611D01*
X16214388Y12392966D02*
X16385611D01*
X16214535Y14606966D02*
X16385464D01*
X16214535Y12320966D02*
X16385464D01*
X16216521Y13409966D02*
X16383478D01*
X16216659Y13589966D02*
X16383341D01*
X16218532Y14426966D02*
X16381467D01*
X16218532Y12140966D02*
X16381467D01*
X16218662Y14858966D02*
X16381337D01*
X16218662Y12572966D02*
X16381337D01*
X16220436Y13157966D02*
X16379563D01*
X16220560Y13841966D02*
X16379439D01*
X16222247Y14174966D02*
X16377752D01*
X16222247Y11888966D02*
X16377752D01*
X16222365Y15110966D02*
X16377635D01*
X16222365Y12824966D02*
X16377635D01*
X16223974Y12905966D02*
X16376025D01*
X16224086Y14093966D02*
X16375913D01*
X16225625Y13922966D02*
X16374374D01*
X16225733Y13076966D02*
X16374267D01*
X15101633Y16109966D02*
X16373610D01*
X15101687Y10889966D02*
X16373404D01*
X16227208Y14939966D02*
X16372792D01*
X16227208Y12653966D02*
X16372792D01*
X16227311Y14345966D02*
X16372688D01*
X16227311Y12059966D02*
X16372688D01*
X16228727Y13670966D02*
X16371272D01*
X16228826Y13328966D02*
X16371173D01*
X16230189Y14687966D02*
X16369810D01*
X16230189Y12401966D02*
X16369810D01*
X16230285Y14597966D02*
X16369715D01*
X16230285Y12311966D02*
X16369715D01*
X16231597Y13418966D02*
X16368402D01*
X16231689Y13580966D02*
X16368310D01*
X16232956Y14435966D02*
X16367043D01*
X16232956Y12149966D02*
X16367043D01*
X16233045Y14849966D02*
X16366954D01*
X16233045Y12563966D02*
X16366954D01*
X16234268Y13166966D02*
X16365731D01*
X16234354Y13832966D02*
X16365645D01*
X16235537Y14183966D02*
X16364462D01*
X16235537Y11897966D02*
X16364462D01*
X16235620Y15101966D02*
X16364379D01*
X16235620Y12815966D02*
X16364379D01*
X16236765Y12914966D02*
X16363235D01*
X16236845Y14084966D02*
X16363154D01*
X16237954Y13931966D02*
X16362045D01*
X16238032Y13067966D02*
X16361967D01*
X16239106Y14948966D02*
X16360893D01*
X16239106Y12662966D02*
X16360893D01*
X16239182Y14336966D02*
X16360817D01*
X16239182Y12050966D02*
X16360817D01*
X16240224Y13679966D02*
X16359775D01*
X16240298Y13319966D02*
X16359701D01*
X16241309Y14696966D02*
X16358690D01*
X16241309Y12410966D02*
X16358690D01*
X16241381Y14588966D02*
X16358618D01*
X16241381Y12302966D02*
X16358618D01*
X16242363Y13427966D02*
X16357636D01*
X16242432Y13571966D02*
X16357567D01*
X16243387Y14444966D02*
X16356612D01*
X16243387Y12158966D02*
X16356612D01*
X16243454Y14840966D02*
X16356545D01*
X16243454Y12554966D02*
X16356545D01*
X16244382Y13175966D02*
X16355617D01*
X16244447Y13823966D02*
X16355552D01*
X16245349Y14192966D02*
X16354650D01*
X16245349Y11906966D02*
X16354650D01*
X16245413Y15092966D02*
X16354586D01*
X16245413Y12806966D02*
X16354586D01*
X16246291Y12923966D02*
X16353709D01*
X16246352Y14075966D02*
X16353647D01*
X16247206Y13940966D02*
X16352793D01*
X16247266Y13058966D02*
X16352733D01*
X16248098Y14957966D02*
X16351902D01*
X16248098Y12671966D02*
X16351902D01*
X16248156Y14327966D02*
X16351843D01*
X16248156Y12041966D02*
X16351843D01*
X16248965Y13688966D02*
X16351034D01*
X16249022Y13310966D02*
X16350977D01*
X16249810Y14705966D02*
X16350189D01*
X16249810Y12419966D02*
X16350189D01*
X16249865Y14579966D02*
X16350134D01*
X16249865Y12293966D02*
X16350134D01*
X16250633Y13436966D02*
X16349366D01*
X16250687Y13562966D02*
X16349312D01*
X15108145Y16118966D02*
X16348626D01*
X16251434Y14453966D02*
X16348565D01*
X16251434Y12167966D02*
X16348565D01*
X16251487Y14831966D02*
X16348512D01*
X16251487Y12545966D02*
X16348512D01*
X15108188Y10880966D02*
X16348458D01*
X16252215Y13184966D02*
X16347784D01*
X16252266Y13814966D02*
X16347733D01*
X16252975Y14201966D02*
X16347024D01*
X16252975Y11915966D02*
X16347024D01*
X16253025Y15083966D02*
X16346974D01*
X16253025Y12797966D02*
X16346974D01*
X16253716Y12932966D02*
X16346283D01*
X16253765Y14066966D02*
X16346234D01*
X16254438Y13949966D02*
X16345561D01*
X16254486Y13049966D02*
X16345514D01*
X16255142Y14966966D02*
X16344858D01*
X16255142Y12680966D02*
X16344858D01*
X16255188Y14318966D02*
X16344811D01*
X16255188Y12032966D02*
X16344811D01*
X16255827Y13697966D02*
X16344172D01*
X16255872Y13301966D02*
X16344127D01*
X16256495Y14714966D02*
X16343504D01*
X16256495Y12428966D02*
X16343504D01*
X16256539Y14570966D02*
X16343460D01*
X16256539Y12284966D02*
X16343460D01*
X16257145Y13445966D02*
X16342854D01*
X16257188Y13553966D02*
X16342811D01*
X16257779Y14462966D02*
X16342220D01*
X16257779Y12176966D02*
X16342220D01*
X16257821Y14822966D02*
X16342178D01*
X16257821Y12536966D02*
X16342178D01*
X16258396Y13193966D02*
X16341603D01*
X16258437Y13805966D02*
X16341562D01*
X16258998Y14210966D02*
X16341001D01*
X16258998Y11924966D02*
X16341001D01*
X16259037Y15074966D02*
X16340962D01*
X16259037Y12788966D02*
X16340962D01*
X16259583Y12941966D02*
X16340416D01*
X16259622Y14057966D02*
X16340377D01*
X16260154Y13958966D02*
X16339845D01*
X16260191Y13040966D02*
X16339808D01*
X16260709Y14975966D02*
X16339290D01*
X16260709Y12689966D02*
X16339290D01*
X16260745Y14309966D02*
X16339254D01*
X16260745Y12023966D02*
X16339254D01*
X16261249Y13706966D02*
X16338750D01*
X16261285Y13292966D02*
X16338715D01*
X16261775Y14723966D02*
X16338224D01*
X16261775Y12437966D02*
X16338224D01*
X16261809Y14561966D02*
X16338190D01*
X16261809Y12275966D02*
X16338190D01*
X16262286Y13454966D02*
X16337713D01*
X16262320Y13544966D02*
X16337679D01*
X16262784Y14471966D02*
X16337216D01*
X16262784Y12185966D02*
X16337216D01*
X16262816Y14813966D02*
X16337183D01*
X16262816Y12527966D02*
X16337183D01*
X16263267Y13202966D02*
X16336732D01*
X16263299Y13796966D02*
X16336700D01*
X16263737Y14219966D02*
X16336262D01*
X16263737Y11933966D02*
X16336262D01*
X16263768Y15065966D02*
X16336231D01*
X16263768Y12779966D02*
X16336231D01*
X16264194Y12950966D02*
X16335805D01*
X16264224Y14048966D02*
X16335775D01*
X16264637Y13967966D02*
X16335362D01*
X16264666Y13031966D02*
X16335333D01*
X16265067Y14984966D02*
X16334932D01*
X16265067Y12698966D02*
X16334932D01*
X16265096Y14300966D02*
X16334903D01*
X16265096Y12014966D02*
X16334903D01*
X16265485Y13715966D02*
X16334514D01*
X16265512Y13283966D02*
X16334487D01*
X16265890Y14732966D02*
X16334109D01*
X16265890Y12446966D02*
X16334109D01*
X16265917Y14552966D02*
X16334083D01*
X16265917Y12266966D02*
X16334083D01*
X16266282Y13463966D02*
X16333717D01*
X16266308Y13535966D02*
X16333691D01*
X16266663Y14480966D02*
X16333336D01*
X16266663Y12194966D02*
X16333336D01*
X16266688Y14804966D02*
X16333312D01*
X16266688Y12518966D02*
X16333312D01*
X16267031Y13211966D02*
X16332968D01*
X16267055Y13787966D02*
X16332944D01*
X16267387Y14228966D02*
X16332613D01*
X16267387Y11942966D02*
X16332613D01*
X16267410Y15056966D02*
X16332589D01*
X16267410Y12770966D02*
X16332589D01*
X16267731Y12959966D02*
X16332268D01*
X16267753Y14039966D02*
X16332246D01*
X16268063Y13976966D02*
X16331936D01*
X16268085Y13022966D02*
X16331914D01*
X16268384Y14993966D02*
X16331616D01*
X16268384Y12707966D02*
X16331616D01*
X16268404Y14291966D02*
X16331595D01*
X16268404Y12005966D02*
X16331595D01*
X16268693Y13724966D02*
X16331306D01*
X16268713Y13274966D02*
X16331286D01*
X16268990Y14741966D02*
X16331009D01*
X16268990Y12455966D02*
X16331009D01*
X16269010Y14543966D02*
X16330989D01*
X16269010Y12257966D02*
X16330989D01*
X16269277Y13472966D02*
X16330722D01*
X16269295Y13526966D02*
X16330704D01*
X16269552Y14489966D02*
X16330447D01*
X16269552Y12203966D02*
X16330447D01*
X16269570Y14795966D02*
X16330429D01*
X16269570Y12509966D02*
X16330429D01*
X16269816Y13220966D02*
X16330183D01*
X16269833Y13778966D02*
X16330166D01*
X16270069Y14237966D02*
X16329930D01*
X16270069Y11951966D02*
X16329930D01*
X16270086Y15047966D02*
X16329913D01*
X16270086Y12761966D02*
X16329913D01*
X16270311Y12968966D02*
X16329688D01*
X16270327Y14030966D02*
X16329672D01*
X16270543Y13985966D02*
X16329457D01*
X16270558Y13013966D02*
X16329441D01*
X16270763Y15002966D02*
X16329236D01*
X16270763Y12716966D02*
X16329236D01*
X16270777Y14282966D02*
X16329222D01*
X16270777Y11996966D02*
X16329222D01*
X16270973Y13733966D02*
X16329026D01*
X16270986Y13265966D02*
X16329013D01*
X16271172Y14750966D02*
X16328827D01*
X16271172Y12464966D02*
X16328827D01*
X16271185Y14534966D02*
X16328814D01*
X16271185Y12248966D02*
X16328814D01*
X16271361Y13481966D02*
X16328638D01*
X16271373Y13517966D02*
X16328626D01*
X16271539Y14498966D02*
X16328460D01*
X16271539Y12212966D02*
X16328460D01*
X16271550Y14786966D02*
X16328449D01*
X16271550Y12500966D02*
X16328449D01*
X16271706Y13229966D02*
X16328293D01*
X16271717Y13769966D02*
X16328282D01*
X16271864Y14246966D02*
X16328135D01*
X16271864Y11960966D02*
X16328135D01*
X16271874Y15038966D02*
X16328125D01*
X16271874Y12752966D02*
X16328125D01*
X16272011Y12977966D02*
X16327989D01*
X16272020Y14021966D02*
X16327979D01*
X16272147Y13994966D02*
X16327852D01*
X16272156Y13004966D02*
X16327843D01*
X16272273Y15011966D02*
X16327726D01*
X16272273Y12725966D02*
X16327726D01*
X16272281Y14273966D02*
X16327718D01*
X16272281Y11987966D02*
X16327718D01*
X15113286Y16127966D02*
X16327687D01*
X16272390Y13742966D02*
X16327610D01*
X16272397Y13256966D02*
X16327602D01*
X15113320Y10871966D02*
X16327543D01*
X16272495Y14759966D02*
X16327504D01*
X16272495Y12473966D02*
X16327504D01*
X16272502Y14525966D02*
X16327497D01*
X16272502Y12239966D02*
X16327497D01*
X16272591Y13490966D02*
X16327408D01*
X16272597Y13508966D02*
X16327402D01*
X16272677Y14507966D02*
X16327322D01*
X16272677Y12221966D02*
X16327322D01*
X16272682Y14777966D02*
X16327317D01*
X16272682Y12491966D02*
X16327317D01*
X16272752Y13238966D02*
X16327247D01*
X16272757Y13760966D02*
X16327242D01*
X16272818Y14255966D02*
X16327181D01*
X16272818Y11969966D02*
X16327181D01*
X16272822Y15029966D02*
X16327177D01*
X16272822Y12743966D02*
X16327177D01*
X16272873Y12986966D02*
X16327126D01*
X16272877Y14012966D02*
X16327122D01*
X16272919Y14003966D02*
X16327080D01*
X16272921Y12995966D02*
X16327078D01*
X16272954Y15020966D02*
X16327045D01*
X16272954Y12734966D02*
X16327045D01*
X16272956Y14264966D02*
X16327043D01*
X16272956Y11978966D02*
X16327043D01*
X16272979Y13751966D02*
X16327020D01*
X16272981Y13247966D02*
X16327018D01*
X16272995Y14768966D02*
X16327004D01*
X16272995Y12482966D02*
X16327004D01*
X16272995Y14516966D02*
X16327004D01*
X16272995Y12230966D02*
X16327004D01*
X16273000Y13499966D02*
X16326999D01*
X15117282Y16136966D02*
X16309455D01*
X15117308Y10862966D02*
X16309328D01*
X15120277Y16145966D02*
X16293213D01*
X15120295Y10853966D02*
X16293099D01*
X15122361Y16154966D02*
X16278522D01*
X15122373Y10844966D02*
X16278418D01*
X15123591Y16163966D02*
X16265091D01*
X15123597Y10835966D02*
X16264996D01*
X15124000Y16172966D02*
X16252715D01*
X15124000Y10826966D02*
X16252627D01*
X15123597Y16181966D02*
X16241242D01*
X15123591Y10817966D02*
X16241161D01*
X15122373Y16190966D02*
X16230558D01*
X15122361Y10808966D02*
X16230481D01*
X15120295Y16199966D02*
X16220571D01*
X15120277Y10799966D02*
X16220499D01*
X15117308Y16208966D02*
X16211209D01*
X15117282Y10790966D02*
X16211142D01*
X15113320Y16217966D02*
X16202413D01*
X15113286Y10781966D02*
X16202350D01*
X15108188Y16226966D02*
X16194135D01*
X15108145Y10772966D02*
X16194075D01*
X15101687Y16235966D02*
X16186333D01*
X15101633Y10763966D02*
X16186277D01*
X15093432Y16244966D02*
X16178972D01*
X15093363Y10754966D02*
X16178919D01*
X15082689Y16253966D02*
X16172024D01*
X15082597Y10745966D02*
X16171974D01*
X15606672Y14615966D02*
X16170397D01*
X13213242Y12329966D02*
X16170397D01*
X15067659Y16262966D02*
X16165462D01*
X15067521Y10736966D02*
X16165414D01*
X15038342Y16271966D02*
X16159263D01*
X15037874Y10727966D02*
X16159219D01*
X13526713Y13400966D02*
X16159125D01*
X15612030Y13598966D02*
X16158657D01*
X10846590Y16280966D02*
X16153409D01*
X10846632Y10718966D02*
X16153367D01*
X14732500Y14417966D02*
X16153262D01*
X13620844Y12131966D02*
X16153262D01*
X15607456Y14867966D02*
X16152934D01*
X11470271Y12581966D02*
X16152934D01*
X10851179Y13148966D02*
X16148820D01*
X15612475Y13850966D02*
X16148554D01*
X10852117Y16289966D02*
X16147882D01*
X10852156Y10709966D02*
X16147843D01*
X15020278Y14165966D02*
X16145112D01*
X13211027Y11879966D02*
X16145112D01*
X10855115Y15119966D02*
X16144884D01*
X12020297Y12833966D02*
X16144884D01*
X10857331Y16298966D02*
X16142668D01*
X10857369Y10700966D02*
X16142630D01*
X11978883Y12896966D02*
X16141874D01*
X14978801Y14102966D02*
X16141672D01*
X15575245Y13913966D02*
X16138973D01*
X10861210Y13085966D02*
X16138789D01*
X10862248Y16307966D02*
X16137752D01*
X10862283Y10691966D02*
X16137716D01*
X15549153Y14930966D02*
X16136327D01*
X11511531Y12644966D02*
X16136327D01*
X14732500Y14354966D02*
X16136158D01*
X13621087Y12068966D02*
X16136158D01*
X10865365Y10313966D02*
X16134634D01*
X10865399Y16685966D02*
X16134600D01*
X15572870Y13661966D02*
X16133885D01*
X13152500Y13337966D02*
X16133728D01*
X10866877Y16316966D02*
X16133122D01*
X10866910Y10682966D02*
X16133089D01*
X10868375Y16694966D02*
X16131624D01*
X15544678Y14678966D02*
X16131611D01*
X13206672Y12392966D02*
X16131611D01*
X15609869Y14606966D02*
X16131464D01*
X13211275Y12320966D02*
X16131464D01*
X10869810Y10322966D02*
X16130189D01*
X10869842Y16676966D02*
X16130157D01*
X13531222Y13409966D02*
X16129478D01*
X15613742Y13589966D02*
X16129341D01*
X10871231Y16325966D02*
X16128768D01*
X10871262Y10673966D02*
X16128737D01*
X14732500Y14426966D02*
X16127467D01*
X13618096Y12140966D02*
X16127467D01*
X15610468Y14858966D02*
X16127337D01*
X11456731Y12572966D02*
X16127337D01*
X10873985Y10331966D02*
X16126014D01*
X10874015Y16667966D02*
X16125984D01*
X10874436Y13157966D02*
X16125563D01*
X15614022Y13841966D02*
X16125439D01*
X15063114Y16334966D02*
X16124680D01*
X15063271Y10664966D02*
X16124651D01*
X15022468Y14174966D02*
X16123752D01*
X13208197Y11888966D02*
X16123752D01*
X10876365Y15110966D02*
X16123635D01*
X12022481Y12824966D02*
X16123635D01*
X10877900Y10340966D02*
X16122099D01*
X10877928Y16658966D02*
X16122071D01*
X11966303Y12905966D02*
X16122025D01*
X14966197Y14093966D02*
X16121913D01*
X15079727Y16343966D02*
X16120850D01*
X15079826Y10655966D02*
X16120823D01*
X15563368Y13922966D02*
X16120374D01*
X10879733Y13076966D02*
X16120267D01*
X15521532Y14939966D02*
X16118792D01*
X11513414Y12653966D02*
X16118792D01*
X14732500Y14345966D02*
X16118688D01*
X13618416Y12059966D02*
X16118688D01*
X10881563Y10349966D02*
X16118436D01*
X10881589Y16649966D02*
X16118410D01*
X15560230Y13670966D02*
X16117272D01*
X15091224Y16352966D02*
X16117270D01*
X15091298Y10646966D02*
X16117245D01*
X13152500Y13328966D02*
X16117173D01*
X15502790Y14687966D02*
X16115810D01*
X13202589Y12401966D02*
X16115810D01*
X15612257Y14597966D02*
X16115715D01*
X13208529Y12311966D02*
X16115715D01*
X10884980Y10358966D02*
X16115019D01*
X10885005Y16640966D02*
X16114995D01*
X13533882Y13418966D02*
X16114402D01*
X15614724Y13580966D02*
X16114310D01*
X15099965Y16361966D02*
X16113933D01*
X15100022Y10637966D02*
X16113909D01*
X14732500Y14435966D02*
X16113043D01*
X13614579Y12149966D02*
X16113043D01*
X15612683Y14849966D02*
X16112954D01*
X11436563Y12563966D02*
X16112954D01*
X10888159Y10367966D02*
X16111840D01*
X10888181Y16631966D02*
X16111818D01*
X13134578Y13166966D02*
X16111731D01*
X15614845Y13832966D02*
X16111645D01*
X15106827Y16370966D02*
X16110833D01*
X15106872Y10628966D02*
X16110811D01*
X15023968Y14183966D02*
X16110462D01*
X13204519Y11897966D02*
X16110462D01*
X10889620Y15101966D02*
X16110379D01*
X12023976Y12815966D02*
X16110379D01*
X11949069Y12914966D02*
X16109235D01*
X14948912Y14084966D02*
X16109154D01*
X10891105Y10376966D02*
X16108894D01*
X10891126Y16622966D02*
X16108873D01*
X15546980Y13931966D02*
X16108045D01*
X10892032Y13067966D02*
X16107967D01*
X15112249Y16379966D02*
X16107963D01*
X15112285Y10619966D02*
X16107943D01*
X10893106Y14948966D02*
X16106893D01*
X11514562Y12662966D02*
X16106893D01*
X14732500Y14336966D02*
X16106817D01*
X13614982Y12050966D02*
X16106817D01*
X10893823Y10385966D02*
X16106176D01*
X10893842Y16613966D02*
X16106157D01*
X15542228Y13679966D02*
X16105775D01*
X13152500Y13319966D02*
X16105701D01*
X15116485Y16388966D02*
X16105320D01*
X15116512Y10610966D02*
X16105301D01*
X14978883Y14696966D02*
X16104690D01*
X13197509Y12410966D02*
X16104690D01*
X15613886Y14588966D02*
X16104618D01*
X13204942Y12302966D02*
X16104618D01*
X10896318Y10394966D02*
X16103681D01*
X10896336Y16604966D02*
X16103663D01*
X13534962Y13427966D02*
X16103636D01*
X15614995Y13571966D02*
X16103567D01*
X15119693Y16397966D02*
X16102898D01*
X15119713Y10601966D02*
X16102881D01*
X14732500Y14444966D02*
X16102612D01*
X13610218Y12158966D02*
X16102612D01*
X15614149Y14840966D02*
X16102545D01*
X10897454Y12554966D02*
X16102545D01*
X13152956Y13175966D02*
X16101617D01*
X15614960Y13823966D02*
X16101552D01*
X10898595Y10403966D02*
X16101404D01*
X10898611Y16595966D02*
X16101388D01*
X15121973Y16406966D02*
X16100694D01*
X15121986Y10592966D02*
X16100678D01*
X15024802Y14192966D02*
X16100650D01*
X13199899Y11906966D02*
X16100650D01*
X10899413Y15092966D02*
X16100586D01*
X12024806Y12806966D02*
X16100586D01*
X11916043Y12923966D02*
X16099709D01*
X14915519Y14075966D02*
X16099647D01*
X10900656Y10412966D02*
X16099343D01*
X10900671Y16586966D02*
X16099329D01*
X15515385Y13940966D02*
X16098793D01*
X10901266Y13058966D02*
X16098733D01*
X15123390Y16415966D02*
X16098703D01*
X15123397Y10583966D02*
X16098689D01*
X10902098Y14957966D02*
X16097902D01*
X11514995Y12671966D02*
X16097902D01*
X14732500Y14327966D02*
X16097843D01*
X13610712Y12041966D02*
X16097843D01*
X10902506Y10421966D02*
X16097493D01*
X10902519Y16577966D02*
X16097480D01*
X14370509Y13688966D02*
X16097034D01*
X13152500Y13310966D02*
X16096977D01*
X15123979Y16424966D02*
X16096923D01*
X15123981Y10574966D02*
X16096911D01*
X14966303Y14705966D02*
X16096189D01*
X13191267Y12419966D02*
X16096189D01*
X15614789Y14579966D02*
X16096134D01*
X13200426Y12293966D02*
X16096134D01*
X10904147Y10430966D02*
X16095852D01*
X10904158Y16568966D02*
X16095841D01*
X13534557Y13436966D02*
X16095366D01*
X15123757Y16433966D02*
X16095351D01*
X15123752Y10565966D02*
X16095341D01*
X15614562Y13562966D02*
X16095312D01*
X14732500Y14453966D02*
X16094565D01*
X13604907Y12167966D02*
X16094565D01*
X15614893Y14831966D02*
X16094512D01*
X10905487Y12545966D02*
X16094512D01*
X10905581Y10439966D02*
X16094418D01*
X10905591Y16559966D02*
X16094408D01*
X15122717Y16442966D02*
X16093985D01*
X15122706Y10556966D02*
X16093976D01*
X13162399Y13184966D02*
X16093784D01*
X15614369Y13814966D02*
X16093733D01*
X10906812Y10448966D02*
X16093187D01*
X10906820Y16550966D02*
X16093179D01*
X15024985Y14201966D02*
X16093024D01*
X13194199Y11915966D02*
X16093024D01*
X10907025Y15083966D02*
X16092974D01*
X12024984Y12797966D02*
X16092974D01*
X15120833Y16451966D02*
X16092822D01*
X15120816Y10547966D02*
X16092815D01*
X11514845Y12932966D02*
X16092283D01*
X14732500Y14066966D02*
X16092234D01*
X10907840Y10457966D02*
X16092159D01*
X10907847Y16541966D02*
X16092152D01*
X15118055Y16460966D02*
X16091861D01*
X15118031Y10538966D02*
X16091855D01*
X14715929Y13949966D02*
X16091561D01*
X10908486Y13049966D02*
X16091514D01*
X10908667Y10466966D02*
X16091332D01*
X10908673Y16532966D02*
X16091327D01*
X15114299Y16469966D02*
X16091100D01*
X15114267Y10529966D02*
X16091096D01*
X10909142Y14966966D02*
X16090858D01*
X11938160Y12680966D02*
X16090858D01*
X14938367Y14318966D02*
X16090811D01*
X13605506Y12032966D02*
X16090811D01*
X15048179Y10475966D02*
X16090704D01*
X15048445Y16523966D02*
X16090700D01*
X15109437Y16478966D02*
X16090539D01*
X15109396Y10520966D02*
X16090535D01*
X15071436Y10484966D02*
X16090275D01*
X15071560Y16514966D02*
X16090272D01*
X15103266Y16487966D02*
X16090176D01*
X15103215Y10511966D02*
X16090174D01*
X14385471Y13697966D02*
X16090172D01*
X13152500Y13301966D02*
X16090127D01*
X15085268Y10493966D02*
X16090043D01*
X15085354Y16505966D02*
X16090042D01*
X15095447Y16496966D02*
X16090010D01*
X15095382Y10502966D02*
X16090010D01*
X15525954Y14714966D02*
X16089504D01*
X13183602Y12428966D02*
X16089504D01*
X15614982Y14570966D02*
X16089460D01*
X13194846Y12284966D02*
X16089460D01*
X13532632Y13445966D02*
X16088854D01*
X15613414Y13553966D02*
X16088811D01*
X15533433Y14462966D02*
X16088220D01*
X13598495Y12176966D02*
X16088220D01*
X15614929Y14822966D02*
X16088178D01*
X10911821Y12536966D02*
X16088178D01*
X13168449Y13193966D02*
X16087603D01*
X15613060Y13805966D02*
X16087562D01*
X15024518Y14210966D02*
X16087001D01*
X13187207Y11924966D02*
X16087001D01*
X10913037Y15074966D02*
X16086962D01*
X12024512Y12788966D02*
X16086962D01*
X11514022Y12941966D02*
X16086416D01*
X14732500Y14057966D02*
X16086377D01*
X14724776Y13958966D02*
X16085845D01*
X11415385Y13040966D02*
X16085808D01*
X10914709Y14975966D02*
X16085290D01*
X11959311Y12689966D02*
X16085290D01*
X14959434Y14309966D02*
X16085254D01*
X13599217Y12023966D02*
X16085254D01*
X14393975Y13706966D02*
X16084750D01*
X13152500Y13292966D02*
X16084715D01*
X15551080Y14723966D02*
X16084224D01*
X13174074Y12437966D02*
X16084224D01*
X15614470Y14561966D02*
X16084190D01*
X13188001Y12275966D02*
X16084190D01*
X13529007Y13454966D02*
X16083713D01*
X15611531Y13544966D02*
X16083679D01*
X15554930Y14471966D02*
X16083216D01*
X13590746Y12185966D02*
X16083216D01*
X15614259Y14813966D02*
X16083183D01*
X10916816Y12527966D02*
X16083183D01*
X13172296Y13202966D02*
X16082732D01*
X15611009Y13796966D02*
X16082700D01*
X15023395Y14219966D02*
X16082262D01*
X13178579Y11933966D02*
X16082262D01*
X10917768Y15065966D02*
X16082231D01*
X12023384Y12779966D02*
X16082231D01*
X11512475Y12950966D02*
X16081805D01*
X14732500Y14048966D02*
X16081775D01*
X14730190Y13967966D02*
X16081362D01*
X11446980Y13031966D02*
X16081333D01*
X10919067Y14984966D02*
X16080932D01*
X11973603Y12698966D02*
X16080932D01*
X14973694Y14300966D02*
X16080903D01*
X13591621Y12014966D02*
X16080903D01*
X15529945Y13715966D02*
X16080514D01*
X13153120Y13283966D02*
X16080487D01*
X15566203Y14732966D02*
X16080109D01*
X13161827Y12446966D02*
X16080109D01*
X15613242Y14552966D02*
X16080083D01*
X13179565Y12266966D02*
X16080083D01*
X15536563Y13463966D02*
X16079717D01*
X15608874Y13535966D02*
X16079691D01*
X15568956Y14480966D02*
X16079336D01*
X13581280Y12194966D02*
X16079336D01*
X15612870Y14804966D02*
X16079312D01*
X10920688Y12518966D02*
X16079312D01*
X13174410Y13211966D02*
X16078968D01*
X15608173Y13787966D02*
X16078944D01*
X15021598Y14228966D02*
X16078613D01*
X13167692Y11942966D02*
X16078613D01*
X10921410Y15056966D02*
X16078589D01*
X12021582Y12770966D02*
X16078589D01*
X11510174Y12959966D02*
X16078268D01*
X14732500Y14039966D02*
X16078246D01*
X14732358Y13976966D02*
X16077936D01*
X11463368Y13022966D02*
X16077914D01*
X10922384Y14993966D02*
X16077616D01*
X11984587Y12707966D02*
X16077616D01*
X14984659Y14291966D02*
X16077595D01*
X13582358Y12005966D02*
X16077595D01*
X15553050Y13724966D02*
X16077306D01*
X13156368Y13274966D02*
X16077286D01*
X15577423Y14741966D02*
X16077009D01*
X13144678Y12455966D02*
X16077009D01*
X15611275Y14543966D02*
X16076989D01*
X13168956Y12257966D02*
X16076989D01*
X15556731Y13472966D02*
X16076722D01*
X15605385Y13526966D02*
X16076704D01*
X15579565Y14489966D02*
X16076447D01*
X13569397Y12203966D02*
X16076447D01*
X15610734Y14795966D02*
X16076429D01*
X10923570Y12509966D02*
X16076429D01*
X13174992Y13220966D02*
X16076183D01*
X15604488Y13778966D02*
X16076166D01*
X15019095Y14237966D02*
X16075930D01*
X13153178Y11951966D02*
X16075930D01*
X10924086Y15047966D02*
X16075913D01*
X12019073Y12761966D02*
X16075913D01*
X11507069Y12968966D02*
X16075688D01*
X14732500Y14030966D02*
X16075672D01*
X14732500Y13985966D02*
X16075457D01*
X11475245Y13013966D02*
X16075441D01*
X10924763Y15002966D02*
X16075236D01*
X11993437Y12716966D02*
X16075236D01*
X14993496Y14282966D02*
X16075222D01*
X13570776Y11996966D02*
X16075222D01*
X15567601Y13733966D02*
X16075026D01*
X13159615Y13265966D02*
X16075013D01*
X15586278Y14750966D02*
X16074827D01*
X13102790Y12464966D02*
X16074827D01*
X15608529Y14534966D02*
X16074814D01*
X13154930Y12248966D02*
X16074814D01*
X15570271Y13481966D02*
X16074638D01*
X15600977Y13517966D02*
X16074626D01*
X15588001Y14498966D02*
X16074460D01*
X13553513Y12212966D02*
X16074460D01*
X15607807Y14786966D02*
X16074449D01*
X10925550Y12500966D02*
X16074449D01*
X13174089Y13229966D02*
X16074293D01*
X15599861Y13769966D02*
X16074282D01*
X15015841Y14246966D02*
X16074135D01*
X13130191Y11960966D02*
X16074135D01*
X10925874Y15038966D02*
X16074125D01*
X12015814Y12752966D02*
X16074125D01*
X11503089Y12977966D02*
X16073989D01*
X14732500Y14021966D02*
X16073979D01*
X14732500Y13994966D02*
X16073852D01*
X11484535Y13004966D02*
X16073843D01*
X10926273Y15011966D02*
X16073726D01*
X12000718Y12725966D02*
X16073726D01*
X15000767Y14273966D02*
X16073718D01*
X13555440Y11987966D02*
X16073718D01*
X15578508Y13742966D02*
X16073610D01*
X13162863Y13256966D02*
X16073602D01*
X15593443Y14759966D02*
X16073504D01*
X10926495Y12473966D02*
X16073504D01*
X15604942Y14525966D02*
X16073497D01*
X13133433Y12239966D02*
X16073497D01*
X15580595Y13490966D02*
X16073408D01*
X15595524Y13508966D02*
X16073402D01*
X15594846Y14507966D02*
X16073322D01*
X13527372Y12221966D02*
X16073322D01*
X15604023Y14777966D02*
X16073317D01*
X10926682Y12491966D02*
X16073317D01*
X13171626Y13238966D02*
X16073247D01*
X15594152Y13760966D02*
X16073242D01*
X15011771Y14255966D02*
X16073181D01*
X10926818Y11969966D02*
X16073181D01*
X10926822Y15029966D02*
X16073177D01*
X12011738Y12743966D02*
X16073177D01*
X11498128Y12986966D02*
X16073126D01*
X14732500Y14012966D02*
X16073122D01*
X14732500Y14003966D02*
X16073080D01*
X11492025Y12995966D02*
X16073078D01*
X10926954Y15020966D02*
X16073045D01*
X12006751Y12734966D02*
X16073045D01*
X15006791Y14264966D02*
X16073043D01*
X13531242Y11978966D02*
X16073043D01*
X15587150Y13751966D02*
X16073020D01*
X13167359Y13247966D02*
X16073018D01*
X15599283Y14768966D02*
X16073004D01*
X10926995Y12482966D02*
X16073004D01*
X15600426Y14516966D02*
X16073004D01*
X10926995Y12230966D02*
X16073004D01*
X15588832Y13499966D02*
X16072999D01*
X14988808Y14687966D02*
X15497209D01*
X14706929Y13940966D02*
X15484614D01*
X10881208Y14939966D02*
X15478467D01*
X14949069Y14714966D02*
X15474045D01*
X14399471Y13715966D02*
X15470054D01*
X14732500Y14462966D02*
X15466566D01*
X13523258Y13463966D02*
X15463437D01*
X13022986Y13679966D02*
X15457771D01*
X14996898Y14678966D02*
X15455321D01*
X14697929Y13931966D02*
X15453020D01*
X10863672Y14930966D02*
X15450846D01*
X14916043Y14723966D02*
X15448919D01*
X14402906Y13724966D02*
X15446949D01*
X14735261Y14471966D02*
X15445069D01*
X13514335Y13472966D02*
X15443268D01*
X13036698Y13670966D02*
X15439770D01*
X15003584Y14669966D02*
X15438172D01*
X14688929Y13922966D02*
X15436631D01*
X10305000Y14921966D02*
X15435142D01*
X10919890Y14732966D02*
X15433796D01*
X14404668Y13733966D02*
X15432398D01*
X14938160Y14480966D02*
X15431043D01*
X13498014Y13481966D02*
X15429728D01*
X13044757Y13661966D02*
X15427129D01*
X15009124Y14660966D02*
X15425925D01*
X14679929Y13913966D02*
X15424754D01*
X10305000Y14912966D02*
X15423613D01*
X10922990Y14741966D02*
X15422576D01*
X14404920Y13742966D02*
X15421491D01*
X14959311Y14489966D02*
X15420435D01*
X13024996Y13490966D02*
X15419404D01*
X13049975Y13652966D02*
X15417353D01*
X15013686Y14651966D02*
X15416397D01*
X14670929Y13904966D02*
X15415464D01*
X10305000Y14903966D02*
X15414552D01*
X10925172Y14750966D02*
X15413721D01*
X14403682Y13751966D02*
X15412850D01*
X14973603Y14498966D02*
X15411998D01*
X13015996Y13499966D02*
X15411167D01*
X13053197Y13643966D02*
X15409507D01*
X15017384Y14642966D02*
X15408732D01*
X14661929Y13895966D02*
X15407974D01*
X10305000Y14894966D02*
X15407233D01*
X10926495Y14759966D02*
X15406556D01*
X14400847Y13760966D02*
X15405847D01*
X14984587Y14507966D02*
X15405153D01*
X13006996Y13508966D02*
X15404475D01*
X13054775Y13634966D02*
X15403122D01*
X15020297Y14633966D02*
X15402490D01*
X14652929Y13886966D02*
X15401871D01*
X10305000Y14885966D02*
X15401267D01*
X10926995Y14768966D02*
X15400716D01*
X14396120Y13769966D02*
X15400138D01*
X14993437Y14516966D02*
X15399573D01*
X13497821Y13517966D02*
X15399022D01*
X13054852Y13625966D02*
X15397923D01*
X15022481Y14624966D02*
X15397410D01*
X14643929Y13877966D02*
X15396910D01*
X10305000Y14876966D02*
X15396421D01*
X10926682Y14777966D02*
X15395976D01*
X14388815Y13778966D02*
X15395511D01*
X15000718Y14525966D02*
X15395057D01*
X13514251Y13526966D02*
X15394614D01*
X13508621Y13616966D02*
X15393735D01*
X15023976Y14615966D02*
X15393327D01*
X14634929Y13868966D02*
X15392930D01*
X10847065Y14867966D02*
X15392543D01*
X10925550Y14786966D02*
X15392192D01*
X14376912Y13787966D02*
X15391826D01*
X15006751Y14534966D02*
X15391470D01*
X13523206Y13535966D02*
X15391125D01*
X13519794Y13607966D02*
X15390444D01*
X15024806Y14606966D02*
X15390130D01*
X14625929Y13859966D02*
X15389825D01*
X10872662Y14858966D02*
X15389531D01*
X10923570Y14795966D02*
X15389265D01*
X13588996Y13796966D02*
X15388990D01*
X15011738Y14543966D02*
X15388724D01*
X13528973Y13544966D02*
X15388468D01*
X13526754Y13598966D02*
X15387969D01*
X15024984Y14597966D02*
X15387742D01*
X14614606Y13850966D02*
X15387524D01*
X10887045Y14849966D02*
X15387316D01*
X10920688Y14804966D02*
X15387129D01*
X13579996Y13805966D02*
X15386939D01*
X15015814Y14552966D02*
X15386757D01*
X13532611Y13553966D02*
X15386585D01*
X13531248Y13589966D02*
X15386257D01*
X15024512Y14588966D02*
X15386113D01*
X14270351Y13841966D02*
X15385977D01*
X10897454Y14840966D02*
X15385850D01*
X10916816Y14813966D02*
X15385740D01*
X13570996Y13814966D02*
X15385630D01*
X15019073Y14561966D02*
X15385530D01*
X13534549Y13562966D02*
X15385438D01*
X13533896Y13580966D02*
X15385275D01*
X15023384Y14579966D02*
X15385210D01*
X14248511Y13832966D02*
X15385154D01*
X10905487Y14831966D02*
X15385106D01*
X10911821Y14822966D02*
X15385070D01*
X13561996Y13823966D02*
X15385039D01*
X15021582Y14570966D02*
X15385017D01*
X13534965Y13571966D02*
X15385004D01*
X14783874Y16073966D02*
X15010125D01*
X14783874Y10727966D02*
X15010125D01*
X14784342Y16271966D02*
X15009657D01*
X14784342Y10925966D02*
X15009657D01*
X14794179Y10475966D02*
X14999820D01*
X14794445Y16523966D02*
X14999554D01*
X14809114Y16334966D02*
X14984885D01*
X14809271Y10664966D02*
X14984728D01*
X14813521Y16082966D02*
X14980478D01*
X14813521Y10736966D02*
X14980478D01*
X14813659Y16262966D02*
X14980341D01*
X14813659Y10916966D02*
X14980341D01*
X14817436Y10484966D02*
X14976563D01*
X14817560Y16514966D02*
X14976439D01*
X14825727Y16343966D02*
X14968272D01*
X14825826Y10655966D02*
X14968173D01*
X14828597Y16091966D02*
X14965402D01*
X14828597Y10745966D02*
X14965402D01*
X14828689Y16253966D02*
X14965310D01*
X14828689Y10907966D02*
X14965310D01*
X14831268Y10493966D02*
X14962731D01*
X14831354Y16505966D02*
X14962645D01*
X14837224Y16352966D02*
X14956775D01*
X14837298Y10646966D02*
X14956701D01*
X14839363Y16100966D02*
X14954636D01*
X14839363Y10754966D02*
X14954636D01*
X14839432Y16244966D02*
X14954567D01*
X14839432Y10898966D02*
X14954567D01*
X14841382Y10502966D02*
X14952617D01*
X14841447Y16496966D02*
X14952552D01*
X14845965Y16361966D02*
X14948034D01*
X14846022Y10637966D02*
X14947977D01*
X14847633Y16109966D02*
X14946366D01*
X14847633Y10763966D02*
X14946366D01*
X14847687Y16235966D02*
X14946312D01*
X14847687Y10889966D02*
X14946312D01*
X14849215Y10511966D02*
X14944784D01*
X14849266Y16487966D02*
X14944733D01*
X14852827Y16370966D02*
X14941172D01*
X14852872Y10628966D02*
X14941127D01*
X14854145Y16118966D02*
X14939854D01*
X14854145Y10772966D02*
X14939854D01*
X14854188Y16226966D02*
X14939811D01*
X14854188Y10880966D02*
X14939811D01*
X14855396Y10520966D02*
X14938603D01*
X14855437Y16478966D02*
X14938562D01*
X14858249Y16379966D02*
X14935750D01*
X14858285Y10619966D02*
X14935715D01*
X14859286Y16127966D02*
X14934713D01*
X14859286Y10781966D02*
X14934713D01*
X14859320Y16217966D02*
X14934679D01*
X14859320Y10871966D02*
X14934679D01*
X14860267Y10529966D02*
X14933732D01*
X14860299Y16469966D02*
X14933700D01*
X14862485Y16388966D02*
X14931514D01*
X14862512Y10610966D02*
X14931487D01*
X14863282Y16136966D02*
X14930717D01*
X14863282Y10790966D02*
X14930717D01*
X14863308Y16208966D02*
X14930691D01*
X14863308Y10862966D02*
X14930691D01*
X14864031Y10538966D02*
X14929968D01*
X14864055Y16460966D02*
X14929944D01*
X14865693Y16397966D02*
X14928306D01*
X14865713Y10601966D02*
X14928286D01*
X14866277Y16145966D02*
X14927722D01*
X14866277Y10799966D02*
X14927722D01*
X14866295Y16199966D02*
X14927704D01*
X14866295Y10853966D02*
X14927704D01*
X14866816Y10547966D02*
X14927183D01*
X14866833Y16451966D02*
X14927166D01*
X14867973Y16406966D02*
X14926026D01*
X14867986Y10592966D02*
X14926013D01*
X14868361Y16154966D02*
X14925638D01*
X14868361Y10808966D02*
X14925638D01*
X14868373Y16190966D02*
X14925626D01*
X14868373Y10844966D02*
X14925626D01*
X14868706Y10556966D02*
X14925293D01*
X14868717Y16442966D02*
X14925282D01*
X14869390Y16415966D02*
X14924610D01*
X14869397Y10583966D02*
X14924602D01*
X14869591Y16163966D02*
X14924408D01*
X14869591Y10817966D02*
X14924408D01*
X14869597Y16181966D02*
X14924402D01*
X14869597Y10835966D02*
X14924402D01*
X14869752Y10565966D02*
X14924247D01*
X14869757Y16433966D02*
X14924242D01*
X14869979Y16424966D02*
X14924020D01*
X14869981Y10574966D02*
X14924018D01*
X14870000Y16172966D02*
X14923999D01*
X14870000Y10826966D02*
X14923999D01*
X14732500Y14075966D02*
X14884480D01*
X10915775Y14723966D02*
X14883956D01*
X14738509Y14480966D02*
X14861839D01*
X14732500Y14318966D02*
X14861632D01*
X14732500Y14084966D02*
X14851087D01*
X10910495Y14714966D02*
X14850930D01*
X14741756Y14489966D02*
X14840688D01*
X14732500Y14309966D02*
X14840565D01*
X14732500Y14093966D02*
X14833802D01*
X10903810Y14705966D02*
X14833696D01*
X14745409Y14498966D02*
X14826397D01*
X14732500Y14300966D02*
X14826305D01*
X14732500Y14102966D02*
X14821198D01*
X10895309Y14696966D02*
X14821116D01*
X14750394Y14507966D02*
X14815412D01*
X14732500Y14291966D02*
X14815340D01*
X14732500Y14111966D02*
X14811257D01*
X10884189Y14687966D02*
X14811191D01*
X14753434Y14516966D02*
X14806562D01*
X14732500Y14282966D02*
X14806503D01*
X14732500Y14120966D02*
X14803155D01*
X10868388Y14678966D02*
X14803101D01*
X14754852Y14525966D02*
X14799281D01*
X14732500Y14273966D02*
X14799232D01*
X14732500Y14129966D02*
X14796460D01*
X10305000Y14669966D02*
X14796415D01*
X14754775Y14534966D02*
X14793248D01*
X14732500Y14264966D02*
X14793208D01*
X14732500Y14138966D02*
X14790912D01*
X10305000Y14660966D02*
X14790875D01*
X14753197Y14543966D02*
X14788261D01*
X14732500Y14255966D02*
X14788228D01*
X14732500Y14147966D02*
X14786344D01*
X10305000Y14651966D02*
X14786313D01*
X14749975Y14552966D02*
X14784185D01*
X14732500Y14246966D02*
X14784158D01*
X14732500Y14156966D02*
X14782640D01*
X10305000Y14642966D02*
X14782616D01*
X14744757Y14561966D02*
X14780926D01*
X14732500Y14237966D02*
X14780904D01*
X14732500Y14165966D02*
X14779721D01*
X10305000Y14633966D02*
X14779702D01*
X14736698Y14570966D02*
X14778417D01*
X14732500Y14228966D02*
X14778402D01*
X14732500Y14174966D02*
X14777531D01*
X10305000Y14624966D02*
X14777518D01*
X14722986Y14579966D02*
X14776615D01*
X14732500Y14219966D02*
X14776604D01*
X14732500Y14183966D02*
X14776032D01*
X10829602Y14615966D02*
X14776023D01*
X10895381Y14588966D02*
X14775487D01*
X14732500Y14210966D02*
X14775481D01*
X14732500Y14192966D02*
X14775197D01*
X10868535Y14606966D02*
X14775193D01*
X10884285Y14597966D02*
X14775016D01*
X14732500Y14201966D02*
X14775014D01*
X14529874Y16073966D02*
X14756125D01*
X14529874Y10727966D02*
X14756125D01*
X14530342Y16271966D02*
X14755657D01*
X14530342Y10925966D02*
X14755657D01*
X14540179Y10475966D02*
X14745820D01*
X14540445Y16523966D02*
X14745554D01*
X14555114Y16334966D02*
X14730885D01*
X14555271Y10664966D02*
X14730728D01*
X14559521Y16082966D02*
X14726478D01*
X14559521Y10736966D02*
X14726478D01*
X14559659Y16262966D02*
X14726341D01*
X14559659Y10916966D02*
X14726341D01*
X14563436Y10484966D02*
X14722563D01*
X14563560Y16514966D02*
X14722439D01*
X14571727Y16343966D02*
X14714272D01*
X14571826Y10655966D02*
X14714173D01*
X14574597Y16091966D02*
X14711402D01*
X14574597Y10745966D02*
X14711402D01*
X14574689Y16253966D02*
X14711310D01*
X14574689Y10907966D02*
X14711310D01*
X14577268Y10493966D02*
X14708731D01*
X14577354Y16505966D02*
X14708645D01*
X14583224Y16352966D02*
X14702775D01*
X14583298Y10646966D02*
X14702701D01*
X14585363Y16100966D02*
X14700636D01*
X14585363Y10754966D02*
X14700636D01*
X14585432Y16244966D02*
X14700567D01*
X14585432Y10898966D02*
X14700567D01*
X14587382Y10502966D02*
X14698617D01*
X14587447Y16496966D02*
X14698552D01*
X14591965Y16361966D02*
X14694034D01*
X14592022Y10637966D02*
X14693977D01*
X14593633Y16109966D02*
X14692366D01*
X14593633Y10763966D02*
X14692366D01*
X14593687Y16235966D02*
X14692312D01*
X14593687Y10889966D02*
X14692312D01*
X14595215Y10511966D02*
X14690784D01*
X14595266Y16487966D02*
X14690733D01*
X14598827Y16370966D02*
X14687172D01*
X14598872Y10628966D02*
X14687127D01*
X14600145Y16118966D02*
X14685854D01*
X14600145Y10772966D02*
X14685854D01*
X14600188Y16226966D02*
X14685811D01*
X14600188Y10880966D02*
X14685811D01*
X14601396Y10520966D02*
X14684603D01*
X14601437Y16478966D02*
X14684562D01*
X14604249Y16379966D02*
X14681750D01*
X14604285Y10619966D02*
X14681715D01*
X14605286Y16127966D02*
X14680713D01*
X14605286Y10781966D02*
X14680713D01*
X14605320Y16217966D02*
X14680679D01*
X14605320Y10871966D02*
X14680679D01*
X14606267Y10529966D02*
X14679732D01*
X14606299Y16469966D02*
X14679700D01*
X14608485Y16388966D02*
X14677514D01*
X14608512Y10610966D02*
X14677487D01*
X10903865Y14579966D02*
X14677013D01*
X14609282Y16136966D02*
X14676717D01*
X14609282Y10790966D02*
X14676717D01*
X14609308Y16208966D02*
X14676691D01*
X14609308Y10862966D02*
X14676691D01*
X14610031Y10538966D02*
X14675968D01*
X14610055Y16460966D02*
X14675944D01*
X14611693Y16397966D02*
X14674306D01*
X14611713Y10601966D02*
X14674286D01*
X14612277Y16145966D02*
X14673722D01*
X14612277Y10799966D02*
X14673722D01*
X14612295Y16199966D02*
X14673704D01*
X14612295Y10853966D02*
X14673704D01*
X14612816Y10547966D02*
X14673183D01*
X14612833Y16451966D02*
X14673166D01*
X14613973Y16406966D02*
X14672026D01*
X14613986Y10592966D02*
X14672013D01*
X14614361Y16154966D02*
X14671638D01*
X14614361Y10808966D02*
X14671638D01*
X14614373Y16190966D02*
X14671626D01*
X14614373Y10844966D02*
X14671626D01*
X14614706Y10556966D02*
X14671293D01*
X14614717Y16442966D02*
X14671282D01*
X14615390Y16415966D02*
X14670610D01*
X14615397Y10583966D02*
X14670602D01*
X14615591Y16163966D02*
X14670408D01*
X14615591Y10817966D02*
X14670408D01*
X14615597Y16181966D02*
X14670402D01*
X14615597Y10835966D02*
X14670402D01*
X14615752Y10565966D02*
X14670247D01*
X14615757Y16433966D02*
X14670242D01*
X14615979Y16424966D02*
X14670020D01*
X14615981Y10574966D02*
X14670018D01*
X14616000Y16172966D02*
X14669999D01*
X14616000Y10826966D02*
X14669999D01*
X10911779Y14462966D02*
X14667499D01*
X10905434Y14453966D02*
X14667499D01*
X10897387Y14444966D02*
X14667499D01*
X10886956Y14435966D02*
X14667499D01*
X10872532Y14426966D02*
X14667499D01*
X10846737Y14417966D02*
X14667499D01*
X10305000Y14408966D02*
X14667499D01*
X10305000Y14399966D02*
X14667499D01*
X10305000Y14390966D02*
X14667499D01*
X10305000Y14381966D02*
X14667499D01*
X10305000Y14372966D02*
X14667499D01*
X10305000Y14363966D02*
X14667499D01*
X10863841Y14354966D02*
X14667499D01*
X10881311Y14345966D02*
X14667499D01*
X10893182Y14336966D02*
X14667499D01*
X10902156Y14327966D02*
X14667499D01*
X10909188Y14318966D02*
X14667499D01*
X10914745Y14309966D02*
X14667499D01*
X10919096Y14300966D02*
X14667499D01*
X10922404Y14291966D02*
X14667499D01*
X10924777Y14282966D02*
X14667499D01*
X10926281Y14273966D02*
X14667499D01*
X10926956Y14264966D02*
X14667499D01*
X10926818Y14255966D02*
X14667499D01*
X10925864Y14246966D02*
X14667499D01*
X10924069Y14237966D02*
X14667499D01*
X10921387Y14228966D02*
X14667499D01*
X10917737Y14219966D02*
X14667499D01*
X10912998Y14210966D02*
X14667499D01*
X10906975Y14201966D02*
X14667499D01*
X14514818Y14192966D02*
X14667499D01*
X14533045Y14183966D02*
X14667499D01*
X14542454Y14174966D02*
X14667499D01*
X14548484Y14165966D02*
X14667499D01*
X14552318Y14156966D02*
X14667499D01*
X14554420Y14147966D02*
X14667499D01*
X14554990Y14138966D02*
X14667499D01*
X14554077Y14129966D02*
X14667499D01*
X14551602Y14120966D02*
X14667499D01*
X14547320Y14111966D02*
X14667499D01*
X14540664Y14102966D02*
X14667499D01*
X14530099Y14093966D02*
X14667499D01*
X10890845Y14084966D02*
X14667499D01*
X10900352Y14075966D02*
X14667499D01*
X10907765Y14066966D02*
X14667499D01*
X10913622Y14057966D02*
X14667499D01*
X14525046Y14048966D02*
X14667499D01*
X14537785Y14039966D02*
X14667499D01*
X14545454Y14030966D02*
X14667499D01*
X14550423Y14021966D02*
X14667499D01*
X14553450Y14012966D02*
X14667499D01*
X14554857Y14003966D02*
X14667499D01*
X14554769Y13994966D02*
X14667467D01*
X10916784Y14471966D02*
X14664738D01*
X10910539Y14570966D02*
X14663301D01*
X10920663Y14480966D02*
X14661490D01*
X14553180Y13985966D02*
X14660004D01*
X10923552Y14489966D02*
X14658243D01*
X10915809Y14561966D02*
X14655243D01*
X10925539Y14498966D02*
X14654590D01*
X14549945Y13976966D02*
X14651004D01*
X10919917Y14552966D02*
X14650024D01*
X10926677Y14507966D02*
X14649605D01*
X10923010Y14543966D02*
X14646802D01*
X10926995Y14516966D02*
X14646566D01*
X10925185Y14534966D02*
X14645224D01*
X10926502Y14525966D02*
X14645147D01*
X14544709Y13967966D02*
X14642004D01*
X14536624Y13958966D02*
X14633004D01*
X14522841Y13949966D02*
X14624004D01*
X13118096Y13940966D02*
X14615004D01*
X14238014Y13931966D02*
X14606004D01*
X14256680Y13922966D02*
X14597004D01*
X14281621Y13913966D02*
X14588004D01*
X14275874Y16073966D02*
X14502125D01*
X14275874Y10727966D02*
X14502125D01*
X14276342Y16271966D02*
X14501657D01*
X14276342Y10925966D02*
X14501657D01*
X14286179Y10475966D02*
X14491820D01*
X14286445Y16523966D02*
X14491554D01*
X14364818Y14192966D02*
X14485181D01*
X14372841Y13949966D02*
X14477158D01*
X14301114Y16334966D02*
X14476885D01*
X14301271Y10664966D02*
X14476728D01*
X14375046Y14048966D02*
X14474953D01*
X14305521Y16082966D02*
X14472478D01*
X14305521Y10736966D02*
X14472478D01*
X14305659Y16262966D02*
X14472341D01*
X14305659Y10916966D02*
X14472341D01*
X14380099Y14093966D02*
X14469900D01*
X14309436Y10484966D02*
X14468563D01*
X14309560Y16514966D02*
X14468439D01*
X14383045Y14183966D02*
X14466954D01*
X14386624Y13958966D02*
X14463375D01*
X14387785Y14039966D02*
X14462214D01*
X14317727Y16343966D02*
X14460272D01*
X14317826Y10655966D02*
X14460173D01*
X14390664Y14102966D02*
X14459335D01*
X14392454Y14174966D02*
X14457545D01*
X14320597Y16091966D02*
X14457402D01*
X14320597Y10745966D02*
X14457402D01*
X14320689Y16253966D02*
X14457310D01*
X14320689Y10907966D02*
X14457310D01*
X14394709Y13967966D02*
X14455290D01*
X14323268Y10493966D02*
X14454731D01*
X14323354Y16505966D02*
X14454645D01*
X14395454Y14030966D02*
X14454545D01*
X14397320Y14111966D02*
X14452679D01*
X14398484Y14165966D02*
X14451515D01*
X14399945Y13976966D02*
X14450054D01*
X14400423Y14021966D02*
X14449576D01*
X14329224Y16352966D02*
X14448775D01*
X14329298Y10646966D02*
X14448701D01*
X14401602Y14120966D02*
X14448397D01*
X14402318Y14156966D02*
X14447681D01*
X14403180Y13985966D02*
X14446819D01*
X14331363Y16100966D02*
X14446636D01*
X14331363Y10754966D02*
X14446636D01*
X14331432Y16244966D02*
X14446567D01*
X14331432Y10898966D02*
X14446567D01*
X14403450Y14012966D02*
X14446549D01*
X14404077Y14129966D02*
X14445922D01*
X14404420Y14147966D02*
X14445579D01*
X14404769Y13994966D02*
X14445230D01*
X14404857Y14003966D02*
X14445142D01*
X14404990Y14138966D02*
X14445009D01*
X14333382Y10502966D02*
X14444617D01*
X14333447Y16496966D02*
X14444552D01*
X14337965Y16361966D02*
X14440034D01*
X14338022Y10637966D02*
X14439977D01*
X14339633Y16109966D02*
X14438366D01*
X14339633Y10763966D02*
X14438366D01*
X14339687Y16235966D02*
X14438312D01*
X14339687Y10889966D02*
X14438312D01*
X14341215Y10511966D02*
X14436784D01*
X14341266Y16487966D02*
X14436733D01*
X14344827Y16370966D02*
X14433172D01*
X14344872Y10628966D02*
X14433127D01*
X14346145Y16118966D02*
X14431854D01*
X14346145Y10772966D02*
X14431854D01*
X14346188Y16226966D02*
X14431811D01*
X14346188Y10880966D02*
X14431811D01*
X14347396Y10520966D02*
X14430603D01*
X14347437Y16478966D02*
X14430562D01*
X14350249Y16379966D02*
X14427750D01*
X14350285Y10619966D02*
X14427715D01*
X14351286Y16127966D02*
X14426713D01*
X14351286Y10781966D02*
X14426713D01*
X14351320Y16217966D02*
X14426679D01*
X14351320Y10871966D02*
X14426679D01*
X14352267Y10529966D02*
X14425732D01*
X14352299Y16469966D02*
X14425700D01*
X14354485Y16388966D02*
X14423514D01*
X14354512Y10610966D02*
X14423487D01*
X14355282Y16136966D02*
X14422717D01*
X14355282Y10790966D02*
X14422717D01*
X14355308Y16208966D02*
X14422691D01*
X14355308Y10862966D02*
X14422691D01*
X14356031Y10538966D02*
X14421968D01*
X14356055Y16460966D02*
X14421944D01*
X14357693Y16397966D02*
X14420306D01*
X14357713Y10601966D02*
X14420286D01*
X14358277Y16145966D02*
X14419722D01*
X14358277Y10799966D02*
X14419722D01*
X14358295Y16199966D02*
X14419704D01*
X14358295Y10853966D02*
X14419704D01*
X14358816Y10547966D02*
X14419183D01*
X14358833Y16451966D02*
X14419166D01*
X14359973Y16406966D02*
X14418026D01*
X14359986Y10592966D02*
X14418013D01*
X14360361Y16154966D02*
X14417638D01*
X14360361Y10808966D02*
X14417638D01*
X14360373Y16190966D02*
X14417626D01*
X14360373Y10844966D02*
X14417626D01*
X14360706Y10556966D02*
X14417293D01*
X14360717Y16442966D02*
X14417282D01*
X14361390Y16415966D02*
X14416610D01*
X14361397Y10583966D02*
X14416602D01*
X14361591Y16163966D02*
X14416408D01*
X14361591Y10817966D02*
X14416408D01*
X14361597Y16181966D02*
X14416402D01*
X14361597Y10835966D02*
X14416402D01*
X14361752Y10565966D02*
X14416247D01*
X14361757Y16433966D02*
X14416242D01*
X14361979Y16424966D02*
X14416020D01*
X14361981Y10574966D02*
X14416018D01*
X14362000Y16172966D02*
X14415999D01*
X14362000Y10826966D02*
X14415999D01*
X14214818Y14192966D02*
X14335181D01*
X12826996Y13688966D02*
X14329490D01*
X14222841Y13949966D02*
X14327158D01*
X14225046Y14048966D02*
X14324953D01*
X13597996Y13787966D02*
X14323087D01*
X14230099Y14093966D02*
X14319900D01*
X14233045Y14183966D02*
X14316954D01*
X14236624Y13958966D02*
X14313375D01*
X14237785Y14039966D02*
X14312214D01*
X12817996Y13697966D02*
X14310733D01*
X14240664Y14102966D02*
X14309335D01*
X14242454Y14174966D02*
X14307545D01*
X14244709Y13967966D02*
X14305290D01*
X14245454Y14030966D02*
X14304545D01*
X14247320Y14111966D02*
X14302679D01*
X13606996Y13778966D02*
X14302234D01*
X14248484Y14165966D02*
X14301515D01*
X14249945Y13976966D02*
X14300054D01*
X14250423Y14021966D02*
X14299576D01*
X14251602Y14120966D02*
X14298397D01*
X14252318Y14156966D02*
X14297681D01*
X14253180Y13985966D02*
X14296819D01*
X14253450Y14012966D02*
X14296549D01*
X14254077Y14129966D02*
X14295922D01*
X14254420Y14147966D02*
X14295579D01*
X14254769Y13994966D02*
X14295230D01*
X14254857Y14003966D02*
X14295142D01*
X14254990Y14138966D02*
X14295009D01*
X12808996Y13706966D02*
X14285792D01*
X14021874Y16073966D02*
X14248125D01*
X14021874Y10727966D02*
X14248125D01*
X14022342Y16271966D02*
X14247657D01*
X14022342Y10925966D02*
X14247657D01*
X14032179Y10475966D02*
X14237820D01*
X14032445Y16523966D02*
X14237554D01*
X14047114Y16334966D02*
X14222885D01*
X14047271Y10664966D02*
X14222728D01*
X14051521Y16082966D02*
X14218478D01*
X14051521Y10736966D02*
X14218478D01*
X14051659Y16262966D02*
X14218341D01*
X14051659Y10916966D02*
X14218341D01*
X14055436Y10484966D02*
X14214563D01*
X14055560Y16514966D02*
X14214439D01*
X14063727Y16343966D02*
X14206272D01*
X14063826Y10655966D02*
X14206173D01*
X14066597Y16091966D02*
X14203402D01*
X14066597Y10745966D02*
X14203402D01*
X14066689Y16253966D02*
X14203310D01*
X14066689Y10907966D02*
X14203310D01*
X13478014Y13931966D02*
X14201985D01*
X14069268Y10493966D02*
X14200731D01*
X14069354Y16505966D02*
X14200645D01*
X14075224Y16352966D02*
X14194775D01*
X14075298Y10646966D02*
X14194701D01*
X14077363Y16100966D02*
X14192636D01*
X14077363Y10754966D02*
X14192636D01*
X14077432Y16244966D02*
X14192567D01*
X14077432Y10898966D02*
X14192567D01*
X13552996Y13832966D02*
X14191488D01*
X14079382Y10502966D02*
X14190617D01*
X14079447Y16496966D02*
X14190552D01*
X14083965Y16361966D02*
X14186034D01*
X14084022Y10637966D02*
X14185977D01*
X13494335Y13922966D02*
X14185664D01*
X14064818Y14192966D02*
X14185181D01*
X14085633Y16109966D02*
X14184366D01*
X14085633Y10763966D02*
X14184366D01*
X14085687Y16235966D02*
X14184312D01*
X14085687Y10889966D02*
X14184312D01*
X14087215Y10511966D02*
X14182784D01*
X14087266Y16487966D02*
X14182733D01*
X13543996Y13841966D02*
X14180269D01*
X14090827Y16370966D02*
X14179172D01*
X14090872Y10628966D02*
X14179127D01*
X14092145Y16118966D02*
X14177854D01*
X14092145Y10772966D02*
X14177854D01*
X14092188Y16226966D02*
X14177811D01*
X14092188Y10880966D02*
X14177811D01*
X14082841Y13949966D02*
X14177158D01*
X13503258Y13913966D02*
X14176741D01*
X14093396Y10520966D02*
X14176603D01*
X14093437Y16478966D02*
X14176562D01*
X14085046Y14048966D02*
X14174953D01*
X14096249Y16379966D02*
X14173750D01*
X14096285Y10619966D02*
X14173715D01*
X13534996Y13850966D02*
X14173286D01*
X14097286Y16127966D02*
X14172713D01*
X14097286Y10781966D02*
X14172713D01*
X14097320Y16217966D02*
X14172679D01*
X14097320Y10871966D02*
X14172679D01*
X14098267Y10529966D02*
X14171732D01*
X14098299Y16469966D02*
X14171700D01*
X13509007Y13904966D02*
X14170992D01*
X14080099Y14093966D02*
X14169900D01*
X14100485Y16388966D02*
X14169514D01*
X14100512Y10610966D02*
X14169487D01*
X13527815Y13859966D02*
X14168777D01*
X14101282Y16136966D02*
X14168717D01*
X14101282Y10790966D02*
X14168717D01*
X14101308Y16208966D02*
X14168691D01*
X14101308Y10862966D02*
X14168691D01*
X14102031Y10538966D02*
X14167968D01*
X14102055Y16460966D02*
X14167944D01*
X13512632Y13895966D02*
X14167368D01*
X14083045Y14183966D02*
X14166954D01*
X14103693Y16397966D02*
X14166306D01*
X14103713Y10601966D02*
X14166286D01*
X13523588Y13868966D02*
X14166117D01*
X14104277Y16145966D02*
X14165722D01*
X14104277Y10799966D02*
X14165722D01*
X14104295Y16199966D02*
X14165704D01*
X14104295Y10853966D02*
X14165704D01*
X13515134Y13886966D02*
X14165442D01*
X14104816Y10547966D02*
X14165183D01*
X14104833Y16451966D02*
X14165166D01*
X13519361Y13877966D02*
X14165037D01*
X14105973Y16406966D02*
X14164026D01*
X14105986Y10592966D02*
X14164013D01*
X14106361Y16154966D02*
X14163638D01*
X14106361Y10808966D02*
X14163638D01*
X14106373Y16190966D02*
X14163626D01*
X14106373Y10844966D02*
X14163626D01*
X14096624Y13958966D02*
X14163375D01*
X14106706Y10556966D02*
X14163293D01*
X14106717Y16442966D02*
X14163282D01*
X14107390Y16415966D02*
X14162610D01*
X14107397Y10583966D02*
X14162602D01*
X14107591Y16163966D02*
X14162408D01*
X14107591Y10817966D02*
X14162408D01*
X14107597Y16181966D02*
X14162402D01*
X14107597Y10835966D02*
X14162402D01*
X14107752Y10565966D02*
X14162247D01*
X14107757Y16433966D02*
X14162242D01*
X14097785Y14039966D02*
X14162214D01*
X14107979Y16424966D02*
X14162020D01*
X14107981Y10574966D02*
X14162018D01*
X14108000Y16172966D02*
X14161999D01*
X14108000Y10826966D02*
X14161999D01*
X14090664Y14102966D02*
X14159335D01*
X14092454Y14174966D02*
X14157545D01*
X14104709Y13967966D02*
X14155290D01*
X14105454Y14030966D02*
X14154545D01*
X14097320Y14111966D02*
X14152679D01*
X14098484Y14165966D02*
X14151515D01*
X14109945Y13976966D02*
X14150054D01*
X14110423Y14021966D02*
X14149576D01*
X14101602Y14120966D02*
X14148397D01*
X14102318Y14156966D02*
X14147681D01*
X14113180Y13985966D02*
X14146819D01*
X14113450Y14012966D02*
X14146549D01*
X14104077Y14129966D02*
X14145922D01*
X14104420Y14147966D02*
X14145579D01*
X14114769Y13994966D02*
X14145230D01*
X14114857Y14003966D02*
X14145142D01*
X14104990Y14138966D02*
X14145009D01*
X13922841Y13949966D02*
X14037158D01*
X13914818Y14192966D02*
X14035181D01*
X13925046Y14048966D02*
X14034953D01*
X13936624Y13958966D02*
X14023375D01*
X13937785Y14039966D02*
X14022214D01*
X13930099Y14093966D02*
X14019900D01*
X13933045Y14183966D02*
X14016954D01*
X13944709Y13967966D02*
X14015290D01*
X13945454Y14030966D02*
X14014545D01*
X13949945Y13976966D02*
X14010054D01*
X13950423Y14021966D02*
X14009576D01*
X13940664Y14102966D02*
X14009335D01*
X13942454Y14174966D02*
X14007545D01*
X13953180Y13985966D02*
X14006819D01*
X13953450Y14012966D02*
X14006549D01*
X13954769Y13994966D02*
X14005230D01*
X13954857Y14003966D02*
X14005142D01*
X13947320Y14111966D02*
X14002679D01*
X13948484Y14165966D02*
X14001515D01*
X13951602Y14120966D02*
X13998397D01*
X13952318Y14156966D02*
X13997681D01*
X13954077Y14129966D02*
X13995922D01*
X13954420Y14147966D02*
X13995579D01*
X13954990Y14138966D02*
X13995009D01*
X13767874Y16073966D02*
X13994125D01*
X13767874Y10727966D02*
X13994125D01*
X13768342Y16271966D02*
X13993657D01*
X13768342Y10925966D02*
X13993657D01*
X13778179Y10475966D02*
X13983820D01*
X13778445Y16523966D02*
X13983554D01*
X13793114Y16334966D02*
X13968885D01*
X13793271Y10664966D02*
X13968728D01*
X13797521Y16082966D02*
X13964478D01*
X13797521Y10736966D02*
X13964478D01*
X13797659Y16262966D02*
X13964341D01*
X13797659Y10916966D02*
X13964341D01*
X13801436Y10484966D02*
X13960563D01*
X13801560Y16514966D02*
X13960439D01*
X13809727Y16343966D02*
X13952272D01*
X13809826Y10655966D02*
X13952173D01*
X13812597Y16091966D02*
X13949402D01*
X13812597Y10745966D02*
X13949402D01*
X13812689Y16253966D02*
X13949310D01*
X13812689Y10907966D02*
X13949310D01*
X13815268Y10493966D02*
X13946731D01*
X13815354Y16505966D02*
X13946645D01*
X13821224Y16352966D02*
X13940775D01*
X13821298Y10646966D02*
X13940701D01*
X13823363Y16100966D02*
X13938636D01*
X13823363Y10754966D02*
X13938636D01*
X13823432Y16244966D02*
X13938567D01*
X13823432Y10898966D02*
X13938567D01*
X13825382Y10502966D02*
X13936617D01*
X13825447Y16496966D02*
X13936552D01*
X13829965Y16361966D02*
X13932034D01*
X13830022Y10637966D02*
X13931977D01*
X13831633Y16109966D02*
X13930366D01*
X13831633Y10763966D02*
X13930366D01*
X13831687Y16235966D02*
X13930312D01*
X13831687Y10889966D02*
X13930312D01*
X13833215Y10511966D02*
X13928784D01*
X13833266Y16487966D02*
X13928733D01*
X13836827Y16370966D02*
X13925172D01*
X13836872Y10628966D02*
X13925127D01*
X13838145Y16118966D02*
X13923854D01*
X13838145Y10772966D02*
X13923854D01*
X13838188Y16226966D02*
X13923811D01*
X13838188Y10880966D02*
X13923811D01*
X13839396Y10520966D02*
X13922603D01*
X13839437Y16478966D02*
X13922562D01*
X13842249Y16379966D02*
X13919750D01*
X13842285Y10619966D02*
X13919715D01*
X13843286Y16127966D02*
X13918713D01*
X13843286Y10781966D02*
X13918713D01*
X13843320Y16217966D02*
X13918679D01*
X13843320Y10871966D02*
X13918679D01*
X13844267Y10529966D02*
X13917732D01*
X13844299Y16469966D02*
X13917700D01*
X13846485Y16388966D02*
X13915514D01*
X13846512Y10610966D02*
X13915487D01*
X13847282Y16136966D02*
X13914717D01*
X13847282Y10790966D02*
X13914717D01*
X13847308Y16208966D02*
X13914691D01*
X13847308Y10862966D02*
X13914691D01*
X13848031Y10538966D02*
X13913968D01*
X13848055Y16460966D02*
X13913944D01*
X13849693Y16397966D02*
X13912306D01*
X13849713Y10601966D02*
X13912286D01*
X13850277Y16145966D02*
X13911722D01*
X13850277Y10799966D02*
X13911722D01*
X13850295Y16199966D02*
X13911704D01*
X13850295Y10853966D02*
X13911704D01*
X13850816Y10547966D02*
X13911183D01*
X13850833Y16451966D02*
X13911166D01*
X13851973Y16406966D02*
X13910026D01*
X13851986Y10592966D02*
X13910013D01*
X13852361Y16154966D02*
X13909638D01*
X13852361Y10808966D02*
X13909638D01*
X13852373Y16190966D02*
X13909626D01*
X13852373Y10844966D02*
X13909626D01*
X13852706Y10556966D02*
X13909293D01*
X13852717Y16442966D02*
X13909282D01*
X13853390Y16415966D02*
X13908610D01*
X13853397Y10583966D02*
X13908602D01*
X13853591Y16163966D02*
X13908408D01*
X13853591Y10817966D02*
X13908408D01*
X13853597Y16181966D02*
X13908402D01*
X13853597Y10835966D02*
X13908402D01*
X13853752Y10565966D02*
X13908247D01*
X13853757Y16433966D02*
X13908242D01*
X13853979Y16424966D02*
X13908020D01*
X13853981Y10574966D02*
X13908018D01*
X13854000Y16172966D02*
X13907999D01*
X13854000Y10826966D02*
X13907999D01*
X10899349Y14192966D02*
X13885181D01*
X13114579Y13949966D02*
X13877158D01*
X10918224Y14048966D02*
X13874953D01*
X10878086Y14093966D02*
X13869900D01*
X10889537Y14183966D02*
X13866954D01*
X13110218Y13958966D02*
X13863375D01*
X11421532Y14039966D02*
X13862214D01*
X10858327Y14102966D02*
X13859335D01*
X10876247Y14174966D02*
X13857545D01*
X13104907Y13967966D02*
X13855290D01*
X11449153Y14030966D02*
X13854545D01*
X10305000Y14111966D02*
X13852679D01*
X10854887Y14165966D02*
X13851515D01*
X13098495Y13976966D02*
X13850054D01*
X13027372Y14021966D02*
X13849576D01*
X10305000Y14120966D02*
X13848397D01*
X10305000Y14156966D02*
X13847681D01*
X13090746Y13985966D02*
X13846819D01*
X13053513Y14012966D02*
X13846549D01*
X10305000Y14129966D02*
X13845922D01*
X10305000Y14147966D02*
X13845579D01*
X13081280Y13994966D02*
X13845230D01*
X13069397Y14003966D02*
X13845142D01*
X10305000Y14138966D02*
X13845009D01*
X13513874Y16073966D02*
X13740125D01*
X13513874Y10727966D02*
X13740125D01*
X13514342Y16271966D02*
X13739657D01*
X13514342Y10925966D02*
X13739657D01*
X13524179Y10475966D02*
X13729820D01*
X13524445Y16523966D02*
X13729554D01*
X13539114Y16334966D02*
X13714885D01*
X13539271Y10664966D02*
X13714728D01*
X13543521Y16082966D02*
X13710478D01*
X13543521Y10736966D02*
X13710478D01*
X13543659Y16262966D02*
X13710341D01*
X13543659Y10916966D02*
X13710341D01*
X13547436Y10484966D02*
X13706563D01*
X13547560Y16514966D02*
X13706439D01*
X13555727Y16343966D02*
X13698272D01*
X13555826Y10655966D02*
X13698173D01*
X13558597Y16091966D02*
X13695402D01*
X13558597Y10745966D02*
X13695402D01*
X13558689Y16253966D02*
X13695310D01*
X13558689Y10907966D02*
X13695310D01*
X13561268Y10493966D02*
X13692731D01*
X13561354Y16505966D02*
X13692645D01*
X13567224Y16352966D02*
X13686775D01*
X13567298Y10646966D02*
X13686701D01*
X13569363Y16100966D02*
X13684636D01*
X13569363Y10754966D02*
X13684636D01*
X13569432Y16244966D02*
X13684567D01*
X13569432Y10898966D02*
X13684567D01*
X13571382Y10502966D02*
X13682617D01*
X13571447Y16496966D02*
X13682552D01*
X13575965Y16361966D02*
X13678034D01*
X13576022Y10637966D02*
X13677977D01*
X13577633Y16109966D02*
X13676366D01*
X13577633Y10763966D02*
X13676366D01*
X13577687Y16235966D02*
X13676312D01*
X13577687Y10889966D02*
X13676312D01*
X13579215Y10511966D02*
X13674784D01*
X13579266Y16487966D02*
X13674733D01*
X13582827Y16370966D02*
X13671172D01*
X13582872Y10628966D02*
X13671127D01*
X13584145Y16118966D02*
X13669854D01*
X13584145Y10772966D02*
X13669854D01*
X13584188Y16226966D02*
X13669811D01*
X13584188Y10880966D02*
X13669811D01*
X13585396Y10520966D02*
X13668603D01*
X13585437Y16478966D02*
X13668562D01*
X13588249Y16379966D02*
X13665750D01*
X13588285Y10619966D02*
X13665715D01*
X13589286Y16127966D02*
X13664713D01*
X13589286Y10781966D02*
X13664713D01*
X13589320Y16217966D02*
X13664679D01*
X13589320Y10871966D02*
X13664679D01*
X13590267Y10529966D02*
X13663732D01*
X13590299Y16469966D02*
X13663700D01*
X13592485Y16388966D02*
X13661514D01*
X13592512Y10610966D02*
X13661487D01*
X13593282Y16136966D02*
X13660717D01*
X13593282Y10790966D02*
X13660717D01*
X13593308Y16208966D02*
X13660691D01*
X13593308Y10862966D02*
X13660691D01*
X13594031Y10538966D02*
X13659968D01*
X13594055Y16460966D02*
X13659944D01*
X13595693Y16397966D02*
X13658306D01*
X13595713Y10601966D02*
X13658286D01*
X13596277Y16145966D02*
X13657722D01*
X13596277Y10799966D02*
X13657722D01*
X13596295Y16199966D02*
X13657704D01*
X13596295Y10853966D02*
X13657704D01*
X13596816Y10547966D02*
X13657183D01*
X13596833Y16451966D02*
X13657166D01*
X13597973Y16406966D02*
X13656026D01*
X13597986Y10592966D02*
X13656013D01*
X13598361Y16154966D02*
X13655638D01*
X13598361Y10808966D02*
X13655638D01*
X13598373Y16190966D02*
X13655626D01*
X13598373Y10844966D02*
X13655626D01*
X13598706Y10556966D02*
X13655293D01*
X13598717Y16442966D02*
X13655282D01*
X13599390Y16415966D02*
X13654610D01*
X13599397Y10583966D02*
X13654602D01*
X13599591Y16163966D02*
X13654408D01*
X13599591Y10817966D02*
X13654408D01*
X13599597Y16181966D02*
X13654402D01*
X13599597Y10835966D02*
X13654402D01*
X13599752Y10565966D02*
X13654247D01*
X13599757Y16433966D02*
X13654242D01*
X13599979Y16424966D02*
X13654020D01*
X13599981Y10574966D02*
X13654018D01*
X13600000Y16172966D02*
X13653999D01*
X13600000Y10826966D02*
X13653999D01*
X12802500Y13715966D02*
X13578121D01*
X12802500Y13724966D02*
X13569070D01*
X12802500Y13733966D02*
X13560070D01*
X12802500Y13742966D02*
X13551070D01*
X12805261Y13751966D02*
X13542070D01*
X12808509Y13760966D02*
X13533070D01*
X12811756Y13769966D02*
X13524070D01*
X13031242Y13778966D02*
X13515070D01*
X13055440Y13787966D02*
X13506070D01*
X13070776Y13796966D02*
X13497070D01*
X13082358Y13805966D02*
X13488070D01*
X13259874Y16073966D02*
X13486125D01*
X13259874Y10727966D02*
X13486125D01*
X13260342Y16271966D02*
X13485657D01*
X13260342Y10925966D02*
X13485657D01*
X13270179Y10475966D02*
X13475820D01*
X13270445Y16523966D02*
X13475554D01*
X13091621Y13814966D02*
X13474109D01*
X10926677Y12221966D02*
X13472627D01*
X10926956Y11978966D02*
X13468757D01*
X13357821Y13517966D02*
X13462178D01*
X13358014Y13481966D02*
X13461985D01*
X13285114Y16334966D02*
X13460885D01*
X13285271Y10664966D02*
X13460728D01*
X13289521Y16082966D02*
X13456478D01*
X13289521Y10736966D02*
X13456478D01*
X13289659Y16262966D02*
X13456341D01*
X13289659Y10916966D02*
X13456341D01*
X13099217Y13823966D02*
X13454946D01*
X13293436Y10484966D02*
X13452563D01*
X13293560Y16514966D02*
X13452439D01*
X13368511Y13382966D02*
X13451488D01*
X13368621Y13616966D02*
X13451378D01*
X13121532Y12212966D02*
X13446486D01*
X13374251Y13526966D02*
X13445748D01*
X13374335Y13472966D02*
X13445664D01*
X13125954Y11987966D02*
X13444559D01*
X13301727Y16343966D02*
X13444272D01*
X13301826Y10655966D02*
X13444173D01*
X13120844Y13931966D02*
X13441985D01*
X13304597Y16091966D02*
X13441402D01*
X13304597Y10745966D02*
X13441402D01*
X13304689Y16253966D02*
X13441310D01*
X13304689Y10907966D02*
X13441310D01*
X13379730Y13391966D02*
X13440269D01*
X13379794Y13607966D02*
X13440205D01*
X13307268Y10493966D02*
X13438731D01*
X13307354Y16505966D02*
X13438645D01*
X13383206Y13535966D02*
X13436793D01*
X13383258Y13463966D02*
X13436741D01*
X13386713Y13400966D02*
X13433286D01*
X13386754Y13598966D02*
X13433245D01*
X13313224Y16352966D02*
X13432775D01*
X13313298Y10646966D02*
X13432701D01*
X13105506Y13832966D02*
X13431488D01*
X13388973Y13544966D02*
X13431026D01*
X13389007Y13454966D02*
X13430992D01*
X13315363Y16100966D02*
X13430636D01*
X13315363Y10754966D02*
X13430636D01*
X13149153Y12203966D02*
X13430602D01*
X13315432Y16244966D02*
X13430567D01*
X13315432Y10898966D02*
X13430567D01*
X13151080Y11996966D02*
X13429223D01*
X13391222Y13409966D02*
X13428777D01*
X13391248Y13589966D02*
X13428751D01*
X13317382Y10502966D02*
X13428617D01*
X13317447Y16496966D02*
X13428552D01*
X13392611Y13553966D02*
X13427388D01*
X13392632Y13445966D02*
X13427368D01*
X13393882Y13418966D02*
X13426117D01*
X13393896Y13580966D02*
X13426103D01*
X13122872Y13922966D02*
X13425664D01*
X13394549Y13562966D02*
X13425451D01*
X13394557Y13436966D02*
X13425442D01*
X13394962Y13427966D02*
X13425037D01*
X13394965Y13571966D02*
X13425034D01*
X13321965Y16361966D02*
X13424034D01*
X13322022Y10637966D02*
X13423977D01*
X13323633Y16109966D02*
X13422366D01*
X13323633Y10763966D02*
X13422366D01*
X13323687Y16235966D02*
X13422312D01*
X13323687Y10889966D02*
X13422312D01*
X13325215Y10511966D02*
X13420784D01*
X13325266Y16487966D02*
X13420733D01*
X13110712Y13841966D02*
X13420269D01*
X13164857Y12194966D02*
X13418719D01*
X13166203Y12005966D02*
X13417641D01*
X13328827Y16370966D02*
X13417172D01*
X13328872Y10628966D02*
X13417127D01*
X13124217Y13913966D02*
X13416741D01*
X13330145Y16118966D02*
X13415854D01*
X13330145Y10772966D02*
X13415854D01*
X13330188Y16226966D02*
X13415811D01*
X13330188Y10880966D02*
X13415811D01*
X13331396Y10520966D02*
X13414603D01*
X13331437Y16478966D02*
X13414562D01*
X13114982Y13850966D02*
X13413286D01*
X13334249Y16379966D02*
X13411750D01*
X13334285Y10619966D02*
X13411715D01*
X13124901Y13904966D02*
X13410992D01*
X13335286Y16127966D02*
X13410713D01*
X13335286Y10781966D02*
X13410713D01*
X13335320Y16217966D02*
X13410679D01*
X13335320Y10871966D02*
X13410679D01*
X13336267Y10529966D02*
X13409732D01*
X13336299Y16469966D02*
X13409700D01*
X13176386Y12185966D02*
X13409253D01*
X13118416Y13859966D02*
X13408777D01*
X13177423Y12014966D02*
X13408378D01*
X13338485Y16388966D02*
X13407514D01*
X13338512Y10610966D02*
X13407487D01*
X13124935Y13895966D02*
X13407368D01*
X13339282Y16136966D02*
X13406717D01*
X13339282Y10790966D02*
X13406717D01*
X13339308Y16208966D02*
X13406691D01*
X13339308Y10862966D02*
X13406691D01*
X13121087Y13868966D02*
X13406117D01*
X13340031Y10538966D02*
X13405968D01*
X13340055Y16460966D02*
X13405944D01*
X13124319Y13886966D02*
X13405442D01*
X13123043Y13877966D02*
X13405037D01*
X13341693Y16397966D02*
X13404306D01*
X13341713Y10601966D02*
X13404286D01*
X13342277Y16145966D02*
X13403722D01*
X13342277Y10799966D02*
X13403722D01*
X13342295Y16199966D02*
X13403704D01*
X13342295Y10853966D02*
X13403704D01*
X13342816Y10547966D02*
X13403183D01*
X13342833Y16451966D02*
X13403166D01*
X13343973Y16406966D02*
X13402026D01*
X13343986Y10592966D02*
X13402013D01*
X13344361Y16154966D02*
X13401638D01*
X13344361Y10808966D02*
X13401638D01*
X13344373Y16190966D02*
X13401626D01*
X13344373Y10844966D02*
X13401626D01*
X13185447Y12176966D02*
X13401505D01*
X13344706Y10556966D02*
X13401293D01*
X13344717Y16442966D02*
X13401282D01*
X13186278Y12023966D02*
X13400782D01*
X13345390Y16415966D02*
X13400610D01*
X13345397Y10583966D02*
X13400602D01*
X13345591Y16163966D02*
X13400408D01*
X13345591Y10817966D02*
X13400408D01*
X13345597Y16181966D02*
X13400402D01*
X13345597Y10835966D02*
X13400402D01*
X13345752Y10565966D02*
X13400247D01*
X13345757Y16433966D02*
X13400242D01*
X13345979Y16424966D02*
X13400020D01*
X13345981Y10574966D02*
X13400018D01*
X13346000Y16172966D02*
X13399999D01*
X13346000Y10826966D02*
X13399999D01*
X13192766Y12167966D02*
X13395092D01*
X13193443Y12032966D02*
X13394493D01*
X13198732Y12158966D02*
X13389781D01*
X13199283Y12041966D02*
X13389287D01*
X13203578Y12149966D02*
X13385420D01*
X13204023Y12050966D02*
X13385018D01*
X13207456Y12140966D02*
X13381903D01*
X13207807Y12059966D02*
X13381583D01*
X13210468Y12131966D02*
X13379156D01*
X13210734Y12068966D02*
X13378913D01*
X13212683Y12122966D02*
X13377127D01*
X13212870Y12077966D02*
X13376956D01*
X13214149Y12113966D02*
X13375782D01*
X13214259Y12086966D02*
X13375680D01*
X13214893Y12104966D02*
X13375098D01*
X13214929Y12095966D02*
X13375064D01*
X13197821Y13517966D02*
X13322178D01*
X13198014Y13481966D02*
X13321985D01*
X13208511Y13382966D02*
X13311488D01*
X13208621Y13616966D02*
X13311378D01*
X13214251Y13526966D02*
X13305748D01*
X13214335Y13472966D02*
X13305664D01*
X13219730Y13391966D02*
X13300269D01*
X13219794Y13607966D02*
X13300205D01*
X13223206Y13535966D02*
X13296793D01*
X13223258Y13463966D02*
X13296741D01*
X13226713Y13400966D02*
X13293286D01*
X13226754Y13598966D02*
X13293245D01*
X13228973Y13544966D02*
X13291026D01*
X13229007Y13454966D02*
X13290992D01*
X13231222Y13409966D02*
X13288777D01*
X13231248Y13589966D02*
X13288751D01*
X13232611Y13553966D02*
X13287388D01*
X13232632Y13445966D02*
X13287368D01*
X13233882Y13418966D02*
X13286117D01*
X13233896Y13580966D02*
X13286103D01*
X13234549Y13562966D02*
X13285451D01*
X13234557Y13436966D02*
X13285442D01*
X13234962Y13427966D02*
X13285037D01*
X13234965Y13571966D02*
X13285034D01*
X13005874Y16073966D02*
X13232125D01*
X13005874Y10727966D02*
X13232125D01*
X13006342Y16271966D02*
X13231657D01*
X13006342Y10925966D02*
X13231657D01*
X13016179Y10475966D02*
X13221820D01*
X13016445Y16523966D02*
X13221554D01*
X13031114Y16334966D02*
X13206885D01*
X13031271Y10664966D02*
X13206728D01*
X13035521Y16082966D02*
X13202478D01*
X13035521Y10736966D02*
X13202478D01*
X13035659Y16262966D02*
X13202341D01*
X13035659Y10916966D02*
X13202341D01*
X13039436Y10484966D02*
X13198563D01*
X13039560Y16514966D02*
X13198439D01*
X13047727Y16343966D02*
X13190272D01*
X13047826Y10655966D02*
X13190173D01*
X13050597Y16091966D02*
X13187402D01*
X13050597Y10745966D02*
X13187402D01*
X13050689Y16253966D02*
X13187310D01*
X13050689Y10907966D02*
X13187310D01*
X13053268Y10493966D02*
X13184731D01*
X13053354Y16505966D02*
X13184645D01*
X13059224Y16352966D02*
X13178775D01*
X13059298Y10646966D02*
X13178701D01*
X13061363Y16100966D02*
X13176636D01*
X13061363Y10754966D02*
X13176636D01*
X13061432Y16244966D02*
X13176567D01*
X13061432Y10898966D02*
X13176567D01*
X13063382Y10502966D02*
X13174617D01*
X13063447Y16496966D02*
X13174552D01*
X13067965Y16361966D02*
X13170034D01*
X13068022Y10637966D02*
X13169977D01*
X13069633Y16109966D02*
X13168366D01*
X13069633Y10763966D02*
X13168366D01*
X13069687Y16235966D02*
X13168312D01*
X13069687Y10889966D02*
X13168312D01*
X13071215Y10511966D02*
X13166784D01*
X13071266Y16487966D02*
X13166733D01*
X13074827Y16370966D02*
X13163172D01*
X13074872Y10628966D02*
X13163127D01*
X12997996Y13517966D02*
X13162178D01*
X13033996Y13481966D02*
X13161985D01*
X13076145Y16118966D02*
X13161854D01*
X13076145Y10772966D02*
X13161854D01*
X13076188Y16226966D02*
X13161811D01*
X13076188Y10880966D02*
X13161811D01*
X13077396Y10520966D02*
X13160603D01*
X13077437Y16478966D02*
X13160562D01*
X13080249Y16379966D02*
X13157750D01*
X13080285Y10619966D02*
X13157715D01*
X13081286Y16127966D02*
X13156713D01*
X13081286Y10781966D02*
X13156713D01*
X13081320Y16217966D02*
X13156679D01*
X13081320Y10871966D02*
X13156679D01*
X13082267Y10529966D02*
X13155732D01*
X13082299Y16469966D02*
X13155700D01*
X13084485Y16388966D02*
X13153514D01*
X13084512Y10610966D02*
X13153487D01*
X13085282Y16136966D02*
X13152717D01*
X13085282Y10790966D02*
X13152717D01*
X13085308Y16208966D02*
X13152691D01*
X13085308Y10862966D02*
X13152691D01*
X13086031Y10538966D02*
X13151968D01*
X13086055Y16460966D02*
X13151944D01*
X13132996Y13382966D02*
X13151488D01*
X13053434Y13616966D02*
X13151378D01*
X13087693Y16397966D02*
X13150306D01*
X13087713Y10601966D02*
X13150286D01*
X13088277Y16145966D02*
X13149722D01*
X13088277Y10799966D02*
X13149722D01*
X13088295Y16199966D02*
X13149704D01*
X13088295Y10853966D02*
X13149704D01*
X13088816Y10547966D02*
X13149183D01*
X13088833Y16451966D02*
X13149166D01*
X13089973Y16406966D02*
X13148026D01*
X13089986Y10592966D02*
X13148013D01*
X13090361Y16154966D02*
X13147638D01*
X13090361Y10808966D02*
X13147638D01*
X13090373Y16190966D02*
X13147626D01*
X13090373Y10844966D02*
X13147626D01*
X13090706Y10556966D02*
X13147293D01*
X13090717Y16442966D02*
X13147282D01*
X13091390Y16415966D02*
X13146610D01*
X13091397Y10583966D02*
X13146602D01*
X13091591Y16163966D02*
X13146408D01*
X13091591Y10817966D02*
X13146408D01*
X13091597Y16181966D02*
X13146402D01*
X13091597Y10835966D02*
X13146402D01*
X13091752Y10565966D02*
X13146247D01*
X13091757Y16433966D02*
X13146242D01*
X13091979Y16424966D02*
X13146020D01*
X13091981Y10574966D02*
X13146018D01*
X13092000Y16172966D02*
X13145999D01*
X13092000Y10826966D02*
X13145999D01*
X12988996Y13526966D02*
X13145748D01*
X13042996Y13472966D02*
X13145664D01*
X13123996Y13391966D02*
X13140269D01*
X13050394Y13607966D02*
X13140205D01*
X12979996Y13535966D02*
X13136793D01*
X13051996Y13463966D02*
X13136741D01*
X13114996Y13400966D02*
X13133286D01*
X13045409Y13598966D02*
X13133245D01*
X12970996Y13544966D02*
X13131026D01*
X13060996Y13454966D02*
X13130992D01*
X13105996Y13409966D02*
X13128777D01*
X13037714Y13589966D02*
X13128751D01*
X12961996Y13553966D02*
X13127388D01*
X13069996Y13445966D02*
X13127368D01*
X13096996Y13418966D02*
X13126117D01*
X13024915Y13580966D02*
X13126103D01*
X12952996Y13562966D02*
X13125451D01*
X13078996Y13436966D02*
X13125442D01*
X13087996Y13427966D02*
X13125037D01*
X12943996Y13571966D02*
X13125034D01*
X10888268Y13166966D02*
X13105421D01*
X10925172Y12464966D02*
X13097209D01*
X10882826Y13328966D02*
X13087499D01*
X10894298Y13319966D02*
X13087499D01*
X10903022Y13310966D02*
X13087499D01*
X10909872Y13301966D02*
X13087499D01*
X10915285Y13292966D02*
X13087499D01*
X10898382Y13175966D02*
X13087043D01*
X10919512Y13283966D02*
X13086879D01*
X10866271Y13337966D02*
X13086070D01*
X10305000Y11735966D02*
X13085116D01*
X10922713Y13274966D02*
X13083631D01*
X10924986Y13265966D02*
X13080384D01*
X10925539Y12212966D02*
X13078467D01*
X10906215Y13184966D02*
X13077600D01*
X10926397Y13256966D02*
X13077136D01*
X10305000Y13346966D02*
X13077070D01*
X10926281Y11987966D02*
X13074045D01*
X10926981Y13247966D02*
X13072640D01*
X10912396Y13193966D02*
X13071550D01*
X10925864Y11960966D02*
X13069808D01*
X10926752Y13238966D02*
X13068373D01*
X10305000Y13355966D02*
X13068070D01*
X10917267Y13202966D02*
X13067703D01*
X10926502Y12239966D02*
X13066566D01*
X10925706Y13229966D02*
X13065910D01*
X10921031Y13211966D02*
X13065589D01*
X10923816Y13220966D02*
X13065007D01*
X10305000Y13364966D02*
X13059070D01*
X10922990Y12455966D02*
X13055321D01*
X10305000Y11744966D02*
X13053169D01*
X10923552Y12203966D02*
X13050846D01*
X10305000Y13373966D02*
X13050070D01*
X10924777Y11996966D02*
X13048919D01*
X10924069Y11951966D02*
X13046821D01*
X10925185Y12248966D02*
X13045069D01*
X10305000Y13382966D02*
X13041070D01*
X10919890Y12446966D02*
X13038172D01*
X10305000Y11753966D02*
X13036732D01*
X10920663Y12194966D02*
X13035142D01*
X10922404Y12005966D02*
X13033796D01*
X10921387Y11942966D02*
X13032307D01*
X10305000Y13391966D02*
X13032070D01*
X10923010Y12257966D02*
X13031043D01*
X10915775Y12437966D02*
X13025925D01*
X10305000Y11762966D02*
X13024831D01*
X10916784Y12185966D02*
X13023613D01*
X10840874Y13400966D02*
X13023070D01*
X10919096Y12014966D02*
X13022576D01*
X10917737Y11933966D02*
X13021420D01*
X10919917Y12266966D02*
X13020435D01*
X10910495Y12428966D02*
X13016397D01*
X10305000Y11771966D02*
X13015525D01*
X10911779Y12176966D02*
X13014552D01*
X10870521Y13409966D02*
X13014070D01*
X10914745Y12023966D02*
X13013721D01*
X10912998Y11924966D02*
X13012792D01*
X10915809Y12275966D02*
X13011998D01*
X10903810Y12419966D02*
X13008732D01*
X10305000Y11780966D02*
X13008024D01*
X10905434Y12167966D02*
X13007233D01*
X10909188Y12032966D02*
X13006556D01*
X10906975Y11915966D02*
X13005800D01*
X10910539Y12284966D02*
X13005153D01*
X10885597Y13418966D02*
X13005070D01*
X10895309Y12410966D02*
X13002490D01*
X10305000Y11789966D02*
X13001912D01*
X10897387Y12158966D02*
X13001267D01*
X10902156Y12041966D02*
X13000716D01*
X10899349Y11906966D02*
X13000100D01*
X10903865Y12293966D02*
X12999573D01*
X10884189Y12401966D02*
X12997410D01*
X10305000Y11798966D02*
X12996943D01*
X10886956Y12149966D02*
X12996421D01*
X10896363Y13427966D02*
X12996070D01*
X10893182Y12050966D02*
X12995976D01*
X10889537Y11897966D02*
X12995480D01*
X10895381Y12302966D02*
X12995057D01*
X10868388Y12392966D02*
X12993327D01*
X10305000Y11807966D02*
X12992956D01*
X10872532Y12140966D02*
X12992543D01*
X10881311Y12059966D02*
X12992192D01*
X10876247Y11888966D02*
X12991802D01*
X10884285Y12311966D02*
X12991470D01*
X10305000Y12383966D02*
X12990130D01*
X10305000Y11816966D02*
X12989845D01*
X10846737Y12131966D02*
X12989531D01*
X10863841Y12068966D02*
X12989265D01*
X10854887Y11879966D02*
X12988972D01*
X10868535Y12320966D02*
X12988724D01*
X10305000Y12374966D02*
X12987742D01*
X10305000Y11825966D02*
X12987538D01*
X10305000Y12122966D02*
X12987316D01*
X10305000Y12077966D02*
X12987129D01*
X12714578Y13436966D02*
X12987070D01*
X10305000Y11870966D02*
X12986926D01*
X10829602Y12329966D02*
X12986757D01*
X10305000Y12365966D02*
X12986113D01*
X10305000Y11834966D02*
X12985986D01*
X10305000Y12113966D02*
X12985850D01*
X10305000Y12086966D02*
X12985740D01*
X10305000Y11861966D02*
X12985623D01*
X10305000Y12338966D02*
X12985530D01*
X10305000Y12356966D02*
X12985210D01*
X10305000Y11843966D02*
X12985157D01*
X10305000Y12104966D02*
X12985106D01*
X10305000Y12095966D02*
X12985070D01*
X10305000Y11852966D02*
X12985037D01*
X10305000Y12347966D02*
X12985017D01*
X12751874Y16073966D02*
X12978125D01*
X12751874Y10727966D02*
X12978125D01*
X12732956Y13445966D02*
X12978070D01*
X12752342Y16271966D02*
X12977657D01*
X12752342Y10925966D02*
X12977657D01*
X12835996Y13679966D02*
X12977013D01*
X12934996Y13580966D02*
X12975084D01*
X11464857Y14021966D02*
X12972627D01*
X12742399Y13454966D02*
X12969070D01*
X12815409Y13778966D02*
X12968757D01*
X12762179Y10475966D02*
X12967820D01*
X12762445Y16523966D02*
X12967554D01*
X12844996Y13670966D02*
X12963301D01*
X12925996Y13589966D02*
X12962285D01*
X12748449Y13463966D02*
X12960070D01*
X12853996Y13661966D02*
X12955243D01*
X12916996Y13598966D02*
X12954590D01*
X12777114Y16334966D02*
X12952885D01*
X12777271Y10664966D02*
X12952728D01*
X12752296Y13472966D02*
X12951070D01*
X12862996Y13652966D02*
X12950024D01*
X12907996Y13607966D02*
X12949605D01*
X12781521Y16082966D02*
X12948478D01*
X12781521Y10736966D02*
X12948478D01*
X12781659Y16262966D02*
X12948341D01*
X12781659Y10916966D02*
X12948341D01*
X12871996Y13643966D02*
X12946802D01*
X12898996Y13616966D02*
X12946566D01*
X11476386Y14012966D02*
X12946486D01*
X12880996Y13634966D02*
X12945224D01*
X12889996Y13625966D02*
X12945147D01*
X12785436Y10484966D02*
X12944563D01*
X12820394Y13787966D02*
X12944559D01*
X12785560Y16514966D02*
X12944439D01*
X12754410Y13481966D02*
X12942070D01*
X12793727Y16343966D02*
X12936272D01*
X12793826Y10655966D02*
X12936173D01*
X12796597Y16091966D02*
X12933402D01*
X12796597Y10745966D02*
X12933402D01*
X12796689Y16253966D02*
X12933310D01*
X12796689Y10907966D02*
X12933310D01*
X12754992Y13490966D02*
X12933070D01*
X12799268Y10493966D02*
X12930731D01*
X12799354Y16505966D02*
X12930645D01*
X11485447Y14003966D02*
X12930602D01*
X12823434Y13796966D02*
X12929223D01*
X12805224Y16352966D02*
X12924775D01*
X12805298Y10646966D02*
X12924701D01*
X12754089Y13499966D02*
X12924070D01*
X12807363Y16100966D02*
X12922636D01*
X12807363Y10754966D02*
X12922636D01*
X12807432Y16244966D02*
X12922567D01*
X12807432Y10898966D02*
X12922567D01*
X12809382Y10502966D02*
X12920617D01*
X12809447Y16496966D02*
X12920552D01*
X11492766Y13994966D02*
X12918719D01*
X12824852Y13805966D02*
X12917641D01*
X12813965Y16361966D02*
X12916034D01*
X12814022Y10637966D02*
X12915977D01*
X12751626Y13508966D02*
X12915070D01*
X12815633Y16109966D02*
X12914366D01*
X12815633Y10763966D02*
X12914366D01*
X12815687Y16235966D02*
X12914312D01*
X12815687Y10889966D02*
X12914312D01*
X12817215Y10511966D02*
X12912784D01*
X12817266Y16487966D02*
X12912733D01*
X11498732Y13985966D02*
X12909253D01*
X12820827Y16370966D02*
X12909172D01*
X12820872Y10628966D02*
X12909127D01*
X12824775Y13814966D02*
X12908378D01*
X12822145Y16118966D02*
X12907854D01*
X12822145Y10772966D02*
X12907854D01*
X12822188Y16226966D02*
X12907811D01*
X12822188Y10880966D02*
X12907811D01*
X12823396Y10520966D02*
X12906603D01*
X12823437Y16478966D02*
X12906562D01*
X12747359Y13517966D02*
X12906070D01*
X12826249Y16379966D02*
X12903750D01*
X12826285Y10619966D02*
X12903715D01*
X12827286Y16127966D02*
X12902713D01*
X12827286Y10781966D02*
X12902713D01*
X12827320Y16217966D02*
X12902679D01*
X12827320Y10871966D02*
X12902679D01*
X12828267Y10529966D02*
X12901732D01*
X12828299Y16469966D02*
X12901700D01*
X11503578Y13976966D02*
X12901505D01*
X12823197Y13823966D02*
X12900782D01*
X12830485Y16388966D02*
X12899514D01*
X12830512Y10610966D02*
X12899487D01*
X12831282Y16136966D02*
X12898717D01*
X12831282Y10790966D02*
X12898717D01*
X12831308Y16208966D02*
X12898691D01*
X12831308Y10862966D02*
X12898691D01*
X12832031Y10538966D02*
X12897968D01*
X12832055Y16460966D02*
X12897944D01*
X12740725Y13526966D02*
X12897070D01*
X12833693Y16397966D02*
X12896306D01*
X12833713Y10601966D02*
X12896286D01*
X12834277Y16145966D02*
X12895722D01*
X12834277Y10799966D02*
X12895722D01*
X12834295Y16199966D02*
X12895704D01*
X12834295Y10853966D02*
X12895704D01*
X12834816Y10547966D02*
X12895183D01*
X12834833Y16451966D02*
X12895166D01*
X11507456Y13967966D02*
X12895092D01*
X12819975Y13832966D02*
X12894493D01*
X12835973Y16406966D02*
X12894026D01*
X12835986Y10592966D02*
X12894013D01*
X12836361Y16154966D02*
X12893638D01*
X12836361Y10808966D02*
X12893638D01*
X12836373Y16190966D02*
X12893626D01*
X12836373Y10844966D02*
X12893626D01*
X12836706Y10556966D02*
X12893293D01*
X12836717Y16442966D02*
X12893282D01*
X12837390Y16415966D02*
X12892610D01*
X12837397Y10583966D02*
X12892602D01*
X12837591Y16163966D02*
X12892408D01*
X12837591Y10817966D02*
X12892408D01*
X12837597Y16181966D02*
X12892402D01*
X12837597Y10835966D02*
X12892402D01*
X12837752Y10565966D02*
X12892247D01*
X12837757Y16433966D02*
X12892242D01*
X12837979Y16424966D02*
X12892020D01*
X12837981Y10574966D02*
X12892018D01*
X12838000Y16172966D02*
X12891999D01*
X12838000Y10826966D02*
X12891999D01*
X11510468Y13958966D02*
X12889781D01*
X12814757Y13841966D02*
X12889287D01*
X12730201Y13535966D02*
X12888070D01*
X11512683Y13949966D02*
X12885420D01*
X12806698Y13850966D02*
X12885018D01*
X11514149Y13940966D02*
X12881903D01*
X12792986Y13859966D02*
X12881583D01*
X11514893Y13931966D02*
X12879156D01*
X12701929Y13544966D02*
X12879070D01*
X11499283Y13868966D02*
X12878913D01*
X11514929Y13922966D02*
X12877127D01*
X11504023Y13877966D02*
X12876956D01*
X11514259Y13913966D02*
X12875782D01*
X11507807Y13886966D02*
X12875680D01*
X11512870Y13904966D02*
X12875098D01*
X11510734Y13895966D02*
X12875064D01*
X12519088Y13553966D02*
X12870070D01*
X12728511Y13562966D02*
X12861070D01*
X12739730Y13571966D02*
X12852070D01*
X12746713Y13580966D02*
X12843070D01*
X12751222Y13589966D02*
X12834070D01*
X12753882Y13598966D02*
X12825070D01*
X12754962Y13607966D02*
X12816070D01*
X12754557Y13616966D02*
X12807070D01*
X12752632Y13625966D02*
X12798070D01*
X12749007Y13634966D02*
X12789070D01*
X12743258Y13643966D02*
X12780070D01*
X12734335Y13652966D02*
X12771070D01*
X12718014Y13661966D02*
X12762070D01*
X12023229Y13670966D02*
X12753070D01*
X11493443Y13859966D02*
X12747013D01*
X12021355Y13679966D02*
X12744408D01*
X12018771Y13688966D02*
X12739429D01*
X12015431Y13697966D02*
X12737563D01*
X11983560Y13742966D02*
X12737499D01*
X11992599Y13733966D02*
X12737499D01*
X12000025Y13724966D02*
X12737499D01*
X12006176Y13715966D02*
X12737499D01*
X12011265Y13706966D02*
X12737499D01*
X11972304Y13751966D02*
X12734738D01*
X11486278Y13850966D02*
X12733301D01*
X11957545Y13760966D02*
X12731490D01*
X11935116Y13769966D02*
X12728243D01*
X11477423Y13841966D02*
X12725243D01*
X11444678Y13778966D02*
X12724590D01*
X12497874Y16073966D02*
X12724125D01*
X12497874Y10727966D02*
X12724125D01*
X12498342Y16271966D02*
X12723657D01*
X12498342Y10925966D02*
X12723657D01*
X11466203Y13832966D02*
X12720024D01*
X11402790Y13787966D02*
X12719605D01*
X11451080Y13823966D02*
X12716802D01*
X10917299Y13796966D02*
X12716566D01*
X11425954Y13814966D02*
X12715224D01*
X10912437Y13805966D02*
X12715147D01*
X12508179Y10475966D02*
X12713820D01*
X12508445Y16523966D02*
X12713554D01*
X12523114Y16334966D02*
X12698885D01*
X12523271Y10664966D02*
X12698728D01*
X12531671Y13544966D02*
X12698070D01*
X12527521Y16082966D02*
X12694478D01*
X12527521Y10736966D02*
X12694478D01*
X12527659Y16262966D02*
X12694341D01*
X12527659Y10916966D02*
X12694341D01*
X12531436Y10484966D02*
X12690563D01*
X12531560Y16514966D02*
X12690439D01*
X10904633Y13436966D02*
X12685421D01*
X12539727Y16343966D02*
X12682272D01*
X12539826Y10655966D02*
X12682173D01*
X12518014Y13661966D02*
X12681985D01*
X12542597Y16091966D02*
X12679402D01*
X12542597Y10745966D02*
X12679402D01*
X12542689Y16253966D02*
X12679310D01*
X12542689Y10907966D02*
X12679310D01*
X12545268Y10493966D02*
X12676731D01*
X12545354Y16505966D02*
X12676645D01*
X12528511Y13562966D02*
X12671488D01*
X12551224Y16352966D02*
X12670775D01*
X12551298Y10646966D02*
X12670701D01*
X12541610Y13535966D02*
X12669798D01*
X12553363Y16100966D02*
X12668636D01*
X12553363Y10754966D02*
X12668636D01*
X12553432Y16244966D02*
X12668567D01*
X12553432Y10898966D02*
X12668567D01*
X12510269Y13445966D02*
X12667043D01*
X12555382Y10502966D02*
X12666617D01*
X12555447Y16496966D02*
X12666552D01*
X12534335Y13652966D02*
X12665664D01*
X12559965Y16361966D02*
X12662034D01*
X12560022Y10637966D02*
X12661977D01*
X12561633Y16109966D02*
X12660366D01*
X12561633Y10763966D02*
X12660366D01*
X12561687Y16235966D02*
X12660312D01*
X12561687Y10889966D02*
X12660312D01*
X12539730Y13571966D02*
X12660269D01*
X12547936Y13526966D02*
X12659275D01*
X12563215Y10511966D02*
X12658784D01*
X12563266Y16487966D02*
X12658733D01*
X12531576Y13454966D02*
X12657600D01*
X12543258Y13643966D02*
X12656741D01*
X12566827Y16370966D02*
X12655172D01*
X12566872Y10628966D02*
X12655127D01*
X12568145Y16118966D02*
X12653854D01*
X12568145Y10772966D02*
X12653854D01*
X12568188Y16226966D02*
X12653811D01*
X12568188Y10880966D02*
X12653811D01*
X12546713Y13580966D02*
X12653286D01*
X12551983Y13517966D02*
X12652640D01*
X12569396Y10520966D02*
X12652603D01*
X12569437Y16478966D02*
X12652562D01*
X12541553Y13463966D02*
X12651550D01*
X12549007Y13634966D02*
X12650992D01*
X12572249Y16379966D02*
X12649750D01*
X12572285Y10619966D02*
X12649715D01*
X12551222Y13589966D02*
X12648777D01*
X12573286Y16127966D02*
X12648713D01*
X12573286Y10781966D02*
X12648713D01*
X12573320Y16217966D02*
X12648679D01*
X12573320Y10871966D02*
X12648679D01*
X12554264Y13508966D02*
X12648373D01*
X12574267Y10529966D02*
X12647732D01*
X12547898Y13472966D02*
X12647703D01*
X12574299Y16469966D02*
X12647700D01*
X12552632Y13625966D02*
X12647368D01*
X12553882Y13598966D02*
X12646117D01*
X12555000Y13499966D02*
X12645910D01*
X12551960Y13481966D02*
X12645589D01*
X12576485Y16388966D02*
X12645514D01*
X12576512Y10610966D02*
X12645487D01*
X12554557Y13616966D02*
X12645442D01*
X12554962Y13607966D02*
X12645037D01*
X12554253Y13490966D02*
X12645007D01*
X12577282Y16136966D02*
X12644717D01*
X12577282Y10790966D02*
X12644717D01*
X12577308Y16208966D02*
X12644691D01*
X12577308Y10862966D02*
X12644691D01*
X12578031Y10538966D02*
X12643968D01*
X12578055Y16460966D02*
X12643944D01*
X12579693Y16397966D02*
X12642306D01*
X12579713Y10601966D02*
X12642286D01*
X12580277Y16145966D02*
X12641722D01*
X12580277Y10799966D02*
X12641722D01*
X12580295Y16199966D02*
X12641704D01*
X12580295Y10853966D02*
X12641704D01*
X12580816Y10547966D02*
X12641183D01*
X12580833Y16451966D02*
X12641166D01*
X12581973Y16406966D02*
X12640026D01*
X12581986Y10592966D02*
X12640013D01*
X12582361Y16154966D02*
X12639638D01*
X12582361Y10808966D02*
X12639638D01*
X12582373Y16190966D02*
X12639626D01*
X12582373Y10844966D02*
X12639626D01*
X12582706Y10556966D02*
X12639293D01*
X12582717Y16442966D02*
X12639282D01*
X12583390Y16415966D02*
X12638610D01*
X12583397Y10583966D02*
X12638602D01*
X12583591Y16163966D02*
X12638408D01*
X12583591Y10817966D02*
X12638408D01*
X12583597Y16181966D02*
X12638402D01*
X12583597Y10835966D02*
X12638402D01*
X12583752Y10565966D02*
X12638247D01*
X12583757Y16433966D02*
X12638242D01*
X12583979Y16424966D02*
X12638020D01*
X12583981Y10574966D02*
X12638018D01*
X12584000Y16172966D02*
X12637999D01*
X12584000Y10826966D02*
X12637999D01*
X12310269Y13445966D02*
X12489730D01*
X12318014Y13661966D02*
X12481985D01*
X12319088Y13553966D02*
X12480911D01*
X12328511Y13562966D02*
X12471488D01*
X12243874Y16073966D02*
X12470125D01*
X12243874Y10727966D02*
X12470125D01*
X12244342Y16271966D02*
X12469657D01*
X12244342Y10925966D02*
X12469657D01*
X12331576Y13454966D02*
X12468423D01*
X12331671Y13544966D02*
X12468328D01*
X12334335Y13652966D02*
X12465664D01*
X12339730Y13571966D02*
X12460269D01*
X12254179Y10475966D02*
X12459820D01*
X12254445Y16523966D02*
X12459554D01*
X12341553Y13463966D02*
X12458446D01*
X12341610Y13535966D02*
X12458389D01*
X12343258Y13643966D02*
X12456741D01*
X12346713Y13580966D02*
X12453286D01*
X12347898Y13472966D02*
X12452101D01*
X12347936Y13526966D02*
X12452064D01*
X12349007Y13634966D02*
X12450992D01*
X12351222Y13589966D02*
X12448777D01*
X12351960Y13481966D02*
X12448039D01*
X12351983Y13517966D02*
X12448016D01*
X12352632Y13625966D02*
X12447368D01*
X12353882Y13598966D02*
X12446117D01*
X12354253Y13490966D02*
X12445746D01*
X12354264Y13508966D02*
X12445735D01*
X12354557Y13616966D02*
X12445442D01*
X12354962Y13607966D02*
X12445037D01*
X12355000Y13499966D02*
X12444999D01*
X12269114Y16334966D02*
X12444885D01*
X12269271Y10664966D02*
X12444728D01*
X12273521Y16082966D02*
X12440478D01*
X12273521Y10736966D02*
X12440478D01*
X12273659Y16262966D02*
X12440341D01*
X12273659Y10916966D02*
X12440341D01*
X12277436Y10484966D02*
X12436563D01*
X12277560Y16514966D02*
X12436439D01*
X12285727Y16343966D02*
X12428272D01*
X12285826Y10655966D02*
X12428173D01*
X12288597Y16091966D02*
X12425402D01*
X12288597Y10745966D02*
X12425402D01*
X12288689Y16253966D02*
X12425310D01*
X12288689Y10907966D02*
X12425310D01*
X12291268Y10493966D02*
X12422731D01*
X12291354Y16505966D02*
X12422645D01*
X12297224Y16352966D02*
X12416775D01*
X12297298Y10646966D02*
X12416701D01*
X12299363Y16100966D02*
X12414636D01*
X12299363Y10754966D02*
X12414636D01*
X12299432Y16244966D02*
X12414567D01*
X12299432Y10898966D02*
X12414567D01*
X12301382Y10502966D02*
X12412617D01*
X12301447Y16496966D02*
X12412552D01*
X12305965Y16361966D02*
X12408034D01*
X12306022Y10637966D02*
X12407977D01*
X12307633Y16109966D02*
X12406366D01*
X12307633Y10763966D02*
X12406366D01*
X12307687Y16235966D02*
X12406312D01*
X12307687Y10889966D02*
X12406312D01*
X12309215Y10511966D02*
X12404784D01*
X12309266Y16487966D02*
X12404733D01*
X12312827Y16370966D02*
X12401172D01*
X12312872Y10628966D02*
X12401127D01*
X12314145Y16118966D02*
X12399854D01*
X12314145Y10772966D02*
X12399854D01*
X12314188Y16226966D02*
X12399811D01*
X12314188Y10880966D02*
X12399811D01*
X12315396Y10520966D02*
X12398603D01*
X12315437Y16478966D02*
X12398562D01*
X12318249Y16379966D02*
X12395750D01*
X12318285Y10619966D02*
X12395715D01*
X12319286Y16127966D02*
X12394713D01*
X12319286Y10781966D02*
X12394713D01*
X12319320Y16217966D02*
X12394679D01*
X12319320Y10871966D02*
X12394679D01*
X12320267Y10529966D02*
X12393732D01*
X12320299Y16469966D02*
X12393700D01*
X12322485Y16388966D02*
X12391514D01*
X12322512Y10610966D02*
X12391487D01*
X12323282Y16136966D02*
X12390717D01*
X12323282Y10790966D02*
X12390717D01*
X12323308Y16208966D02*
X12390691D01*
X12323308Y10862966D02*
X12390691D01*
X12324031Y10538966D02*
X12389968D01*
X12324055Y16460966D02*
X12389944D01*
X12325693Y16397966D02*
X12388306D01*
X12325713Y10601966D02*
X12388286D01*
X12326277Y16145966D02*
X12387722D01*
X12326277Y10799966D02*
X12387722D01*
X12326295Y16199966D02*
X12387704D01*
X12326295Y10853966D02*
X12387704D01*
X12326816Y10547966D02*
X12387183D01*
X12326833Y16451966D02*
X12387166D01*
X12327973Y16406966D02*
X12386026D01*
X12327986Y10592966D02*
X12386013D01*
X12328361Y16154966D02*
X12385638D01*
X12328361Y10808966D02*
X12385638D01*
X12328373Y16190966D02*
X12385626D01*
X12328373Y10844966D02*
X12385626D01*
X12328706Y10556966D02*
X12385293D01*
X12328717Y16442966D02*
X12385282D01*
X12329390Y16415966D02*
X12384610D01*
X12329397Y10583966D02*
X12384602D01*
X12329591Y16163966D02*
X12384408D01*
X12329591Y10817966D02*
X12384408D01*
X12329597Y16181966D02*
X12384402D01*
X12329597Y10835966D02*
X12384402D01*
X12329752Y10565966D02*
X12384247D01*
X12329757Y16433966D02*
X12384242D01*
X12329979Y16424966D02*
X12384020D01*
X12329981Y10574966D02*
X12384018D01*
X12330000Y16172966D02*
X12383999D01*
X12330000Y10826966D02*
X12383999D01*
X12110269Y13445966D02*
X12289730D01*
X12118014Y13661966D02*
X12281985D01*
X12119088Y13553966D02*
X12280911D01*
X12128511Y13562966D02*
X12271488D01*
X12131576Y13454966D02*
X12268423D01*
X12131671Y13544966D02*
X12268328D01*
X12134335Y13652966D02*
X12265664D01*
X12139730Y13571966D02*
X12260269D01*
X12141553Y13463966D02*
X12258446D01*
X12141610Y13535966D02*
X12258389D01*
X12143258Y13643966D02*
X12256741D01*
X12146713Y13580966D02*
X12253286D01*
X12147898Y13472966D02*
X12252101D01*
X12147936Y13526966D02*
X12252064D01*
X12149007Y13634966D02*
X12250992D01*
X12151222Y13589966D02*
X12248777D01*
X12151960Y13481966D02*
X12248039D01*
X12151983Y13517966D02*
X12248016D01*
X12152632Y13625966D02*
X12247368D01*
X12153882Y13598966D02*
X12246117D01*
X12154253Y13490966D02*
X12245746D01*
X12154264Y13508966D02*
X12245735D01*
X12154557Y13616966D02*
X12245442D01*
X12154962Y13607966D02*
X12245037D01*
X12155000Y13499966D02*
X12244999D01*
X11989874Y16073966D02*
X12216125D01*
X11989874Y10727966D02*
X12216125D01*
X11990342Y16271966D02*
X12215657D01*
X11990342Y10925966D02*
X12215657D01*
X12000179Y10475966D02*
X12205820D01*
X12000445Y16523966D02*
X12205554D01*
X12015114Y16334966D02*
X12190885D01*
X12015271Y10664966D02*
X12190728D01*
X12019521Y16082966D02*
X12186478D01*
X12019521Y10736966D02*
X12186478D01*
X12019659Y16262966D02*
X12186341D01*
X12019659Y10916966D02*
X12186341D01*
X12023436Y10484966D02*
X12182563D01*
X12023560Y16514966D02*
X12182439D01*
X12031727Y16343966D02*
X12174272D01*
X12031826Y10655966D02*
X12174173D01*
X12034597Y16091966D02*
X12171402D01*
X12034597Y10745966D02*
X12171402D01*
X12034689Y16253966D02*
X12171310D01*
X12034689Y10907966D02*
X12171310D01*
X12037268Y10493966D02*
X12168731D01*
X12037354Y16505966D02*
X12168645D01*
X12043224Y16352966D02*
X12162775D01*
X12043298Y10646966D02*
X12162701D01*
X12045363Y16100966D02*
X12160636D01*
X12045363Y10754966D02*
X12160636D01*
X12045432Y16244966D02*
X12160567D01*
X12045432Y10898966D02*
X12160567D01*
X12047382Y10502966D02*
X12158617D01*
X12047447Y16496966D02*
X12158552D01*
X12051965Y16361966D02*
X12154034D01*
X12052022Y10637966D02*
X12153977D01*
X12053633Y16109966D02*
X12152366D01*
X12053633Y10763966D02*
X12152366D01*
X12053687Y16235966D02*
X12152312D01*
X12053687Y10889966D02*
X12152312D01*
X12055215Y10511966D02*
X12150784D01*
X12055266Y16487966D02*
X12150733D01*
X12058827Y16370966D02*
X12147172D01*
X12058872Y10628966D02*
X12147127D01*
X12060145Y16118966D02*
X12145854D01*
X12060145Y10772966D02*
X12145854D01*
X12060188Y16226966D02*
X12145811D01*
X12060188Y10880966D02*
X12145811D01*
X12061396Y10520966D02*
X12144603D01*
X12061437Y16478966D02*
X12144562D01*
X12064249Y16379966D02*
X12141750D01*
X12064285Y10619966D02*
X12141715D01*
X12065286Y16127966D02*
X12140713D01*
X12065286Y10781966D02*
X12140713D01*
X12065320Y16217966D02*
X12140679D01*
X12065320Y10871966D02*
X12140679D01*
X12066267Y10529966D02*
X12139732D01*
X12066299Y16469966D02*
X12139700D01*
X12068485Y16388966D02*
X12137514D01*
X12068512Y10610966D02*
X12137487D01*
X12069282Y16136966D02*
X12136717D01*
X12069282Y10790966D02*
X12136717D01*
X12069308Y16208966D02*
X12136691D01*
X12069308Y10862966D02*
X12136691D01*
X12070031Y10538966D02*
X12135968D01*
X12070055Y16460966D02*
X12135944D01*
X12071693Y16397966D02*
X12134306D01*
X12071713Y10601966D02*
X12134286D01*
X12072277Y16145966D02*
X12133722D01*
X12072277Y10799966D02*
X12133722D01*
X12072295Y16199966D02*
X12133704D01*
X12072295Y10853966D02*
X12133704D01*
X12072816Y10547966D02*
X12133183D01*
X12072833Y16451966D02*
X12133166D01*
X12073973Y16406966D02*
X12132026D01*
X12073986Y10592966D02*
X12132013D01*
X12074361Y16154966D02*
X12131638D01*
X12074361Y10808966D02*
X12131638D01*
X12074373Y16190966D02*
X12131626D01*
X12074373Y10844966D02*
X12131626D01*
X12074706Y10556966D02*
X12131293D01*
X12074717Y16442966D02*
X12131282D01*
X12075390Y16415966D02*
X12130610D01*
X12075397Y10583966D02*
X12130602D01*
X12075591Y16163966D02*
X12130408D01*
X12075591Y10817966D02*
X12130408D01*
X12075597Y16181966D02*
X12130402D01*
X12075597Y10835966D02*
X12130402D01*
X12075752Y10565966D02*
X12130247D01*
X12075757Y16433966D02*
X12130242D01*
X12075979Y16424966D02*
X12130020D01*
X12075981Y10574966D02*
X12130018D01*
X12076000Y16172966D02*
X12129999D01*
X12076000Y10826966D02*
X12129999D01*
X10911145Y13445966D02*
X12089730D01*
X12024426Y13661966D02*
X12081985D01*
X11980017Y13553966D02*
X12080911D01*
X11989723Y13562966D02*
X12071488D01*
X10916286Y13454966D02*
X12068423D01*
X11967772Y13544966D02*
X12068328D01*
X12024965Y13652966D02*
X12065664D01*
X11997652Y13571966D02*
X12060269D01*
X10920282Y13463966D02*
X12058446D01*
X11951200Y13535966D02*
X12058389D01*
X12024854Y13643966D02*
X12056741D01*
X12004209Y13580966D02*
X12053286D01*
X10923277Y13472966D02*
X12052101D01*
X11922089Y13526966D02*
X12052064D01*
X12024093Y13634966D02*
X12050992D01*
X12009640Y13589966D02*
X12048777D01*
X10925361Y13481966D02*
X12048039D01*
X10925373Y13517966D02*
X12048016D01*
X12022668Y13625966D02*
X12047368D01*
X12014108Y13598966D02*
X12046117D01*
X10926591Y13490966D02*
X12045746D01*
X10926597Y13508966D02*
X12045735D01*
X12020556Y13616966D02*
X12045442D01*
X12017721Y13607966D02*
X12045037D01*
X10927000Y13499966D02*
X12044999D01*
X10305000Y16073966D02*
X11962125D01*
X10840780Y10727966D02*
X11962125D01*
X10840736Y16271966D02*
X11961657D01*
X10305000Y10925966D02*
X11961657D01*
X10909295Y10475966D02*
X11951820D01*
X10909299Y16523966D02*
X11951554D01*
X10875319Y16334966D02*
X11936885D01*
X10875348Y10664966D02*
X11936728D01*
X10305000Y16082966D02*
X11932478D01*
X10834585Y10736966D02*
X11932478D01*
X10834537Y16262966D02*
X11932341D01*
X10305000Y10916966D02*
X11932341D01*
X10909724Y10484966D02*
X11928563D01*
X10909727Y16514966D02*
X11928439D01*
X10879149Y16343966D02*
X11920272D01*
X10879176Y10655966D02*
X11920173D01*
X10540115Y16091966D02*
X11917402D01*
X10828025Y10745966D02*
X11917402D01*
X10827975Y16253966D02*
X11917310D01*
X10540787Y10907966D02*
X11917310D01*
X10909956Y10493966D02*
X11914731D01*
X10909957Y16505966D02*
X11914645D01*
X10882729Y16352966D02*
X11908775D01*
X10882754Y10646966D02*
X11908701D01*
X10594195Y16100966D02*
X11906636D01*
X10821080Y10754966D02*
X11906636D01*
X10821027Y16244966D02*
X11906567D01*
X10594477Y10898966D02*
X11906567D01*
X10909989Y10502966D02*
X11904617D01*
X10909989Y16496966D02*
X11904552D01*
X10886066Y16361966D02*
X11900034D01*
X10886090Y10637966D02*
X11899977D01*
X10626390Y16109966D02*
X11898366D01*
X10813722Y10763966D02*
X11898366D01*
X10813666Y16235966D02*
X11898312D01*
X10626595Y10889966D02*
X11898312D01*
X10909825Y10511966D02*
X11896784D01*
X10909823Y16487966D02*
X11896733D01*
X10889166Y16370966D02*
X11893172D01*
X10889188Y10628966D02*
X11893127D01*
X10651373Y16118966D02*
X11891854D01*
X10805924Y10772966D02*
X11891854D01*
X10805864Y16226966D02*
X11891811D01*
X10651541Y10880966D02*
X11891811D01*
X10909464Y10520966D02*
X11890603D01*
X10909460Y16478966D02*
X11890562D01*
X10892036Y16379966D02*
X11887750D01*
X10892056Y10619966D02*
X11887715D01*
X10672312Y16127966D02*
X11886713D01*
X10797649Y10781966D02*
X11886713D01*
X10797586Y16217966D02*
X11886679D01*
X10672456Y10871966D02*
X11886679D01*
X10908903Y10529966D02*
X11885732D01*
X10908899Y16469966D02*
X11885700D01*
X11514960Y12923966D02*
X11883956D01*
X10894679Y16388966D02*
X11883514D01*
X10894698Y10610966D02*
X11883487D01*
X10690544Y16136966D02*
X11882717D01*
X10788857Y10790966D02*
X11882717D01*
X10788790Y16208966D02*
X11882691D01*
X10690671Y10862966D02*
X11882691D01*
X10908144Y10538966D02*
X11881968D01*
X10908138Y16460966D02*
X11881944D01*
X10897101Y16397966D02*
X11880306D01*
X10897118Y10601966D02*
X11880286D01*
X10706786Y16145966D02*
X11879722D01*
X10779500Y10799966D02*
X11879722D01*
X10779428Y16199966D02*
X11879704D01*
X10706901Y10853966D02*
X11879704D01*
X10907185Y10547966D02*
X11879183D01*
X10907177Y16451966D02*
X11879166D01*
X10899305Y16406966D02*
X11878026D01*
X10899321Y10592966D02*
X11878013D01*
X10923295Y13526966D02*
X11877910D01*
X10721477Y16154966D02*
X11877638D01*
X10769518Y10808966D02*
X11877638D01*
X10769441Y16190966D02*
X11877626D01*
X10721581Y10844966D02*
X11877626D01*
X10906023Y10556966D02*
X11877293D01*
X10906014Y16442966D02*
X11877282D01*
X10901296Y16415966D02*
X11876610D01*
X10901310Y10583966D02*
X11876602D01*
X10734908Y16163966D02*
X11876408D01*
X10758839Y10817966D02*
X11876408D01*
X10758757Y16181966D02*
X11876402D01*
X10735003Y10835966D02*
X11876402D01*
X10904658Y10565966D02*
X11876247D01*
X10904648Y16433966D02*
X11876242D01*
X10903076Y16424966D02*
X11876020D01*
X10903088Y10574966D02*
X11876018D01*
X10747284Y16172966D02*
X11875999D01*
X10747372Y10826966D02*
X11875999D01*
X11461827Y13769966D02*
X11864884D01*
X11514724Y12680966D02*
X11861839D01*
X11514369Y12914966D02*
X11850930D01*
X10920308Y13535966D02*
X11848799D01*
X11474074Y13760966D02*
X11842454D01*
X11513742Y12689966D02*
X11840688D01*
X11513060Y12905966D02*
X11833696D01*
X10916320Y13544966D02*
X11832227D01*
X11483602Y13751966D02*
X11827695D01*
X11512030Y12698966D02*
X11826397D01*
X11511009Y12896966D02*
X11821116D01*
X10911188Y13553966D02*
X11819982D01*
X11491267Y13742966D02*
X11816439D01*
X11509555Y12707966D02*
X11815412D01*
X11508173Y12887966D02*
X11811191D01*
X11433433Y13562966D02*
X11810276D01*
X11497509Y13733966D02*
X11807400D01*
X11506264Y12716966D02*
X11806562D01*
X11504488Y12878966D02*
X11803101D01*
X11454930Y13571966D02*
X11802347D01*
X11502589Y13724966D02*
X11799974D01*
X11502076Y12725966D02*
X11799281D01*
X11499861Y12869966D02*
X11796415D01*
X11468956Y13580966D02*
X11795790D01*
X11506672Y13715966D02*
X11793823D01*
X11496877Y12734966D02*
X11793248D01*
X11494152Y12860966D02*
X11790875D01*
X11479565Y13589966D02*
X11790359D01*
X11509869Y13706966D02*
X11788734D01*
X11490492Y12743966D02*
X11788261D01*
X11487150Y12851966D02*
X11786313D01*
X11488001Y13598966D02*
X11785891D01*
X11512257Y13697966D02*
X11784568D01*
X11482646Y12752966D02*
X11784185D01*
X11478508Y12842966D02*
X11782616D01*
X11494846Y13607966D02*
X11782278D01*
X11513886Y13688966D02*
X11781228D01*
X11472870Y12761966D02*
X11780926D01*
X11467601Y12833966D02*
X11779702D01*
X11500426Y13616966D02*
X11779443D01*
X11514789Y13679966D02*
X11778644D01*
X11460230Y12770966D02*
X11778417D01*
X11453050Y12824966D02*
X11777518D01*
X11504942Y13625966D02*
X11777331D01*
X11514982Y13670966D02*
X11776770D01*
X11442228Y12779966D02*
X11776615D01*
X11429945Y12815966D02*
X11776023D01*
X11508529Y13634966D02*
X11775906D01*
X11514470Y13661966D02*
X11775573D01*
X10913037Y12788966D02*
X11775487D01*
X10899413Y12806966D02*
X11775193D01*
X11511275Y13643966D02*
X11775145D01*
X11513242Y13652966D02*
X11775034D01*
X10907025Y12797966D02*
X11775016D01*
X10921055Y13787966D02*
X11397209D01*
X10914191Y13040966D02*
X11384614D01*
X10921753Y14039966D02*
X11378467D01*
X10906266Y13814966D02*
X11374045D01*
X10889620Y12815966D02*
X11370054D01*
X10904687Y13562966D02*
X11366566D01*
X10887045Y12563966D02*
X11363437D01*
X10917768Y12779966D02*
X11357771D01*
X10923833Y13778966D02*
X11355321D01*
X10918666Y13031966D02*
X11353020D01*
X10924327Y14030966D02*
X11350846D01*
X10898447Y13823966D02*
X11348919D01*
X10876365Y12824966D02*
X11346949D01*
X10896432Y13571966D02*
X11345069D01*
X10872662Y12572966D02*
X11343268D01*
X10921410Y12770966D02*
X11339770D01*
X10925717Y13769966D02*
X11338172D01*
X10922085Y13022966D02*
X11336631D01*
X10926020Y14021966D02*
X11335142D01*
X10888354Y13832966D02*
X11333796D01*
X10855115Y12833966D02*
X11332398D01*
X10885689Y13580966D02*
X11331043D01*
X10847065Y12581966D02*
X11329728D01*
X10924086Y12761966D02*
X11327129D01*
X10926757Y13760966D02*
X11325925D01*
X10924558Y13013966D02*
X11324754D01*
X10926877Y14012966D02*
X11323613D01*
X10874560Y13841966D02*
X11322576D01*
X10305000Y12842966D02*
X11321491D01*
X10870659Y13589966D02*
X11320435D01*
X10305000Y12590966D02*
X11319404D01*
X10925874Y12752966D02*
X11317353D01*
X10926979Y13751966D02*
X11316397D01*
X10926156Y13004966D02*
X11315464D01*
X10926919Y14003966D02*
X11314552D01*
X10851445Y13850966D02*
X11313721D01*
X10305000Y12851966D02*
X11312850D01*
X10841342Y13598966D02*
X11311998D01*
X10305000Y12599966D02*
X11311167D01*
X10926822Y12743966D02*
X11309507D01*
X10926390Y13742966D02*
X11308732D01*
X10926921Y12995966D02*
X11307974D01*
X10926147Y13994966D02*
X11307233D01*
X10305000Y13859966D02*
X11306556D01*
X10305000Y12860966D02*
X11305847D01*
X10305000Y13607966D02*
X11305153D01*
X10305000Y12608966D02*
X11304475D01*
X10926954Y12734966D02*
X11303122D01*
X10924973Y13733966D02*
X11302490D01*
X10926873Y12986966D02*
X11301871D01*
X10924543Y13985966D02*
X11301267D01*
X10305000Y13868966D02*
X11300716D01*
X10305000Y12869966D02*
X11300138D01*
X10305000Y13616966D02*
X11299573D01*
X10305000Y12617966D02*
X11299022D01*
X10926273Y12725966D02*
X11297923D01*
X10922693Y13724966D02*
X11297410D01*
X10926011Y12977966D02*
X11296910D01*
X10922063Y13976966D02*
X11296421D01*
X10305000Y13877966D02*
X11295976D01*
X10305000Y12878966D02*
X11295511D01*
X10305000Y13625966D02*
X11295057D01*
X10305000Y12626966D02*
X11294614D01*
X10924763Y12716966D02*
X11293735D01*
X10919485Y13715966D02*
X11293327D01*
X10924311Y12968966D02*
X11292930D01*
X10918637Y13967966D02*
X11292543D01*
X10305000Y13886966D02*
X11292192D01*
X10305000Y12887966D02*
X11291826D01*
X10305000Y13634966D02*
X11291470D01*
X10305000Y12635966D02*
X11291125D01*
X10922384Y12707966D02*
X11290444D01*
X10915249Y13706966D02*
X11290130D01*
X10921731Y12959966D02*
X11289825D01*
X10914154Y13958966D02*
X11289531D01*
X10305000Y13895966D02*
X11289265D01*
X10858125Y12896966D02*
X11288990D01*
X10305000Y13643966D02*
X11288724D01*
X10863672Y12644966D02*
X11288468D01*
X10919067Y12698966D02*
X11287969D01*
X10909827Y13697966D02*
X11287742D01*
X10918194Y12950966D02*
X11287524D01*
X10908438Y13949966D02*
X11287316D01*
X10305000Y13904966D02*
X11287129D01*
X10877974Y12905966D02*
X11286939D01*
X10305000Y13652966D02*
X11286757D01*
X10881208Y12653966D02*
X11286585D01*
X10914709Y12689966D02*
X11286257D01*
X10902965Y13688966D02*
X11286113D01*
X10913583Y12941966D02*
X11285977D01*
X10901206Y13940966D02*
X11285850D01*
X10861027Y13913966D02*
X11285740D01*
X10890765Y12914966D02*
X11285630D01*
X10866114Y13661966D02*
X11285530D01*
X10893106Y12662966D02*
X11285438D01*
X10909142Y12680966D02*
X11285275D01*
X10894224Y13679966D02*
X11285210D01*
X10907716Y12932966D02*
X11285154D01*
X10891954Y13931966D02*
X11285106D01*
X10879625Y13922966D02*
X11285070D01*
X10900291Y12923966D02*
X11285039D01*
X10882727Y13670966D02*
X11285017D01*
X10902098Y12671966D02*
X11285004D01*
X10575602Y14615966D02*
X10824397D01*
X10575602Y12329966D02*
X10824397D01*
X10586874Y13400966D02*
X10813125D01*
X10587342Y13598966D02*
X10812657D01*
X10592737Y14417966D02*
X10807262D01*
X10592737Y12131966D02*
X10807262D01*
X10593065Y14867966D02*
X10806934D01*
X10593065Y12581966D02*
X10806934D01*
X10597179Y13148966D02*
X10802820D01*
X10597445Y13850966D02*
X10802554D01*
X10600887Y14165966D02*
X10799112D01*
X10600887Y11879966D02*
X10799112D01*
X10601115Y15119966D02*
X10798884D01*
X10601115Y12833966D02*
X10798884D01*
X10604125Y12896966D02*
X10795874D01*
X10604327Y14102966D02*
X10795672D01*
X10607027Y13913966D02*
X10792973D01*
X10607210Y13085966D02*
X10792789D01*
X10609672Y14930966D02*
X10790327D01*
X10609672Y12644966D02*
X10790327D01*
X10609841Y14354966D02*
X10790158D01*
X10609841Y12068966D02*
X10790158D01*
X10612114Y13661966D02*
X10787885D01*
X10612271Y13337966D02*
X10787728D01*
X10614388Y14678966D02*
X10785611D01*
X10614388Y12392966D02*
X10785611D01*
X10614535Y14606966D02*
X10785464D01*
X10614535Y12320966D02*
X10785464D01*
X10616521Y13409966D02*
X10783478D01*
X10616659Y13589966D02*
X10783341D01*
X10618532Y14426966D02*
X10781467D01*
X10618532Y12140966D02*
X10781467D01*
X10618662Y14858966D02*
X10781337D01*
X10618662Y12572966D02*
X10781337D01*
X10620436Y13157966D02*
X10779563D01*
X10620560Y13841966D02*
X10779439D01*
X10622247Y14174966D02*
X10777752D01*
X10622247Y11888966D02*
X10777752D01*
X10622365Y15110966D02*
X10777635D01*
X10622365Y12824966D02*
X10777635D01*
X10623974Y12905966D02*
X10776025D01*
X10624086Y14093966D02*
X10775913D01*
X10625625Y13922966D02*
X10774374D01*
X10625733Y13076966D02*
X10774267D01*
X10627208Y14939966D02*
X10772792D01*
X10627208Y12653966D02*
X10772792D01*
X10627311Y14345966D02*
X10772688D01*
X10627311Y12059966D02*
X10772688D01*
X10628727Y13670966D02*
X10771272D01*
X10628826Y13328966D02*
X10771173D01*
X10630189Y14687966D02*
X10769810D01*
X10630189Y12401966D02*
X10769810D01*
X10630285Y14597966D02*
X10769715D01*
X10630285Y12311966D02*
X10769715D01*
X10631597Y13418966D02*
X10768402D01*
X10631689Y13580966D02*
X10768310D01*
X10632956Y14435966D02*
X10767043D01*
X10632956Y12149966D02*
X10767043D01*
X10633045Y14849966D02*
X10766954D01*
X10633045Y12563966D02*
X10766954D01*
X10634268Y13166966D02*
X10765731D01*
X10634354Y13832966D02*
X10765645D01*
X10635537Y14183966D02*
X10764462D01*
X10635537Y11897966D02*
X10764462D01*
X10635620Y15101966D02*
X10764379D01*
X10635620Y12815966D02*
X10764379D01*
X10636765Y12914966D02*
X10763235D01*
X10636845Y14084966D02*
X10763154D01*
X10637954Y13931966D02*
X10762045D01*
X10638032Y13067966D02*
X10761967D01*
X10639106Y14948966D02*
X10760893D01*
X10639106Y12662966D02*
X10760893D01*
X10639182Y14336966D02*
X10760817D01*
X10639182Y12050966D02*
X10760817D01*
X10640224Y13679966D02*
X10759775D01*
X10640298Y13319966D02*
X10759701D01*
X10641309Y14696966D02*
X10758690D01*
X10641309Y12410966D02*
X10758690D01*
X10641381Y14588966D02*
X10758618D01*
X10641381Y12302966D02*
X10758618D01*
X10642363Y13427966D02*
X10757636D01*
X10642432Y13571966D02*
X10757567D01*
X10643387Y14444966D02*
X10756612D01*
X10643387Y12158966D02*
X10756612D01*
X10643454Y14840966D02*
X10756545D01*
X10643454Y12554966D02*
X10756545D01*
X10644382Y13175966D02*
X10755617D01*
X10644447Y13823966D02*
X10755552D01*
X10645349Y14192966D02*
X10754650D01*
X10645349Y11906966D02*
X10754650D01*
X10645413Y15092966D02*
X10754586D01*
X10645413Y12806966D02*
X10754586D01*
X10646291Y12923966D02*
X10753709D01*
X10646352Y14075966D02*
X10753647D01*
X10647206Y13940966D02*
X10752793D01*
X10647266Y13058966D02*
X10752733D01*
X10648098Y14957966D02*
X10751902D01*
X10648098Y12671966D02*
X10751902D01*
X10648156Y14327966D02*
X10751843D01*
X10648156Y12041966D02*
X10751843D01*
X10648965Y13688966D02*
X10751034D01*
X10649022Y13310966D02*
X10750977D01*
X10649810Y14705966D02*
X10750189D01*
X10649810Y12419966D02*
X10750189D01*
X10649865Y14579966D02*
X10750134D01*
X10649865Y12293966D02*
X10750134D01*
X10650633Y13436966D02*
X10749366D01*
X10650687Y13562966D02*
X10749312D01*
X10651434Y14453966D02*
X10748565D01*
X10651434Y12167966D02*
X10748565D01*
X10651487Y14831966D02*
X10748512D01*
X10651487Y12545966D02*
X10748512D01*
X10652215Y13184966D02*
X10747784D01*
X10652266Y13814966D02*
X10747733D01*
X10652975Y14201966D02*
X10747024D01*
X10652975Y11915966D02*
X10747024D01*
X10653025Y15083966D02*
X10746974D01*
X10653025Y12797966D02*
X10746974D01*
X10653716Y12932966D02*
X10746283D01*
X10653765Y14066966D02*
X10746234D01*
X10654438Y13949966D02*
X10745561D01*
X10654486Y13049966D02*
X10745514D01*
X10655142Y14966966D02*
X10744858D01*
X10655142Y12680966D02*
X10744858D01*
X10655188Y14318966D02*
X10744811D01*
X10655188Y12032966D02*
X10744811D01*
X10655827Y13697966D02*
X10744172D01*
X10655872Y13301966D02*
X10744127D01*
X10656495Y14714966D02*
X10743504D01*
X10656495Y12428966D02*
X10743504D01*
X10656539Y14570966D02*
X10743460D01*
X10656539Y12284966D02*
X10743460D01*
X10657145Y13445966D02*
X10742854D01*
X10657188Y13553966D02*
X10742811D01*
X10657779Y14462966D02*
X10742220D01*
X10657779Y12176966D02*
X10742220D01*
X10657821Y14822966D02*
X10742178D01*
X10657821Y12536966D02*
X10742178D01*
X10658396Y13193966D02*
X10741603D01*
X10658437Y13805966D02*
X10741562D01*
X10658998Y14210966D02*
X10741001D01*
X10658998Y11924966D02*
X10741001D01*
X10659037Y15074966D02*
X10740962D01*
X10659037Y12788966D02*
X10740962D01*
X10659583Y12941966D02*
X10740416D01*
X10659622Y14057966D02*
X10740377D01*
X10660154Y13958966D02*
X10739845D01*
X10660191Y13040966D02*
X10739808D01*
X10660709Y14975966D02*
X10739290D01*
X10660709Y12689966D02*
X10739290D01*
X10660745Y14309966D02*
X10739254D01*
X10660745Y12023966D02*
X10739254D01*
X10661249Y13706966D02*
X10738750D01*
X10661285Y13292966D02*
X10738715D01*
X10661775Y14723966D02*
X10738224D01*
X10661775Y12437966D02*
X10738224D01*
X10661809Y14561966D02*
X10738190D01*
X10661809Y12275966D02*
X10738190D01*
X10662286Y13454966D02*
X10737713D01*
X10662320Y13544966D02*
X10737679D01*
X10662784Y14471966D02*
X10737216D01*
X10662784Y12185966D02*
X10737216D01*
X10662816Y14813966D02*
X10737183D01*
X10662816Y12527966D02*
X10737183D01*
X10663267Y13202966D02*
X10736732D01*
X10663299Y13796966D02*
X10736700D01*
X10663737Y14219966D02*
X10736262D01*
X10663737Y11933966D02*
X10736262D01*
X10663768Y15065966D02*
X10736231D01*
X10663768Y12779966D02*
X10736231D01*
X10664194Y12950966D02*
X10735805D01*
X10664224Y14048966D02*
X10735775D01*
X10664637Y13967966D02*
X10735362D01*
X10664666Y13031966D02*
X10735333D01*
X10665067Y14984966D02*
X10734932D01*
X10665067Y12698966D02*
X10734932D01*
X10665096Y14300966D02*
X10734903D01*
X10665096Y12014966D02*
X10734903D01*
X10665485Y13715966D02*
X10734514D01*
X10665512Y13283966D02*
X10734487D01*
X10665890Y14732966D02*
X10734109D01*
X10665890Y12446966D02*
X10734109D01*
X10665917Y14552966D02*
X10734083D01*
X10665917Y12266966D02*
X10734083D01*
X10666282Y13463966D02*
X10733717D01*
X10666308Y13535966D02*
X10733691D01*
X10666663Y14480966D02*
X10733336D01*
X10666663Y12194966D02*
X10733336D01*
X10666688Y14804966D02*
X10733312D01*
X10666688Y12518966D02*
X10733312D01*
X10667031Y13211966D02*
X10732968D01*
X10667055Y13787966D02*
X10732944D01*
X10667387Y14228966D02*
X10732613D01*
X10667387Y11942966D02*
X10732613D01*
X10667410Y15056966D02*
X10732589D01*
X10667410Y12770966D02*
X10732589D01*
X10667731Y12959966D02*
X10732268D01*
X10667753Y14039966D02*
X10732246D01*
X10668063Y13976966D02*
X10731936D01*
X10668085Y13022966D02*
X10731914D01*
X10668384Y14993966D02*
X10731616D01*
X10668384Y12707966D02*
X10731616D01*
X10668404Y14291966D02*
X10731595D01*
X10668404Y12005966D02*
X10731595D01*
X10668693Y13724966D02*
X10731306D01*
X10668713Y13274966D02*
X10731286D01*
X10668990Y14741966D02*
X10731009D01*
X10668990Y12455966D02*
X10731009D01*
X10669010Y14543966D02*
X10730989D01*
X10669010Y12257966D02*
X10730989D01*
X10669277Y13472966D02*
X10730722D01*
X10669295Y13526966D02*
X10730704D01*
X10669552Y14489966D02*
X10730447D01*
X10669552Y12203966D02*
X10730447D01*
X10669570Y14795966D02*
X10730429D01*
X10669570Y12509966D02*
X10730429D01*
X10669816Y13220966D02*
X10730183D01*
X10669833Y13778966D02*
X10730166D01*
X10670069Y14237966D02*
X10729930D01*
X10670069Y11951966D02*
X10729930D01*
X10670086Y15047966D02*
X10729913D01*
X10670086Y12761966D02*
X10729913D01*
X10670311Y12968966D02*
X10729688D01*
X10670327Y14030966D02*
X10729672D01*
X10670543Y13985966D02*
X10729457D01*
X10670558Y13013966D02*
X10729441D01*
X10670763Y15002966D02*
X10729236D01*
X10670763Y12716966D02*
X10729236D01*
X10670777Y14282966D02*
X10729222D01*
X10670777Y11996966D02*
X10729222D01*
X10670973Y13733966D02*
X10729026D01*
X10670986Y13265966D02*
X10729013D01*
X10671172Y14750966D02*
X10728827D01*
X10671172Y12464966D02*
X10728827D01*
X10671185Y14534966D02*
X10728814D01*
X10671185Y12248966D02*
X10728814D01*
X10671361Y13481966D02*
X10728638D01*
X10671373Y13517966D02*
X10728626D01*
X10671539Y14498966D02*
X10728460D01*
X10671539Y12212966D02*
X10728460D01*
X10671550Y14786966D02*
X10728449D01*
X10671550Y12500966D02*
X10728449D01*
X10671706Y13229966D02*
X10728293D01*
X10671717Y13769966D02*
X10728282D01*
X10671864Y14246966D02*
X10728135D01*
X10671864Y11960966D02*
X10728135D01*
X10671874Y15038966D02*
X10728125D01*
X10671874Y12752966D02*
X10728125D01*
X10672011Y12977966D02*
X10727989D01*
X10672020Y14021966D02*
X10727979D01*
X10672147Y13994966D02*
X10727852D01*
X10672156Y13004966D02*
X10727843D01*
X10672273Y15011966D02*
X10727726D01*
X10672273Y12725966D02*
X10727726D01*
X10672281Y14273966D02*
X10727718D01*
X10672281Y11987966D02*
X10727718D01*
X10672390Y13742966D02*
X10727610D01*
X10672397Y13256966D02*
X10727602D01*
X10672495Y14759966D02*
X10727504D01*
X10672495Y12473966D02*
X10727504D01*
X10672502Y14525966D02*
X10727497D01*
X10672502Y12239966D02*
X10727497D01*
X10672591Y13490966D02*
X10727408D01*
X10672597Y13508966D02*
X10727402D01*
X10672677Y14507966D02*
X10727322D01*
X10672677Y12221966D02*
X10727322D01*
X10672682Y14777966D02*
X10727317D01*
X10672682Y12491966D02*
X10727317D01*
X10672752Y13238966D02*
X10727247D01*
X10672757Y13760966D02*
X10727242D01*
X10672818Y14255966D02*
X10727181D01*
X10672818Y11969966D02*
X10727181D01*
X10672822Y15029966D02*
X10727177D01*
X10672822Y12743966D02*
X10727177D01*
X10672873Y12986966D02*
X10727126D01*
X10672877Y14012966D02*
X10727122D01*
X10672919Y14003966D02*
X10727080D01*
X10672921Y12995966D02*
X10727078D01*
X10672954Y15020966D02*
X10727045D01*
X10672954Y12734966D02*
X10727045D01*
X10672956Y14264966D02*
X10727043D01*
X10672956Y11978966D02*
X10727043D01*
X10672979Y13751966D02*
X10727020D01*
X10672981Y13247966D02*
X10727018D01*
X10672995Y14768966D02*
X10727004D01*
X10672995Y12482966D02*
X10727004D01*
X10672995Y14516966D02*
X10727004D01*
X10672995Y12230966D02*
X10727004D01*
X10673000Y13499966D02*
X10726999D01*
X10305000Y14615966D02*
X10570397D01*
X10305000Y12329966D02*
X10570397D01*
X10305000Y13400966D02*
X10559125D01*
X10305000Y13598966D02*
X10558657D01*
X10305000Y14417966D02*
X10553262D01*
X10305000Y12131966D02*
X10553262D01*
X10305000Y14867966D02*
X10552934D01*
X10305000Y12581966D02*
X10552934D01*
X10305000Y13148966D02*
X10548820D01*
X10305000Y13850966D02*
X10548554D01*
X10305000Y14165966D02*
X10545112D01*
X10305000Y11879966D02*
X10545112D01*
X10305000Y15119966D02*
X10544884D01*
X10305000Y12833966D02*
X10544884D01*
X10305000Y12896966D02*
X10541874D01*
X10305000Y14102966D02*
X10541672D01*
X10305000Y13913966D02*
X10538973D01*
X10305000Y13085966D02*
X10538789D01*
X10305000Y14930966D02*
X10536327D01*
X10305000Y12644966D02*
X10536327D01*
X10305000Y14354966D02*
X10536158D01*
X10305000Y12068966D02*
X10536158D01*
X10305000Y13661966D02*
X10533885D01*
X10305000Y13337966D02*
X10533728D01*
X10305000Y14678966D02*
X10531611D01*
X10305000Y12392966D02*
X10531611D01*
X10305000Y14606966D02*
X10531464D01*
X10305000Y12320966D02*
X10531464D01*
X10305000Y13409966D02*
X10529478D01*
X10305000Y13589966D02*
X10529341D01*
X10305000Y14426966D02*
X10527467D01*
X10305000Y12140966D02*
X10527467D01*
X10305000Y14858966D02*
X10527337D01*
X10305000Y12572966D02*
X10527337D01*
X10305000Y13157966D02*
X10525563D01*
X10305000Y13841966D02*
X10525439D01*
X10305000Y14174966D02*
X10523752D01*
X10305000Y11888966D02*
X10523752D01*
X10305000Y15110966D02*
X10523635D01*
X10305000Y12824966D02*
X10523635D01*
X10305000Y12905966D02*
X10522025D01*
X10305000Y14093966D02*
X10521913D01*
X10305000Y13922966D02*
X10520374D01*
X10305000Y13076966D02*
X10520267D01*
X10305000Y14939966D02*
X10518792D01*
X10305000Y12653966D02*
X10518792D01*
X10305000Y14345966D02*
X10518688D01*
X10305000Y12059966D02*
X10518688D01*
X10305000Y13670966D02*
X10517272D01*
X10305000Y13328966D02*
X10517173D01*
X10305000Y14687966D02*
X10515810D01*
X10305000Y12401966D02*
X10515810D01*
X10305000Y14597966D02*
X10515715D01*
X10305000Y12311966D02*
X10515715D01*
X10305000Y13418966D02*
X10514402D01*
X10305000Y13580966D02*
X10514310D01*
X10305000Y14435966D02*
X10513043D01*
X10305000Y12149966D02*
X10513043D01*
X10305000Y14849966D02*
X10512954D01*
X10305000Y12563966D02*
X10512954D01*
X10305000Y13166966D02*
X10511731D01*
X10305000Y13832966D02*
X10511645D01*
X10305000Y14183966D02*
X10510462D01*
X10305000Y11897966D02*
X10510462D01*
X10305000Y15101966D02*
X10510379D01*
X10305000Y12815966D02*
X10510379D01*
X10305000Y12914966D02*
X10509235D01*
X10305000Y14084966D02*
X10509154D01*
X10305000Y13931966D02*
X10508045D01*
X10305000Y13067966D02*
X10507967D01*
X10305000Y14948966D02*
X10506893D01*
X10305000Y12662966D02*
X10506893D01*
X10305000Y14336966D02*
X10506817D01*
X10305000Y12050966D02*
X10506817D01*
X10305000Y13679966D02*
X10505775D01*
X10305000Y13319966D02*
X10505701D01*
X10305000Y14696966D02*
X10504690D01*
X10305000Y12410966D02*
X10504690D01*
X10305000Y14588966D02*
X10504618D01*
X10305000Y12302966D02*
X10504618D01*
X10305000Y13427966D02*
X10503636D01*
X10305000Y13571966D02*
X10503567D01*
X10305000Y14444966D02*
X10502612D01*
X10305000Y12158966D02*
X10502612D01*
X10305000Y14840966D02*
X10502545D01*
X10305000Y12554966D02*
X10502545D01*
X10305000Y13175966D02*
X10501617D01*
X10305000Y13823966D02*
X10501552D01*
X10305000Y14192966D02*
X10500650D01*
X10305000Y11906966D02*
X10500650D01*
X10305000Y15092966D02*
X10500586D01*
X10305000Y12806966D02*
X10500586D01*
X10305000Y12923966D02*
X10499709D01*
X10305000Y14075966D02*
X10499647D01*
X10305000Y13940966D02*
X10498793D01*
X10305000Y13058966D02*
X10498733D01*
X10305000Y14957966D02*
X10497902D01*
X10305000Y12671966D02*
X10497902D01*
X10305000Y14327966D02*
X10497843D01*
X10305000Y12041966D02*
X10497843D01*
X10305000Y13688966D02*
X10497034D01*
X10305000Y13310966D02*
X10496977D01*
X10305000Y14705966D02*
X10496189D01*
X10305000Y12419966D02*
X10496189D01*
X10305000Y14579966D02*
X10496134D01*
X10305000Y12293966D02*
X10496134D01*
X10305000Y13436966D02*
X10495366D01*
X10305000Y13562966D02*
X10495312D01*
X10305000Y14453966D02*
X10494565D01*
X10305000Y12167966D02*
X10494565D01*
X10305000Y14831966D02*
X10494512D01*
X10305000Y12545966D02*
X10494512D01*
X10305000Y13184966D02*
X10493784D01*
X10305000Y13814966D02*
X10493733D01*
X10305000Y14201966D02*
X10493024D01*
X10305000Y11915966D02*
X10493024D01*
X10305000Y15083966D02*
X10492974D01*
X10305000Y12797966D02*
X10492974D01*
X10305000Y12932966D02*
X10492283D01*
X10305000Y14066966D02*
X10492234D01*
X10305000Y13949966D02*
X10491561D01*
X10305000Y13049966D02*
X10491514D01*
X10305000Y14966966D02*
X10490858D01*
X10305000Y12680966D02*
X10490858D01*
X10305000Y14318966D02*
X10490811D01*
X10305000Y12032966D02*
X10490811D01*
X10305000Y13697966D02*
X10490172D01*
X10305000Y13301966D02*
X10490127D01*
X10305000Y14714966D02*
X10489504D01*
X10305000Y12428966D02*
X10489504D01*
X10305000Y14570966D02*
X10489460D01*
X10305000Y12284966D02*
X10489460D01*
X10305000Y13445966D02*
X10488854D01*
X10305000Y13553966D02*
X10488811D01*
X10305000Y14462966D02*
X10488220D01*
X10305000Y12176966D02*
X10488220D01*
X10305000Y14822966D02*
X10488178D01*
X10305000Y12536966D02*
X10488178D01*
X10305000Y13193966D02*
X10487603D01*
X10305000Y13805966D02*
X10487562D01*
X10305000Y14210966D02*
X10487001D01*
X10305000Y11924966D02*
X10487001D01*
X10305000Y15074966D02*
X10486962D01*
X10305000Y12788966D02*
X10486962D01*
X10305000Y12941966D02*
X10486416D01*
X10305000Y14057966D02*
X10486377D01*
X10305000Y13958966D02*
X10485845D01*
X10305000Y13040966D02*
X10485808D01*
X10305000Y14975966D02*
X10485290D01*
X10305000Y12689966D02*
X10485290D01*
X10305000Y14309966D02*
X10485254D01*
X10305000Y12023966D02*
X10485254D01*
X10305000Y13706966D02*
X10484750D01*
X10305000Y13292966D02*
X10484715D01*
X10305000Y14723966D02*
X10484224D01*
X10305000Y12437966D02*
X10484224D01*
X10305000Y14561966D02*
X10484190D01*
X10305000Y12275966D02*
X10484190D01*
X10305000Y13454966D02*
X10483713D01*
X10305000Y13544966D02*
X10483679D01*
X10305000Y14471966D02*
X10483216D01*
X10305000Y12185966D02*
X10483216D01*
X10305000Y14813966D02*
X10483183D01*
X10305000Y12527966D02*
X10483183D01*
X10305000Y13202966D02*
X10482732D01*
X10305000Y13796966D02*
X10482700D01*
X10305000Y14219966D02*
X10482262D01*
X10305000Y11933966D02*
X10482262D01*
X10305000Y15065966D02*
X10482231D01*
X10305000Y12779966D02*
X10482231D01*
X10305000Y12950966D02*
X10481805D01*
X10305000Y14048966D02*
X10481775D01*
X10305000Y13967966D02*
X10481362D01*
X10305000Y13031966D02*
X10481333D01*
X10305000Y14984966D02*
X10480932D01*
X10305000Y12698966D02*
X10480932D01*
X10305000Y14300966D02*
X10480903D01*
X10305000Y12014966D02*
X10480903D01*
X10305000Y13715966D02*
X10480514D01*
X10305000Y13283966D02*
X10480487D01*
X10305000Y14732966D02*
X10480109D01*
X10305000Y12446966D02*
X10480109D01*
X10305000Y14552966D02*
X10480083D01*
X10305000Y12266966D02*
X10480083D01*
X10305000Y13463966D02*
X10479717D01*
X10305000Y13535966D02*
X10479691D01*
X10305000Y14480966D02*
X10479336D01*
X10305000Y12194966D02*
X10479336D01*
X10305000Y14804966D02*
X10479312D01*
X10305000Y12518966D02*
X10479312D01*
X10305000Y13211966D02*
X10478968D01*
X10305000Y13787966D02*
X10478944D01*
X10305000Y14228966D02*
X10478613D01*
X10305000Y11942966D02*
X10478613D01*
X10305000Y15056966D02*
X10478589D01*
X10305000Y12770966D02*
X10478589D01*
X10305000Y12959966D02*
X10478268D01*
X10305000Y14039966D02*
X10478246D01*
X10305000Y13976966D02*
X10477936D01*
X10305000Y13022966D02*
X10477914D01*
X10305000Y14993966D02*
X10477616D01*
X10305000Y12707966D02*
X10477616D01*
X10305000Y14291966D02*
X10477595D01*
X10305000Y12005966D02*
X10477595D01*
X10305000Y13724966D02*
X10477306D01*
X10305000Y13274966D02*
X10477286D01*
X10305000Y14741966D02*
X10477009D01*
X10305000Y12455966D02*
X10477009D01*
X10305000Y14543966D02*
X10476989D01*
X10305000Y12257966D02*
X10476989D01*
X10305000Y13472966D02*
X10476722D01*
X10305000Y13526966D02*
X10476704D01*
X10305000Y14489966D02*
X10476447D01*
X10305000Y12203966D02*
X10476447D01*
X10305000Y14795966D02*
X10476429D01*
X10305000Y12509966D02*
X10476429D01*
X10305000Y13220966D02*
X10476183D01*
X10305000Y13778966D02*
X10476166D01*
X10305000Y14237966D02*
X10475930D01*
X10305000Y11951966D02*
X10475930D01*
X10305000Y15047966D02*
X10475913D01*
X10305000Y12761966D02*
X10475913D01*
X10305000Y12968966D02*
X10475688D01*
X10305000Y14030966D02*
X10475672D01*
X10305000Y13985966D02*
X10475457D01*
X10305000Y13013966D02*
X10475441D01*
X10305000Y15002966D02*
X10475236D01*
X10305000Y12716966D02*
X10475236D01*
X10305000Y14282966D02*
X10475222D01*
X10305000Y11996966D02*
X10475222D01*
X10305000Y13733966D02*
X10475026D01*
X10305000Y13265966D02*
X10475013D01*
X10305000Y14750966D02*
X10474827D01*
X10305000Y12464966D02*
X10474827D01*
X10305000Y14534966D02*
X10474814D01*
X10305000Y12248966D02*
X10474814D01*
X10305000Y13481966D02*
X10474638D01*
X10305000Y13517966D02*
X10474626D01*
X10305000Y14498966D02*
X10474460D01*
X10305000Y12212966D02*
X10474460D01*
X10305000Y14786966D02*
X10474449D01*
X10305000Y12500966D02*
X10474449D01*
X10305000Y13229966D02*
X10474293D01*
X10305000Y13769966D02*
X10474282D01*
X10305000Y14246966D02*
X10474135D01*
X10305000Y11960966D02*
X10474135D01*
X10305000Y15038966D02*
X10474125D01*
X10305000Y12752966D02*
X10474125D01*
X10305000Y12977966D02*
X10473989D01*
X10305000Y14021966D02*
X10473979D01*
X10305000Y13994966D02*
X10473852D01*
X10305000Y13004966D02*
X10473843D01*
X10305000Y15011966D02*
X10473726D01*
X10305000Y12725966D02*
X10473726D01*
X10305000Y14273966D02*
X10473718D01*
X10305000Y11987966D02*
X10473718D01*
X10305000Y13742966D02*
X10473610D01*
X10305000Y13256966D02*
X10473602D01*
X10305000Y14759966D02*
X10473504D01*
X10305000Y12473966D02*
X10473504D01*
X10305000Y14525966D02*
X10473497D01*
X10305000Y12239966D02*
X10473497D01*
X10305000Y13490966D02*
X10473408D01*
X10305000Y13508966D02*
X10473402D01*
X10305000Y14507966D02*
X10473322D01*
X10305000Y12221966D02*
X10473322D01*
X10305000Y14777966D02*
X10473317D01*
X10305000Y12491966D02*
X10473317D01*
X10305000Y13238966D02*
X10473247D01*
X10305000Y13760966D02*
X10473242D01*
X10305000Y14255966D02*
X10473181D01*
X10305000Y11969966D02*
X10473181D01*
X10305000Y15029966D02*
X10473177D01*
X10305000Y12743966D02*
X10473177D01*
X10305000Y12986966D02*
X10473126D01*
X10305000Y14012966D02*
X10473122D01*
X10305000Y14003966D02*
X10473080D01*
X10305000Y12995966D02*
X10473078D01*
X10305000Y15020966D02*
X10473045D01*
X10305000Y12734966D02*
X10473045D01*
X10305000Y14264966D02*
X10473043D01*
X10305000Y11978966D02*
X10473043D01*
X10305000Y13751966D02*
X10473020D01*
X10305000Y13247966D02*
X10473018D01*
X10305000Y14768966D02*
X10473004D01*
X10305000Y12482966D02*
X10473004D01*
X10305000Y14516966D02*
X10473004D01*
X10305000Y12230966D02*
X10473004D01*
X10305000Y13499966D02*
X10472999D01*
X10305000Y16091966D02*
X10459884D01*
X10305000Y10907966D02*
X10459212D01*
X10305000Y16100966D02*
X10405804D01*
X10305000Y10898966D02*
X10405522D01*
X10305000Y16109966D02*
X10373610D01*
X10305000Y10889966D02*
X10373404D01*
X10305000Y16118966D02*
X10348626D01*
X10305000Y10880966D02*
X10348458D01*
X10305000Y16127966D02*
X10327687D01*
X10305000Y10871966D02*
X10327543D01*
G54D22*
X11900000Y12800000D03*
Y13650000D03*
X14900000Y14600000D03*
Y14200000D03*
X13500000Y12100000D03*
X13000000Y13900000D03*
G54D37*
X10573000Y15024000D03*
X10827000D03*
X10573000Y14770000D03*
X10827000D03*
X10573000Y14516000D03*
X10827000D03*
X10573000Y14262000D03*
X10827000D03*
X10573000Y14008000D03*
X10827000D03*
X10573000Y13754000D03*
X10827000D03*
X10573000Y13500000D03*
X10827000D03*
X10573000Y13246000D03*
X10827000D03*
X10573000Y12992000D03*
X10827000D03*
X10573000Y12738000D03*
X10827000D03*
X10573000Y12484000D03*
X10827000D03*
X10573000Y12230000D03*
X10827000D03*
X10573000Y11976000D03*
X10827000D03*
X15024000Y16427000D03*
Y16173000D03*
X14770000Y16427000D03*
Y16173000D03*
X14516000Y16427000D03*
Y16173000D03*
X14262000Y16427000D03*
Y16173000D03*
X14008000Y16427000D03*
Y16173000D03*
X13754000Y16427000D03*
Y16173000D03*
X13500000Y16427000D03*
Y16173000D03*
X13246000Y16427000D03*
Y16173000D03*
X12992000Y16427000D03*
Y16173000D03*
X12738000Y16427000D03*
Y16173000D03*
X12484000Y16427000D03*
Y16173000D03*
X12230000Y16427000D03*
Y16173000D03*
X11976000Y16427000D03*
Y16173000D03*
X15024000Y10827000D03*
Y10573000D03*
X14770000Y10827000D03*
Y10573000D03*
X14516000Y10827000D03*
Y10573000D03*
X14262000Y10827000D03*
Y10573000D03*
X14008000Y10827000D03*
Y10573000D03*
X13754000Y10827000D03*
Y10573000D03*
X13500000Y10827000D03*
Y10573000D03*
X13246000Y10827000D03*
Y10573000D03*
X12992000Y10827000D03*
Y10573000D03*
X12738000Y10827000D03*
Y10573000D03*
X12484000Y10827000D03*
Y10573000D03*
X12230000Y10827000D03*
Y10573000D03*
X11976000Y10827000D03*
Y10573000D03*
X16173000Y15024000D03*
X16427000D03*
X16173000Y14770000D03*
X16427000D03*
X16173000Y14516000D03*
X16427000D03*
X16173000Y14262000D03*
X16427000D03*
X16173000Y14008000D03*
X16427000D03*
X16173000Y13754000D03*
X16427000D03*
X16173000Y13500000D03*
X16427000D03*
X16173000Y13246000D03*
X16427000D03*
X16173000Y12992000D03*
X16427000D03*
X16173000Y12738000D03*
X16427000D03*
X16173000Y12484000D03*
X16427000D03*
X16173000Y12230000D03*
X16427000D03*
X16173000Y11976000D03*
X16427000D03*
G54D40*
X13181317Y11931317D02*
X13163639Y11913639D01*
X13018682Y11931317D02*
X13036360Y11913639D01*
X13018682Y11768682D02*
X13036360Y11786360D01*
X13181317Y11768682D02*
X13163639Y11786360D01*
X11318682Y13754317D02*
X11336360Y13736639D01*
X11318682Y13591682D02*
X11336360Y13609360D01*
X11481317Y13591682D02*
X11463639Y13609360D01*
X11481317Y13754317D02*
X11463639Y13736639D01*
X11988388Y13738388D02*
X11970710Y13720710D01*
X11811611Y13738388D02*
X11829289Y13720710D01*
X11811611Y13561611D02*
X11829289Y13579289D01*
X11988388Y13561611D02*
X11970710Y13579289D01*
X11318682Y14008317D02*
X11336360Y13990639D01*
X11318682Y13845682D02*
X11336360Y13863360D01*
X11481317Y13845682D02*
X11463639Y13863360D01*
X11481317Y14008317D02*
X11463639Y13990639D01*
X14988388Y14288388D02*
X14970710Y14270710D01*
X14811611Y14288388D02*
X14829289Y14270710D01*
X14811611Y14111611D02*
X14829289Y14129289D01*
X14988388Y14111611D02*
X14970710Y14129289D01*
X15418682Y13908317D02*
X15436360Y13890639D01*
X15418682Y13745682D02*
X15436360Y13763360D01*
X15581317Y13745682D02*
X15563639Y13763360D01*
X15581317Y13908317D02*
X15563639Y13890639D01*
X15418682Y13654317D02*
X15436360Y13636639D01*
X15418682Y13491682D02*
X15436360Y13509360D01*
X15581317Y13491682D02*
X15563639Y13509360D01*
X15581317Y13654317D02*
X15563639Y13636639D01*
X13518890Y13468890D02*
X13501213Y13451213D01*
X13441109Y13468890D02*
X13458786Y13451213D01*
X13441109Y13391109D02*
X13458786Y13408786D01*
X13518890Y13391109D02*
X13501213Y13408786D01*
X12538890Y13538890D02*
X12521213Y13521213D01*
X12461109Y13538890D02*
X12478786Y13521213D01*
X12461109Y13461109D02*
X12478786Y13478786D01*
X12538890Y13461109D02*
X12521213Y13478786D01*
X12338890Y13538890D02*
X12321213Y13521213D01*
X12261109Y13538890D02*
X12278786Y13521213D01*
X12261109Y13461109D02*
X12278786Y13478786D01*
X12338890Y13461109D02*
X12321213Y13478786D01*
X12538890Y13648890D02*
X12521213Y13631213D01*
X12461109Y13648890D02*
X12478786Y13631213D01*
X12461109Y13571109D02*
X12478786Y13588786D01*
X12538890Y13571109D02*
X12521213Y13588786D01*
X12738890Y13528890D02*
X12721213Y13511213D01*
X12661109Y13528890D02*
X12678786Y13511213D01*
X12661109Y13451109D02*
X12678786Y13468786D01*
X12738890Y13451109D02*
X12721213Y13468786D01*
X12738890Y13648890D02*
X12721213Y13631213D01*
X12661109Y13648890D02*
X12678786Y13631213D01*
X12661109Y13571109D02*
X12678786Y13588786D01*
X12738890Y13571109D02*
X12721213Y13588786D01*
X12338890Y13648890D02*
X12321213Y13631213D01*
X12261109Y13648890D02*
X12278786Y13631213D01*
X12261109Y13571109D02*
X12278786Y13588786D01*
X12338890Y13571109D02*
X12321213Y13588786D01*
X12138890Y13648890D02*
X12121213Y13631213D01*
X12061109Y13648890D02*
X12078786Y13631213D01*
X12061109Y13571109D02*
X12078786Y13588786D01*
X12138890Y13571109D02*
X12121213Y13588786D01*
X12138890Y13538890D02*
X12121213Y13521213D01*
X12061109Y13538890D02*
X12078786Y13521213D01*
X12061109Y13461109D02*
X12078786Y13478786D01*
X12138890Y13461109D02*
X12121213Y13478786D01*
X13038890Y13668890D02*
X13021213Y13651213D01*
X12961109Y13668890D02*
X12978786Y13651213D01*
X12961109Y13591109D02*
X12978786Y13608786D01*
X13038890Y13591109D02*
X13021213Y13608786D01*
X13218890Y13608890D02*
X13201213Y13591213D01*
X13141109Y13608890D02*
X13158786Y13591213D01*
X13141109Y13531109D02*
X13158786Y13548786D01*
X13218890Y13531109D02*
X13201213Y13548786D01*
X13218890Y13468890D02*
X13201213Y13451213D01*
X13141109Y13468890D02*
X13158786Y13451213D01*
X13141109Y13391109D02*
X13158786Y13408786D01*
X13218890Y13391109D02*
X13201213Y13408786D01*
X13378890Y13468890D02*
X13361213Y13451213D01*
X13301109Y13468890D02*
X13318786Y13451213D01*
X13301109Y13391109D02*
X13318786Y13408786D01*
X13378890Y13391109D02*
X13361213Y13408786D01*
X13378890Y13608890D02*
X13361213Y13591213D01*
X13301109Y13608890D02*
X13318786Y13591213D01*
X13301109Y13531109D02*
X13318786Y13548786D01*
X13378890Y13531109D02*
X13361213Y13548786D01*
X13518890Y13608890D02*
X13501213Y13591213D01*
X13441109Y13608890D02*
X13458786Y13591213D01*
X13441109Y13531109D02*
X13458786Y13548786D01*
X13518890Y13531109D02*
X13501213Y13548786D01*
X13938890Y14038890D02*
X13921213Y14021213D01*
X13861109Y14038890D02*
X13878786Y14021213D01*
X13861109Y13961109D02*
X13878786Y13978786D01*
X13938890Y13961109D02*
X13921213Y13978786D01*
X13938890Y14178890D02*
X13921213Y14161213D01*
X13861109Y14178890D02*
X13878786Y14161213D01*
X13861109Y14101109D02*
X13878786Y14118786D01*
X13938890Y14101109D02*
X13921213Y14118786D01*
X14088890Y14178890D02*
X14071213Y14161213D01*
X14011109Y14178890D02*
X14028786Y14161213D01*
X14011109Y14101109D02*
X14028786Y14118786D01*
X14088890Y14101109D02*
X14071213Y14118786D01*
X14238890Y14178890D02*
X14221213Y14161213D01*
X14161109Y14178890D02*
X14178786Y14161213D01*
X14161109Y14101109D02*
X14178786Y14118786D01*
X14238890Y14101109D02*
X14221213Y14118786D01*
X14388890Y14038890D02*
X14371213Y14021213D01*
X14311109Y14038890D02*
X14328786Y14021213D01*
X14311109Y13961109D02*
X14328786Y13978786D01*
X14388890Y13961109D02*
X14371213Y13978786D01*
X14538890Y14038890D02*
X14521213Y14021213D01*
X14461109Y14038890D02*
X14478786Y14021213D01*
X14461109Y13961109D02*
X14478786Y13978786D01*
X14538890Y13961109D02*
X14521213Y13978786D01*
X14388890Y14178890D02*
X14371213Y14161213D01*
X14311109Y14178890D02*
X14328786Y14161213D01*
X14311109Y14101109D02*
X14328786Y14118786D01*
X14388890Y14101109D02*
X14371213Y14118786D01*
X14238890Y14038890D02*
X14221213Y14021213D01*
X14161109Y14038890D02*
X14178786Y14021213D01*
X14161109Y13961109D02*
X14178786Y13978786D01*
X14238890Y13961109D02*
X14221213Y13978786D01*
X14098890Y14038890D02*
X14081213Y14021213D01*
X14021109Y14038890D02*
X14038786Y14021213D01*
X14021109Y13961109D02*
X14038786Y13978786D01*
X14098890Y13961109D02*
X14081213Y13978786D01*
X14538890Y14178890D02*
X14521213Y14161213D01*
X14461109Y14178890D02*
X14478786Y14161213D01*
X14461109Y14101109D02*
X14478786Y14118786D01*
X14538890Y14101109D02*
X14521213Y14118786D01*
G74*
X0Y0D02*
M02*
