*
*
G04 PADS Layout (Build Number 2004.211.1) generated Gerber (RS-274-X) file*
G04 PC Version=2.1*
*
%IN "BD9E102FJ_104.pcb"*%
*
%MOMM*%
*
%FSLAX35Y35*%
*
*
*
*
G04 PC Standard Apertures*
*
*
G04 Thermal Relief Aperture macro.*
%AMTER*
1,1,$1,0,0*
1,0,$1-$2,0,0*
21,0,$3,$4,0,0,45*
21,0,$3,$4,0,0,135*
%
*
*
G04 Annular Aperture macro.*
%AMANN*
1,1,$1,0,0*
1,0,$2,0,0*
%
*
*
G04 Odd Aperture macro.*
%AMODD*
1,1,$1,0,0*
1,0,$1-0.005,0,0*
%
*
*
G04 PC Custom Aperture Macros*
*
*
*
*
*
*
G04 PC Aperture Table*
*
%ADD024C,0.254*%
%ADD034C,0.0254*%
*
*
*
*
G04 PC Custom Flashes*
G04 Layer Name BD9E102FJ_104.pcb - flashes*
%LPD*%
*
*
G04 PC Circuitry*
G04 Layer Name BD9E102FJ_104.pcb - circuitry*
%LPD*%
*
G54D24*
G01X12998400Y12350000D02*
X13201600D01*
X13100000Y12248400D02*
Y12451600D01*
X12998400Y12100000D02*
X13201600D01*
X13100000Y11998400D02*
Y12201600D01*
X12998400Y11850000D02*
X13201600D01*
X13100000Y11748400D02*
Y11951600D01*
X11298400Y12927000D02*
X11501600D01*
X11400000Y12825400D02*
Y13028600D01*
X11298400Y12673000D02*
X11501600D01*
X11400000Y12571400D02*
Y12774600D01*
X15398400Y14573000D02*
X15601600D01*
X15500000Y14471400D02*
Y14674600D01*
X15398400Y14827000D02*
X15601600D01*
X15500000Y14725400D02*
Y14928600D01*
X11798400Y12800000D02*
X12001600D01*
X11900000Y12698400D02*
Y12901600D01*
X11798400Y13650000D02*
X12001600D01*
X11900000Y13548400D02*
Y13751600D01*
X14798400Y14600000D02*
X15001600D01*
X14900000Y14498400D02*
Y14701600D01*
X14798400Y14200000D02*
X15001600D01*
X14900000Y14098400D02*
Y14301600D01*
X13398400Y12100000D02*
X13601600D01*
X13500000Y11998400D02*
Y12201600D01*
X12898400Y13900000D02*
X13101600D01*
X13000000Y13798400D02*
Y14001600D01*
X10398400Y10398400D02*
X10601600Y10601600D01*
X10398400D02*
X10601600Y10398400D01*
X16398400D02*
X16601600Y10601600D01*
X16398400D02*
X16601600Y10398400D01*
X10398400Y16398400D02*
X10601600Y16601600D01*
X10398400D02*
X10601600Y16398400D01*
X16398400D02*
X16601600Y16601600D01*
X16398400D02*
X16601600Y16398400D01*
X11298400Y13673000D02*
X11501600D01*
X11400000Y13571400D02*
Y13774600D01*
X11298400Y13927000D02*
X11501600D01*
X11400000Y13825400D02*
Y14028600D01*
X15398400Y13573000D02*
X15601600D01*
X15500000Y13471400D02*
Y13674600D01*
X15398400Y13827000D02*
X15601600D01*
X15500000Y13725400D02*
Y13928600D01*
X10471400Y14922400D02*
X10674600D01*
Y15125600*
X10471400*
Y14922400*
X10573000Y15024000D02*
Y15125600D01*
X10725400Y14922400D02*
X10928600D01*
Y15125600*
X10725400*
Y14922400*
X10827000Y15024000D02*
Y15125600D01*
X10471400Y14668400D02*
X10674600D01*
Y14871600*
X10471400*
Y14668400*
X10573000Y14770000D02*
Y14871600D01*
X10725400Y14668400D02*
X10928600D01*
Y14871600*
X10725400*
Y14668400*
X10827000Y14770000D02*
Y14871600D01*
X10471400Y14414400D02*
X10674600D01*
Y14617600*
X10471400*
Y14414400*
X10573000Y14516000D02*
Y14617600D01*
X10725400Y14414400D02*
X10928600D01*
Y14617600*
X10725400*
Y14414400*
X10827000Y14516000D02*
Y14617600D01*
X10471400Y14160400D02*
X10674600D01*
Y14363600*
X10471400*
Y14160400*
X10573000Y14262000D02*
Y14363600D01*
X10725400Y14160400D02*
X10928600D01*
Y14363600*
X10725400*
Y14160400*
X10827000Y14262000D02*
Y14363600D01*
X10471400Y13906400D02*
X10674600D01*
Y14109600*
X10471400*
Y13906400*
X10573000Y14008000D02*
Y14109600D01*
X10725400Y13906400D02*
X10928600D01*
Y14109600*
X10725400*
Y13906400*
X10827000Y14008000D02*
Y14109600D01*
X10471400Y13652400D02*
X10674600D01*
Y13855600*
X10471400*
Y13652400*
X10573000Y13754000D02*
Y13855600D01*
X10725400Y13652400D02*
X10928600D01*
Y13855600*
X10725400*
Y13652400*
X10827000Y13754000D02*
Y13855600D01*
X10471400Y13398400D02*
X10674600D01*
Y13601600*
X10471400*
Y13398400*
X10573000Y13500000D02*
Y13601600D01*
X10725400Y13398400D02*
X10928600D01*
Y13601600*
X10725400*
Y13398400*
X10827000Y13500000D02*
Y13601600D01*
X10471400Y13144400D02*
X10674600D01*
Y13347600*
X10471400*
Y13144400*
X10573000Y13246000D02*
Y13347600D01*
X10725400Y13144400D02*
X10928600D01*
Y13347600*
X10725400*
Y13144400*
X10827000Y13246000D02*
Y13347600D01*
X10471400Y12890400D02*
X10674600D01*
Y13093600*
X10471400*
Y12890400*
X10573000Y12992000D02*
Y13093600D01*
X10725400Y12890400D02*
X10928600D01*
Y13093600*
X10725400*
Y12890400*
X10827000Y12992000D02*
Y13093600D01*
X10471400Y12636400D02*
X10674600D01*
Y12839600*
X10471400*
Y12636400*
X10573000Y12738000D02*
Y12839600D01*
X10725400Y12636400D02*
X10928600D01*
Y12839600*
X10725400*
Y12636400*
X10827000Y12738000D02*
Y12839600D01*
X10471400Y12382400D02*
X10674600D01*
Y12585600*
X10471400*
Y12382400*
X10573000Y12484000D02*
Y12585600D01*
X10725400Y12382400D02*
X10928600D01*
Y12585600*
X10725400*
Y12382400*
X10827000Y12484000D02*
Y12585600D01*
X10471400Y12128400D02*
X10674600D01*
Y12331600*
X10471400*
Y12128400*
X10573000Y12230000D02*
Y12331600D01*
X10725400Y12128400D02*
X10928600D01*
Y12331600*
X10725400*
Y12128400*
X10827000Y12230000D02*
Y12331600D01*
X10471400Y11874400D02*
X10674600D01*
Y12077600*
X10471400*
Y11874400*
X10573000Y11976000D02*
Y12077600D01*
X10725400Y11874400D02*
X10928600D01*
Y12077600*
X10725400*
Y11874400*
X10827000Y11976000D02*
Y12077600D01*
X14922400Y16325400D02*
X15125600D01*
Y16528600*
X14922400*
Y16325400*
X15024000Y16427000D02*
Y16528600D01*
X14922400Y16071400D02*
X15125600D01*
Y16274600*
X14922400*
Y16071400*
X15024000Y16173000D02*
Y16274600D01*
X14668400Y16325400D02*
X14871600D01*
Y16528600*
X14668400*
Y16325400*
X14770000Y16427000D02*
Y16528600D01*
X14668400Y16071400D02*
X14871600D01*
Y16274600*
X14668400*
Y16071400*
X14770000Y16173000D02*
Y16274600D01*
X14414400Y16325400D02*
X14617600D01*
Y16528600*
X14414400*
Y16325400*
X14516000Y16427000D02*
Y16528600D01*
X14414400Y16071400D02*
X14617600D01*
Y16274600*
X14414400*
Y16071400*
X14516000Y16173000D02*
Y16274600D01*
X14160400Y16325400D02*
X14363600D01*
Y16528600*
X14160400*
Y16325400*
X14262000Y16427000D02*
Y16528600D01*
X14160400Y16071400D02*
X14363600D01*
Y16274600*
X14160400*
Y16071400*
X14262000Y16173000D02*
Y16274600D01*
X13906400Y16325400D02*
X14109600D01*
Y16528600*
X13906400*
Y16325400*
X14008000Y16427000D02*
Y16528600D01*
X13906400Y16071400D02*
X14109600D01*
Y16274600*
X13906400*
Y16071400*
X14008000Y16173000D02*
Y16274600D01*
X13652400Y16325400D02*
X13855600D01*
Y16528600*
X13652400*
Y16325400*
X13754000Y16427000D02*
Y16528600D01*
X13652400Y16071400D02*
X13855600D01*
Y16274600*
X13652400*
Y16071400*
X13754000Y16173000D02*
Y16274600D01*
X13398400Y16325400D02*
X13601600D01*
Y16528600*
X13398400*
Y16325400*
X13500000Y16427000D02*
Y16528600D01*
X13398400Y16071400D02*
X13601600D01*
Y16274600*
X13398400*
Y16071400*
X13500000Y16173000D02*
Y16274600D01*
X13144400Y16325400D02*
X13347600D01*
Y16528600*
X13144400*
Y16325400*
X13246000Y16427000D02*
Y16528600D01*
X13144400Y16071400D02*
X13347600D01*
Y16274600*
X13144400*
Y16071400*
X13246000Y16173000D02*
Y16274600D01*
X12890400Y16325400D02*
X13093600D01*
Y16528600*
X12890400*
Y16325400*
X12992000Y16427000D02*
Y16528600D01*
X12890400Y16071400D02*
X13093600D01*
Y16274600*
X12890400*
Y16071400*
X12992000Y16173000D02*
Y16274600D01*
X12636400Y16325400D02*
X12839600D01*
Y16528600*
X12636400*
Y16325400*
X12738000Y16427000D02*
Y16528600D01*
X12636400Y16071400D02*
X12839600D01*
Y16274600*
X12636400*
Y16071400*
X12738000Y16173000D02*
Y16274600D01*
X12382400Y16325400D02*
X12585600D01*
Y16528600*
X12382400*
Y16325400*
X12484000Y16427000D02*
Y16528600D01*
X12382400Y16071400D02*
X12585600D01*
Y16274600*
X12382400*
Y16071400*
X12484000Y16173000D02*
Y16274600D01*
X12128400Y16325400D02*
X12331600D01*
Y16528600*
X12128400*
Y16325400*
X12230000Y16427000D02*
Y16528600D01*
X12128400Y16071400D02*
X12331600D01*
Y16274600*
X12128400*
Y16071400*
X12230000Y16173000D02*
Y16274600D01*
X11874400Y16325400D02*
X12077600D01*
Y16528600*
X11874400*
Y16325400*
X11976000Y16427000D02*
Y16528600D01*
X11874400Y16071400D02*
X12077600D01*
Y16274600*
X11874400*
Y16071400*
X11976000Y16173000D02*
Y16274600D01*
X14922400Y10725400D02*
X15125600D01*
Y10928600*
X14922400*
Y10725400*
X15024000Y10827000D02*
Y10928600D01*
X14922400Y10471400D02*
X15125600D01*
Y10674600*
X14922400*
Y10471400*
X15024000Y10573000D02*
Y10674600D01*
X14668400Y10725400D02*
X14871600D01*
Y10928600*
X14668400*
Y10725400*
X14770000Y10827000D02*
Y10928600D01*
X14668400Y10471400D02*
X14871600D01*
Y10674600*
X14668400*
Y10471400*
X14770000Y10573000D02*
Y10674600D01*
X14414400Y10725400D02*
X14617600D01*
Y10928600*
X14414400*
Y10725400*
X14516000Y10827000D02*
Y10928600D01*
X14414400Y10471400D02*
X14617600D01*
Y10674600*
X14414400*
Y10471400*
X14516000Y10573000D02*
Y10674600D01*
X14160400Y10725400D02*
X14363600D01*
Y10928600*
X14160400*
Y10725400*
X14262000Y10827000D02*
Y10928600D01*
X14160400Y10471400D02*
X14363600D01*
Y10674600*
X14160400*
Y10471400*
X14262000Y10573000D02*
Y10674600D01*
X13906400Y10725400D02*
X14109600D01*
Y10928600*
X13906400*
Y10725400*
X14008000Y10827000D02*
Y10928600D01*
X13906400Y10471400D02*
X14109600D01*
Y10674600*
X13906400*
Y10471400*
X14008000Y10573000D02*
Y10674600D01*
X13652400Y10725400D02*
X13855600D01*
Y10928600*
X13652400*
Y10725400*
X13754000Y10827000D02*
Y10928600D01*
X13652400Y10471400D02*
X13855600D01*
Y10674600*
X13652400*
Y10471400*
X13754000Y10573000D02*
Y10674600D01*
X13398400Y10725400D02*
X13601600D01*
Y10928600*
X13398400*
Y10725400*
X13500000Y10827000D02*
Y10928600D01*
X13398400Y10471400D02*
X13601600D01*
Y10674600*
X13398400*
Y10471400*
X13500000Y10573000D02*
Y10674600D01*
X13144400Y10725400D02*
X13347600D01*
Y10928600*
X13144400*
Y10725400*
X13246000Y10827000D02*
Y10928600D01*
X13144400Y10471400D02*
X13347600D01*
Y10674600*
X13144400*
Y10471400*
X13246000Y10573000D02*
Y10674600D01*
X12890400Y10725400D02*
X13093600D01*
Y10928600*
X12890400*
Y10725400*
X12992000Y10827000D02*
Y10928600D01*
X12890400Y10471400D02*
X13093600D01*
Y10674600*
X12890400*
Y10471400*
X12992000Y10573000D02*
Y10674600D01*
X12636400Y10725400D02*
X12839600D01*
Y10928600*
X12636400*
Y10725400*
X12738000Y10827000D02*
Y10928600D01*
X12636400Y10471400D02*
X12839600D01*
Y10674600*
X12636400*
Y10471400*
X12738000Y10573000D02*
Y10674600D01*
X12382400Y10725400D02*
X12585600D01*
Y10928600*
X12382400*
Y10725400*
X12484000Y10827000D02*
Y10928600D01*
X12382400Y10471400D02*
X12585600D01*
Y10674600*
X12382400*
Y10471400*
X12484000Y10573000D02*
Y10674600D01*
X12128400Y10725400D02*
X12331600D01*
Y10928600*
X12128400*
Y10725400*
X12230000Y10827000D02*
Y10928600D01*
X12128400Y10471400D02*
X12331600D01*
Y10674600*
X12128400*
Y10471400*
X12230000Y10573000D02*
Y10674600D01*
X11874400Y10725400D02*
X12077600D01*
Y10928600*
X11874400*
Y10725400*
X11976000Y10827000D02*
Y10928600D01*
X11874400Y10471400D02*
X12077600D01*
Y10674600*
X11874400*
Y10471400*
X11976000Y10573000D02*
Y10674600D01*
X16071400Y14922400D02*
X16274600D01*
Y15125600*
X16071400*
Y14922400*
X16173000Y15024000D02*
Y15125600D01*
X16325400Y14922400D02*
X16528600D01*
Y15125600*
X16325400*
Y14922400*
X16427000Y15024000D02*
Y15125600D01*
X16071400Y14668400D02*
X16274600D01*
Y14871600*
X16071400*
Y14668400*
X16173000Y14770000D02*
Y14871600D01*
X16325400Y14668400D02*
X16528600D01*
Y14871600*
X16325400*
Y14668400*
X16427000Y14770000D02*
Y14871600D01*
X16071400Y14414400D02*
X16274600D01*
Y14617600*
X16071400*
Y14414400*
X16173000Y14516000D02*
Y14617600D01*
X16325400Y14414400D02*
X16528600D01*
Y14617600*
X16325400*
Y14414400*
X16427000Y14516000D02*
Y14617600D01*
X16071400Y14160400D02*
X16274600D01*
Y14363600*
X16071400*
Y14160400*
X16173000Y14262000D02*
Y14363600D01*
X16325400Y14160400D02*
X16528600D01*
Y14363600*
X16325400*
Y14160400*
X16427000Y14262000D02*
Y14363600D01*
X16071400Y13906400D02*
X16274600D01*
Y14109600*
X16071400*
Y13906400*
X16173000Y14008000D02*
Y14109600D01*
X16325400Y13906400D02*
X16528600D01*
Y14109600*
X16325400*
Y13906400*
X16427000Y14008000D02*
Y14109600D01*
X16071400Y13652400D02*
X16274600D01*
Y13855600*
X16071400*
Y13652400*
X16173000Y13754000D02*
Y13855600D01*
X16325400Y13652400D02*
X16528600D01*
Y13855600*
X16325400*
Y13652400*
X16427000Y13754000D02*
Y13855600D01*
X16071400Y13398400D02*
X16274600D01*
Y13601600*
X16071400*
Y13398400*
X16173000Y13500000D02*
Y13601600D01*
X16325400Y13398400D02*
X16528600D01*
Y13601600*
X16325400*
Y13398400*
X16427000Y13500000D02*
Y13601600D01*
X16071400Y13144400D02*
X16274600D01*
Y13347600*
X16071400*
Y13144400*
X16173000Y13246000D02*
Y13347600D01*
X16325400Y13144400D02*
X16528600D01*
Y13347600*
X16325400*
Y13144400*
X16427000Y13246000D02*
Y13347600D01*
X16071400Y12890400D02*
X16274600D01*
Y13093600*
X16071400*
Y12890400*
X16173000Y12992000D02*
Y13093600D01*
X16325400Y12890400D02*
X16528600D01*
Y13093600*
X16325400*
Y12890400*
X16427000Y12992000D02*
Y13093600D01*
X16071400Y12636400D02*
X16274600D01*
Y12839600*
X16071400*
Y12636400*
X16173000Y12738000D02*
Y12839600D01*
X16325400Y12636400D02*
X16528600D01*
Y12839600*
X16325400*
Y12636400*
X16427000Y12738000D02*
Y12839600D01*
X16071400Y12382400D02*
X16274600D01*
Y12585600*
X16071400*
Y12382400*
X16173000Y12484000D02*
Y12585600D01*
X16325400Y12382400D02*
X16528600D01*
Y12585600*
X16325400*
Y12382400*
X16427000Y12484000D02*
Y12585600D01*
X16071400Y12128400D02*
X16274600D01*
Y12331600*
X16071400*
Y12128400*
X16173000Y12230000D02*
Y12331600D01*
X16325400Y12128400D02*
X16528600D01*
Y12331600*
X16325400*
Y12128400*
X16427000Y12230000D02*
Y12331600D01*
X16071400Y11874400D02*
X16274600D01*
Y12077600*
X16071400*
Y11874400*
X16173000Y11976000D02*
Y12077600D01*
X16325400Y11874400D02*
X16528600D01*
Y12077600*
X16325400*
Y11874400*
X16427000Y11976000D02*
Y12077600D01*
X13120000Y13118400D02*
X13221600Y13220000D01*
X13120000Y13321600*
X13018400Y13220000*
X13120000Y13118400*
Y13220000D02*
Y13321600D01*
X12100000Y13398400D02*
X12201600Y13500000D01*
X12100000Y13601600*
X11998400Y13500000*
X12100000Y13398400*
Y13500000D02*
Y13601600D01*
Y13508400D02*
X12201600Y13610000D01*
X12100000Y13711600*
X11998400Y13610000*
X12100000Y13508400*
Y13610000D02*
Y13711600D01*
X12300000Y13398400D02*
X12401600Y13500000D01*
X12300000Y13601600*
X12198400Y13500000*
X12300000Y13398400*
Y13500000D02*
Y13601600D01*
Y13508400D02*
X12401600Y13610000D01*
X12300000Y13711600*
X12198400Y13610000*
X12300000Y13508400*
Y13610000D02*
Y13711600D01*
X12700000Y13388400D02*
X12801600Y13490000D01*
X12700000Y13591600*
X12598400Y13490000*
X12700000Y13388400*
Y13490000D02*
Y13591600D01*
Y13508400D02*
X12801600Y13610000D01*
X12700000Y13711600*
X12598400Y13610000*
X12700000Y13508400*
Y13610000D02*
Y13711600D01*
X12500000Y13398400D02*
X12601600Y13500000D01*
X12500000Y13601600*
X12398400Y13500000*
X12500000Y13398400*
Y13500000D02*
Y13601600D01*
Y13508400D02*
X12601600Y13610000D01*
X12500000Y13711600*
X12398400Y13610000*
X12500000Y13508400*
Y13610000D02*
Y13711600D01*
X13180000Y13328400D02*
X13281600Y13430000D01*
X13180000Y13531600*
X13078400Y13430000*
X13180000Y13328400*
Y13430000D02*
Y13531600D01*
Y13468400D02*
X13281600Y13570000D01*
X13180000Y13671600*
X13078400Y13570000*
X13180000Y13468400*
Y13570000D02*
Y13671600D01*
X13340000Y13328400D02*
X13441600Y13430000D01*
X13340000Y13531600*
X13238400Y13430000*
X13340000Y13328400*
Y13430000D02*
Y13531600D01*
X13480000Y13328400D02*
X13581600Y13430000D01*
X13480000Y13531600*
X13378400Y13430000*
X13480000Y13328400*
Y13430000D02*
Y13531600D01*
Y13468400D02*
X13581600Y13570000D01*
X13480000Y13671600*
X13378400Y13570000*
X13480000Y13468400*
Y13570000D02*
Y13671600D01*
X13340000Y13468400D02*
X13441600Y13570000D01*
X13340000Y13671600*
X13238400Y13570000*
X13340000Y13468400*
Y13570000D02*
Y13671600D01*
X12770000Y13708400D02*
X12871600Y13810000D01*
X12770000Y13911600*
X12668400Y13810000*
X12770000Y13708400*
Y13810000D02*
Y13911600D01*
X13000000Y13528400D02*
X13101600Y13630000D01*
X13000000Y13731600*
X12898400Y13630000*
X13000000Y13528400*
Y13630000D02*
Y13731600D01*
X13460000Y13778400D02*
X13561600Y13880000D01*
X13460000Y13981600*
X13358400Y13880000*
X13460000Y13778400*
Y13880000D02*
Y13981600D01*
X14220000Y13778400D02*
X14321600Y13880000D01*
X14220000Y13981600*
X14118400Y13880000*
X14220000Y13778400*
Y13880000D02*
Y13981600D01*
X14350000Y13638400D02*
X14451600Y13740000D01*
X14350000Y13841600*
X14248400Y13740000*
X14350000Y13638400*
Y13740000D02*
Y13841600D01*
X13900000Y13898400D02*
X14001600Y14000000D01*
X13900000Y14101600*
X13798400Y14000000*
X13900000Y13898400*
Y14000000D02*
Y14101600D01*
X14060000Y13898400D02*
X14161600Y14000000D01*
X14060000Y14101600*
X13958400Y14000000*
X14060000Y13898400*
Y14000000D02*
Y14101600D01*
X14200000Y13898400D02*
X14301600Y14000000D01*
X14200000Y14101600*
X14098400Y14000000*
X14200000Y13898400*
Y14000000D02*
Y14101600D01*
X14350000Y13898400D02*
X14451600Y14000000D01*
X14350000Y14101600*
X14248400Y14000000*
X14350000Y13898400*
Y14000000D02*
Y14101600D01*
X14500000Y13898400D02*
X14601600Y14000000D01*
X14500000Y14101600*
X14398400Y14000000*
X14500000Y13898400*
Y14000000D02*
Y14101600D01*
X13900000Y14038400D02*
X14001600Y14140000D01*
X13900000Y14241600*
X13798400Y14140000*
X13900000Y14038400*
Y14140000D02*
Y14241600D01*
X14050000Y14038400D02*
X14151600Y14140000D01*
X14050000Y14241600*
X13948400Y14140000*
X14050000Y14038400*
Y14140000D02*
Y14241600D01*
X14200000Y14038400D02*
X14301600Y14140000D01*
X14200000Y14241600*
X14098400Y14140000*
X14200000Y14038400*
Y14140000D02*
Y14241600D01*
X14350000Y14038400D02*
X14451600Y14140000D01*
X14350000Y14241600*
X14248400Y14140000*
X14350000Y14038400*
Y14140000D02*
Y14241600D01*
X14500000Y14038400D02*
X14601600Y14140000D01*
X14500000Y14241600*
X14398400Y14140000*
X14500000Y14038400*
Y14140000D02*
Y14241600D01*
X14700000Y14428400D02*
X14801600Y14530000D01*
X14700000Y14631600*
X14598400Y14530000*
X14700000Y14428400*
Y14530000D02*
Y14631600D01*
X10000000Y10000000D02*
X38000000D01*
Y31000000*
X10000000*
Y10000000*
Y8048000D02*
X16096000D01*
X10000000Y7438400D02*
X16096000D01*
X10000000Y6828800D02*
X16096000D01*
X10000000Y6219200D02*
X16096000D01*
X10000000Y5609600D02*
X16096000D01*
X10000000Y5000000D02*
X16096000D01*
X10000000Y8048000D02*
Y5000000D01*
X12133600Y8048000D02*
Y5000000D01*
X13048000Y8048000D02*
Y5000000D01*
X13962400Y8048000D02*
Y5000000D01*
X14876800Y8048000D02*
Y5000000D01*
X16096000Y8048000D02*
Y5000000D01*
X10841663Y7655292D02*
X10822613Y7685057D01*
X10822613D02*
X10794038Y7707382D01*
X10755938Y7752030D02*
X11013113D01*
X10955963Y7796678D02*
Y7588319D01*
X10955963D02*
X10946438Y7580878D01*
X10946438D02*
X10879763Y7595760D01*
X11085850Y7580878D02*
X11123950Y7655292D01*
Y7707382D02*
X11076325Y7729706D01*
X11095375Y7789237D02*
X11133475Y7766913D01*
X11171575D02*
X11343025D01*
X11352550Y7692499D02*
X11162050D01*
X11257300D02*
Y7796678D01*
X11238250Y7692499D02*
X11190625Y7588319D01*
X11162050Y7580878D02*
X11343025Y7603202D01*
X11352550Y7588319D02*
X11304925Y7655292D01*
X12260888Y7677616D02*
X12308513Y7722264D01*
X12308513D02*
X12346613Y7789237D01*
X12308513Y7580878D02*
Y7722264D01*
X12365663Y7588319D02*
Y7766913D01*
X12365663D02*
X12375188Y7774354D01*
X12375188D02*
X12527588D01*
X12527588D02*
X12537113Y7766913D01*
X12537113D02*
Y7588319D01*
X12537113D02*
X12527588Y7580878D01*
X12527588D02*
X12375188D01*
X12375188D02*
X12365663Y7588319D01*
X12403763Y7632967D02*
Y7670175D01*
X12403763D02*
X12413288Y7677616D01*
X12413288D02*
X12489488D01*
X12489488D02*
X12499013Y7670175D01*
X12499013D02*
Y7632967D01*
X12499013D02*
X12489488Y7625526D01*
X12489488D02*
X12413288D01*
X12413288D02*
X12403763Y7632967D01*
Y7722264D02*
X12499013D01*
X12451388Y7752030D02*
Y7677616D01*
X12600325Y7662733D02*
X12733675D01*
X12714625D02*
X12695575Y7625526D01*
X12695575D02*
X12667000Y7603202D01*
X12609850Y7580878*
X12714625D02*
X12667000Y7610643D01*
X12667000D02*
X12619375Y7625526D01*
X12619375D02*
Y7632967D01*
X12619375D02*
X12647950Y7655292D01*
X12667000Y7685057*
Y7692499D02*
Y7796678D01*
X12609850D02*
X12628900Y7766913D01*
X12695575D02*
X12714625Y7796678D01*
X12733675Y7752030D02*
X12609850D01*
X12600325Y7699940D02*
X12638425Y7722264D01*
X12638425D02*
X12667000Y7752030D01*
X12667000D02*
X12724150Y7714823D01*
X12743200D02*
X12762250Y7759471D01*
X12762250D02*
Y7796678D01*
Y7759471D02*
X12886075D01*
X12867025D02*
X12847975Y7692499D01*
X12800350Y7618085*
X12752725Y7580878*
X12876550D02*
X12838450Y7618085D01*
X12790825Y7692499*
X12771775Y7759471*
X13184813Y7588319D02*
Y7632967D01*
X13184813D02*
X13194338Y7640409D01*
X13194338D02*
X13261013D01*
X13261013D02*
X13270538Y7632967D01*
X13270538D02*
Y7588319D01*
X13270538D02*
X13261013Y7580878D01*
X13261013D02*
X13194338D01*
X13194338D02*
X13184813Y7588319D01*
Y7677616D02*
X13270538D01*
Y7714823D02*
X13184813D01*
X13175288Y7752030D02*
X13280063D01*
X13261013Y7789237D02*
X13194338D01*
X13318163D02*
X13432463D01*
X13432463D02*
X13441988Y7781796D01*
X13441988D02*
Y7707382D01*
X13441988D02*
X13432463Y7699940D01*
X13432463D02*
X13337213D01*
X13337213D02*
X13327688Y7692499D01*
X13327688D02*
Y7588319D01*
X13327688D02*
X13337213Y7580878D01*
X13337213D02*
X13441988D01*
X13441988D02*
X13451513Y7588319D01*
X13451513D02*
Y7632967D01*
X13524250Y7692499D02*
X13790950D01*
X13600450D02*
X13581400Y7655292D01*
X13590925Y7647850*
X13590925D02*
X13743325D01*
X13743325D02*
X13752850Y7640409D01*
X13743325Y7588319*
X13743325D02*
X13733800Y7580878D01*
X13657600Y7588319*
X13571875Y7737147D02*
Y7781796D01*
X13581400Y7789237*
X13581400D02*
X13743325D01*
X13743325D02*
X13752850Y7781796D01*
Y7737147*
X13752850D02*
X13743325Y7729706D01*
X13581400*
X13571875Y7737147*
X14107872Y7790825D02*
Y7590800D01*
Y7790825D02*
X14170218D01*
X14191000Y7781300*
X14197927Y7771775*
X14204854Y7752725*
X14204854D02*
Y7724150D01*
X14204854D02*
X14197927Y7705100D01*
X14191000Y7695575*
X14170218Y7686050*
X14107872*
X14267200Y7790825D02*
Y7590800D01*
X14350327*
X14461163Y7790825D02*
Y7590800D01*
X14412672Y7790825D02*
X14509654D01*
X14572000D02*
Y7590800D01*
Y7790825D02*
X14620490D01*
X14620490D02*
X14641272Y7781300D01*
X14641272D02*
X14655127Y7762250D01*
X14662054Y7743200*
X14662054D02*
X14668981Y7714625D01*
X14668981D02*
Y7667000D01*
X14668981D02*
X14662054Y7638425D01*
X14662054D02*
X14655127Y7619375D01*
X14641272Y7600325*
X14641272D02*
X14620490Y7590800D01*
X14620490D02*
X14572000D01*
X15295900Y7790825D02*
Y7590800D01*
X15247409Y7790825D02*
X15344390D01*
X15448300D02*
X15434445Y7781300D01*
X15434445D02*
X15420590Y7762250D01*
X15420590D02*
X15413663Y7743200D01*
X15413663D02*
X15406736Y7714625D01*
Y7667000*
X15413663Y7638425*
X15413663D02*
X15420590Y7619375D01*
X15420590D02*
X15434445Y7600325D01*
X15434445D02*
X15448300Y7590800D01*
X15476009*
X15489863Y7600325*
X15489863D02*
X15503718Y7619375D01*
X15510645Y7638425*
X15510645D02*
X15517572Y7667000D01*
X15517572D02*
Y7714625D01*
X15517572D02*
X15510645Y7743200D01*
X15510645D02*
X15503718Y7762250D01*
X15489863Y7781300*
X15489863D02*
X15476009Y7790825D01*
X15448300*
X15579918D02*
Y7590800D01*
X15663045*
X10152400Y7143125D02*
X10166254Y7152650D01*
X10166254D02*
X10187036Y7181225D01*
Y6981200*
X12462645Y7143125D02*
X12476500Y7152650D01*
X12497281Y7181225*
X12497281D02*
Y6981200D01*
X12656609Y7181225D02*
X12587336Y6981200D01*
X12559627Y7181225D02*
X12656609D01*
X13352800Y7133600D02*
X13657600D01*
X13505200Y6981200D02*
Y7286000D01*
X14177145Y7181225D02*
X14232563Y7085975D01*
X14232563D02*
Y6981200D01*
X14287981Y7181225D02*
X14232563Y7085975D01*
X14350327Y7181225D02*
Y6981200D01*
Y7181225D02*
X14440381D01*
X14350327Y7085975D02*
X14405745D01*
X14350327Y6981200D02*
X14440381D01*
X14599709Y7152650D02*
X14585854Y7171700D01*
X14585854D02*
X14565072Y7181225D01*
X14565072D02*
X14537363D01*
X14537363D02*
X14516581Y7171700D01*
X14516581D02*
X14502727Y7152650D01*
Y7133600*
X14509654Y7114550*
X14509654D02*
X14516581Y7105025D01*
X14516581D02*
X14530436Y7095500D01*
X14572000Y7076450*
X14585854Y7066925*
X14585854D02*
X14592781Y7057400D01*
X14592781D02*
X14599709Y7038350D01*
Y7009775*
X14585854Y6990725*
X14585854D02*
X14565072Y6981200D01*
X14565072D02*
X14537363D01*
X14537363D02*
X14516581Y6990725D01*
X14516581D02*
X14502727Y7009775D01*
X15070763Y7152650D02*
Y6981200D01*
X15008418Y7066925D02*
X15133109D01*
X15320145Y7219325D02*
X15195454Y6914525D01*
X15382490Y7066925D02*
X15507181D01*
X15611090Y7181225D02*
X15590309Y7171700D01*
X15576454Y7143125*
X15576454D02*
X15569527Y7095500D01*
Y7066925*
X15576454Y7019300*
X15576454D02*
X15590309Y6990725D01*
X15611090Y6981200*
X15611090D02*
X15624945D01*
X15624945D02*
X15645727Y6990725D01*
X15659581Y7019300*
X15659581D02*
X15666509Y7066925D01*
Y7095500*
X15659581Y7143125*
X15659581D02*
X15645727Y7171700D01*
X15624945Y7181225*
X15624945D02*
X15611090D01*
X15735781Y7000250D02*
X15728854Y6990725D01*
X15728854D02*
X15735781Y6981200D01*
X15735781D02*
X15742709Y6990725D01*
X15735781Y7000250*
X15846618Y7181225D02*
X15825836Y7171700D01*
X15811981Y7143125*
X15811981D02*
X15805054Y7095500D01*
X15805054D02*
Y7066925D01*
X15805054D02*
X15811981Y7019300D01*
X15811981D02*
X15825836Y6990725D01*
X15846618Y6981200*
X15860472*
X15860472D02*
X15881254Y6990725D01*
X15881254D02*
X15895109Y7019300D01*
X15902036Y7066925*
Y7095500*
X15895109Y7143125*
X15881254Y7171700*
X15881254D02*
X15860472Y7181225D01*
X15860472D02*
X15846618D01*
X10166254Y6571625D02*
X10242454D01*
X10242454D02*
X10200890Y6495425D01*
X10200890D02*
X10221672D01*
X10221672D02*
X10235527Y6485900D01*
X10242454Y6476375*
X10242454D02*
X10249381Y6447800D01*
X10249381D02*
Y6428750D01*
X10249381D02*
X10242454Y6400175D01*
X10242454D02*
X10228600Y6381125D01*
X10207818Y6371600*
X10187036*
X10166254Y6381125*
X10166254D02*
X10159327Y6390650D01*
X10152400Y6409700*
X10318654Y6390650D02*
X10311727Y6381125D01*
X10318654Y6371600*
X10318654D02*
X10325581Y6381125D01*
X10325581D02*
X10318654Y6390650D01*
X10401781Y6571625D02*
X10477981D01*
X10477981D02*
X10436418Y6495425D01*
X10457200*
X10471054Y6485900*
X10471054D02*
X10477981Y6476375D01*
X10477981D02*
X10484909Y6447800D01*
Y6428750*
X10477981Y6400175*
X10477981D02*
X10464127Y6381125D01*
X10443345Y6371600*
X10422563*
X10422563D02*
X10401781Y6381125D01*
X10401781D02*
X10394854Y6390650D01*
X10394854D02*
X10387927Y6409700D01*
X12576945Y6571625D02*
X12507672Y6438275D01*
X12507672D02*
X12611581D01*
X12576945Y6571625D02*
Y6371600D01*
X13352800D02*
X13657600Y6676400D01*
X13352800D02*
X13657600Y6371600D01*
X14253345Y6571625D02*
Y6371600D01*
Y6571625D02*
X14350327Y6371600D01*
Y6571625D02*
Y6371600D01*
X14454236Y6571625D02*
X14440381Y6562100D01*
X14440381D02*
X14426527Y6543050D01*
X14419600Y6524000*
X14412672Y6495425*
X14412672D02*
Y6447800D01*
X14412672D02*
X14419600Y6419225D01*
X14426527Y6400175*
X14440381Y6381125*
X14440381D02*
X14454236Y6371600D01*
X14481945*
X14481945D02*
X14495800Y6381125D01*
X14509654Y6400175*
X14509654D02*
X14516581Y6419225D01*
X14516581D02*
X14523509Y6447800D01*
Y6495425*
X14516581Y6524000*
X14516581D02*
X14509654Y6543050D01*
X14509654D02*
X14495800Y6562100D01*
X14481945Y6571625*
X14481945D02*
X14454236D01*
X15070763Y6543050D02*
Y6371600D01*
X15008418Y6457325D02*
X15133109D01*
X15320145Y6609725D02*
X15195454Y6304925D01*
X15382490Y6457325D02*
X15507181D01*
X15611090Y6571625D02*
X15590309Y6562100D01*
X15576454Y6533525*
X15576454D02*
X15569527Y6485900D01*
Y6457325*
X15576454Y6409700*
X15576454D02*
X15590309Y6381125D01*
X15611090Y6371600*
X15611090D02*
X15624945D01*
X15624945D02*
X15645727Y6381125D01*
X15659581Y6409700*
X15659581D02*
X15666509Y6457325D01*
Y6485900*
X15659581Y6533525*
X15659581D02*
X15645727Y6562100D01*
X15624945Y6571625*
X15624945D02*
X15611090D01*
X15735781Y6390650D02*
X15728854Y6381125D01*
X15728854D02*
X15735781Y6371600D01*
X15735781D02*
X15742709Y6381125D01*
X15735781Y6390650*
X15846618Y6571625D02*
X15825836Y6562100D01*
X15811981Y6533525*
X15811981D02*
X15805054Y6485900D01*
X15805054D02*
Y6457325D01*
X15805054D02*
X15811981Y6409700D01*
X15811981D02*
X15825836Y6381125D01*
X15846618Y6371600*
X15860472*
X15860472D02*
X15881254Y6381125D01*
X15881254D02*
X15895109Y6409700D01*
X15902036Y6457325*
Y6485900*
X15895109Y6533525*
X15881254Y6562100*
X15881254D02*
X15860472Y6571625D01*
X15860472D02*
X15846618D01*
X10193963Y5962025D02*
X10173181Y5952500D01*
X10173181D02*
X10159327Y5923925D01*
X10152400Y5876300*
Y5847725*
X10159327Y5800100*
X10173181Y5771525*
X10173181D02*
X10193963Y5762000D01*
X10193963D02*
X10207818D01*
X10228600Y5771525*
X10242454Y5800100*
X10242454D02*
X10249381Y5847725D01*
X10249381D02*
Y5876300D01*
X10249381D02*
X10242454Y5923925D01*
X10242454D02*
X10228600Y5952500D01*
X10207818Y5962025*
X10193963*
X10318654Y5781050D02*
X10311727Y5771525D01*
X10318654Y5762000*
X10318654D02*
X10325581Y5771525D01*
X10325581D02*
X10318654Y5781050D01*
X10477981Y5895350D02*
X10471054Y5866775D01*
X10471054D02*
X10457200Y5847725D01*
X10436418Y5838200*
X10429490*
X10429490D02*
X10408709Y5847725D01*
X10394854Y5866775*
X10394854D02*
X10387927Y5895350D01*
Y5904875*
X10394854Y5933450*
X10394854D02*
X10408709Y5952500D01*
X10429490Y5962025*
X10429490D02*
X10436418D01*
X10457200Y5952500*
X10471054Y5933450*
X10471054D02*
X10477981Y5895350D01*
X10477981D02*
Y5847725D01*
X10477981D02*
X10471054Y5800100D01*
X10471054D02*
X10457200Y5771525D01*
X10436418Y5762000*
X10422563*
X10422563D02*
X10401781Y5771525D01*
X10401781D02*
X10394854Y5790575D01*
X12379518Y5923925D02*
X12393372Y5933450D01*
X12393372D02*
X12414154Y5962025D01*
X12414154D02*
Y5762000D01*
X12518063Y5962025D02*
X12497281Y5952500D01*
X12497281D02*
X12483427Y5923925D01*
X12476500Y5876300*
Y5847725*
X12483427Y5800100*
X12497281Y5771525*
X12497281D02*
X12518063Y5762000D01*
X12518063D02*
X12531918D01*
X12552700Y5771525*
X12566554Y5800100*
X12566554D02*
X12573481Y5847725D01*
X12573481D02*
Y5876300D01*
X12573481D02*
X12566554Y5923925D01*
X12566554D02*
X12552700Y5952500D01*
X12531918Y5962025*
X12518063*
X12705100D02*
X12635827Y5828675D01*
X12739736*
X12705100Y5962025D02*
Y5762000D01*
X13352800D02*
X13657600D01*
Y6066800*
X13352800*
Y5762000*
X13505200Y5914400D02*
Y6066800D01*
X14177145Y5962025D02*
X14232563Y5866775D01*
X14232563D02*
Y5762000D01*
X14287981Y5962025D02*
X14232563Y5866775D01*
X14350327Y5962025D02*
Y5762000D01*
Y5962025D02*
X14440381D01*
X14350327Y5866775D02*
X14405745D01*
X14350327Y5762000D02*
X14440381D01*
X14599709Y5933450D02*
X14585854Y5952500D01*
X14585854D02*
X14565072Y5962025D01*
X14565072D02*
X14537363D01*
X14537363D02*
X14516581Y5952500D01*
X14516581D02*
X14502727Y5933450D01*
Y5914400*
X14509654Y5895350*
X14509654D02*
X14516581Y5885825D01*
X14516581D02*
X14530436Y5876300D01*
X14572000Y5857250*
X14585854Y5847725*
X14585854D02*
X14592781Y5838200D01*
X14592781D02*
X14599709Y5819150D01*
Y5790575*
X14585854Y5771525*
X14585854D02*
X14565072Y5762000D01*
X14565072D02*
X14537363D01*
X14537363D02*
X14516581Y5771525D01*
X14516581D02*
X14502727Y5790575D01*
X15070763Y5933450D02*
Y5762000D01*
X15008418Y5847725D02*
X15133109D01*
X15320145Y6000125D02*
X15195454Y5695325D01*
X15382490Y5847725D02*
X15507181D01*
X15611090Y5962025D02*
X15590309Y5952500D01*
X15576454Y5923925*
X15576454D02*
X15569527Y5876300D01*
Y5847725*
X15576454Y5800100*
X15576454D02*
X15590309Y5771525D01*
X15611090Y5762000*
X15611090D02*
X15624945D01*
X15624945D02*
X15645727Y5771525D01*
X15659581Y5800100*
X15659581D02*
X15666509Y5847725D01*
Y5876300*
X15659581Y5923925*
X15659581D02*
X15645727Y5952500D01*
X15624945Y5962025*
X15624945D02*
X15611090D01*
X15735781Y5781050D02*
X15728854Y5771525D01*
X15728854D02*
X15735781Y5762000D01*
X15735781D02*
X15742709Y5771525D01*
X15735781Y5781050*
X15846618Y5962025D02*
X15825836Y5952500D01*
X15811981Y5923925*
X15811981D02*
X15805054Y5876300D01*
X15805054D02*
Y5847725D01*
X15805054D02*
X15811981Y5800100D01*
X15811981D02*
X15825836Y5771525D01*
X15846618Y5762000*
X15860472*
X15860472D02*
X15881254Y5771525D01*
X15881254D02*
X15895109Y5800100D01*
X15902036Y5847725*
Y5876300*
X15895109Y5923925*
X15881254Y5952500*
X15881254D02*
X15860472Y5962025D01*
X15860472D02*
X15846618D01*
X10193963Y5352425D02*
X10173181Y5342900D01*
X10173181D02*
X10159327Y5314325D01*
X10152400Y5266700*
Y5238125*
X10159327Y5190500*
X10173181Y5161925*
X10173181D02*
X10193963Y5152400D01*
X10193963D02*
X10207818D01*
X10228600Y5161925*
X10242454Y5190500*
X10242454D02*
X10249381Y5238125D01*
X10249381D02*
Y5266700D01*
X10249381D02*
X10242454Y5314325D01*
X10242454D02*
X10228600Y5342900D01*
X10207818Y5352425*
X10193963*
X10318654Y5171450D02*
X10311727Y5161925D01*
X10318654Y5152400*
X10318654D02*
X10325581Y5161925D01*
X10325581D02*
X10318654Y5171450D01*
X10401781Y5352425D02*
X10477981D01*
X10477981D02*
X10436418Y5276225D01*
X10457200*
X10471054Y5266700*
X10471054D02*
X10477981Y5257175D01*
X10477981D02*
X10484909Y5228600D01*
Y5209550*
X10477981Y5180975*
X10477981D02*
X10464127Y5161925D01*
X10443345Y5152400*
X10422563*
X10422563D02*
X10401781Y5161925D01*
X10401781D02*
X10394854Y5171450D01*
X10394854D02*
X10387927Y5190500D01*
X12476500Y5352425D02*
X12552700D01*
X12511136Y5276225*
X12531918*
X12545772Y5266700*
X12545772D02*
X12552700Y5257175D01*
X12559627Y5228600*
Y5209550*
X12552700Y5180975*
X12538845Y5161925*
X12538845D02*
X12518063Y5152400D01*
X12518063D02*
X12497281D01*
X12497281D02*
X12476500Y5161925D01*
X12469572Y5171450*
X12469572D02*
X12462645Y5190500D01*
X12621972Y5314325D02*
X12635827Y5323850D01*
X12656609Y5352425*
Y5152400*
X13505200D02*
X13657600Y5304800D01*
X13505200Y5457200*
X13352800Y5304800*
X13505200Y5152400*
Y5304800D02*
Y5457200D01*
X14177145Y5352425D02*
X14232563Y5257175D01*
X14232563D02*
Y5152400D01*
X14287981Y5352425D02*
X14232563Y5257175D01*
X14350327Y5352425D02*
Y5152400D01*
Y5352425D02*
X14440381D01*
X14350327Y5257175D02*
X14405745D01*
X14350327Y5152400D02*
X14440381D01*
X14599709Y5323850D02*
X14585854Y5342900D01*
X14585854D02*
X14565072Y5352425D01*
X14565072D02*
X14537363D01*
X14537363D02*
X14516581Y5342900D01*
X14516581D02*
X14502727Y5323850D01*
Y5304800*
X14509654Y5285750*
X14509654D02*
X14516581Y5276225D01*
X14516581D02*
X14530436Y5266700D01*
X14572000Y5247650*
X14585854Y5238125*
X14585854D02*
X14592781Y5228600D01*
X14592781D02*
X14599709Y5209550D01*
Y5180975*
X14585854Y5161925*
X14585854D02*
X14565072Y5152400D01*
X14565072D02*
X14537363D01*
X14537363D02*
X14516581Y5161925D01*
X14516581D02*
X14502727Y5180975D01*
X15070763Y5323850D02*
Y5152400D01*
X15008418Y5238125D02*
X15133109D01*
X15320145Y5390525D02*
X15195454Y5085725D01*
X15382490Y5238125D02*
X15507181D01*
X15611090Y5352425D02*
X15590309Y5342900D01*
X15576454Y5314325*
X15576454D02*
X15569527Y5266700D01*
Y5238125*
X15576454Y5190500*
X15576454D02*
X15590309Y5161925D01*
X15611090Y5152400*
X15611090D02*
X15624945D01*
X15624945D02*
X15645727Y5161925D01*
X15659581Y5190500*
X15659581D02*
X15666509Y5238125D01*
Y5266700*
X15659581Y5314325*
X15659581D02*
X15645727Y5342900D01*
X15624945Y5352425*
X15624945D02*
X15611090D01*
X15735781Y5171450D02*
X15728854Y5161925D01*
X15728854D02*
X15735781Y5152400D01*
X15735781D02*
X15742709Y5161925D01*
X15735781Y5171450*
X15846618Y5352425D02*
X15825836Y5342900D01*
X15811981Y5314325*
X15811981D02*
X15805054Y5266700D01*
X15805054D02*
Y5238125D01*
X15805054D02*
X15811981Y5190500D01*
X15811981D02*
X15825836Y5161925D01*
X15846618Y5152400*
X15860472*
X15860472D02*
X15881254Y5161925D01*
X15881254D02*
X15895109Y5190500D01*
X15902036Y5238125*
Y5266700*
X15895109Y5314325*
X15881254Y5342900*
X15881254D02*
X15860472Y5352425D01*
X15860472D02*
X15846618D01*
G54D34*
X10000000Y31000000D02*
X10000066D01*
X38000000D02*
X38000066D01*
X0Y0D02*
M02*
