*
*
G04 PADS Layout (Build Number 2004.211.1) generated Gerber (RS-274-X) file*
G04 PC Version=2.1*
*
%IN "BD9E102FJ_104.pcb"*%
*
%MOMM*%
*
%FSLAX35Y35*%
*
*
*
*
G04 PC Standard Apertures*
*
*
G04 Thermal Relief Aperture macro.*
%AMTER*
1,1,$1,0,0*
1,0,$1-$2,0,0*
21,0,$3,$4,0,0,45*
21,0,$3,$4,0,0,135*
%
*
*
G04 Annular Aperture macro.*
%AMANN*
1,1,$1,0,0*
1,0,$2,0,0*
%
*
*
G04 Odd Aperture macro.*
%AMODD*
1,1,$1,0,0*
1,0,$1-0.005,0,0*
%
*
*
G04 PC Custom Aperture Macros*
*
*
*
*
*
*
G04 PC Aperture Table*
*
%ADD016C,1.6*%
%ADD029C,1.9*%
%ADD032C,3.4*%
%ADD033C,2.1*%
*
*
*
*
G04 PC Custom Flashes*
G04 Layer Name BD9E102FJ_104.pcb - flashes*
%LPD*%
*
*
G04 PC Circuitry*
G04 Layer Name BD9E102FJ_104.pcb - circuitry*
%LPD*%
*
G54D16*
G01X10573000Y15024000D03*
X10827000D03*
X10573000Y14770000D03*
X10827000D03*
X10573000Y14516000D03*
X10827000D03*
X10573000Y14262000D03*
X10827000D03*
X10573000Y14008000D03*
X10827000D03*
X10573000Y13754000D03*
X10827000D03*
X10573000Y13500000D03*
X10827000D03*
X10573000Y13246000D03*
X10827000D03*
X10573000Y12992000D03*
X10827000D03*
X10573000Y12738000D03*
X10827000D03*
X10573000Y12484000D03*
X10827000D03*
X10573000Y12230000D03*
X10827000D03*
X10573000Y11976000D03*
X10827000D03*
X15024000Y16427000D03*
Y16173000D03*
X14770000Y16427000D03*
Y16173000D03*
X14516000Y16427000D03*
Y16173000D03*
X14262000Y16427000D03*
Y16173000D03*
X14008000Y16427000D03*
Y16173000D03*
X13754000Y16427000D03*
Y16173000D03*
X13500000Y16427000D03*
Y16173000D03*
X13246000Y16427000D03*
Y16173000D03*
X12992000Y16427000D03*
Y16173000D03*
X12738000Y16427000D03*
Y16173000D03*
X12484000Y16427000D03*
Y16173000D03*
X12230000Y16427000D03*
Y16173000D03*
X11976000Y16427000D03*
Y16173000D03*
X15024000Y10827000D03*
Y10573000D03*
X14770000Y10827000D03*
Y10573000D03*
X14516000Y10827000D03*
Y10573000D03*
X14262000Y10827000D03*
Y10573000D03*
X14008000Y10827000D03*
Y10573000D03*
X13754000Y10827000D03*
Y10573000D03*
X13500000Y10827000D03*
Y10573000D03*
X13246000Y10827000D03*
Y10573000D03*
X12992000Y10827000D03*
Y10573000D03*
X12738000Y10827000D03*
Y10573000D03*
X12484000Y10827000D03*
Y10573000D03*
X12230000Y10827000D03*
Y10573000D03*
X11976000Y10827000D03*
Y10573000D03*
X16173000Y15024000D03*
X16427000D03*
X16173000Y14770000D03*
X16427000D03*
X16173000Y14516000D03*
X16427000D03*
X16173000Y14262000D03*
X16427000D03*
X16173000Y14008000D03*
X16427000D03*
X16173000Y13754000D03*
X16427000D03*
X16173000Y13500000D03*
X16427000D03*
X16173000Y13246000D03*
X16427000D03*
X16173000Y12992000D03*
X16427000D03*
X16173000Y12738000D03*
X16427000D03*
X16173000Y12484000D03*
X16427000D03*
X16173000Y12230000D03*
X16427000D03*
X16173000Y11976000D03*
X16427000D03*
G54D29*
X13100000Y12350000D03*
Y12100000D03*
Y11850000D03*
X11400000Y12927000D03*
Y12673000D03*
X15500000Y14573000D03*
Y14827000D03*
X11400000Y13673000D03*
Y13927000D03*
X15500000Y13573000D03*
Y13827000D03*
G54D32*
X10500000Y10500000D03*
X16500000D03*
X10500000Y16500000D03*
X16500000D03*
G54D33*
X11900000Y12800000D03*
Y13650000D03*
X14900000Y14600000D03*
Y14200000D03*
X13500000Y12100000D03*
X13000000Y13900000D03*
X0Y0D02*
M02*
