*
*
G04 PADS Layout (Build Number 2004.211.1) generated Gerber (RS-274-X) file*
G04 PC Version=2.1*
*
%IN "BD9E102FJ_104.pcb"*%
*
%MOMM*%
*
%FSLAX35Y35*%
*
*
*
*
G04 PC Standard Apertures*
*
*
G04 Thermal Relief Aperture macro.*
%AMTER*
1,1,$1,0,0*
1,0,$1-$2,0,0*
21,0,$3,$4,0,0,45*
21,0,$3,$4,0,0,135*
%
*
*
G04 Annular Aperture macro.*
%AMANN*
1,1,$1,0,0*
1,0,$2,0,0*
%
*
*
G04 Odd Aperture macro.*
%AMODD*
1,1,$1,0,0*
1,0,$1-0.005,0,0*
%
*
*
G04 PC Custom Aperture Macros*
*
*
*
*
*
*
G04 PC Aperture Table*
*
%ADD018C,0.15*%
%ADD019C,0.2*%
%ADD021C,0.1*%
%ADD023C,0.3*%
%ADD024C,0.254*%
*
*
*
*
G04 PC Custom Flashes*
G04 Layer Name BD9E102FJ_104.pcb - flashes*
%LPD*%
*
*
G04 PC Circuitry*
G04 Layer Name BD9E102FJ_104.pcb - circuitry*
%LPD*%
*
G54D18*
G01X13320000Y13098437D02*
Y13028125D01*
X13323409Y13014062*
X13323409D02*
X13330227Y13004687D01*
X13330227D02*
X13340454Y13000000D01*
X13340454D02*
X13347272D01*
X13347272D02*
X13357500Y13004687D01*
X13357500D02*
X13364318Y13014062D01*
X13364318D02*
X13367727Y13028125D01*
Y13098437*
X13398409Y13079687D02*
X13405227Y13084375D01*
X13415454Y13098437*
X13415454D02*
Y13000000D01*
X12955000Y12891136D02*
X12945625Y12887727D01*
X12936250Y12880909*
X12931562Y12874090*
X12931562D02*
Y12860454D01*
X12931562D02*
X12936250Y12853636D01*
X12945625Y12846818*
X12955000Y12843409*
X12969062Y12840000*
X12969062D02*
X12992500D01*
X13006562Y12843409*
X13006562D02*
X13015937Y12846818D01*
X13015937D02*
X13025312Y12853636D01*
X13025312D02*
X13030000Y12860454D01*
X13030000D02*
Y12874090D01*
X13030000D02*
X13025312Y12880909D01*
X13025312D02*
X13015937Y12887727D01*
X13015937D02*
X13006562Y12891136D01*
X12931562Y12955909D02*
X12997187Y12921818D01*
X12997187D02*
Y12972954D01*
X12931562Y12955909D02*
X13030000D01*
X12421136Y14125000D02*
X12417727Y14134375D01*
X12410909Y14143750*
X12404090Y14148437*
X12404090D02*
X12390454D01*
X12390454D02*
X12383636Y14143750D01*
X12376818Y14134375*
X12373409Y14125000*
X12370000Y14110937*
X12370000D02*
Y14087500D01*
X12373409Y14073437*
X12373409D02*
X12376818Y14064062D01*
X12376818D02*
X12383636Y14054687D01*
X12383636D02*
X12390454Y14050000D01*
X12390454D02*
X12404090D01*
X12404090D02*
X12410909Y14054687D01*
X12410909D02*
X12417727Y14064062D01*
X12417727D02*
X12421136Y14073437D01*
X12496136Y14148437D02*
X12462045D01*
X12462045D02*
X12458636Y14106250D01*
X12462045Y14110937*
X12462045D02*
X12472272Y14115625D01*
X12472272D02*
X12482500D01*
X12492727Y14110937*
X12492727D02*
X12499545Y14101562D01*
X12499545D02*
X12502954Y14087500D01*
X12502954D02*
X12499545Y14078125D01*
X12496136Y14064062*
X12496136D02*
X12489318Y14054687D01*
X12489318D02*
X12479090Y14050000D01*
X12479090D02*
X12468863D01*
X12468863D02*
X12458636Y14054687D01*
X12458636D02*
X12455227Y14059375D01*
X12451818Y14068750*
X14465000Y13601136D02*
X14455625Y13597727D01*
X14446250Y13590909*
X14441562Y13584090*
X14441562D02*
Y13570454D01*
X14441562D02*
X14446250Y13563636D01*
X14455625Y13556818*
X14465000Y13553409*
X14479062Y13550000*
X14479062D02*
X14502500D01*
X14516562Y13553409*
X14516562D02*
X14525937Y13556818D01*
X14525937D02*
X14535312Y13563636D01*
X14535312D02*
X14540000Y13570454D01*
X14540000D02*
Y13584090D01*
X14540000D02*
X14535312Y13590909D01*
X14535312D02*
X14525937Y13597727D01*
X14525937D02*
X14516562Y13601136D01*
X14441562Y13648863D02*
X14446250Y13638636D01*
X14455625Y13635227*
X14465000*
X14474375Y13638636*
X14479062Y13645454*
X14479062D02*
X14483750Y13659090D01*
X14483750D02*
X14488437Y13669318D01*
X14488437D02*
X14497812Y13676136D01*
X14497812D02*
X14507187Y13679545D01*
X14507187D02*
X14521250D01*
X14530625Y13676136*
X14535312Y13672727*
X14535312D02*
X14540000Y13662500D01*
Y13648863*
X14540000D02*
X14535312Y13638636D01*
X14535312D02*
X14530625Y13635227D01*
X14521250Y13631818*
X14507187*
X14507187D02*
X14497812Y13635227D01*
X14497812D02*
X14488437Y13642045D01*
X14488437D02*
X14483750Y13652272D01*
X14483750D02*
X14479062Y13665909D01*
X14479062D02*
X14474375Y13672727D01*
X14465000Y13676136*
X14455625*
X14446250Y13672727*
X14441562Y13662500*
X14441562D02*
Y13648863D01*
X13831136Y13934999D02*
X13827727Y13944374D01*
X13827727D02*
X13820909Y13953749D01*
X13820909D02*
X13814090Y13958437D01*
X13814090D02*
X13800454D01*
X13800454D02*
X13793636Y13953749D01*
X13793636D02*
X13786818Y13944374D01*
X13786818D02*
X13783409Y13934999D01*
X13783409D02*
X13780000Y13920937D01*
Y13897499*
X13780000D02*
X13783409Y13883437D01*
X13786818Y13874062*
X13793636Y13864687*
X13800454Y13859999*
X13800454D02*
X13814090D01*
X13814090D02*
X13820909Y13864687D01*
X13827727Y13874062*
X13831136Y13883437*
X13861818Y13958437D02*
Y13859999D01*
Y13958437D02*
X13906136D01*
X13861818Y13911562D02*
X13889090D01*
X13936818Y13958437D02*
Y13859999D01*
Y13958437D02*
X13967500D01*
X13977727Y13953749*
X13977727D02*
X13981136Y13949062D01*
X13984545Y13939687*
Y13930312*
X13981136Y13920937*
X13977727Y13916249*
X13977727D02*
X13967500Y13911562D01*
X13936818D02*
X13967500D01*
X13977727Y13906874*
X13977727D02*
X13981136Y13902187D01*
X13984545Y13892812*
Y13878749*
X13984545D02*
X13981136Y13869374D01*
X13981136D02*
X13977727Y13864687D01*
X13967500Y13859999*
X13967500D02*
X13936818D01*
X13875000Y14730909D02*
X13865625Y14727499D01*
X13865625D02*
X13856250Y14720681D01*
X13856250D02*
X13851562Y14713863D01*
X13851562D02*
Y14700227D01*
X13851562D02*
X13856250Y14693409D01*
X13865625Y14686590*
X13865625D02*
X13875000Y14683181D01*
X13875000D02*
X13889062Y14679772D01*
X13889062D02*
X13912500D01*
X13912500D02*
X13926562Y14683181D01*
X13926562D02*
X13935937Y14686590D01*
X13935937D02*
X13945312Y14693409D01*
X13945312D02*
X13950000Y14700227D01*
Y14713863*
X13950000D02*
X13945312Y14720681D01*
X13945312D02*
X13935937Y14727499D01*
X13935937D02*
X13926562Y14730909D01*
X13870312Y14761590D02*
X13865625Y14768409D01*
X13851562Y14778636*
X13851562D02*
X13950000D01*
X13870312Y14809318D02*
X13865625Y14816136D01*
X13851562Y14826363*
X13851562D02*
X13950000D01*
X12665000Y12892840D02*
X12655625Y12889431D01*
X12655625D02*
X12646250Y12882613D01*
X12646250D02*
X12641562Y12875795D01*
X12641562D02*
Y12862159D01*
X12641562D02*
X12646250Y12855340D01*
X12646250D02*
X12655625Y12848522D01*
X12655625D02*
X12665000Y12845113D01*
X12665000D02*
X12679062Y12841704D01*
X12679062D02*
X12702500D01*
X12702500D02*
X12716562Y12845113D01*
X12716562D02*
X12725937Y12848522D01*
X12725937D02*
X12735312Y12855340D01*
X12735312D02*
X12740000Y12862159D01*
Y12875795*
X12735312Y12882613*
X12735312D02*
X12725937Y12889431D01*
X12725937D02*
X12716562Y12892840D01*
X12641562Y12930340D02*
Y12967840D01*
X12641562D02*
X12679062Y12947386D01*
X12679062D02*
Y12957613D01*
X12679062D02*
X12683750Y12964431D01*
X12683750D02*
X12688437Y12967840D01*
X12688437D02*
X12702500Y12971249D01*
X12702500D02*
X12711875D01*
X12711875D02*
X12725937Y12967840D01*
X12725937D02*
X12735312Y12961022D01*
X12735312D02*
X12740000Y12950795D01*
Y12940568*
X12735312Y12930340*
X12735312D02*
X12730625Y12926931D01*
X12730625D02*
X12721250Y12923522D01*
X13057727Y12634375D02*
X13050909Y12643750D01*
X13040681Y12648437*
X13040681D02*
X13027045D01*
X13027045D02*
X13016818Y12643750D01*
X13010000Y12634375*
Y12625000*
X13013409Y12615625*
X13016818Y12610937*
X13016818D02*
X13023636Y12606250D01*
X13044090Y12596875*
X13044090D02*
X13050909Y12592187D01*
X13050909D02*
X13054318Y12587500D01*
X13057727Y12578125*
Y12564062*
X13057727D02*
X13050909Y12554687D01*
X13050909D02*
X13040681Y12550000D01*
X13040681D02*
X13027045D01*
X13016818Y12554687*
X13016818D02*
X13010000Y12564062D01*
X13088409Y12648437D02*
X13105454Y12550000D01*
X13122500Y12648437D02*
X13105454Y12550000D01*
X13122500Y12648437D02*
X13139545Y12550000D01*
X13156590Y12648437D02*
X13139545Y12550000D01*
X13187272Y12629687D02*
X13194090Y12634375D01*
X13194090D02*
X13204318Y12648437D01*
X13204318D02*
Y12550000D01*
X14441562Y13240000D02*
X14540000D01*
X14441562D02*
Y13270681D01*
X14441562D02*
X14446250Y13280909D01*
X14450937Y13284318*
X14450937D02*
X14460312Y13287727D01*
X14460312D02*
X14469687D01*
X14469687D02*
X14479062Y13284318D01*
X14479062D02*
X14483750Y13280909D01*
X14488437Y13270681*
X14488437D02*
Y13240000D01*
Y13263863D02*
X14540000Y13287727D01*
X14441562Y13325227D02*
Y13362727D01*
X14441562D02*
X14479062Y13342272D01*
X14479062D02*
Y13352500D01*
X14479062D02*
X14483750Y13359318D01*
X14488437Y13362727*
X14488437D02*
X14502500Y13366136D01*
X14511875*
X14525937Y13362727*
X14525937D02*
X14535312Y13355909D01*
X14535312D02*
X14540000Y13345681D01*
X14540000D02*
Y13335454D01*
X14540000D02*
X14535312Y13325227D01*
X14535312D02*
X14530625Y13321818D01*
X14521250Y13318409*
X13680000Y13048437D02*
Y12950000D01*
Y13048437D02*
X13710681D01*
X13710681D02*
X13720909Y13043750D01*
X13724318Y13039062*
X13724318D02*
X13727727Y13029687D01*
X13727727D02*
Y13020312D01*
X13727727D02*
X13724318Y13010937D01*
X13724318D02*
X13720909Y13006250D01*
X13710681Y13001562*
X13710681D02*
X13680000D01*
X13703863D02*
X13727727Y12950000D01*
X13802727Y13048437D02*
X13768636D01*
X13768636D02*
X13765227Y13006250D01*
X13768636Y13010937*
X13768636D02*
X13778863Y13015625D01*
X13778863D02*
X13789090D01*
X13789090D02*
X13799318Y13010937D01*
X13799318D02*
X13806136Y13001562D01*
X13806136D02*
X13809545Y12987500D01*
X13809545D02*
X13806136Y12978125D01*
X13802727Y12964062*
X13802727D02*
X13795909Y12954687D01*
X13795909D02*
X13785681Y12950000D01*
X13785681D02*
X13775454D01*
X13775454D02*
X13765227Y12954687D01*
X13765227D02*
X13761818Y12959375D01*
X13758409Y12968750*
X13680000Y13188437D02*
Y13090000D01*
Y13188437D02*
X13710681D01*
X13710681D02*
X13720909Y13183750D01*
X13724318Y13179062*
X13724318D02*
X13727727Y13169687D01*
X13727727D02*
Y13160312D01*
X13727727D02*
X13724318Y13150937D01*
X13724318D02*
X13720909Y13146250D01*
X13710681Y13141562*
X13710681D02*
X13680000D01*
X13703863D02*
X13727727Y13090000D01*
X13792500Y13188437D02*
X13758409Y13122812D01*
X13758409D02*
X13809545D01*
X13792500Y13188437D02*
Y13090000D01*
X14445000Y14741136D02*
X14435625Y14737727D01*
X14426250Y14730909*
X14421562Y14724090*
X14421562D02*
Y14710454D01*
X14421562D02*
X14426250Y14703636D01*
X14435625Y14696818*
X14445000Y14693409*
X14459062Y14690000*
X14459062D02*
X14482500D01*
X14496562Y14693409*
X14496562D02*
X14505937Y14696818D01*
X14505937D02*
X14515312Y14703636D01*
X14515312D02*
X14520000Y14710454D01*
X14520000D02*
Y14724090D01*
X14520000D02*
X14515312Y14730909D01*
X14515312D02*
X14505937Y14737727D01*
X14505937D02*
X14496562Y14741136D01*
X14435625Y14812727D02*
X14426250Y14809318D01*
X14421562Y14799090*
X14421562D02*
Y14792272D01*
X14421562D02*
X14426250Y14782045D01*
X14440312Y14775227*
X14440312D02*
X14463750Y14771818D01*
X14487187*
X14487187D02*
X14505937Y14775227D01*
X14505937D02*
X14515312Y14782045D01*
X14515312D02*
X14520000Y14792272D01*
X14520000D02*
Y14795681D01*
X14520000D02*
X14515312Y14805909D01*
X14515312D02*
X14505937Y14812727D01*
X14505937D02*
X14491875Y14816136D01*
X14487187*
X14487187D02*
X14473125Y14812727D01*
X14463750Y14805909*
X14459062Y14795681*
X14459062D02*
Y14792272D01*
X14459062D02*
X14463750Y14782045D01*
X14473125Y14775227*
X14487187Y14771818*
X14165000Y14739431D02*
X14155625Y14736022D01*
X14155625D02*
X14146250Y14729204D01*
X14146250D02*
X14141562Y14722386D01*
X14141562D02*
Y14708749D01*
X14141562D02*
X14146250Y14701931D01*
X14146250D02*
X14155625Y14695113D01*
X14155625D02*
X14165000Y14691704D01*
X14165000D02*
X14179062Y14688295D01*
X14179062D02*
X14202500D01*
X14216562Y14691704*
X14216562D02*
X14225937Y14695113D01*
X14225937D02*
X14235312Y14701931D01*
X14235312D02*
X14240000Y14708749D01*
X14240000D02*
Y14722386D01*
X14235312Y14729204*
X14235312D02*
X14225937Y14736022D01*
X14225937D02*
X14216562Y14739431D01*
X14141562Y14817840D02*
X14240000Y14783749D01*
X14141562Y14770113D02*
Y14817840D01*
X11615000Y13161136D02*
X11605625Y13157727D01*
X11596250Y13150909*
X11591562Y13144090*
X11591562D02*
Y13130454D01*
X11591562D02*
X11596250Y13123636D01*
X11605625Y13116818*
X11615000Y13113409*
X11629062Y13110000*
X11629062D02*
X11652500D01*
X11666562Y13113409*
X11666562D02*
X11675937Y13116818D01*
X11675937D02*
X11685312Y13123636D01*
X11685312D02*
X11690000Y13130454D01*
X11690000D02*
Y13144090D01*
X11690000D02*
X11685312Y13150909D01*
X11685312D02*
X11675937Y13157727D01*
X11675937D02*
X11666562Y13161136D01*
X11610312Y13191818D02*
X11605625Y13198636D01*
X11591562Y13208863*
X11591562D02*
X11690000D01*
X12295000Y12892840D02*
X12285625Y12889431D01*
X12285625D02*
X12276250Y12882613D01*
X12276250D02*
X12271562Y12875795D01*
X12271562D02*
Y12862159D01*
X12271562D02*
X12276250Y12855340D01*
X12276250D02*
X12285625Y12848522D01*
X12285625D02*
X12295000Y12845113D01*
X12295000D02*
X12309062Y12841704D01*
X12309062D02*
X12332500D01*
X12332500D02*
X12346562Y12845113D01*
X12346562D02*
X12355937Y12848522D01*
X12355937D02*
X12365312Y12855340D01*
X12365312D02*
X12370000Y12862159D01*
Y12875795*
X12365312Y12882613*
X12365312D02*
X12355937Y12889431D01*
X12355937D02*
X12346562Y12892840D01*
X12295000Y12926931D02*
X12290312D01*
X12290312D02*
X12280937Y12930340D01*
X12280937D02*
X12276250Y12933749D01*
X12276250D02*
X12271562Y12940568D01*
X12271562D02*
Y12954204D01*
X12271562D02*
X12276250Y12961022D01*
X12276250D02*
X12280937Y12964431D01*
X12280937D02*
X12290312Y12967840D01*
X12290312D02*
X12299687D01*
X12299687D02*
X12309062Y12964431D01*
X12309062D02*
X12323125Y12957613D01*
X12323125D02*
X12370000Y12923522D01*
X12370000D02*
Y12971249D01*
X11833863Y12558437D02*
Y12460000D01*
X11810000Y12558437D02*
X11857727D01*
X11888409D02*
Y12460000D01*
Y12558437D02*
X11919090D01*
X11919090D02*
X11929318Y12553750D01*
X11932727Y12549062*
X11932727D02*
X11936136Y12539687D01*
X11936136D02*
Y12525625D01*
X11932727Y12516250*
X11929318Y12511562*
X11929318D02*
X11919090Y12506875D01*
X11919090D02*
X11888409D01*
X11966818Y12539687D02*
X11973636Y12544375D01*
X11983863Y12558437*
X11983863D02*
Y12460000D01*
X11823863Y13978437D02*
Y13880000D01*
X11800000Y13978437D02*
X11847727D01*
X11878409D02*
Y13880000D01*
Y13978437D02*
X11909090D01*
X11909090D02*
X11919318Y13973750D01*
X11922727Y13969062*
X11922727D02*
X11926136Y13959687D01*
X11926136D02*
Y13945625D01*
X11922727Y13936250*
X11919318Y13931562*
X11919318D02*
X11909090Y13926875D01*
X11909090D02*
X11878409D01*
X11960227Y13955000D02*
Y13959687D01*
X11960227D02*
X11963636Y13969062D01*
X11963636D02*
X11967045Y13973750D01*
X11973863Y13978437*
X11973863D02*
X11987500D01*
X11987500D02*
X11994318Y13973750D01*
X11997727Y13969062*
X11997727D02*
X12001136Y13959687D01*
X12001136D02*
Y13950312D01*
X12001136D02*
X11997727Y13940937D01*
X11997727D02*
X11990909Y13926875D01*
X11956818Y13880000*
X12004545*
X14813863Y14918437D02*
Y14820000D01*
X14790000Y14918437D02*
X14837727D01*
X14868409D02*
Y14820000D01*
Y14918437D02*
X14899090D01*
X14899090D02*
X14909318Y14913750D01*
X14912727Y14909062*
X14912727D02*
X14916136Y14899687D01*
X14916136D02*
Y14885625D01*
X14912727Y14876250*
X14909318Y14871562*
X14909318D02*
X14899090Y14866875D01*
X14899090D02*
X14868409D01*
X14987727Y14904375D02*
X14984318Y14913750D01*
X14974090Y14918437*
X14974090D02*
X14967272D01*
X14967272D02*
X14957045Y14913750D01*
X14950227Y14899687*
X14950227D02*
X14946818Y14876250D01*
Y14852812*
X14946818D02*
X14950227Y14834062D01*
X14950227D02*
X14957045Y14824687D01*
X14957045D02*
X14967272Y14820000D01*
X14967272D02*
X14970681D01*
X14970681D02*
X14980909Y14824687D01*
X14980909D02*
X14987727Y14834062D01*
X14987727D02*
X14991136Y14848125D01*
Y14852812*
X14991136D02*
X14987727Y14866875D01*
X14980909Y14876250*
X14970681Y14880937*
X14970681D02*
X14967272D01*
X14967272D02*
X14957045Y14876250D01*
X14950227Y14866875*
X14946818Y14852812*
X14803863Y13988437D02*
Y13890000D01*
X14780000Y13988437D02*
X14827727D01*
X14858409D02*
Y13890000D01*
Y13988437D02*
X14889090D01*
X14889090D02*
X14899318Y13983750D01*
X14902727Y13979062*
X14902727D02*
X14906136Y13969687D01*
X14906136D02*
Y13955625D01*
X14902727Y13946250*
X14899318Y13941562*
X14899318D02*
X14889090Y13936875D01*
X14889090D02*
X14858409D01*
X14984545Y13988437D02*
X14950454Y13890000D01*
X14936818Y13988437D02*
X14984545D01*
X13423863Y12428437D02*
Y12330000D01*
X13400000Y12428437D02*
X13447727D01*
X13478409D02*
Y12330000D01*
Y12428437D02*
X13509090D01*
X13509090D02*
X13519318Y12423750D01*
X13522727Y12419062*
X13522727D02*
X13526136Y12409687D01*
X13526136D02*
Y12395625D01*
X13522727Y12386250*
X13519318Y12381562*
X13519318D02*
X13509090Y12376875D01*
X13509090D02*
X13478409D01*
X13563636Y12428437D02*
X13601136D01*
X13601136D02*
X13580681Y12390937D01*
X13580681D02*
X13590909D01*
X13590909D02*
X13597727Y12386250D01*
X13601136Y12381562*
X13601136D02*
X13604545Y12367500D01*
Y12358125*
X13601136Y12344062*
X13601136D02*
X13594318Y12334687D01*
X13594318D02*
X13584090Y12330000D01*
X13584090D02*
X13573863D01*
X13573863D02*
X13563636Y12334687D01*
X13563636D02*
X13560227Y12339375D01*
X13556818Y12348750*
X13223863Y14068437D02*
Y13970000D01*
X13200000Y14068437D02*
X13247727D01*
X13278409D02*
Y13970000D01*
Y14068437D02*
X13309090D01*
X13309090D02*
X13319318Y14063750D01*
X13322727Y14059062*
X13322727D02*
X13326136Y14049687D01*
X13326136D02*
Y14035625D01*
X13322727Y14026250*
X13319318Y14021562*
X13319318D02*
X13309090Y14016875D01*
X13309090D02*
X13278409D01*
X13390909Y14068437D02*
X13356818Y14002812D01*
X13356818D02*
X13407954D01*
X13390909Y14068437D02*
Y13970000D01*
X12298409Y13958437D02*
Y13860000D01*
Y13958437D02*
X12329090D01*
X12329090D02*
X12339318Y13953750D01*
X12342727Y13949062*
X12342727D02*
X12346136Y13939687D01*
X12346136D02*
Y13930312D01*
X12346136D02*
X12342727Y13920937D01*
X12342727D02*
X12339318Y13916250D01*
X12329090Y13911562*
X12329090D02*
X12298409D01*
X12322272D02*
X12346136Y13860000D01*
X12376818Y13958437D02*
Y13860000D01*
Y13958437D02*
X12407499D01*
X12407499D02*
X12417727Y13953750D01*
X12421136Y13949062*
X12421136D02*
X12424545Y13939687D01*
X12424545D02*
Y13930312D01*
X12424545D02*
X12421136Y13920937D01*
X12421136D02*
X12417727Y13916250D01*
X12407499Y13911562*
X12376818D02*
X12407499D01*
X12407499D02*
X12417727Y13906875D01*
X12421136Y13902187*
X12421136D02*
X12424545Y13892812D01*
X12424545D02*
Y13878750D01*
X12421136Y13869375*
X12417727Y13864687*
X12417727D02*
X12407499Y13860000D01*
X12407499D02*
X12376818D01*
X12479090Y13958437D02*
Y13860000D01*
X12455227Y13958437D02*
X12502954D01*
X14151562Y13210000D02*
X14250000D01*
X14151562D02*
Y13240681D01*
X14151562D02*
X14156250Y13250909D01*
X14160937Y13254318*
X14160937D02*
X14170312Y13257727D01*
X14170312D02*
X14179687D01*
X14179687D02*
X14189062Y13254318D01*
X14189062D02*
X14193750Y13250909D01*
X14198437Y13240681*
X14198437D02*
Y13210000D01*
Y13233863D02*
X14250000Y13257727D01*
X14175000Y13291818D02*
X14170312D01*
X14170312D02*
X14160937Y13295227D01*
X14160937D02*
X14156250Y13298636D01*
X14151562Y13305454*
X14151562D02*
Y13319090D01*
X14151562D02*
X14156250Y13325909D01*
X14160937Y13329318*
X14160937D02*
X14170312Y13332727D01*
X14170312D02*
X14179687D01*
X14179687D02*
X14189062Y13329318D01*
X14189062D02*
X14203125Y13322500D01*
X14250000Y13288409*
Y13336136*
X14101562Y13893863D02*
X14200000D01*
X14101562Y13870000D02*
Y13917727D01*
Y13948409D02*
X14200000D01*
X14101562D02*
Y13979090D01*
X14101562D02*
X14106250Y13989318D01*
X14110937Y13992727*
X14110937D02*
X14120312Y13996136D01*
X14120312D02*
X14134375D01*
X14143750Y13992727*
X14148437Y13989318*
X14148437D02*
X14153125Y13979090D01*
X14153125D02*
Y13948409D01*
X14101562Y14071136D02*
Y14037045D01*
X14101562D02*
X14143750Y14033636D01*
X14139062Y14037045*
X14139062D02*
X14134375Y14047272D01*
X14134375D02*
Y14057500D01*
X14139062Y14067727*
X14139062D02*
X14148437Y14074545D01*
X14148437D02*
X14162500Y14077954D01*
X14162500D02*
X14171875Y14074545D01*
X14185937Y14071136*
X14185937D02*
X14195312Y14064318D01*
X14195312D02*
X14200000Y14054090D01*
X14200000D02*
Y14043863D01*
X14200000D02*
X14195312Y14033636D01*
X14195312D02*
X14190625Y14030227D01*
X14181250Y14026818*
X14151562Y12943863D02*
X14250000D01*
X14151562Y12920000D02*
Y12967727D01*
Y12998409D02*
X14250000D01*
X14151562D02*
Y13029090D01*
X14151562D02*
X14156250Y13039318D01*
X14160937Y13042727*
X14160937D02*
X14170312Y13046136D01*
X14170312D02*
X14184375D01*
X14193750Y13042727*
X14198437Y13039318*
X14198437D02*
X14203125Y13029090D01*
X14203125D02*
Y12998409D01*
X14151562Y13093863D02*
X14156250Y13083636D01*
X14165625Y13080227*
X14175000*
X14184375Y13083636*
X14189062Y13090454*
X14189062D02*
X14193750Y13104090D01*
X14193750D02*
X14198437Y13114318D01*
X14198437D02*
X14207812Y13121136D01*
X14207812D02*
X14217187Y13124545D01*
X14217187D02*
X14231250D01*
X14240625Y13121136*
X14245312Y13117727*
X14245312D02*
X14250000Y13107500D01*
Y13093863*
X14250000D02*
X14245312Y13083636D01*
X14245312D02*
X14240625Y13080227D01*
X14231250Y13076818*
X14217187*
X14217187D02*
X14207812Y13080227D01*
X14207812D02*
X14198437Y13087045D01*
X14198437D02*
X14193750Y13097272D01*
X14193750D02*
X14189062Y13110909D01*
X14189062D02*
X14184375Y13117727D01*
X14175000Y13121136*
X14165625*
X14156250Y13117727*
X14151562Y13107500*
X14151562D02*
Y13093863D01*
X13120000Y15178437D02*
Y15080000D01*
X13160909*
X13191590Y15159687D02*
X13198409Y15164375D01*
X13208636Y15178437*
X13208636D02*
Y15080000D01*
X14297500Y11782500D02*
X16792500D01*
Y11337500*
X14297500*
Y11782500*
Y11769466D02*
X16792500D01*
X14297500Y11755966D02*
X16792500D01*
X14297500Y11742466D02*
X16792500D01*
X14297500Y11728966D02*
X16792500D01*
X14297500Y11715466D02*
X16792500D01*
X14297500Y11701966D02*
X16792500D01*
X14297500Y11688466D02*
X16792500D01*
X14297500Y11674966D02*
X16792500D01*
X14297500Y11661466D02*
X16792500D01*
X14297500Y11647966D02*
X16792500D01*
X14297500Y11634466D02*
X16792500D01*
X14297500Y11620966D02*
X16792500D01*
X14297500Y11607466D02*
X16792500D01*
X14297500Y11593966D02*
X16792500D01*
X14297500Y11580466D02*
X16792500D01*
X14297500Y11566966D02*
X16792500D01*
X14297500Y11553466D02*
X16792500D01*
X14297500Y11539966D02*
X16792500D01*
X14297500Y11526466D02*
X16792500D01*
X14297500Y11512966D02*
X16792500D01*
X14297500Y11499466D02*
X16792500D01*
X14297500Y11485966D02*
X16792500D01*
X14297500Y11472466D02*
X16792500D01*
X14297500Y11458966D02*
X16792500D01*
X14297500Y11445466D02*
X16792500D01*
X14297500Y11431966D02*
X16792500D01*
X14297500Y11418466D02*
X16792500D01*
X14297500Y11404966D02*
X16792500D01*
X14297500Y11391466D02*
X16792500D01*
X14297500Y11377966D02*
X16792500D01*
X14297500Y11364466D02*
X16792500D01*
X14297500Y11350966D02*
X16792500D01*
G54D19*
X13146000Y13347000D02*
Y13480875D01*
X13177750*
Y13519125*
X13146000*
Y13653000*
X13654000*
Y13347000*
X13146000*
X13060000Y13030000D02*
X12940000D01*
Y13270000*
X13060000*
Y13030000*
X12580000Y14040000D02*
Y14160000D01*
X12820000*
Y14040000*
X12580000*
X14290000Y13720000D02*
X14410000D01*
Y13480000*
X14290000*
Y13720000*
X14020000Y13840000D02*
Y13720000D01*
X13780000*
Y13840000*
X14020000*
X14410000Y13180000D02*
X14290000D01*
Y13420000*
X14410000*
Y13180000*
X14020000Y13440000D02*
Y13320000D01*
X13780000*
Y13440000*
X14020000*
X13780000Y13520000D02*
Y13640000D01*
X14020000*
Y13520000*
X13780000*
X11525000Y13050000D02*
Y12550000D01*
X11275000*
Y13050000*
X11525000*
X15375000Y14450000D02*
Y14950000D01*
X15625000*
Y14450000*
X15375000*
X12070000Y12800000D02*
G75*
G03X12070000I-170000D01*
G01Y13650000D02*
G03X12070000I-170000D01*
G01X15070000Y14600000D02*
G03X15070000I-170000D01*
G01Y14200000D02*
G03X15070000I-170000D01*
G01X13670000Y12100000D02*
G03X13670000I-170000D01*
G01X13170000Y13900000D02*
G03X13170000I-170000D01*
G01X11275000Y13550000D02*
Y14050000D01*
X11525000*
Y13550000*
X11275000*
X15375000Y13450000D02*
Y13950000D01*
X15625000*
Y13450000*
X15375000*
X12820000Y13960000D02*
Y13840000D01*
X12580000*
Y13960000*
X12820000*
X14210000Y13480000D02*
X14090000D01*
Y13720000*
X14210000*
Y13480000*
X14543895Y12137684D02*
G03X14540466Y12115057I68843J-22006D01*
G01X14572218Y12165391D02*
G03X14543895Y12137684I14031J-42672D01*
G01X14606846Y12173192D02*
G03X14572218Y12165391I7040J-112006D01*
G01X14662287Y12173189D02*
G03X14606846Y12173192I-27735J-289833D01*
G01X14698132Y12165393D02*
G03X14662287Y12173189I-42483J-109027D01*
G01X14726481Y12137605D02*
G03X14698132Y12165393I-43037J-15551D01*
G01X14729883Y12115106D02*
G03X14726481Y12137605I-67606J1284D01*
G01X14729883Y12115106D02*
Y12042651D01*
X14726443Y12022048D02*
G03X14729883Y12042652I-70644J22384D01*
G01X14698159Y11994385D02*
G03X14726443Y12022048I-13690J42289D01*
G01X14662394Y11986583D02*
G03X14698159Y11994385I-5644J111754D01*
G01X14606832Y11986573D02*
G03X14662394Y11986583I27719J344666D01*
G01X14572174Y11994388D02*
G03X14606832Y11986573I44236J115420D01*
G01X14543872Y12022147D02*
G03X14572174Y11994388I42743J15270D01*
G01X14540466Y12042582D02*
G03X14543872Y12022147I67445J741D01*
G01X14540466Y12042582D02*
Y12048217D01*
X14540466D02*
X14577649D01*
X14577649D02*
Y12042365D01*
Y12042366D02*
G03X14580621Y12022378I87561J2803D01*
G01X14580621D02*
G03X14596418Y12001518I35783J10687D01*
G01X14596418D02*
G03X14617305Y11994634I26600J45575D01*
X14653468Y11994628I18103J146611*
G01X14653468D02*
G03X14680156Y12005929I-4926J48799D01*
G01X14680156D02*
G03X14691193Y12024993I-26394J28008D01*
G01X14691193D02*
G03X14692700Y12042558I-96151J17095D01*
G01X14692700D02*
Y12115199D01*
G03X14691199Y12132457I-99983J0*
G01X14691199D02*
G03X14676525Y12155843I-36034J-6314D01*
X14653162Y12163744I-27677J-43350*
X14618560Y12163737I-17267J-164074*
G01X14618560D02*
G03X14594923Y12155524I5250J-53231D01*
G01X14594923D02*
G03X14579822Y12132971I21708J-30867D01*
X14577649Y12115214I106138J-21995*
G01X14577649D02*
Y12105335D01*
X14577649D02*
X14540466D01*
X14540466D02*
Y12115057D01*
Y12105014D02*
X14577649D01*
X14577649D02*
Y12052531D01*
X14577649D02*
X14540466D01*
X14540466D02*
Y12105014D01*
X14789925Y12170037D02*
X14828482D01*
Y12090205*
X14950621*
X14950621D02*
X14950622Y12170037D01*
X14989164*
Y11990886*
X14989164D02*
X14950622D01*
X14950622D02*
Y12075782D01*
X14828482*
Y11990886*
X14828482D02*
X14789925D01*
X14789925D02*
Y12170037D01*
X14311361Y11990887D02*
Y12170978D01*
X14411529Y12174170D02*
G03X14311361Y12170978I-15741J-1079277D01*
G01X14459061Y12169886D02*
G03X14411529Y12174170I-43782J-219927D01*
G01X14486733Y12153822D02*
G03X14459061Y12169886I-36832J-31581D01*
G01X14491740Y12141762D02*
G03X14486733Y12153822I-44889J-11568D01*
G01X14490413Y12091494D02*
G03X14491740Y12141762I-112660J28126D01*
G01X14474536Y12075450D02*
G03X14490413Y12091494I-9279J25062D01*
G01X14430060Y12065652D02*
G03X14474536Y12075451I-10341J152782D01*
G01X14430060Y12065652D02*
X14493511Y11991013D01*
X14493511D02*
X14451218D01*
X14396863Y12056675*
X14393103Y12066151D02*
G03X14396863Y12056675I13249J-225D01*
G01X14393103Y12066151D02*
Y12074829D01*
X14403575Y12074808*
X14403575D02*
G03X14430070Y12077804I227J116661D01*
X14456798Y12101915I-5249J32689*
X14456623Y12139672I-70808J18551*
G01X14456623D02*
G03X14439314Y12159013I-31622J-10884D01*
G01X14439314D02*
G03X14420706Y12164310I-20732J-37494D01*
G01X14420706D02*
G03X14364636Y12163385I-24499J-214515D01*
X14349571Y12143644I4069J-18723*
G01X14349571D02*
Y11990887D01*
X14349571D02*
X14311361D01*
X15055226Y12170500D02*
X15141649Y12174134D01*
X15222397Y12172942D02*
G03X15141649Y12174134I-52546J-824022D01*
G01X15258519Y12164243D02*
G03X15222397Y12172942I-45417J-109252D01*
G01X15280184Y12136561D02*
G03X15258519Y12164243I-37234J-6821D01*
G01X15281352Y12118676D02*
G03X15280184Y12136561I-111033J1730D01*
G01X15281352Y12118676D02*
Y11990879D01*
X15281352D02*
X15245654D01*
X15245654D02*
Y12130485D01*
G03X15216161Y12161605I-29364J1706*
G01X15216161D02*
X15201768Y12161923D01*
G03X15185322Y12146519I-1008J-15403*
G01X15185322D02*
Y11990879D01*
X15185322D02*
X15149609D01*
X15149609D02*
Y12146450D01*
X15149609D02*
G03X15134156Y12162020I-15387J181D01*
G01X15134156D02*
X15106284Y12161521D01*
X15106284D02*
G03X15090940Y12145451I280J-15626D01*
G01X15090940D02*
Y11990879D01*
X15090940D02*
X15055226D01*
X15055226D02*
Y12170500D01*
X14692700Y12111427D02*
X14729883D01*
X14692700Y12093427D02*
X14729883D01*
X14692700Y12075427D02*
X14729883D01*
X14692700Y12057427D02*
X14729883D01*
X14692665Y12039427D02*
X14729735D01*
X14691682Y12129427D02*
X14728627D01*
X14690157Y12021427D02*
X14726221D01*
X14684920Y12147427D02*
X14721526D01*
X14676923Y12003427D02*
X14713971D01*
X14572307Y12165427D02*
X14698045D01*
X14556536Y12003427D02*
X14593684D01*
X14548735Y12147427D02*
X14586538D01*
X14544137Y12021427D02*
X14580919D01*
X14541783Y12129427D02*
X14579148D01*
X14540575Y12039427D02*
X14577793D01*
X14540466Y12111427D02*
X14577649D01*
X14540466Y12088498D02*
X14577649D01*
X14540466Y12070498D02*
X14577649D01*
X14950622Y12152853D02*
X14989164D01*
X14950622Y12134853D02*
X14989164D01*
X14950621Y12116853D02*
X14989164D01*
X14950621Y12098853D02*
X14989164D01*
X14789925Y12080853D02*
X14989164D01*
X14950622Y12062853D02*
X14989164D01*
X14950622Y12044853D02*
X14989164D01*
X14950622Y12026853D02*
X14989164D01*
X14950622Y12008853D02*
X14989164D01*
X14789925Y12152853D02*
X14828482D01*
X14789925Y12134853D02*
X14828482D01*
X14789925Y12116853D02*
X14828482D01*
X14789925Y12098853D02*
X14828482D01*
X14789925Y12062853D02*
X14828482D01*
X14789925Y12044853D02*
X14828482D01*
X14789925Y12026853D02*
X14828482D01*
X14789925Y12008853D02*
X14828482D01*
X14459098Y12116854D02*
X14493838D01*
X14457760Y12134854D02*
X14492867D01*
X14455815Y12098854D02*
X14491999D01*
X14448223Y12152854D02*
X14487291D01*
X14439573Y12080854D02*
X14483360D01*
X14436449Y12008854D02*
X14478345D01*
X14421549Y12026854D02*
X14463043D01*
X14311361Y12170854D02*
X14453884D01*
X14406649Y12044854D02*
X14447741D01*
X14393461Y12062854D02*
X14432439D01*
X14311361Y12152854D02*
X14351384D01*
X14311361Y12134854D02*
X14349571D01*
X14311361Y12116854D02*
X14349571D01*
X14311361Y12098854D02*
X14349571D01*
X14311361Y12080854D02*
X14349571D01*
X14311361Y12062854D02*
X14349571D01*
X14311361Y12044854D02*
X14349571D01*
X14311361Y12026854D02*
X14349571D01*
X14311361Y12008854D02*
X14349571D01*
X15245654Y12116846D02*
X15281352D01*
X15245654Y12098846D02*
X15281352D01*
X15245654Y12080846D02*
X15281352D01*
X15245654Y12062846D02*
X15281352D01*
X15245654Y12044846D02*
X15281352D01*
X15245654Y12026846D02*
X15281352D01*
X15245654Y12008846D02*
X15281352D01*
X15245583Y12134846D02*
X15280423D01*
X15237232Y12152846D02*
X15272934D01*
X15063440Y12170846D02*
X15237113D01*
X15148299Y12152846D02*
X15186678D01*
X15149609Y12134846D02*
X15185322D01*
X15149609Y12116846D02*
X15185322D01*
X15149609Y12098846D02*
X15185322D01*
X15149609Y12080846D02*
X15185322D01*
X15149609Y12062846D02*
X15185322D01*
X15149609Y12044846D02*
X15185322D01*
X15149609Y12026846D02*
X15185322D01*
X15149609Y12008846D02*
X15185322D01*
X15055226Y12152846D02*
X15092565D01*
X15055226Y12134846D02*
X15090940D01*
X15055226Y12116846D02*
X15090940D01*
X15055226Y12098846D02*
X15090940D01*
X15055226Y12080846D02*
X15090940D01*
X15055226Y12062846D02*
X15090940D01*
X15055226Y12044846D02*
X15090940D01*
X15055226Y12026846D02*
X15090940D01*
X15055226Y12008846D02*
X15090940D01*
X14429737Y11908553D02*
X14390244D01*
X14429737Y11933347D02*
X14406947D01*
X14406947D02*
G03X14390170Y11916570I0J-16776D01*
G01X14390170D02*
Y11899942D01*
G03X14406910Y11883202I16740J0*
G01X14429737*
X14470195Y11885837D02*
Y11931120D01*
X14470195D02*
X14479178D01*
X14479178D02*
X14494841Y11885837D01*
X14494841D02*
X14502042D01*
X14502042D02*
X14518374Y11931120D01*
X14518374D02*
X14527727D01*
X14527727D02*
Y11885837D01*
X14570709Y11931417D02*
Y11886208D01*
X14720968Y11933048D02*
G03X14696828I-12069J-41544D01*
G01X14732094Y11921254D02*
G03X14720955Y11933053I-19638J-7381D01*
G01X14732096Y11893558D02*
G03Y11921247I-70565J13844D01*
G01X14720961Y11883016D02*
G03X14732101Y11893570I-6830J18368D01*
G01X14696834Y11883016D02*
G03X14720961I12064J36691D01*
G01X14685922Y11893558D02*
G03X14696842Y11883013I21784J11631D01*
G01X14685910Y11921196D02*
G03X14685934Y11893506I58809J-13793D01*
G01X14696835Y11933050D02*
G03X14685921Y11921244I7709J-18072D01*
G01X14771070Y11885763D02*
Y11930972D01*
X14779755*
X14779755D02*
X14810191Y11885763D01*
X14810191D02*
X14818357D01*
X14818357D02*
Y11930972D01*
X14858667Y11934238D02*
X14886505D01*
X14902233Y11917391D02*
G03X14886493Y11934240I-18988J-1962D01*
G01X14902233Y11900242D02*
G03Y11917391I-37437J8575D01*
G01X14887618Y11883907D02*
G03X14902236Y11900256I-5874J19962D01*
G01X14887619Y11883907D02*
X14858667D01*
Y11934238*
X15058136Y11933422D02*
X15039058D01*
X15039051Y11933421D02*
G03X15021992Y11916890I2806J-19962D01*
G01X15021996Y11916911D02*
G03X15021983Y11902467I43384J-7259D01*
G01X15021991Y11902424D02*
G03X15039058Y11883536I21628J2388D01*
G01X15058136*
X15093250Y11933422D02*
X15135935D01*
X15114184D02*
Y11885837D01*
X15201936Y11934459D02*
G03X15177796I-12069J-41544D01*
G01X15213065Y11922658D02*
G03X15201917Y11934466I-19653J-7387D01*
G01X15213065Y11894968D02*
G03Y11922658I-70569J13845D01*
G01X15201929Y11884427D02*
G03X15213070Y11894980I-6830J18368D01*
G01X15177803Y11884427D02*
G03X15201929I12063J36689D01*
G01X15166891Y11894968D02*
G03X15177810Y11884423I21783J11631D01*
G01X15166879Y11922606D02*
G03X15166903Y11894917I58808J-13792D01*
G01X15177824Y11934470D02*
G03X15166894Y11922666I7666J-18061D01*
G01X15249588Y11885540D02*
Y11933570D01*
X15249588D02*
X15282178D01*
Y11906549D02*
G03Y11933570I0J13510D01*
G01Y11906549D02*
X15249588D01*
X15278095D02*
X15292422Y11885540D01*
X14352013Y11933273D02*
X14318756D01*
X14318756D02*
G03Y11908256I0J-12507D01*
G01X14318756D02*
X14342022D01*
Y11883610D02*
G03Y11908256I0J12323D01*
G01Y11883610D02*
X14307472D01*
X14648359Y11933199D02*
X14629281D01*
G03X14612214Y11916660I2807J-19971*
G01X14612219Y11916689D02*
G03X14612206Y11902243I43389J-7260D01*
G01X14612214Y11902201D02*
G03X14629281Y11883313I21628J2388D01*
G01X14629281D02*
X14648359D01*
X14940400Y11930526D02*
Y11894226D01*
X14940397Y11894237D02*
G03X14952203Y11882348I16283J4363D01*
G01X14952178Y11882356D02*
G03X14973398Y11882337I10641J35244D01*
G01X14973434Y11882348D02*
G03X14984944Y11893938I-6126J17595D01*
G01X14984941Y11893929D02*
Y11930526D01*
X8999999Y31600000D02*
G03X8999999I-199999D01*
G01X8550000D02*
X9050000D01*
X8800000Y31850000D02*
Y31350000D01*
X39799999Y8400000D02*
G03X39799999I-199999D01*
G01X39350000D02*
X39850000D01*
X39600000Y8650000D02*
Y8150000D01*
X40399999Y8400000D02*
G03X40399999I-199999D01*
G01X39950000D02*
X40450000D01*
X40200000Y8650000D02*
Y8150000D01*
G54D21*
X13162071Y13045000D02*
X13257928D01*
X13257928D02*
X13210000Y13092928D01*
X13210000D02*
X13162071Y13045000D01*
X13171037Y13053966D02*
X13248962D01*
X13180037Y13062966D02*
X13239962D01*
X13189037Y13071966D02*
X13230962D01*
X13198037Y13080966D02*
X13221962D01*
X13207037Y13089966D02*
X13212962D01*
X13770000Y13580000D02*
X13715000Y13525000D01*
Y13230000*
X13770000Y13380000D02*
X13715000Y13325000D01*
G54D23*
X13790000Y14575000D02*
Y14225000D01*
X14010000Y14575000D02*
Y14225000D01*
X13795000Y14435000D02*
X14005000D01*
X13795000Y14410000D02*
X14005000D01*
Y14405000*
X13800000Y14385000D02*
X14005000D01*
X13800000Y14365000D02*
X14005000D01*
X12855000Y13005000D02*
Y13395000D01*
X12545000Y13005000D02*
Y13395000D01*
X12845000Y13165000D02*
X12555000D01*
X12845000Y13190000D02*
X12555000D01*
X12595000Y13195000*
X12845000Y13215000D02*
X12555000D01*
X12845000Y13235000D02*
X12555000D01*
X14390000Y14575000D02*
Y14225000D01*
X14610000Y14575000D02*
Y14225000D01*
X14395000Y14435000D02*
X14605000D01*
X14395000Y14410000D02*
X14605000D01*
Y14405000*
X14400000Y14385000D02*
X14605000D01*
X14400000Y14365000D02*
X14605000D01*
X14090000Y14575000D02*
Y14225000D01*
X14310000Y14575000D02*
Y14225000D01*
X14095000Y14435000D02*
X14305000D01*
X14095000Y14410000D02*
X14305000D01*
Y14405000*
X14100000Y14385000D02*
X14305000D01*
X14100000Y14365000D02*
X14305000D01*
X12055000Y13005000D02*
Y13395000D01*
X11745000Y13005000D02*
Y13395000D01*
X12045000Y13165000D02*
X11755000D01*
X12045000Y13190000D02*
X11755000D01*
X11795000Y13195000*
X12045000Y13215000D02*
X11755000D01*
X12045000Y13235000D02*
X11755000D01*
X12455000Y13005000D02*
Y13395000D01*
X12145000Y13005000D02*
Y13395000D01*
X12445000Y13165000D02*
X12155000D01*
X12445000Y13190000D02*
X12155000D01*
X12195000Y13195000*
X12445000Y13215000D02*
X12155000D01*
X12445000Y13235000D02*
X12155000D01*
X12820000Y14220000D02*
Y14980000D01*
X13580000*
Y14220000*
X12820000*
G54D24*
X12975000Y12475000D02*
X13225000D01*
Y11725000*
X12975000*
Y12475000*
X14300000Y11236687D02*
Y11070000D01*
Y11236687D02*
X14375045D01*
X14300000Y11157312D02*
X14346181D01*
X14300000Y11070000D02*
X14375045D01*
X14427000Y11236687D02*
X14473181Y11070000D01*
X14519363Y11236687D02*
X14473181Y11070000D01*
X14571318Y11236687D02*
Y11070000D01*
X14652136Y11236687D02*
X14571318Y11125562D01*
X14600181Y11165250D02*
X14652136Y11070000D01*
X14738727Y11236687D02*
X14721409Y11228750D01*
X14709863Y11204937*
X14709863D02*
X14704090Y11165250D01*
X14704090D02*
Y11141437D01*
X14704090D02*
X14709863Y11101750D01*
X14709863D02*
X14721409Y11077937D01*
X14721409D02*
X14738727Y11070000D01*
X14750272*
X14750272D02*
X14767590Y11077937D01*
X14767590D02*
X14779136Y11101750D01*
X14784909Y11141437*
X14784909D02*
Y11165250D01*
X14779136Y11204937*
X14779136D02*
X14767590Y11228750D01*
X14767590D02*
X14750272Y11236687D01*
X14750272D02*
X14738727D01*
X14871500D02*
X14854181Y11228750D01*
X14854181D02*
X14842636Y11204937D01*
X14842636D02*
X14836863Y11165250D01*
X14836863D02*
Y11141437D01*
X14836863D02*
X14842636Y11101750D01*
X14854181Y11077937*
X14854181D02*
X14871500Y11070000D01*
X14883045*
X14900363Y11077937*
X14900363D02*
X14911909Y11101750D01*
X14917681Y11141437*
X14917681D02*
Y11165250D01*
X14917681D02*
X14911909Y11204937D01*
X14911909D02*
X14900363Y11228750D01*
X14900363D02*
X14883045Y11236687D01*
X14883045D02*
X14871500D01*
X15038909Y11212875D02*
X15033136Y11228750D01*
X15015818Y11236687*
X15015818D02*
X15004272D01*
X15004272D02*
X14986954Y11228750D01*
X14986954D02*
X14975409Y11204937D01*
X14975409D02*
X14969636Y11165250D01*
Y11125562*
X14969636D02*
X14975409Y11093812D01*
X14975409D02*
X14986954Y11077937D01*
X14986954D02*
X15004272Y11070000D01*
X15004272D02*
X15010045D01*
X15027363Y11077937*
X15027363D02*
X15038909Y11093812D01*
X15038909D02*
X15044681Y11117625D01*
X15044681D02*
Y11125562D01*
X15044681D02*
X15038909Y11149375D01*
X15027363Y11165250*
X15027363D02*
X15010045Y11173187D01*
X15010045D02*
X15004272D01*
X15004272D02*
X14986954Y11165250D01*
X14986954D02*
X14975409Y11149375D01*
X14969636Y11125562*
X15229409Y11236687D02*
Y11070000D01*
Y11236687D02*
X15281363D01*
X15281363D02*
X15298681Y11228750D01*
X15298681D02*
X15304454Y11220812D01*
X15304454D02*
X15310227Y11204937D01*
X15310227D02*
Y11189062D01*
X15310227D02*
X15304454Y11173187D01*
X15304454D02*
X15298681Y11165250D01*
X15298681D02*
X15281363Y11157312D01*
X15281363D02*
X15229409D01*
X15269818D02*
X15310227Y11070000D01*
X15362181Y11133500D02*
X15431454D01*
X15431454D02*
Y11149375D01*
X15431454D02*
X15425681Y11165250D01*
X15425681D02*
X15419909Y11173187D01*
X15419909D02*
X15408363Y11181125D01*
X15408363D02*
X15391045D01*
X15379500Y11173187*
X15379500D02*
X15367954Y11157312D01*
X15367954D02*
X15362181Y11133500D01*
X15362181D02*
Y11117625D01*
X15362181D02*
X15367954Y11093812D01*
X15367954D02*
X15379500Y11077937D01*
X15379500D02*
X15391045Y11070000D01*
X15408363*
X15408363D02*
X15419909Y11077937D01*
X15419909D02*
X15431454Y11093812D01*
X15483409Y11181125D02*
X15518045Y11070000D01*
X15552681Y11181125D02*
X15518045Y11070000D01*
X15610409Y11085875D02*
X15604636Y11077937D01*
X15604636D02*
X15610409Y11070000D01*
X15616181Y11077937*
X15616181D02*
X15610409Y11085875D01*
X15714318Y11236687D02*
X15668136Y11070000D01*
X15714318Y11236687D02*
X15760500Y11070000D01*
X15685454Y11125562D02*
X15743181D01*
X12654636Y12356687D02*
X12643090Y12348750D01*
X12643090D02*
X12631545Y12332875D01*
X12625772Y12317000*
X12625772D02*
X12620000Y12293187D01*
X12620000D02*
Y12253500D01*
X12625772Y12229687*
X12625772D02*
X12631545Y12213812D01*
X12631545D02*
X12643090Y12197937D01*
X12643090D02*
X12654636Y12190000D01*
X12677727*
X12689272Y12197937*
X12689272D02*
X12700818Y12213812D01*
X12700818D02*
X12706590Y12229687D01*
X12706590D02*
X12712363Y12253500D01*
X12712363D02*
Y12293187D01*
X12712363D02*
X12706590Y12317000D01*
X12706590D02*
X12700818Y12332875D01*
X12689272Y12348750*
X12689272D02*
X12677727Y12356687D01*
X12677727D02*
X12654636D01*
X12764318D02*
Y12190000D01*
Y12356687D02*
X12845136Y12190000D01*
Y12356687D02*
Y12190000D01*
X12564636Y12046687D02*
X12553090Y12038750D01*
X12553090D02*
X12541545Y12022875D01*
X12535772Y12007000*
X12535772D02*
X12530000Y11983187D01*
X12530000D02*
Y11943500D01*
X12535772Y11919687*
X12535772D02*
X12541545Y11903812D01*
X12541545D02*
X12553090Y11887937D01*
X12553090D02*
X12564636Y11880000D01*
X12587727*
X12599272Y11887937*
X12599272D02*
X12610818Y11903812D01*
X12610818D02*
X12616590Y11919687D01*
X12616590D02*
X12622363Y11943500D01*
X12622363D02*
Y11983187D01*
X12622363D02*
X12616590Y12007000D01*
X12616590D02*
X12610818Y12022875D01*
X12599272Y12038750*
X12599272D02*
X12587727Y12046687D01*
X12587727D02*
X12564636D01*
X12674318D02*
Y11880000D01*
Y12046687D02*
X12749363D01*
X12674318Y11967312D02*
X12720500D01*
X12801318Y12046687D02*
Y11880000D01*
Y12046687D02*
X12876363D01*
X12801318Y11967312D02*
X12847500D01*
X11050000Y12496687D02*
X11096181Y12330000D01*
X11142363Y12496687D02*
X11096181Y12330000D01*
X11194318Y12496687D02*
Y12330000D01*
X11246272Y12496687D02*
Y12330000D01*
Y12496687D02*
X11327090Y12330000D01*
Y12496687D02*
Y12330000D01*
X15520000Y15156687D02*
X15566181Y14990000D01*
X15612363Y15156687D02*
X15566181Y14990000D01*
X15698954Y15156687D02*
X15687409Y15148750D01*
X15675863Y15132875*
X15675863D02*
X15670090Y15117000D01*
X15670090D02*
X15664318Y15093187D01*
X15664318D02*
Y15053500D01*
X15670090Y15029687*
X15670090D02*
X15675863Y15013812D01*
X15675863D02*
X15687409Y14997937D01*
X15687409D02*
X15698954Y14990000D01*
X15698954D02*
X15722045D01*
X15733590Y14997937*
X15733590D02*
X15745136Y15013812D01*
X15745136D02*
X15750909Y15029687D01*
X15750909D02*
X15756681Y15053500D01*
X15756681D02*
Y15093187D01*
X15756681D02*
X15750909Y15117000D01*
X15745136Y15132875*
X15733590Y15148750*
X15733590D02*
X15722045Y15156687D01*
X15722045D02*
X15698954D01*
X15808636D02*
Y15037625D01*
X15814409Y15013812*
X15814409D02*
X15825954Y14997937D01*
X15825954D02*
X15843272Y14990000D01*
X15843272D02*
X15854818D01*
X15872136Y14997937*
X15872136D02*
X15883681Y15013812D01*
X15883681D02*
X15889454Y15037625D01*
X15889454D02*
Y15156687D01*
X15981818D02*
Y14990000D01*
X15941409Y15156687D02*
X16022227D01*
X11151954Y12852875D02*
Y12710000D01*
X11100000Y12781437D02*
X11203909D01*
X11090000Y13791437D02*
X11193909D01*
X15751954Y14782875D02*
Y14640000D01*
X15700000Y14711437D02*
X15803909D01*
X15710000Y13721437D02*
X15813909D01*
X11086590Y14227000D02*
X11080818Y14242875D01*
X11069272Y14258750*
X11069272D02*
X11057727Y14266687D01*
X11057727D02*
X11034636D01*
X11034636D02*
X11023090Y14258750D01*
X11023090D02*
X11011545Y14242875D01*
X11005772Y14227000*
X11005772D02*
X11000000Y14203187D01*
X11000000D02*
Y14163500D01*
X11005772Y14139687*
X11005772D02*
X11011545Y14123812D01*
X11011545D02*
X11023090Y14107937D01*
X11023090D02*
X11034636Y14100000D01*
X11057727*
X11069272Y14107937*
X11069272D02*
X11080818Y14123812D01*
X11080818D02*
X11086590Y14139687D01*
X11086590D02*
Y14163500D01*
X11057727D02*
X11086590D01*
X11138545Y14266687D02*
Y14100000D01*
Y14266687D02*
X11219363Y14100000D01*
Y14266687D02*
Y14100000D01*
X11271318Y14266687D02*
Y14100000D01*
Y14266687D02*
X11311727D01*
X11311727D02*
X11329045Y14258750D01*
X11340590Y14242875*
X11340590D02*
X11346363Y14227000D01*
X11346363D02*
X11352136Y14203187D01*
X11352136D02*
Y14163500D01*
X11346363Y14139687*
X11346363D02*
X11340590Y14123812D01*
X11340590D02*
X11329045Y14107937D01*
X11329045D02*
X11311727Y14100000D01*
X11271318*
X15656590Y13357000D02*
X15650818Y13372875D01*
X15639272Y13388750*
X15639272D02*
X15627727Y13396687D01*
X15627727D02*
X15604636D01*
X15604636D02*
X15593090Y13388750D01*
X15593090D02*
X15581545Y13372875D01*
X15575772Y13357000*
X15575772D02*
X15570000Y13333187D01*
X15570000D02*
Y13293500D01*
X15575772Y13269687*
X15575772D02*
X15581545Y13253812D01*
X15581545D02*
X15593090Y13237937D01*
X15593090D02*
X15604636Y13230000D01*
X15627727*
X15639272Y13237937*
X15639272D02*
X15650818Y13253812D01*
X15650818D02*
X15656590Y13269687D01*
X15656590D02*
Y13293500D01*
X15627727D02*
X15656590D01*
X15708545Y13396687D02*
Y13230000D01*
Y13396687D02*
X15789363Y13230000D01*
Y13396687D02*
Y13230000D01*
X15841318Y13396687D02*
Y13230000D01*
Y13396687D02*
X15881727D01*
X15881727D02*
X15899045Y13388750D01*
X15910590Y13372875*
X15910590D02*
X15916363Y13357000D01*
X15916363D02*
X15922136Y13333187D01*
X15922136D02*
Y13293500D01*
X15916363Y13269687*
X15916363D02*
X15910590Y13253812D01*
X15910590D02*
X15899045Y13237937D01*
X15899045D02*
X15881727Y13230000D01*
X15841318*
G74*
X0Y0D02*
M02*
